<?xml version="1.0" encoding="UTF-8"?>
<svg version="1.1" xmlns="http://www.w3.org/2000/svg" width="512" height="512">
<path d="M0 0 C1.08137741 -0.00101212 1.08137741 -0.00101212 2.18460083 -0.00204468 C12.98961469 0.01404697 23.18228959 0.50807401 33.6875 3.25 C34.37231445 3.42160645 35.05712891 3.59321289 35.76269531 3.77001953 C74.36143923 13.57301419 106.44836256 38.26856737 126.88330078 72.23779297 C136.1594442 87.98388372 141.85067382 105.2252429 144.6875 123.25 C144.85878418 124.33514893 145.03006836 125.42029785 145.20654297 126.53833008 C147.37560661 143.27755575 146.75398466 161.85314038 142.6875 178.25 C142.51589355 178.95334473 142.34428711 179.65668945 142.16748047 180.38134766 C132.45554533 218.94267726 107.58860531 251.05918524 73.69970703 271.44580078 C57.95361628 280.7219442 40.7122571 286.41317382 22.6875 289.25 C21.60758789 289.42128418 20.52767578 289.59256836 19.41503906 289.76904297 C13.23175887 290.56685945 7.03877277 290.4945833 0.8125 290.5 C-0.22961639 290.50101212 -0.22961639 290.50101212 -1.29278564 290.50204468 C-11.93758784 290.48561704 -21.95905055 289.92706014 -32.3125 287.25 C-32.99876465 287.07839355 -33.6850293 286.90678711 -34.39208984 286.72998047 C-72.98863522 276.92531888 -105.07431411 252.22985086 -125.50830078 218.26220703 C-134.80576306 202.47992789 -140.38482854 185.28896032 -143.3125 167.25 C-143.48378418 166.33959961 -143.65506836 165.42919922 -143.83154297 164.49121094 C-144.74191832 158.35611286 -144.55732647 152.12968397 -144.5625 145.9375 C-144.56317474 145.21658173 -144.56384949 144.49566345 -144.56454468 143.75289917 C-144.54845303 132.94788531 -144.05442599 122.75521041 -141.3125 112.25 C-141.14089355 111.56518555 -140.96928711 110.88037109 -140.79248047 110.17480469 C-130.98948581 71.57606077 -106.29393263 39.48913744 -72.32470703 19.05419922 C-56.54242789 9.75673694 -39.35146032 4.17767146 -21.3125 1.25 C-19.94689941 0.99307373 -19.94689941 0.99307373 -18.55371094 0.73095703 C-12.41861286 -0.17941832 -6.19218397 0.00517353 0 0 Z " fill="#FFD246" transform="translate(255.3125,110.75)"/>
<path d="M0 0 C29.68563457 -0.63984732 29.68563457 -0.63984732 44 3 C44.69206543 3.17160645 45.38413086 3.34321289 46.09716797 3.52001953 C84.68491644 13.33135571 116.76561743 38.02647144 137.19580078 71.98779297 C146.4719442 87.73388372 152.16317382 104.9752429 155 123 C155.17128418 124.08514893 155.34256836 125.17029785 155.51904297 126.28833008 C157.68810661 143.02755575 157.06648466 161.60314038 153 178 C152.74259033 179.05501709 152.74259033 179.05501709 152.47998047 180.13134766 C142.76804533 218.69267726 117.90110531 250.80918524 84.01220703 271.19580078 C68.26611628 280.4719442 51.0247571 286.16317382 33 289 C31.38508667 289.26018921 31.38508667 289.26018921 29.73754883 289.52563477 C26.09809617 289.98754975 22.63873683 290.11394994 18.97265625 290.09765625 C17.68681641 290.09443359 16.40097656 290.09121094 15.07617188 290.08789062 C13.73828055 290.07953802 12.40038993 290.07107311 11.0625 290.0625 C9.69726726 290.05747659 8.33203274 290.05291517 6.96679688 290.04882812 C3.64448543 290.03708851 0.32226592 290.02066679 -3 290 C-2.67 289.34 -2.34 288.68 -2 288 C0.42277928 287.52343809 2.80712425 287.15009773 5.25 286.8125 C34.92690321 282.08748646 60.23658038 267.23488513 82 247 C82.60585938 246.44828125 83.21171875 245.8965625 83.8359375 245.328125 C110.51453309 220.02729726 122.81119779 182.46329323 123.96484375 146.546875 C124.5774045 109.89639792 110.83002018 73.24378193 85.54516602 46.58789062 C84.04374025 45.04431028 82.52659925 43.51866371 81 42 C80.51950195 41.51692383 80.03900391 41.03384766 79.54394531 40.53613281 C58.19877628 19.30657743 29.44798342 6.84154466 0 2 C0 1.34 0 0.68 0 0 Z " fill="#FFBE31" transform="translate(245,111)"/>
<path d="M0 0 C2.875 1.5 2.875 1.5 5 4 C6.41262176 12.26431777 2.13172282 17.88744503 -2.0625 24.75 C-2.71927734 25.8534375 -3.37605469 26.956875 -4.05273438 28.09375 C-5.36924289 30.30392785 -6.69422918 32.50907887 -8.02783203 34.70898438 C-10.58460079 38.97554081 -13.02628271 43.30487309 -15.45483398 47.64550781 C-17 50 -17 50 -20 52 C-23.88476191 52.42379221 -26.10176781 52.61457992 -29.375 50.375 C-31.36766862 47.46263817 -31.72007406 45.50984058 -32 42 C-31.13671875 39.38671875 -31.13671875 39.38671875 -29.6875 36.6875 C-29.13449219 35.65238281 -28.58148438 34.61726563 -28.01171875 33.55078125 C-24.49337133 27.28579518 -20.84587017 21.09787369 -17.15136719 14.93554688 C-16.13844772 13.23274248 -15.14931915 11.51583341 -14.1640625 9.796875 C-13.65617187 8.91515625 -13.14828125 8.0334375 -12.625 7.125 C-12.20476562 6.38507812 -11.78453125 5.64515625 -11.3515625 4.8828125 C-8.2359338 0.54254362 -5.29558943 -0.75651278 0 0 Z " fill="#FFD347" transform="translate(383,33)"/>
<path d="M0 0 C3.93974127 2.68133677 6.08120046 5.34321023 8.33984375 9.5078125 C8.92830078 10.57773437 9.51675781 11.64765625 10.12304688 12.75 C10.72181641 13.86375 11.32058594 14.9775 11.9375 16.125 C13.13265472 18.31590117 14.32925346 20.50601527 15.52734375 22.6953125 C16.10468262 23.75637207 16.68202148 24.81743164 17.27685547 25.91064453 C19.3562881 29.63877438 21.56855229 33.27179067 23.83813477 36.88671875 C25.58576176 40.06542421 26 42.37455223 26 46 C24.89791992 49.39808026 24.07902124 49.94731917 21 52 C17.625 52.4375 17.625 52.4375 14 52 C9.46601216 48.25200042 7.00649777 43.85817093 4.3125 38.75 C1.6915618 33.86793883 -0.94145978 29.02563293 -3.87109375 24.3203125 C-4.56295776 23.19931152 -4.56295776 23.19931152 -5.26879883 22.05566406 C-6.14923049 20.63999969 -7.04292395 19.23246595 -7.9519043 17.83496094 C-10.93507992 12.99218238 -11.63110233 9.69205751 -11 4 C-7.72794548 0.1505241 -4.96702569 -0.82783761 0 0 Z " fill="#FFD347" transform="translate(135,33)"/>
<path d="M0 0 C2.99993115 2.54994148 3.85480459 4.12882756 4.5 8 C3.87207482 11.76755106 2.56797868 13.19792681 0 16 C-2.55859375 17.74169922 -2.55859375 17.74169922 -5.4375 19.3046875 C-7.02884766 20.18060547 -7.02884766 20.18060547 -8.65234375 21.07421875 C-9.75707031 21.66847656 -10.86179687 22.26273438 -12 22.875 C-14.16726537 24.05880041 -16.3339337 25.24369452 -18.5 26.4296875 C-19.5712915 27.01081299 -20.64258301 27.59193848 -21.74633789 28.19067383 C-26.04692124 30.58218153 -30.24570976 33.13281768 -34.43530273 35.71313477 C-36.99199202 36.99598191 -38.26338796 37.40040557 -41.0625 37.0625 C-44 36 -44 36 -47 34 C-48.43404255 28.62234043 -48.43404255 28.62234043 -48 26 C-44.44373751 20.6796073 -40.35906676 18.1455075 -34.75 15.25 C-33.14181398 14.39588848 -31.53507811 13.53904176 -29.9296875 12.6796875 C-29.11338867 12.24366211 -28.29708984 11.80763672 -27.45605469 11.35839844 C-25.02977234 10.01646653 -22.67359076 8.59851181 -20.3203125 7.1328125 C-19.57297852 6.67100586 -18.82564453 6.20919922 -18.05566406 5.73339844 C-16.64026879 4.85170796 -15.23275559 3.95718758 -13.83496094 3.04785156 C-8.99195077 0.06513413 -5.69210959 -0.6311081 0 0 Z " fill="#FFD347" transform="translate(475,124)"/>
<path d="M0 0 C5.65719958 1.17148501 10.49691775 4.66445175 15.37207031 7.64208984 C16.49226563 8.30724609 17.61246094 8.97240234 18.76660156 9.65771484 C20.974191 10.97144951 23.17673398 12.29370672 25.3737793 13.625 C29.06792384 15.86291294 32.78641342 18.05852714 36.50854492 20.24951172 C39.31640455 22.03937141 40.99861038 23.52016998 42.49707031 26.51708984 C42.75861781 29.4054839 42.50315742 31.79300604 41.49707031 34.51708984 C39.37207031 36.57958984 39.37207031 36.57958984 36.49707031 37.51708984 C31.38464862 37.14039304 27.86959821 35.94714484 23.47753906 33.34912109 C22.37216797 32.70265625 21.26679687 32.05619141 20.12792969 31.39013672 C18.97999779 30.70353087 17.83221193 30.01668079 16.68457031 29.32958984 C15.55986328 28.66894531 14.43515625 28.00830078 13.27636719 27.32763672 C11.05800267 26.02188236 8.84417383 24.70838752 6.63525391 23.38671875 C4.61705624 22.18434146 2.58934195 20.99772182 0.55029297 19.83105469 C-0.3373877 19.31881348 -1.22506836 18.80657227 -2.13964844 18.27880859 C-2.91397217 17.83883545 -3.6882959 17.3988623 -4.48608398 16.94555664 C-6.73143181 15.35524916 -8.04956738 13.84659857 -9.50292969 11.51708984 C-10.05759534 7.79290615 -9.74982649 5.99030871 -8.00292969 2.64208984 C-5.2172807 0.27428821 -3.61683208 -0.10261099 0 0 Z " fill="#FFD347" transform="translate(42.5029296875,123.48291015625)"/>
<path d="M0 0 C3.62365847 3.87800662 6.2720486 7.89951913 8.8828125 12.53515625 C9.22375946 13.13629745 9.56470642 13.73743866 9.91598511 14.35679626 C10.99135307 16.2555463 12.05839529 18.15881617 13.125 20.0625 C14.20063113 21.96864201 15.27794414 23.87382601 16.35543823 25.77891541 C17.32964054 27.50352696 18.29994359 29.23033943 19.27001953 30.95727539 C20.38176091 32.91262859 21.52265743 34.85184373 22.69897461 36.76904297 C24.83256568 40.42765719 24.46536822 42.81168598 24 47 C22.4375 49.5 22.4375 49.5 20 51 C15.98207712 51.58442515 13.88992693 51.59720259 10.48608398 49.31298828 C7.84310883 46.85403251 6.37640203 44.65668943 4.66015625 41.4921875 C4.07169922 40.42226563 3.48324219 39.35234375 2.87695312 38.25 C2.27818359 37.13625 1.67941406 36.0225 1.0625 34.875 C-0.13265472 32.68409883 -1.32925346 30.49398473 -2.52734375 28.3046875 C-3.10468262 27.24362793 -3.68202148 26.18256836 -4.27685547 25.08935547 C-6.3562881 21.36122562 -8.56855229 17.72820933 -10.83813477 14.11328125 C-12.58576176 10.93457579 -13 8.62544777 -13 5 C-12.21270916 2.35183989 -11.47719891 1.37115471 -9.3125 -0.3125 C-5.79756109 -1.35748184 -3.52128915 -0.98843204 0 0 Z " fill="#FFD347" transform="translate(364,428)"/>
<path d="M0 0 C2.63306043 1.66760494 2.93470522 2.74595692 3.71484375 5.78125 C4.04732955 9.53424036 3.45361159 11.02305766 1.6875 14.3125 C1.13449219 15.34761719 0.58148438 16.38273437 0.01171875 17.44921875 C-3.50662867 23.71420482 -7.15412983 29.90212631 -10.84863281 36.06445312 C-11.86155228 37.76725752 -12.85068085 39.48416659 -13.8359375 41.203125 C-14.34382813 42.08484375 -14.85171875 42.9665625 -15.375 43.875 C-15.79523438 44.61492187 -16.21546875 45.35484375 -16.6484375 46.1171875 C-18.21450897 48.29882463 -19.7178057 49.58989896 -22 51 C-25.88040089 51.48505011 -28.0761612 51.56851618 -31.4375 49.5 C-33.66981776 45.92829158 -33.8032993 43.03345372 -33 39 C-30.97735168 34.5005552 -28.44255327 30.32873917 -25.875 26.125 C-25.20984375 25.00480469 -24.5446875 23.88460938 -23.859375 22.73046875 C-22.54561891 20.52284331 -21.22328106 18.32029922 -19.8918457 16.12329102 C-17.65469007 12.42991999 -15.46155526 8.71126229 -13.27368164 4.98852539 C-9.60246358 -0.74313478 -6.52002972 -1.81111937 0 0 Z " fill="#FFD347" transform="translate(157,428)"/>
<path d="M0 0 C3.02270508 1.39526367 3.02270508 1.39526367 6.01953125 3.16796875 C7.12490234 3.81443359 8.23027344 4.46089844 9.36914062 5.12695312 C10.51707253 5.81355898 11.66485838 6.50040906 12.8125 7.1875 C13.93720703 7.84814453 15.06191406 8.50878906 16.22070312 9.18945312 C18.43906764 10.49520748 20.65289649 11.80870232 22.86181641 13.13037109 C24.88001407 14.33274838 26.90772836 15.51936803 28.94677734 16.68603516 C29.83445801 17.19827637 30.72213867 17.71051758 31.63671875 18.23828125 C32.41104248 18.67825439 33.18536621 19.11822754 33.9831543 19.5715332 C36.22850212 21.16184068 37.54663769 22.67049128 39 25 C39.55466566 28.7241837 39.2468968 30.52678113 37.5 33.875 C34.71435101 36.24280164 33.11390239 36.61970083 29.49707031 36.51708984 C23.83987073 35.34560483 19.00015256 31.85263809 14.125 28.875 C13.00480469 28.20984375 11.88460938 27.5446875 10.73046875 26.859375 C8.52284331 25.54561891 6.32029922 24.22328106 4.12329102 22.8918457 C0.42991999 20.65469007 -3.28873771 18.46155526 -7.01147461 16.27368164 C-9.78439985 14.49757961 -11.49185888 12.94446599 -13 10 C-12.93768424 6.38568571 -12.78958699 4.02989607 -10.5625 1.125 C-6.8320385 -1.56093228 -4.45143559 -0.90245505 0 0 Z " fill="#FFD347" transform="translate(440,352)"/>
<path d="M0 0 C2.79471217 1.73464893 3.03363107 3.11140293 4 6.3125 C4 10.35377573 3.24662379 11.55001499 0.62304688 14.4987793 C-2.30918018 17.2109129 -5.72094966 18.92823674 -9.25 20.75 C-10.85818602 21.60411152 -12.46492189 22.46095824 -14.0703125 23.3203125 C-14.88661133 23.75633789 -15.70291016 24.19236328 -16.54394531 24.64160156 C-18.97022766 25.98353347 -21.32640924 27.40148819 -23.6796875 28.8671875 C-24.80068848 29.55989746 -24.80068848 29.55989746 -25.94433594 30.26660156 C-27.35973121 31.14829204 -28.76724441 32.04281242 -30.16503906 32.95214844 C-35.00804923 35.93486587 -38.30789041 36.6311081 -44 36 C-46.99993115 33.45005852 -47.85480459 31.87117244 -48.5 28 C-47.87175593 24.23053561 -46.57110595 22.80259775 -44 20 C-41.40966797 18.24243164 -41.40966797 18.24243164 -38.4921875 16.66015625 C-37.42226563 16.07169922 -36.35234375 15.48324219 -35.25 14.87695312 C-34.13625 14.27818359 -33.0225 13.67941406 -31.875 13.0625 C-29.68409883 11.86734528 -27.49398473 10.67074654 -25.3046875 9.47265625 C-24.24475586 8.89531738 -23.18482422 8.31797852 -22.09277344 7.72314453 C-18.34224185 5.63352881 -14.67698366 3.42300761 -11.02783203 1.16186523 C-6.99665802 -1.14783343 -4.43946598 -1.10986649 0 0 Z " fill="#FFD347" transform="translate(81,352)"/>
<path d="M0 0 C0.66 -0.0103125 1.32 -0.020625 2 -0.03125 C5.14387372 0.80384146 6.07660096 1.8265344 8 4.5 C8.61741386 8.15033456 8.56005362 11.77400533 8.53125 15.46875 C8.5350769 16.54120972 8.53890381 17.61366943 8.54284668 18.71862793 C8.54556716 20.98479146 8.53819653 23.25098631 8.52148438 25.51708984 C8.50007794 28.98736528 8.52128275 32.45557027 8.546875 35.92578125 C8.54423175 38.12760874 8.53910683 40.32943494 8.53125 42.53125 C8.53934692 43.56987183 8.54744385 44.60849365 8.55578613 45.67858887 C8.46225893 52.85747429 8.46225893 52.85747429 6.09179688 56.15234375 C3.83777157 57.60451691 2.66099233 58.04157801 0 58 C-0.99 58.01546875 -0.99 58.01546875 -2 58.03125 C-5.14387372 57.19615854 -6.07660096 56.1734656 -8 53.5 C-8.61741386 49.84966544 -8.56005362 46.22599467 -8.53125 42.53125 C-8.5350769 41.45879028 -8.53890381 40.38633057 -8.54284668 39.28137207 C-8.54556716 37.01520854 -8.53819653 34.74901369 -8.52148438 32.48291016 C-8.50007794 29.01263472 -8.52128275 25.54442973 -8.546875 22.07421875 C-8.54423175 19.87239126 -8.53910683 17.67056506 -8.53125 15.46875 C-8.53934692 14.43012817 -8.54744385 13.39150635 -8.55578613 12.32141113 C-8.46225893 5.14252571 -8.46225893 5.14252571 -6.09179688 1.84765625 C-3.83777157 0.39548309 -2.66099233 -0.04157801 0 0 Z " fill="#FFD346" transform="translate(256,454.5)"/>
<path d="M0 0 C1.07245972 -0.0038269 2.14491943 -0.00765381 3.24987793 -0.01159668 C5.51604146 -0.01431716 7.78223631 -0.00694653 10.04833984 0.00976562 C13.51861528 0.03117206 16.98682027 0.00996725 20.45703125 -0.015625 C22.65885874 -0.01298175 24.86068494 -0.00785683 27.0625 0 C28.10112183 -0.00809692 29.13974365 -0.01619385 30.20983887 -0.02453613 C37.38872429 0.06899107 37.38872429 0.06899107 40.68359375 2.43945312 C42.13576691 4.69347843 42.57282801 5.87025767 42.53125 8.53125 C42.5415625 9.19125 42.551875 9.85125 42.5625 10.53125 C41.72740854 13.67512372 40.7047156 14.60785096 38.03125 16.53125 C34.38091544 17.14866386 30.75724467 17.09130362 27.0625 17.0625 C25.45381042 17.06824036 25.45381042 17.06824036 23.81262207 17.07409668 C21.54645854 17.07681716 19.28026369 17.06944653 17.01416016 17.05273438 C13.54388472 17.03132794 10.07567973 17.05253275 6.60546875 17.078125 C4.40364126 17.07548175 2.20181506 17.07035683 0 17.0625 C-1.03862183 17.07059692 -2.07724365 17.07869385 -3.14733887 17.08703613 C-10.32622429 16.99350893 -10.32622429 16.99350893 -13.62109375 14.62304688 C-15.07326691 12.36902157 -15.51032801 11.19224233 -15.46875 8.53125 C-15.48421875 7.54125 -15.48421875 7.54125 -15.5 6.53125 C-13.47713912 -1.08422627 -6.42346529 -0.05007627 0 0 Z " fill="#FFD347" transform="translate(469.96875,247.46875)"/>
<path d="M0 0 C1.07245972 -0.0038269 2.14491943 -0.00765381 3.24987793 -0.01159668 C5.51604146 -0.01431716 7.78223631 -0.00694653 10.04833984 0.00976562 C13.51861528 0.03117206 16.98682027 0.00996725 20.45703125 -0.015625 C22.65885874 -0.01298175 24.86068494 -0.00785683 27.0625 0 C28.10112183 -0.00809692 29.13974365 -0.01619385 30.20983887 -0.02453613 C37.38872429 0.06899107 37.38872429 0.06899107 40.68359375 2.43945312 C42.13576691 4.69347843 42.57282801 5.87025767 42.53125 8.53125 C42.5415625 9.19125 42.551875 9.85125 42.5625 10.53125 C41.72740854 13.67512372 40.7047156 14.60785096 38.03125 16.53125 C34.38091544 17.14866386 30.75724467 17.09130362 27.0625 17.0625 C25.45381042 17.06824036 25.45381042 17.06824036 23.81262207 17.07409668 C21.54645854 17.07681716 19.28026369 17.06944653 17.01416016 17.05273438 C13.54388472 17.03132794 10.07567973 17.05253275 6.60546875 17.078125 C4.40364126 17.07548175 2.20181506 17.07035683 0 17.0625 C-1.03862183 17.07059692 -2.07724365 17.07869385 -3.14733887 17.08703613 C-10.32622429 16.99350893 -10.32622429 16.99350893 -13.62109375 14.62304688 C-15.07326691 12.36902157 -15.51032801 11.19224233 -15.46875 8.53125 C-15.48421875 7.54125 -15.48421875 7.54125 -15.5 6.53125 C-13.47713912 -1.08422627 -6.42346529 -0.05007627 0 0 Z " fill="#FFD347" transform="translate(14.96875,247.46875)"/>
<path d="M0 0 C0.66 -0.0103125 1.32 -0.020625 2 -0.03125 C5.14387372 0.80384146 6.07660096 1.8265344 8 4.5 C8.61741386 8.15033456 8.56005362 11.77400533 8.53125 15.46875 C8.5350769 16.54120972 8.53890381 17.61366943 8.54284668 18.71862793 C8.54556716 20.98479146 8.53819653 23.25098631 8.52148438 25.51708984 C8.50007794 28.98736528 8.52128275 32.45557027 8.546875 35.92578125 C8.54423175 38.12760874 8.53910683 40.32943494 8.53125 42.53125 C8.53934692 43.56987183 8.54744385 44.60849365 8.55578613 45.67858887 C8.46225893 52.85747429 8.46225893 52.85747429 6.09179688 56.15234375 C3.83777157 57.60451691 2.66099233 58.04157801 0 58 C-0.99 58.01546875 -0.99 58.01546875 -2 58.03125 C-5.14387372 57.19615854 -6.07660096 56.1734656 -8 53.5 C-8.61741386 49.84966544 -8.56005362 46.22599467 -8.53125 42.53125 C-8.5350769 41.45879028 -8.53890381 40.38633057 -8.54284668 39.28137207 C-8.54556716 37.01520854 -8.53819653 34.74901369 -8.52148438 32.48291016 C-8.50007794 29.01263472 -8.52128275 25.54442973 -8.546875 22.07421875 C-8.54423175 19.87239126 -8.53910683 17.67056506 -8.53125 15.46875 C-8.53934692 14.43012817 -8.54744385 13.39150635 -8.55578613 12.32141113 C-8.46225893 5.14252571 -8.46225893 5.14252571 -6.09179688 1.84765625 C-3.83777157 0.39548309 -2.66099233 -0.04157801 0 0 Z " fill="#FFD346" transform="translate(256,-0.5)"/>
</svg>
