<?xml version="1.0" encoding="UTF-8"?>
<svg version="1.1" xmlns="http://www.w3.org/2000/svg" width="512" height="512">
<path d="M0 0 C19.59074861 16.93568663 32.14331465 36.60816196 38.96875 61.56640625 C39.175 62.29859375 39.38125 63.03078125 39.59375 63.78515625 C40.20688939 66.69756835 40.02572274 69.60382365 39.96875 72.56640625 C40.87625 72.05078125 41.78375 71.53515625 42.71875 71.00390625 C43.36328125 70.64039063 44.0078125 70.276875 44.671875 69.90234375 C46.32655225 68.93992943 47.95979723 67.94032552 49.578125 66.91796875 C69.21384262 54.76505163 92.52390368 51.50931329 114.984375 56.52734375 C132.30331747 60.82716017 145.96475943 69.50446613 158.96875 81.56640625 C159.40316406 82.30632812 159.83757812 83.04625 160.28515625 83.80859375 C163.13676189 86.78590823 166.94713225 86.57437391 170.90625 87.00390625 C178.91263507 88.07418985 185.74776479 89.80033521 192.96875 93.56640625 C194.25458984 94.22962891 194.25458984 94.22962891 195.56640625 94.90625 C203.8837502 99.54699369 211.34515791 105.8500162 216.96875 113.56640625 C216.96875 114.22640625 216.96875 114.88640625 216.96875 115.56640625 C217.69707031 115.68886719 218.42539062 115.81132812 219.17578125 115.9375 C231.43436642 118.69782477 242.83173951 128.52596263 249.96875 138.56640625 C251.51428633 141.13924897 252.91860252 143.76772195 254.28125 146.44140625 C254.60689941 147.07691406 254.93254883 147.71242188 255.26806641 148.3671875 C259.69183015 157.51377338 261.53545327 166.62713775 261.46875 176.75390625 C261.46447998 177.74986816 261.46020996 178.74583008 261.45581055 179.77197266 C261.19131431 191.38176853 258.38704536 201.97244511 251.7890625 211.671875 C250.63356353 214.34052739 251.14220728 215.80849486 251.96875 218.56640625 C252.70437852 220.35215131 253.47869186 222.12222325 254.28125 223.87890625 C264.11714478 247.58226897 264.06575021 273.9216148 254.6418457 297.76367188 C244.51288397 321.92375989 225.62720913 339.28635898 201.95019531 349.75732422 C192.9973597 353.41302866 183.52268091 355.68407051 173.84310436 355.70062733 C172.62942029 355.70508517 171.41573622 355.70954301 170.16527385 355.71413594 C168.82691331 355.71404666 167.48855277 355.71385684 166.15019226 355.71357727 C164.72169817 355.71687898 163.293205 355.72060519 161.86471301 355.72471875 C157.94334043 355.73471232 154.02198315 355.73845129 150.10059965 355.74110806 C145.86925 355.74501907 141.63791238 355.75459697 137.40657043 355.76332092 C127.1886568 355.78306468 116.9707422 355.79314971 106.75281426 355.80204871 C101.93590987 355.80643576 97.11900657 355.81180155 92.30210304 355.81703758 C76.28009488 355.83404913 60.25808739 355.84854141 44.23607159 355.85578632 C40.08015123 355.85769609 35.92423088 355.85961644 31.76831055 355.86157227 C30.73542889 355.86205601 29.70254724 355.86253975 28.63836614 355.86303815 C11.92129392 355.87133136 -4.79570658 355.89665663 -21.5127475 355.92915294 C-38.6925995 355.96227538 -55.87241512 355.98023984 -73.0522992 355.98343056 C-82.6912612 355.98559106 -92.33011867 355.99427183 -101.96904945 356.01989174 C-110.18136545 356.04166981 -118.39355152 356.04961443 -126.60589311 356.03992496 C-130.79031807 356.03540052 -134.97447536 356.03715721 -139.15886307 356.0566864 C-171.38628968 356.19887185 -171.38628968 356.19887185 -185.03125 351.56640625 C-186.29228782 351.15392623 -186.29228782 351.15392623 -187.57880116 350.73311329 C-210.87858901 342.38659707 -229.63354406 324.47266471 -240.35107422 302.43237305 C-250.26664729 281.3699969 -253.12228513 256.40072989 -246.23046875 233.86328125 C-245.83472656 232.7753125 -245.43898437 231.68734375 -245.03125 230.56640625 C-244.64582031 229.4990625 -244.26039063 228.43171875 -243.86328125 227.33203125 C-234.93749124 204.56982242 -218.43288782 185.04303428 -196.03125 174.56640625 C-195.37125 174.56640625 -194.71125 174.56640625 -194.03125 174.56640625 C-193.89203125 173.31730469 -193.89203125 173.31730469 -193.75 172.04296875 C-192.91535819 168.00584258 -191.38408289 164.58837104 -189.53125 160.94140625 C-189.17885254 160.24281494 -188.82645508 159.54422363 -188.46337891 158.82446289 C-183.59197619 149.4614001 -177.01220567 141.44235624 -170.03125 133.56640625 C-170.42957031 132.50164062 -170.82789063 131.436875 -171.23828125 130.33984375 C-171.77392353 128.87387541 -172.30905145 127.40771907 -172.84375 125.94140625 C-173.10478516 125.24789062 -173.36582031 124.554375 -173.63476562 123.83984375 C-177.94668428 111.9155255 -179.54755966 100.27449667 -179.40625 87.62890625 C-179.39609863 86.30930908 -179.38594727 84.98971191 -179.37548828 83.63012695 C-179.23095327 74.57427999 -178.70816869 66.26639198 -176.03125 57.56640625 C-175.83789062 56.90995117 -175.64453125 56.25349609 -175.4453125 55.57714844 C-170.71948858 39.80252323 -163.21260163 25.72919313 -152.03125 13.56640625 C-151.56235352 13.04981445 -151.09345703 12.53322266 -150.61035156 12.00097656 C-111.86433506 -30.25600583 -45.10494546 -35.62547203 0 0 Z " fill="#EDF4FE" transform="translate(250.03125,124.43359375)"/>
<path d="M0 0 C22.82266686 19.7295949 37.50073321 44.3377226 40.96875 74.56640625 C36.79949349 78.51381242 36.79949349 78.51381242 33.25390625 78.73828125 C32.19042969 78.5990625 31.12695312 78.45984375 30.03125 78.31640625 C-8.02822214 74.72730082 -40.59680736 80.40313467 -72.03125 102.56640625 C-72.92271729 103.42911133 -73.81418457 104.29181641 -74.73266602 105.18066406 C-78.22408419 108.0972002 -81.48812001 108.15441565 -85.89453125 107.9140625 C-86.64478073 107.89750107 -87.39503021 107.88093964 -88.16801453 107.86387634 C-90.56133848 107.80973365 -92.95168882 107.72305902 -95.34375 107.62890625 C-120.86114354 106.65754608 -144.36715592 113.15232951 -163.71875 130.62890625 C-164.59080078 131.48162109 -164.59080078 131.48162109 -165.48046875 132.3515625 C-167.03125 133.56640625 -167.03125 133.56640625 -170.03125 133.56640625 C-170.98059989 131.02866188 -171.9155285 128.48688364 -172.84375 125.94140625 C-173.23530273 124.90113281 -173.23530273 124.90113281 -173.63476562 123.83984375 C-177.94668428 111.9155255 -179.54755966 100.27449667 -179.40625 87.62890625 C-179.39609863 86.30930908 -179.38594727 84.98971191 -179.37548828 83.63012695 C-179.23095327 74.57427999 -178.70816869 66.26639198 -176.03125 57.56640625 C-175.83789062 56.90995117 -175.64453125 56.25349609 -175.4453125 55.57714844 C-170.71948858 39.80252323 -163.21260163 25.72919313 -152.03125 13.56640625 C-151.56235352 13.04981445 -151.09345703 12.53322266 -150.61035156 12.00097656 C-111.86433506 -30.25600583 -45.10494546 -35.62547203 0 0 Z " fill="#FEE782" transform="translate(250.03125,124.43359375)"/>
<path d="M0 0 C5.67804693 4.76412889 5.67804693 4.76412889 7.31640625 7.5546875 C10.16801189 10.53200198 13.97838225 10.32046766 17.9375 10.75 C25.94388507 11.8202836 32.77901479 13.54642896 40 17.3125 C40.85722656 17.75464844 41.71445312 18.19679687 42.59765625 18.65234375 C50.9150002 23.29308744 58.37640791 29.59610995 64 37.3125 C64 37.9725 64 38.6325 64 39.3125 C64.72832031 39.43496094 65.45664062 39.55742187 66.20703125 39.68359375 C78.46561642 42.44391852 89.86298951 52.27205638 97 62.3125 C98.54553633 64.88534272 99.94985252 67.5138157 101.3125 70.1875 C101.80097412 71.14076172 101.80097412 71.14076172 102.29931641 72.11328125 C106.72289183 81.25947775 108.567562 90.37349636 108.5 100.5 C108.49500488 101.49668701 108.49000977 102.49337402 108.48486328 103.52026367 C108.1810376 116.54181349 104.50833538 127.57893464 97 138.3125 C93.88233994 135.36223109 91.42526334 132.24216872 88.9375 128.75 C78.40588036 114.48432296 65.70923666 103.97073551 49.0625 97.8125 C41.39471023 94.95950802 37.40561943 91.32409591 33 84.3125 C20.51547774 67.7789435 -0.92007694 56.40340477 -21 52.3125 C-24.03638542 52.04605076 -27.04955424 51.9334068 -30.09594727 51.84692383 C-43.35735346 51.43116309 -43.35735346 51.43116309 -48.0859375 48.2109375 C-50.02814457 45.66994722 -51.51897663 43.1418539 -53 40.3125 C-68.82050167 21.15925306 -93.93952166 10.46613586 -117 3.3125 C-114.20442601 -5.07422196 -103.40778634 -9.96357364 -95.90283203 -13.78710938 C-63.62187929 -29.06195589 -26.79786604 -22.39294123 0 0 Z " fill="#D6E9FE" transform="translate(403,200.6875)"/>
<path d="M0 0 C3.2561101 1.89446406 5.3487671 3.30400843 6.73046875 6.90234375 C7.47983877 10.76790594 7.4163128 12.32173957 5.28149414 15.79980469 C1.89059583 20.55613375 -2.12108496 24.64511482 -6.20678711 28.79711914 C-7.19407105 29.80751838 -8.17233631 30.82680915 -9.14135742 31.85473633 C-18.2282491 41.49216231 -18.2282491 41.49216231 -24.0234375 42.24609375 C-28.08569859 41.99469645 -29.92429563 41.60968856 -33 39 C-35.74529307 34.88206039 -35.91247459 31.81931524 -35 27 C-33.74121094 25.11181641 -33.74121094 25.11181641 -32.046875 23.2890625 C-31.41209229 22.60142822 -30.77730957 21.91379395 -30.12329102 21.20532227 C-26.34894928 17.28516256 -22.54492595 13.40106324 -18.6875 9.5625 C-17.87732422 8.74845703 -17.06714844 7.93441406 -16.23242188 7.09570312 C-15.45833984 6.32291016 -14.68425781 5.55011719 -13.88671875 4.75390625 C-13.18764404 4.05595947 -12.48856934 3.3580127 -11.76831055 2.63891602 C-8.29041751 -0.58448533 -4.54882811 -0.72578705 0 0 Z " fill="#FFD034" transform="translate(305,81)"/>
<path d="M0 0 C2.51004344 0.74359476 3.78759877 1.80842469 5.7175293 3.57202148 C6.41136719 4.2051123 7.10520508 4.83820313 7.82006836 5.49047852 C11.77008022 9.24065404 15.64521745 13.0589558 19.48706055 16.91967773 C20.30110352 17.72985352 21.11514648 18.5400293 21.95385742 19.37475586 C22.72665039 20.14883789 23.49944336 20.92291992 24.2956543 21.72045898 C24.99360107 22.41953369 25.69154785 23.1186084 26.41064453 23.83886719 C29.47693056 27.14724045 29.39924406 29.99543073 29.31518555 34.34545898 C29.04956055 36.60717773 29.04956055 36.60717773 27.61206055 39.60717773 C24.051854 42.38587552 20.53874263 43.09167631 16.04956055 42.60717773 C12.00517672 40.50404702 9.03547 37.85049291 5.8190918 34.64233398 C5.34259689 34.16775253 4.86610199 33.69317108 4.37516785 33.20420837 C3.37525765 32.20565191 2.3778395 31.20459436 1.3828125 30.20117188 C-0.13690437 28.67072012 -1.66703088 27.15126372 -3.19848633 25.63256836 C-4.17243571 24.6572977 -5.14576469 23.681407 -6.1184082 22.70483398 C-7.43748169 21.38237671 -7.43748169 21.38237671 -8.78320312 20.03320312 C-12.06939718 16.35460559 -12.95043945 14.65157715 -12.95043945 9.66967773 C-12.39043029 6.22594325 -11.80853064 5.44104058 -9.38793945 2.60717773 C-6.10321565 0.6960657 -3.8328326 -0.26375804 0 0 Z " fill="#FFD034" transform="translate(62.950439453125,80.392822265625)"/>
<path d="M0 0 C0.86890869 -0.00478363 1.73781738 -0.00956726 2.63305664 -0.01449585 C4.46535051 -0.01788975 6.29770535 -0.00872294 8.12988281 0.01220703 C10.92911219 0.03898227 13.72433233 0.01244447 16.5234375 -0.01953125 C18.30730049 -0.01622706 20.09116099 -0.00982063 21.875 0 C23.12518921 -0.01518173 23.12518921 -0.01518173 24.40063477 -0.03067017 C28.74020645 0.0565336 30.44035852 0.27204698 33.96240234 3.04931641 C36.10748248 5.88909494 36.61736039 7.15299724 36.5625 10.6640625 C36.57539062 11.4890625 36.58828125 12.3140625 36.6015625 13.1640625 C35.61158843 16.89102371 33.95557907 18.28418901 30.9375 20.6640625 C27.91318923 21.39057422 24.97435101 21.36576212 21.875 21.328125 C20.57163696 21.33530045 20.57163696 21.33530045 19.24194336 21.34262085 C17.40964949 21.34601475 15.57729465 21.33684794 13.74511719 21.31591797 C10.94588781 21.28914273 8.15066767 21.31568053 5.3515625 21.34765625 C3.56769951 21.34435206 1.78383901 21.33794563 0 21.328125 C-1.25018921 21.34330673 -1.25018921 21.34330673 -2.52563477 21.35879517 C-6.86520645 21.2715914 -8.56535852 21.05607802 -12.08740234 18.27880859 C-14.23248248 15.43903006 -14.74236039 14.17512776 -14.6875 10.6640625 C-14.70039063 9.8390625 -14.71328125 9.0140625 -14.7265625 8.1640625 C-12.67185401 0.42868934 -6.81480242 -0.08275588 0 0 Z " fill="#FFD133" transform="translate(15.0625,201.3359375)"/>
<path d="M0 0 C0.825 -0.01289063 1.65 -0.02578125 2.5 -0.0390625 C6.22696121 0.95091157 7.62012651 2.60692093 10 5.625 C10.72651172 8.64931077 10.70169962 11.58814899 10.6640625 14.6875 C10.66884613 15.55640869 10.67362976 16.42531738 10.67855835 17.32055664 C10.68195225 19.15285051 10.67278544 20.98520535 10.65185547 22.81738281 C10.62508023 25.61661219 10.65161803 28.41183233 10.68359375 31.2109375 C10.68028956 32.99480049 10.67388313 34.77866099 10.6640625 36.5625 C10.67418365 37.39595947 10.68430481 38.22941895 10.69473267 39.08813477 C10.6075289 43.42770645 10.39201552 45.12785852 7.61474609 48.64990234 C4.77496756 50.79498248 3.51106526 51.30486039 0 51.25 C-0.825 51.26289062 -1.65 51.27578125 -2.5 51.2890625 C-6.22696121 50.29908843 -7.62012651 48.64307907 -10 45.625 C-10.72651172 42.60068923 -10.70169962 39.66185101 -10.6640625 36.5625 C-10.66884613 35.69359131 -10.67362976 34.82468262 -10.67855835 33.92944336 C-10.68195225 32.09714949 -10.67278544 30.26479465 -10.65185547 28.43261719 C-10.62508023 25.63338781 -10.65161803 22.83816767 -10.68359375 20.0390625 C-10.68028956 18.25519951 -10.67388313 16.47133901 -10.6640625 14.6875 C-10.67418365 13.85404053 -10.68430481 13.02058105 -10.69473267 12.16186523 C-10.6075289 7.82229355 -10.39201552 6.12214148 -7.61474609 2.60009766 C-4.77496756 0.45501752 -3.51106526 -0.05486039 0 0 Z " fill="#FFD133" transform="translate(181,31.375)"/>
</svg>
