<?xml version="1.0" encoding="UTF-8"?>
<svg version="1.1" xmlns="http://www.w3.org/2000/svg" width="512" height="512">
<path d="M0 0 C2.48806025 1.94309237 4.89475229 3.9444195 7.2734375 6.01953125 C7.88703125 6.54933594 8.500625 7.07914063 9.1328125 7.625 C14.8598778 12.94486571 18.97574958 19.54519548 23.2734375 26.01953125 C24.02972101 27.15379716 24.78622154 28.28791841 25.54296875 29.421875 C26.11402344 30.27910156 26.68507812 31.13632813 27.2734375 32.01953125 C27.67691406 31.61863281 28.08039063 31.21773437 28.49609375 30.8046875 C50.56256264 10.14372618 82.21749317 1.93678721 111.78369141 2.88769531 C144.97492331 4.64522279 173.19459574 19.73384586 195.8359375 43.70703125 C211.48179941 61.56042217 221.81578277 84.76185668 223.65625 108.46484375 C223.96175781 109.72941406 223.96175781 109.72941406 224.2734375 111.01953125 C226.06950244 112.12673803 226.06950244 112.12673803 228.2734375 113.01953125 C243.73618699 128.92933303 256.45207132 151.88758732 256.5234375 174.58203125 C256.4409375 175.71640625 256.3584375 176.85078125 256.2734375 178.01953125 C257.3253125 177.93703125 258.3771875 177.85453125 259.4609375 177.76953125 C272.39677175 177.83809574 283.81972067 184.62518718 293.0234375 193.20703125 C302.96179625 203.67971036 307.88013728 215.99934402 307.7109375 230.33203125 C307.70263916 231.24774902 307.69434082 232.1634668 307.68579102 233.10693359 C307.32364995 247.71887458 301.97147036 259.23784542 291.9609375 269.83203125 C279.43364195 281.66219231 264.93685943 284.59171554 248.2734375 285.01953125 C249.14355469 285.87611328 249.14355469 285.87611328 250.03125 286.75 C261.08542871 298.22372675 265.68830692 311.08125934 265.64233398 326.79296875 C265.21770601 341.53632696 258.94864697 353.19352594 249.2734375 364.01953125 C238.48325741 372.86347196 227.20083264 378.13430331 213.09700394 378.15095901 C211.25955231 378.15672073 211.25955231 378.15672073 209.38498044 378.16259885 C208.03393628 378.16181871 206.68289218 378.16093995 205.33184814 378.15997314 C203.89011581 378.16255841 202.44838418 378.16557202 201.00665355 378.16897655 C197.04896133 378.17703066 193.09128727 378.17883523 189.13358784 378.17957401 C184.86351855 378.18142731 180.59345863 378.18897598 176.32339478 378.19570923 C166.98866689 378.20928126 157.6539433 378.21531536 148.31920719 378.21971989 C142.48942283 378.22248393 136.65964012 378.22672155 130.82985687 378.23122406 C114.68516265 378.24341469 98.54046975 378.25371478 82.39577103 378.25709915 C81.36283343 378.25731872 80.32989584 378.25753828 79.26565711 378.2577645 C78.23026851 378.25798278 77.19487991 378.25820106 76.12811589 378.25842595 C74.03007205 378.25886942 71.93202821 378.25931598 69.83398438 378.25976562 C68.27293579 378.26009777 68.27293579 378.26009777 66.68035087 378.26043662 C49.81630049 378.26438488 32.9522933 378.28184068 16.08825961 378.30512515 C-1.2305504 378.32884434 -18.54933874 378.34130124 -35.86816525 378.34246707 C-45.59016095 378.34338345 -55.31210033 378.34912658 -65.03408051 378.36728668 C-73.31209265 378.38269523 -81.59003107 378.38780362 -89.86805484 378.37954858 C-94.0900465 378.37564491 -98.31188972 378.37655786 -102.53386307 378.39060593 C-106.40285112 378.40336157 -110.27157944 378.40213286 -114.14056721 378.39001521 C-115.53625218 378.38806111 -116.93195565 378.3911234 -118.32761464 378.39985958 C-132.69800818 378.48407856 -142.7414577 375.50058136 -153.4765625 365.83203125 C-161.29580437 357.68547228 -163.05673478 347.4351154 -162.93359375 336.62109375 C-162.30814039 325.74056544 -157.32133102 316.95996116 -149.2890625 309.64453125 C-142.25174153 304.04954408 -135.66301543 301.84767639 -126.7265625 302.01953125 C-126.59378906 301.04371094 -126.46101563 300.06789063 -126.32421875 299.0625 C-126.14761719 297.79019531 -125.97101563 296.51789063 -125.7890625 295.20703125 C-125.52802734 293.31017578 -125.52802734 293.31017578 -125.26171875 291.375 C-124.7265625 288.01953125 -124.7265625 288.01953125 -123.7265625 285.01953125 C-124.75257568 285.0055127 -124.75257568 285.0055127 -125.79931641 284.99121094 C-149.70260203 284.58123362 -169.06266208 281.22858157 -186.87890625 263.9296875 C-202.24400929 247.62085453 -205.42366154 229.20333232 -204.85400391 207.703125 C-204.09213387 191.66006859 -195.04462011 176.98484779 -183.7265625 166.01953125 C-178.15622128 161.32517111 -172.14621641 157.44334667 -165.7265625 154.01953125 C-166.29503906 153.61863281 -166.86351562 153.21773437 -167.44921875 152.8046875 C-177.76753105 145.20806692 -184.12674436 136.1538542 -187.33984375 123.62890625 C-189.27352794 110.58142104 -187.8917574 97.85527621 -180.4765625 86.70703125 C-179.25915942 85.11900229 -178.00936908 83.5552114 -176.7265625 82.01953125 C-176.12972656 81.29894531 -175.53289062 80.57835937 -174.91796875 79.8359375 C-168.04341226 72.27535458 -158.74546449 67.74692814 -148.7265625 66.01953125 C-146.72670905 65.99531995 -144.72636416 65.99136503 -142.7265625 66.01953125 C-142.62859375 65.00375 -142.530625 63.98796875 -142.4296875 62.94140625 C-139.87685687 38.5899578 -128.68067234 16.84081644 -109.5703125 1.26171875 C-77.10942569 -22.86754044 -32.91436235 -23.90771019 0 0 Z " fill="#C4E1E8" transform="translate(204.7265625,102.98046875)"/>
<path d="M0 0 C0.63244629 0.21962402 1.26489258 0.43924805 1.91650391 0.66552734 C26.9128222 9.38431227 46.4922598 27.54132584 58.75 50.8125 C63.67585056 61.03077605 68.21514779 72.86391578 68.0625 84.3125 C68.05347656 85.19550781 68.04445313 86.07851563 68.03515625 86.98828125 C68.01775391 87.98408203 68.01775391 87.98408203 68 89 C68.886875 88.9175 69.77375 88.835 70.6875 88.75 C77.14022782 88.71016835 84.26491717 91.13245859 90 94 C94.70407635 94.32088765 98.45631898 93.45389433 102.9375 92.0625 C127.68598206 84.41595903 154.55269165 89.60344406 177.125 101.33984375 C185.55309025 106.20660782 192.88883182 112.39802658 200 119 C219.16143201 104.21174767 232.37652078 77.0898154 235.734375 53.40234375 C235.86585938 52.21318359 235.86585938 52.21318359 236 51 C236.16242188 49.79537109 236.16242188 49.79537109 236.328125 48.56640625 C237.3856392 39.42447427 237.08568193 30.18700642 237 21 C251.33685051 28.58859938 260.88720885 48.46333641 266 63 C268.57051354 71.5312097 270.65177658 80.03807203 270 89 C271.051875 88.9175 272.10375 88.835 273.1875 88.75 C286.12333425 88.81856449 297.54628317 95.60565593 306.75 104.1875 C316.68835875 114.66017911 321.60669978 126.97981277 321.4375 141.3125 C321.42920166 142.22821777 321.42090332 143.14393555 321.41235352 144.08740234 C321.05021245 158.69934333 315.69803286 170.21831417 305.6875 180.8125 C293.16020445 192.64266106 278.66342193 195.57218429 262 196 C262.58007812 196.57105469 263.16015625 197.14210938 263.7578125 197.73046875 C274.81199121 209.2041955 279.41486942 222.06172809 279.36889648 237.7734375 C278.94426851 252.51679571 272.67520947 264.17399469 263 275 C252.20981991 283.84394071 240.92739514 289.11477206 226.82356644 289.13142776 C224.98611481 289.13718948 224.98611481 289.13718948 223.11154294 289.1430676 C221.76049878 289.14228746 220.40945468 289.1414087 219.05841064 289.14044189 C217.61667831 289.14302716 216.17494668 289.14604077 214.73321605 289.1494453 C210.77552383 289.15749941 206.81784977 289.15930398 202.86015034 289.16004276 C198.59008105 289.16189606 194.32002113 289.16944473 190.04995728 289.17617798 C180.71522939 289.18975001 171.3805058 289.19578411 162.04576969 289.20018864 C156.21598533 289.20295268 150.38620262 289.2071903 144.55641937 289.21169281 C128.41172515 289.22388344 112.26703225 289.23418353 96.12233353 289.2375679 C95.08939593 289.23778747 94.05645834 289.23800703 92.99221961 289.23823325 C91.95683101 289.23845153 90.92144241 289.23866981 89.85467839 289.2388947 C87.75663455 289.23933817 85.65859071 289.23978473 83.56054688 289.24023438 C81.99949829 289.24056652 81.99949829 289.24056652 80.40691337 289.24090537 C63.54286299 289.24485363 46.6788558 289.26230943 29.81482211 289.2855939 C12.4960121 289.30931309 -4.82277624 289.32176999 -22.14160275 289.32293582 C-31.86359845 289.3238522 -41.58553783 289.32959533 -51.30751801 289.34775543 C-59.58553015 289.36316398 -67.86346857 289.36827237 -76.14149234 289.36001733 C-80.363484 289.35611366 -84.58532722 289.35702661 -88.80730057 289.37107468 C-92.67628862 289.38383032 -96.54501694 289.38260161 -100.41400471 289.37048396 C-101.80968968 289.36852986 -103.20539315 289.37159215 -104.60105214 289.38032833 C-118.97144568 289.46454731 -129.0148952 286.48105011 -139.75 276.8125 C-147.56924187 268.66594103 -149.33017228 258.41558415 -149.20703125 247.6015625 C-148.58157789 236.72103419 -143.59476852 227.94042991 -135.5625 220.625 C-128.52517903 215.03001283 -121.93645293 212.82814514 -113 213 C-112.93683594 212.175 -112.87367187 211.35 -112.80859375 210.5 C-110.92058183 192.69306654 -102.31288548 176.6676467 -89.5078125 164.171875 C-83.46883503 159.4783692 -71.21457478 161.60384445 -64 162 C-60.08849067 162.56902828 -56.67004346 163.55757404 -53 165 C-52.03191406 165.3403125 -51.06382812 165.680625 -50.06640625 166.03125 C-42.46066421 168.89914763 -36.34000312 172.96205123 -30 178 C-29.17242187 178.61746094 -28.34484375 179.23492187 -27.4921875 179.87109375 C-24.62818318 182.31761781 -22.33834088 185.02146988 -20.0625 188 C-19.62212402 188.56307861 -19.18174805 189.12615723 -18.72802734 189.70629883 C-15.84217089 193.51743632 -13.93500318 197.2349996 -12.125 201.6875 C-10.23463983 205.86544613 -10.23463983 205.86544613 -6.390625 208.015625 C-4.34155223 208.30228285 -2.28190568 208.52002321 -0.21875 208.67578125 C11.53058967 209.85927056 21.47577105 217.47363905 28.8125 226.3125 C37.90526786 238.69414134 39.09682394 251.1224105 38 266 C36.40225077 274.315996 31.74233092 281.11296324 27 288 C40.53184122 285.71800311 52.69499688 281.64449494 62 271 C70.64557192 258.79845211 73.53841757 246.78373097 72 232 C69.50907713 219.7142618 62.90717937 208.65369992 52.68359375 201.34375 C46.8085694 197.59256074 39.8335482 193.73459719 32.65234375 194.12890625 C29.9250221 194.27392678 28.46566759 194.22835076 26 193 C23.63078047 189.47818719 21.86337591 185.83915844 20.04296875 182.015625 C16.25181866 174.19232262 10.14388565 168.04704682 4 162 C14.10672674 156.45335821 23.38898237 153.31996209 35 154 C35.309375 152.824375 35.61875 151.64875 35.9375 150.4375 C38.35952764 143.02894488 42.87884371 136.55756315 47 130 C39.16471934 121.38552016 28.15433016 119.44390409 17 118 C16.91548584 117.3922876 16.83097168 116.7845752 16.74389648 116.15844727 C12.69684275 88.01989488 1.63613556 62.0922766 -21.73681641 44.53955078 C-46.03887756 27.24592259 -72.71336758 22.5253148 -102 26 C-79.99884309 -2.72373263 -33.03117346 -12.16541508 0 0 Z " fill="#EFF4F6" transform="translate(191,192)"/>
<path d="M0 0 C0.63244629 0.21962402 1.26489258 0.43924805 1.91650391 0.66552734 C26.9128222 9.38431227 46.4922598 27.54132584 58.75 50.8125 C63.67585056 61.03077605 68.21514779 72.86391578 68.0625 84.3125 C68.05347656 85.19550781 68.04445313 86.07851563 68.03515625 86.98828125 C68.01775391 87.98408203 68.01775391 87.98408203 68 89 C68.886875 88.9175 69.77375 88.835 70.6875 88.75 C77.14022782 88.71016835 84.26491717 91.13245859 90 94 C94.70407635 94.32088765 98.45631898 93.45389433 102.9375 92.0625 C127.68598206 84.41595903 154.55269165 89.60344406 177.125 101.33984375 C185.55309025 106.20660782 192.88883182 112.39802658 200 119 C219.16143201 104.21174767 232.37652078 77.0898154 235.734375 53.40234375 C235.86585938 52.21318359 235.86585938 52.21318359 236 51 C236.16242188 49.79537109 236.16242188 49.79537109 236.328125 48.56640625 C237.3856392 39.42447427 237.08568193 30.18700642 237 21 C251.33685051 28.58859938 260.88720885 48.46333641 266 63 C268.57051354 71.5312097 270.65177658 80.03807203 270 89 C271.051875 88.9175 272.10375 88.835 273.1875 88.75 C286.12333425 88.81856449 297.54628317 95.60565593 306.75 104.1875 C316.68835875 114.66017911 321.60669978 126.97981277 321.4375 141.3125 C321.42920166 142.22821777 321.42090332 143.14393555 321.41235352 144.08740234 C321.05021245 158.69934333 315.69803286 170.21831417 305.6875 180.8125 C293.16020445 192.64266106 278.66342193 195.57218429 262 196 C262.58007812 196.57105469 263.16015625 197.14210938 263.7578125 197.73046875 C274.81199121 209.2041955 279.41486942 222.06172809 279.36889648 237.7734375 C278.94426851 252.51679571 272.67520947 264.17399469 263 275 C250.32794973 285.38637542 238.22339214 289.25980521 222 289 C222.19335938 288.39414062 222.38671875 287.78828125 222.5859375 287.1640625 C227.74848431 270.55190693 228.88290217 256.15786253 221.4375 239.875 C214.73786328 227.41400491 204.70585411 218.99727837 191.4375 214.1875 C186.3886004 212.6839674 181.19619963 211.82556443 176 211 C175.90203125 210.16339844 175.8040625 209.32679688 175.703125 208.46484375 C171.98787778 179.54356585 159.27077173 155.2202471 136 137 C126.40937845 130.19906754 116.18680422 125.50775152 105 122 C103.96488281 121.6596875 102.92976562 121.319375 101.86328125 120.96875 C93.5046236 118.70341744 85.17858363 118.72609264 76.5625 118.6875 C74.72993652 118.67904053 74.72993652 118.67904053 72.86035156 118.67041016 C62.60467092 118.46045778 62.60467092 118.46045778 53.78515625 122.9453125 C53.21667969 123.66460937 52.64820313 124.38390625 52.0625 125.125 C51.18271484 126.21167969 51.18271484 126.21167969 50.28515625 127.3203125 C49.86105469 127.87460937 49.43695313 128.42890625 49 129 C46.80516746 127.92822429 44.66821726 126.81033439 42.546875 125.59765625 C34.22168188 121.02810193 26.27848092 119.34231831 17 118 C16.91548584 117.3922876 16.83097168 116.7845752 16.74389648 116.15844727 C12.69684275 88.01989488 1.63613556 62.0922766 -21.73681641 44.53955078 C-46.03887756 27.24592259 -72.71336758 22.5253148 -102 26 C-79.99884309 -2.72373263 -33.03117346 -12.16541508 0 0 Z " fill="#DDE9EC" transform="translate(191,192)"/>
<path d="M0 0 C22.35224061 19.50678666 36.92959165 46.43633407 40.12109375 76.0625 C42.17881809 108.21022612 34.98231566 140.42971464 13.578125 165.30078125 C12.8459375 166.120625 12.11375 166.94046875 11.359375 167.78515625 C10.5859375 168.666875 9.8125 169.54859375 9.015625 170.45703125 C7.14383691 172.57926986 5.25948958 174.68829956 3.359375 176.78515625 C2.493125 176.00140625 1.626875 175.21765625 0.734375 174.41015625 C-22.66541189 154.49444225 -49.81371402 144.53395663 -80.640625 146.78515625 C-87.87908757 147.65192756 -94.73338615 149.47622088 -101.640625 151.78515625 C-106.88545544 152.51699306 -110.86816146 150.6693729 -115.671875 148.80859375 C-120.23122269 147.23681862 -124.88023047 146.48494345 -129.640625 145.78515625 C-129.72699219 144.88796875 -129.81335938 143.99078125 -129.90234375 143.06640625 C-132.87408645 116.67514996 -144.48261143 93.35730219 -164.640625 75.78515625 C-173.36786623 68.97198359 -182.80273419 63.77894038 -192.640625 58.78515625 C-192.09489803 53.3768621 -190.75644338 49.03325971 -188.515625 44.09765625 C-188.20214111 43.39922607 -187.88865723 42.7007959 -187.56567383 41.98120117 C-174.10342088 12.54746873 -150.93153543 -10.55421311 -120.640625 -22.21484375 C-78.46548006 -36.99478995 -34.02461816 -28.53840014 0 0 Z " fill="#F9B03C" transform="translate(388.640625,135.21484375)"/>
<path d="M0 0 C2.48806025 1.94309237 4.89475229 3.9444195 7.2734375 6.01953125 C7.88703125 6.54933594 8.500625 7.07914063 9.1328125 7.625 C14.85015406 12.93583333 19.02931054 19.52173997 23.2734375 26.01953125 C23.87671875 26.89351562 24.48 27.7675 25.1015625 28.66796875 C26.2734375 31.01953125 26.2734375 31.01953125 26.23828125 33.05859375 C24.90327059 35.77185428 23.06633339 37.35551098 20.8359375 39.39453125 C6.36085795 53.51907469 -3.13735462 71.72412516 -8.7265625 91.01953125 C-10.37205078 90.60380859 -10.37205078 90.60380859 -12.05078125 90.1796875 C-13.50519243 89.81373888 -14.9596204 89.44785698 -16.4140625 89.08203125 C-17.13529297 88.89962891 -17.85652344 88.71722656 -18.59960938 88.52929688 C-19.30537109 88.35205078 -20.01113281 88.17480469 -20.73828125 87.9921875 C-21.70447388 87.74867554 -21.70447388 87.74867554 -22.69018555 87.50024414 C-48.33797595 81.44575436 -75.38258229 86.46800289 -97.58007812 100.16308594 C-103.91015262 104.20522266 -109.55274745 108.56605052 -114.7265625 114.01953125 C-115.3865625 114.01953125 -116.0465625 114.01953125 -116.7265625 114.01953125 C-116.98308594 114.591875 -117.23960938 115.16421875 -117.50390625 115.75390625 C-118.84955866 118.24744745 -120.435409 120.12753165 -122.2890625 122.26953125 C-125.91392618 126.71611906 -128.81227075 131.34012745 -131.6015625 136.33203125 C-131.98256104 137.01362305 -132.36355957 137.69521484 -132.75610352 138.39746094 C-134.65651482 141.86640475 -136.35881642 145.29782217 -137.7265625 149.01953125 C-138.63277344 149.12910156 -139.53898437 149.23867187 -140.47265625 149.3515625 C-148.7165307 150.39350348 -148.7165307 150.39350348 -156.6640625 152.70703125 C-160.8445136 154.17479993 -163.40025681 154.53753325 -167.7265625 153.01953125 C-177.70883815 146.14357152 -184.56582055 135.87065571 -187.2890625 124.05859375 C-189.19747137 110.80196782 -188.06501508 98.11575744 -180.4765625 86.70703125 C-179.25915942 85.11900229 -178.00936908 83.5552114 -176.7265625 82.01953125 C-176.12972656 81.29894531 -175.53289062 80.57835937 -174.91796875 79.8359375 C-168.04341226 72.27535458 -158.74546449 67.74692814 -148.7265625 66.01953125 C-146.72670905 65.99531995 -144.72636416 65.99136503 -142.7265625 66.01953125 C-142.62859375 65.00375 -142.530625 63.98796875 -142.4296875 62.94140625 C-139.87685687 38.5899578 -128.68067234 16.84081644 -109.5703125 1.26171875 C-77.10942569 -22.86754044 -32.91436235 -23.90771019 0 0 Z " fill="#EFF4F6" transform="translate(204.7265625,102.98046875)"/>
<path d="M0 0 C24.94449918 20.72700437 41.94178965 47.81953126 45.46484375 80.5234375 C47.17358174 107.21896712 47.17358174 107.21896712 42.703125 118.24609375 C13.57256838 125.37994008 -17.13639867 118.29030902 -42.56689453 103.3125 C-69.50459736 86.70737921 -89.08361892 59.80513156 -96.70703125 29.0859375 C-100.27206148 11.92185157 -100.49271849 -5.51917883 -97.296875 -22.75390625 C-62.62108324 -28.48206064 -27.98419154 -22.05857721 0 0 Z " fill="#F5CA43" transform="translate(383.296875,130.75390625)"/>
<path d="M0 0 C0.63244629 0.21962402 1.26489258 0.43924805 1.91650391 0.66552734 C26.9128222 9.38431227 46.4922598 27.54132584 58.75 50.8125 C63.67585056 61.03077605 68.21514779 72.86391578 68.0625 84.3125 C68.05347656 85.19550781 68.04445313 86.07851563 68.03515625 86.98828125 C68.01775391 87.98408203 68.01775391 87.98408203 68 89 C68.886875 88.9175 69.77375 88.835 70.6875 88.75 C77.98368642 88.7350488 86.42528887 91.26624286 92 96 C91.47680176 96.26103516 90.95360352 96.52207031 90.41455078 96.79101562 C80.49549268 101.7756424 71.32364795 106.58320864 63 114 C62.18917969 114.61617188 61.37835938 115.23234375 60.54296875 115.8671875 C57.69089609 118.25924844 55.50692022 120.84207018 53.1875 123.75 C52.39730469 124.73484375 51.60710937 125.7196875 50.79296875 126.734375 C49.90544922 127.85585938 49.90544922 127.85585938 49 129 C46.80516746 127.92822429 44.66821726 126.81033439 42.546875 125.59765625 C34.22168188 121.02810193 26.27848092 119.34231831 17 118 C16.91548584 117.3922876 16.83097168 116.7845752 16.74389648 116.15844727 C12.69684275 88.01989488 1.63613556 62.0922766 -21.73681641 44.53955078 C-46.03887756 27.24592259 -72.71336758 22.5253148 -102 26 C-79.99884309 -2.72373263 -33.03117346 -12.16541508 0 0 Z " fill="#A4D5DC" transform="translate(191,192)"/>
<path d="M0 0 C14.33685051 7.58859938 23.88720885 27.46333641 29 42 C31.57051354 50.5312097 33.65177658 59.03807203 33 68 C34.051875 67.9175 35.10375 67.835 36.1875 67.75 C49.12333425 67.81856449 60.54628317 74.60565593 69.75 83.1875 C79.68835875 93.66017911 84.60669978 105.97981277 84.4375 120.3125 C84.42920166 121.22821777 84.42090332 122.14393555 84.41235352 123.08740234 C84.05021245 137.69934333 78.69803286 149.21831417 68.6875 159.8125 C58.71628301 169.22882633 46.96064566 174.22220354 33.1875 174.25 C31.12427878 174.18700088 29.0611828 174.11124825 27 174 C27.3609375 173.04222656 27.721875 172.08445312 28.09375 171.09765625 C33.30478396 156.48858097 34.2982299 142.54150138 28 128 C21.20384374 114.12171061 11.6216772 104.82860457 -3.125 99.625 C-8.09790425 98.10586215 -12.8185861 97.34542759 -18 97 C-18.34144359 95.31412229 -18.67271803 93.62618407 -19 91.9375 C-19.185625 90.99777344 -19.37125 90.05804688 -19.5625 89.08984375 C-20.57574632 81.93379164 -19.8005652 77.81654643 -15.9375 71.75 C-2.51794668 49.28487054 0.23950476 25.68023244 0 0 Z " fill="#A4D5DD" transform="translate(428,213)"/>
<path d="M0 0 C0 0.66 0 1.32 0 2 C1.14576596 3.04755745 2.3439356 4.03809717 3.5625 5 C10.30867417 10.77053699 14.33468465 17.32317465 17.625 25.5 C19.71614151 29.90650887 19.71614151 29.90650887 23.9140625 32.0625 C26.16381915 32.35755005 28.42391006 32.58137331 30.6875 32.73828125 C42.54599536 33.67521426 51.77169274 41.85500387 59.2109375 50.5390625 C67.29066359 61.65309621 69.23073296 74.61932015 68 88 C65.47157952 101.12659014 57.75481198 112.21959017 47 120 C39.09210775 124.44886923 31.15369907 127.37362037 22 127 C23.21637823 124.55501863 24.44949956 122.11968677 25.69140625 119.6875 C26.31519749 118.45838069 26.93889307 117.22921283 27.5625 116 C27.87896484 115.38382813 28.19542969 114.76765625 28.52148438 114.1328125 C33.53683144 104.20860132 33.55863619 91.89853775 31.12890625 81.14453125 C26.57183881 68.63874291 18.95483802 58.76218044 7.11328125 52.46484375 C1.83059333 50.09626603 -2.47325565 48.91601987 -8.25 48.625 C-11.25390625 48.22265625 -11.25390625 48.22265625 -14 47 C-16.54081126 43.48229835 -18.28009392 39.89032172 -20.08984375 35.96484375 C-27.18238511 20.62516127 -42.27456242 10.91664634 -57.578125 5.00390625 C-63.23450605 3.04664857 -68.50334676 1.86873378 -74.51953125 1.90234375 C-76.0519043 1.90717773 -76.0519043 1.90717773 -77.61523438 1.91210938 C-79.19788086 1.92467773 -79.19788086 1.92467773 -80.8125 1.9375 C-81.88693359 1.94201172 -82.96136719 1.94652344 -84.06835938 1.95117188 C-86.71229683 1.96292271 -89.35611952 1.97935213 -92 2 C-66.82589258 -25.31153163 -27.96462409 -16.12927351 0 0 Z " fill="#DDE9ED" transform="translate(196,353)"/>
<path d="M0 0 C2.48806025 1.94309237 4.89475229 3.9444195 7.2734375 6.01953125 C7.88703125 6.54933594 8.500625 7.07914063 9.1328125 7.625 C14.85015406 12.93583333 19.02931054 19.52173997 23.2734375 26.01953125 C23.87671875 26.89351562 24.48 27.7675 25.1015625 28.66796875 C26.2734375 31.01953125 26.2734375 31.01953125 26.23828125 33.05859375 C24.90327059 35.77185428 23.06633339 37.35551098 20.8359375 39.39453125 C12.34698961 47.628081 5.58237712 57.45753558 0.2734375 68.01953125 C-1.55532611 65.27638583 -2.80089914 62.69628265 -4.1640625 59.70703125 C-14.99589377 37.93794942 -34.06778267 23.81531724 -56.7265625 16.01953125 C-57.69207031 15.67792969 -58.65757812 15.33632812 -59.65234375 14.984375 C-83.00819903 8.18936974 -106.49137575 13.96670348 -127.7265625 24.01953125 C-126.18473817 14.43819436 -114.78468147 5.13804932 -107.2890625 -0.41796875 C-74.51126909 -22.53550716 -32.45652507 -23.57515503 0 0 Z " fill="#DDE9ED" transform="translate(204.7265625,102.98046875)"/>
<path d="M0 0 C0.33 0 0.66 0 1 0 C3.29612756 11.52164009 3.29612756 11.52164009 3 17 C4.19625 16.896875 5.3925 16.79375 6.625 16.6875 C19.35949157 16.74756836 30.13463046 23.71685261 39.2109375 32.0234375 C48.89567111 42.00502118 54.40402278 55.33073297 54.375 69.1875 C54.37483887 69.91855957 54.37467773 70.64961914 54.37451172 71.40283203 C54.20862151 79.41969466 52.48908273 87.2663759 48 94 C45.06759061 94.44592011 43.49558436 94.27583545 40.89453125 92.828125 C40.20746094 92.30734375 39.52039063 91.7865625 38.8125 91.25 C30.45682952 85.40378831 22.02985087 83.30973998 12 82 C11.91024902 81.44763672 11.82049805 80.89527344 11.72802734 80.32617188 C7.84642469 56.9882172 0.84678227 37.97435952 -15 20 C-13.287474 15.8512019 -10.41116967 12.7812078 -7.5 9.4375 C-3.55102588 4.87578359 -3.55102588 4.87578359 0 0 Z " fill="#C3E0E7" transform="translate(407,293)"/>
<path d="M0 0 C19.52063409 3.18117528 36.12194415 11.9939178 50 26 C51.42041821 28.84083641 51.31452272 30.85477278 51 34 C49.06359458 36.65359262 47.62141377 37.7609947 44.5625 38.9375 C40.54154914 39.03557197 37.98591972 36.9168037 35.10546875 34.23828125 C34.47253906 33.60277344 33.83960938 32.96726562 33.1875 32.3125 C22.37549213 22.54565289 8.01034388 17.41077581 -6.375 16.5625 C-11.48680384 16.20024618 -14.45964089 15.83538903 -18 12 C-18.72825152 9.18525008 -18.83925115 6.79023759 -18 4 C-13.50563079 -2.04929315 -6.83651622 -0.7870444 0 0 Z " fill="#EFF4F6" transform="translate(330,296)"/>
<path d="M0 0 C2.375 1.625 2.375 1.625 4 4 C5.36658535 11.52641784 1.02843415 17.01258489 -2.75 23.25 C-3.38421875 24.33796875 -4.0184375 25.4259375 -4.671875 26.546875 C-10.0413751 35.5855335 -10.0413751 35.5855335 -14 38 C-16.9375 38.5 -16.9375 38.5 -20 38 C-23.32572175 35.61415614 -24.78486027 34.13978281 -25.55078125 30.08203125 C-25.35299257 24.00880212 -21.34687566 18.79415694 -18.3125 13.75 C-17.68666016 12.66203125 -17.06082031 11.5740625 -16.41601562 10.453125 C-8.61394046 -2.74912993 -8.61394046 -2.74912993 0 0 Z " fill="#F8E98E" transform="translate(407,57)"/>
<path d="M0 0 C4.22768668 4.48446592 7.16050484 10.01675053 10.25 15.3125 C10.80429688 16.22451172 11.35859375 17.13652344 11.9296875 18.07617188 C15.18983373 23.67703885 16.91780788 27.49521875 16 34 C13.45767292 36.99097304 11.8425303 37.84202557 8 38.5625 C4.09068275 37.82950302 2.40875509 35.99456635 0 33 C-2.24480149 29.63025675 -4.25438532 26.14667296 -6.25 22.625 C-6.79140625 21.70460938 -7.3328125 20.78421875 -7.890625 19.8359375 C-10.7317427 14.86398153 -12.93998705 10.7912496 -13 5 C-9.57729471 -0.62301583 -6.29476197 -1.79850342 0 0 Z " fill="#F8E98E" transform="translate(222,57)"/>
<path d="M0 0 C2.79471217 1.73464893 3.03363107 3.11140293 4 6.3125 C4 10.300059 3.33982591 11.48461687 0.75195312 14.39233398 C-2.83457951 17.68348747 -7.03649984 19.98163736 -11.25 22.375 C-12.15363281 22.92027344 -13.05726563 23.46554688 -13.98828125 24.02734375 C-19.43593157 27.15484372 -24.62804822 29.65987857 -31 28 C-33.39983779 26.08441273 -33.95978542 25.13213362 -34.875 22.125 C-35.03378129 18.15546766 -34.57819146 17.03316642 -32 14 C-24.05443192 7.68336388 -10.28373006 -2.57093251 0 0 Z " fill="#F8E98E" transform="translate(475,125)"/>
<path d="M0 0 C0.69371201 -0.00241196 1.38742401 -0.00482391 2.10215759 -0.00730896 C3.56205997 -0.00633343 5.02200068 0.00699051 6.48168945 0.03198242 C8.71237987 0.06636827 10.93912061 0.05261422 13.16992188 0.03320312 C14.59246472 0.04010046 16.01499738 0.04977185 17.4375 0.0625 C18.725354 0.07337646 20.01320801 0.08425293 21.34008789 0.09545898 C25.18729584 0.71506165 26.36233486 1.53196498 28.65234375 4.62890625 C29.65234375 8.06640625 29.65234375 8.06640625 29.65234375 11.62890625 C28.1328125 14.31225586 28.1328125 14.31225586 25.65234375 16.62890625 C22.88120815 17.12691692 20.73037268 17.30941726 17.96484375 17.2578125 C17.22532471 17.26022446 16.48580566 17.26263641 15.72387695 17.26512146 C14.16384507 17.26414407 12.60377804 17.25077581 11.04394531 17.22583008 C8.65960578 17.19151078 6.27897248 17.20517367 3.89453125 17.22460938 C2.37628635 17.21771063 0.85805099 17.20803797 -0.66015625 17.1953125 C-1.37067139 17.20027237 -2.08118652 17.20523224 -2.81323242 17.21034241 C-6.18697322 17.13030005 -8.05646185 16.84570304 -10.79296875 14.80834961 C-13.10092725 11.57293103 -12.95960743 9.50459706 -12.34765625 5.62890625 C-8.59603402 0.77954956 -6.03645381 -0.00339572 0 0 Z " fill="#F8E98E" transform="translate(474.34765625,216.37109375)"/>
<path d="M0 0 C0.66 -0.0103125 1.32 -0.020625 2 -0.03125 C4.99013624 0.76300494 6.09590427 2.07164454 8 4.5 C8.39842915 7.1326394 8.56215695 9.34012168 8.53125 11.96875 C8.5350769 12.686073 8.53890381 13.403396 8.54284668 14.14245605 C8.54556227 15.65536914 8.53822555 17.16832945 8.52148438 18.68115234 C8.50006551 20.99292976 8.52129351 23.30160013 8.546875 25.61328125 C8.54423166 27.08594434 8.53910653 28.5586055 8.53125 30.03125 C8.53934692 30.71989136 8.54744385 31.40853271 8.55578613 32.11804199 C8.48971622 35.51082725 8.21166053 37.23006241 6.09179688 39.93359375 C3.82078285 41.63420369 2.80010735 42.04375168 0 42 C-0.99 42.01546875 -0.99 42.01546875 -2 42.03125 C-4.99013624 41.23699506 -6.09590427 39.92835546 -8 37.5 C-8.39842915 34.8673606 -8.56215695 32.65987832 -8.53125 30.03125 C-8.5350769 29.313927 -8.53890381 28.596604 -8.54284668 27.85754395 C-8.54556227 26.34463086 -8.53822555 24.83167055 -8.52148438 23.31884766 C-8.50006551 21.00707024 -8.52129351 18.69839987 -8.546875 16.38671875 C-8.54423166 14.91405566 -8.53910653 13.4413945 -8.53125 11.96875 C-8.53934692 11.28010864 -8.54744385 10.59146729 -8.55578613 9.88195801 C-8.48971622 6.48917275 -8.21166053 4.76993759 -6.09179688 2.06640625 C-3.82078285 0.36579631 -2.80010735 -0.04375168 0 0 Z " fill="#F8E98E" transform="translate(310,31.5)"/>
<path d="M0 0 C3.72997607 1.21629654 5.19531537 2.63906797 7.0078125 6.1015625 C11.51955343 17.29210102 11.51955343 17.29210102 10.875 22.9375 C8.8125 26 8.8125 26 5.875 27.9375 C2.8125 28.5 2.8125 28.5 -0.125 27.9375 C-4.07659253 24.84695487 -5.46260648 21.14251098 -6.9375 16.5 C-7.16630859 15.84451172 -7.39511719 15.18902344 -7.63085938 14.51367188 C-8.90052661 10.64254579 -9.50576708 7.82177912 -8.125 3.9375 C-5.37412674 0.9508376 -4.10933388 -0.08218668 0 0 Z " fill="#EFF4F6" transform="translate(389.125,341.0625)"/>
</svg>
