<?xml version="1.0" encoding="UTF-8"?>
<svg version="1.1" xmlns="http://www.w3.org/2000/svg" width="512" height="512">
<path d="M0 0 C0.76828125 0.62648438 1.5365625 1.25296875 2.328125 1.8984375 C3.15828125 2.56617187 3.9884375 3.23390625 4.84375 3.921875 C14.53936278 12.16017174 21.20673867 21.9727462 26.8203125 33.28125 C28.20924458 36.13988982 28.20924458 36.13988982 31.328125 37.8984375 C36.25462519 38.63217157 39.30076857 37.60892853 43.828125 35.5859375 C62.94603624 27.21590671 83.69507384 28.21447705 103.078125 35.1484375 C121.9839587 42.95084506 136.24845189 57.37439323 145.015625 75.71875 C148.22694463 83.49855411 150.34691428 91.71915862 151.640625 100.03125 C152.66236503 102.80620303 154.02092306 104.04638508 156.328125 105.8984375 C159.65436985 106.5679033 159.65436985 106.5679033 163.41015625 106.5859375 C164.10139084 106.61518311 164.79262543 106.64442871 165.50480652 106.67456055 C167.71650749 106.76724993 169.92788771 106.83560997 172.140625 106.8984375 C186.29062578 107.31111279 199.65831683 108.79203254 212.453125 115.4609375 C213.10998291 115.79826904 213.76684082 116.13560059 214.44360352 116.4831543 C233.57242968 126.77191658 246.24966715 144.4080947 252.828125 164.8359375 C257.91125918 186.2350247 254.47369192 208.09096673 243.52587891 226.98925781 C237.78803171 236.13519444 230.15988471 243.7317995 221.328125 249.8984375 C220.59722656 250.42824219 219.86632812 250.95804687 219.11328125 251.50390625 C207.78638067 259.03581108 193.26319528 263.02994047 179.75379944 263.01869202 C177.83355957 263.02075401 177.83355957 263.02075401 175.87452698 263.02285767 C174.47372413 263.01931945 173.07292152 263.01568465 171.67211914 263.01196289 C170.18342084 263.01168054 168.69472239 263.01183969 167.20602417 263.0124054 C163.1796953 263.01269149 159.15339641 263.00682508 155.12707448 262.99983144 C150.91369229 262.99356668 146.70030935 262.99299163 142.48692322 262.99180603 C134.51501549 262.98870191 126.54312153 262.98050093 118.57121986 262.97045654 C109.49263482 262.95926683 100.4140491 262.95377776 91.33545887 262.94876111 C72.66633979 262.93831754 53.9972335 262.92073592 35.328125 262.8984375 C35.4092849 266.46185031 35.52210361 270.02358706 35.640625 273.5859375 C35.66318359 274.59333984 35.68574219 275.60074219 35.70898438 276.63867188 C35.87157509 283.79564239 35.87157509 283.79564239 39.328125 289.8984375 C43.23450664 292.26627218 47.19610874 293.55381228 51.578125 294.7734375 C67.15950728 299.52020062 79.13437787 308.6798763 87.328125 322.8984375 C95.08687026 337.52387977 96.9378611 354.30041066 92.765625 370.3984375 C87.32796956 386.59732712 76.62605382 399.35809629 61.56640625 407.3671875 C52.35937714 411.78450691 43.90939469 413.19967516 33.75296021 413.15913391 C32.20948451 413.16487223 32.20948451 413.16487223 30.63482749 413.17072648 C27.20588037 413.18099972 23.77710248 413.17707511 20.34814453 413.1730957 C17.88193609 413.17744531 15.41572901 413.18262928 12.94952393 413.18858337 C6.95724807 413.20057008 0.96503808 413.20312802 -5.02724372 413.20078311 C-9.90060493 413.19899626 -14.77395257 413.20075745 -19.64731216 413.20500755 C-20.34230784 413.20560274 -21.03730351 413.20619793 -21.75335965 413.20681116 C-23.1654868 413.20802297 -24.57761395 413.20923711 -25.9897411 413.21045353 C-39.21722657 413.22131691 -52.4446865 413.21917228 -65.6721734 413.21306869 C-77.75660667 413.20790056 -89.84095931 413.21915435 -101.92537664 413.23816691 C-114.35246867 413.25756777 -126.7795226 413.26579737 -139.20662987 413.26204365 C-146.17596664 413.26013502 -153.1452348 413.26258611 -160.11455917 413.27675819 C-166.6694703 413.28995338 -173.22424704 413.2873815 -179.77916718 413.27434731 C-182.18049042 413.27198448 -184.58182504 413.27470561 -186.98313522 413.28297043 C-190.26985687 413.29346422 -193.55604019 413.28531568 -196.84274292 413.2726593 C-197.78508156 413.28003359 -198.72742019 413.28740787 -199.69831455 413.29500562 C-215.8823149 413.16457058 -230.7263985 406.13447228 -242.046875 394.78515625 C-255.47991338 380.01281197 -258.5026992 363.77871717 -257.85107422 344.54443359 C-257.47105259 338.93316056 -255.95724731 334.04231625 -253.671875 328.8984375 C-253.07052734 327.51011719 -253.07052734 327.51011719 -252.45703125 326.09375 C-246.62343446 314.15601279 -237.29544651 305.12098105 -225.671875 298.8984375 C-224.61806641 298.30289063 -224.61806641 298.30289063 -223.54296875 297.6953125 C-212.79052822 292.22727822 -199.84554056 291.59637671 -188 291.20703125 C-183.99620907 290.87062142 -183.99620907 290.87062142 -180.671875 288.8984375 C-178.04571015 284.57900334 -176.72220316 279.97639634 -175.359375 275.1484375 C-172.6864439 266.15579359 -168.59676232 259.17394429 -162.671875 251.8984375 C-163.34992188 251.36476563 -164.02796875 250.83109375 -164.7265625 250.28125 C-183.79710337 235.01425191 -196.48707524 217.68556121 -199.671875 192.8984375 C-201.22338844 171.21975661 -195.3355663 151.74448425 -181.671875 134.8984375 C-180.888125 133.8465625 -180.104375 132.7946875 -179.296875 131.7109375 C-166.10142238 117.57295255 -149.28710281 110.97532399 -130.84375 106.671875 C-127.65114038 105.53493848 -126.16802175 103.89073099 -124.671875 100.8984375 C-124.56969823 99.55860705 -124.52608415 98.21402928 -124.51416016 96.87036133 C-124.50389801 96.03801468 -124.49363586 95.20566803 -124.48306274 94.34809875 C-124.47576141 93.44303085 -124.46846008 92.53796295 -124.4609375 91.60546875 C-124.43282018 89.67512244 -124.40415555 87.74478404 -124.375 85.81445312 C-124.33411834 82.78263998 -124.29722777 79.75096677 -124.27050781 76.71899414 C-124.00488013 48.96319087 -118.67467878 26.07488432 -98.25756836 6.01074219 C-72.31088906 -18.41256031 -28.69161919 -21.7562278 0 0 Z " fill="#E9F5FE" transform="translate(257.671875,34.1015625)"/>
<path d="M0 0 C2.69634046 1.65399677 5.2451381 3.40219141 7.78515625 5.28515625 C8.81640625 6.00703125 9.84765625 6.72890625 10.91015625 7.47265625 C22.96009351 18.16436358 29.15150934 32.60318977 30.78515625 48.28515625 C31.09714984 54.3133589 31.18722747 60.34197875 31.24145508 66.37744141 C31.26312433 68.40958864 31.30247452 70.44082635 31.34375 72.47265625 C31.35720459 73.66246094 31.37065918 74.85226562 31.38452148 76.078125 C31.82403047 79.59633956 32.6601886 81.47265275 34.78515625 84.28515625 C38.69153789 86.65299093 42.65313999 87.94053103 47.03515625 89.16015625 C62.61653853 93.90691937 74.59140912 103.06659505 82.78515625 117.28515625 C90.54390151 131.91059852 92.39489235 148.68712941 88.22265625 164.78515625 C82.78500081 180.98404587 72.08308507 193.74481504 57.0234375 201.75390625 C47.81640839 206.17122566 39.36642594 207.58639391 29.20999146 207.54585266 C28.18100766 207.54967821 27.15202387 207.55350376 26.09185874 207.55744523 C22.66291162 207.56771847 19.23413373 207.56379386 15.80517578 207.55981445 C13.33896734 207.56416406 10.87276026 207.56934803 8.40655518 207.57530212 C2.41427932 207.58728883 -3.57793067 207.58984677 -9.57021247 207.58750186 C-14.44357368 207.58571501 -19.31692132 207.5874762 -24.19028091 207.5917263 C-24.88527659 207.59232149 -25.58027226 207.59291668 -26.2963284 207.59352991 C-27.70845555 207.59474172 -29.1205827 207.59595586 -30.53270985 207.59717228 C-43.76019532 207.60803566 -56.98765525 207.60589103 -70.21514215 207.59978744 C-82.29957542 207.59461931 -94.38392806 207.6058731 -106.46834539 207.62488566 C-118.89543742 207.64428652 -131.32249135 207.65251612 -143.74959862 207.6487624 C-150.71893539 207.64685377 -157.68820355 207.64930486 -164.65752792 207.66347694 C-171.21243905 207.67667213 -177.76721579 207.67410025 -184.32213593 207.66106606 C-186.72345917 207.65870323 -189.12479379 207.66142436 -191.52610397 207.66968918 C-194.81282562 207.68018297 -198.09900894 207.67203443 -201.38571167 207.65937805 C-202.32805031 207.66675234 -203.27038894 207.67412662 -204.2412833 207.68172437 C-220.42528365 207.55128933 -235.26936725 200.52119103 -246.58984375 189.171875 C-260.02288213 174.39953072 -263.04566795 158.16543592 -262.39404297 138.93115234 C-262.01402134 133.31987931 -260.50021606 128.429035 -258.21484375 123.28515625 C-257.81394531 122.35960937 -257.41304688 121.4340625 -257 120.48046875 C-251.16640321 108.54273154 -241.83841526 99.5076998 -230.21484375 93.28515625 C-229.16103516 92.68960938 -229.16103516 92.68960938 -228.0859375 92.08203125 C-217.33349697 86.61399697 -204.38850931 85.98309546 -192.54296875 85.59375 C-188.53917782 85.25734017 -188.53917782 85.25734017 -185.21484375 83.28515625 C-182.5886789 78.96572209 -181.26517191 74.36311509 -179.90234375 69.53515625 C-175.09735159 53.36953808 -164.74157383 41.86331609 -150.203125 33.56640625 C-147.57317588 32.33584518 -144.94286012 31.27678183 -142.21484375 30.28515625 C-141.4775 29.96933594 -140.74015625 29.65351563 -139.98046875 29.328125 C-127.64498014 24.67041464 -113.72722664 26.67904934 -101.46484375 30.37890625 C-97.03986384 31.61279488 -93.773936 31.87342622 -89.21484375 31.28515625 C-85.40601009 28.71858834 -83.24459967 26.10943039 -80.96484375 22.16015625 C-72.64250965 8.70810759 -62.13584588 0.43790821 -47.21484375 -4.71484375 C-46.34214844 -5.070625 -45.46945313 -5.42640625 -44.5703125 -5.79296875 C-29.95707727 -9.80778076 -13.19410132 -7.03792282 0 0 Z " fill="#CFE8FB" transform="translate(262.21484375,239.71484375)"/>
<path d="M0 0 C18.0219978 -0.83093228 32.10865469 0.96075617 47 12 C48.03125 12.721875 49.0625 13.44375 50.125 14.1875 C62.17493726 24.87920733 68.36635309 39.31803352 70 55 C70.31199359 61.02820265 70.40207122 67.0568225 70.45629883 73.09228516 C70.47796808 75.12443239 70.51731827 77.1556701 70.55859375 79.1875 C70.57877563 80.97220703 70.57877563 80.97220703 70.59936523 82.79296875 C71.03887422 86.31118331 71.87503235 88.1874965 74 91 C77.90638164 93.36783468 81.86798374 94.65537478 86.25 95.875 C101.83138228 100.62176312 113.80625287 109.7814388 122 124 C129.75874526 138.62544227 131.6097361 155.40197316 127.4375 171.5 C121.99984456 187.69888962 111.29792882 200.45965879 96.23828125 208.46875 C86.43420554 213.17251854 77.74961102 214.30235955 66.9375 214.125 C65.88111328 214.11597656 64.82472656 214.10695313 63.73632812 214.09765625 C61.15730747 214.0743167 58.5787801 214.04157775 56 214 C59.17130755 212.38496269 62.37335098 211.04966628 65.6875 209.75 C71.31667576 207.41478232 76.13249849 204.64826327 81 201 C81.59167969 200.58492187 82.18335938 200.16984375 82.79296875 199.7421875 C94.23705566 190.99544831 101.35104076 175.84425488 104 162 C105.77659706 145.90485335 102.03434882 130.1015809 91.859375 117.30859375 C89.64765566 114.78467594 87.37053008 112.3747183 85 110 C84.43539062 109.42378906 83.87078125 108.84757812 83.2890625 108.25390625 C77.68238923 102.9891033 70.14444325 98.21436775 62.375 97.8125 C51.61189776 101.59951746 43.83448205 107.55721821 36.25 116.0625 C34 118 34 118 30.9375 118.5625 C28 118 28 118 25.625 116.5 C23.82812704 113.73558006 23.11949089 111.59463005 23.3046875 108.2734375 C26.00778349 99.43522476 36.49163216 92.59486442 44 88 C44.66 88 45.32 88 46 88 C45.90526601 83.3772893 45.79893538 78.75503055 45.68261719 74.1328125 C45.64472694 72.5658262 45.60981074 70.99876466 45.578125 69.43164062 C45.32174855 51.05289143 45.32174855 51.05289143 39.375 33.875 C39.02308594 33.19904785 38.67117188 32.5230957 38.30859375 31.82666016 C30.67899579 17.60940665 19.94238815 8.5679017 4.67578125 3.1796875 C3.13114449 2.73478198 1.56746158 2.35624127 0 2 C0 1.34 0 0.68 0 0 Z " fill="#B5DAF7" transform="translate(223,233)"/>
<path d="M0 0 C0.7748877 0.09063721 1.54977539 0.18127441 2.34814453 0.2746582 C22.45411138 2.93035732 40.38370721 13.34495196 53.46875 28.81640625 C67.57237386 47.74647516 71.73485949 69.45435128 69.10693359 92.75146484 C65.89546811 111.74317235 54.09643985 129.29933415 38.80859375 140.67578125 C38.00550781 141.23652344 37.20242188 141.79726563 36.375 142.375 C35.64410156 142.90480469 34.91320312 143.43460938 34.16015625 143.98046875 C20.79592834 152.86710919 5.15882933 155.56436361 -10.5625 155.4375 C-12.16061523 155.43073242 -12.16061523 155.43073242 -13.79101562 155.42382812 C-16.40240291 155.41211787 -19.01367124 155.39571724 -21.625 155.375 C-18.3950257 153.69777371 -15.33226103 152.69745769 -11.8125 151.75 C9.12014177 145.3832818 26.2704173 131.28854753 36.58203125 111.9765625 C45.6012192 94.30182494 47.74345695 72.88394301 41.69921875 53.796875 C37.71728192 43.50726834 32.81372697 34.59675086 25.375 26.375 C24.70984375 25.61703125 24.0446875 24.8590625 23.359375 24.078125 C12.51547625 12.43097449 -2.11108704 4.65678928 -17.625 1.375 C-17.625 1.045 -17.625 0.715 -17.625 0.375 C-11.56429137 -0.44983017 -6.0702407 -0.71069196 0 0 Z " fill="#D0E9FC" transform="translate(442.625,141.625)"/>
<path d="M0 0 C6.54686352 5.84541386 10.48006546 11.50448935 11.30859375 20.26171875 C11.62144399 29.03100568 10.74795491 36.22384507 5.234375 43.25 C-0.45783171 49.34559144 -7.02066622 53.40885031 -15.41015625 54.23828125 C-24.05958588 54.48031242 -31.01534685 52.55619259 -38.3125 47.875 C-46.06577201 39.58080204 -48.42304201 31.88421925 -48.19921875 20.7265625 C-47.74000576 12.1365784 -44.35232224 7.43087281 -38.47265625 1.20703125 C-27.68512476 -8.4216501 -11.56982518 -8.06439801 0 0 Z " fill="#E9F6FE" transform="translate(452,392)"/>
<path d="M0 0 C20.45908957 4.62534622 37.69555901 15.61450137 49.5703125 33.0078125 C52.54771019 37.80102224 55.10404739 42.61806265 57.3125 47.8125 C57.72757812 48.76511719 58.14265625 49.71773437 58.5703125 50.69921875 C64.33863477 66.77387907 63.44833983 87.55851664 57.89453125 103.58984375 C55.83164109 107.79202741 53.55336205 110.96681815 49.06640625 112.66015625 C44.86068634 113.07248173 42.77498465 113.03953792 38.875 111.125 C36.44280933 108.93009622 35.46976615 107.78519314 34.3125 104.8125 C34.265625 102.76953125 34.265625 102.76953125 34.5625 100.625 C34.66949219 99.82707031 34.77648437 99.02914062 34.88671875 98.20703125 C35.27446165 96.0264221 35.79838444 93.94888139 36.375 91.8125 C40.70014909 72.93912214 36.04730178 52.17856738 26.3125 35.8125 C23.84910612 32.26218369 21.1903444 29.02891432 18.3125 25.8125 C17.68601562 24.99007812 17.05953125 24.16765625 16.4140625 23.3203125 C5.70026834 10.53545032 -10.90637884 4.3709881 -26.6875 0.8125 C-19.82102189 -3.76515207 -7.81746735 -1.43171098 0 0 Z " fill="#D0E9FC" transform="translate(346.6875,65.1875)"/>
<path d="M0 0 C0.78737549 0.00563965 1.57475098 0.0112793 2.38598633 0.01708984 C3.19720947 0.02272949 4.00843262 0.02836914 4.84423828 0.03417969 C21.55299169 0.366022 38.11775377 5.71405121 51.13598633 16.32958984 C51.96614258 16.99732422 52.79629883 17.66505859 53.65161133 18.35302734 C63.3472241 26.59132409 70.0146 36.40389855 75.62817383 47.71240234 C77.01710591 50.57104216 77.01710591 50.57104216 80.13598633 52.32958984 C82.12568583 52.719727 84.12618502 53.06161634 86.13598633 53.32958984 C83.40840409 56.1632794 80.58208027 58.5829487 77.44848633 60.95458984 C68.90174098 67.75684532 62.64258779 75.63180645 56.86254883 84.86083984 C55.13598633 87.32958984 55.13598633 87.32958984 52.13598633 89.32958984 C49.26098633 89.76708984 49.26098633 89.76708984 46.13598633 89.32958984 C43.26098633 87.20458984 43.26098633 87.20458984 41.13598633 84.32958984 C40.57584726 79.48171959 41.57558837 76.89693658 44.26098633 72.89208984 C44.89004883 71.93560547 45.51911133 70.97912109 46.16723633 69.99365234 C47.89836482 67.65113323 49.66861631 65.7738629 51.76098633 63.76708984 C53.50504166 61.76986519 54.14037941 60.91606579 54.12036133 58.24365234 C53.39225491 55.43390836 52.3449835 52.97147256 51.13598633 50.32958984 C50.7437085 49.42877686 50.7437085 49.42877686 50.34350586 48.50976562 C41.54234592 28.47350771 27.6292569 14.70038608 7.13598633 6.32958984 C2.20757341 4.70951132 -2.80433813 3.47049707 -7.86401367 2.32958984 C-5.29155262 -0.24287121 -3.51195468 0.04550463 0 0 Z " fill="#D0E9FC" transform="translate(208.864013671875,19.67041015625)"/>
<path d="M0 0 C21.18970742 -1.938083 44.05279083 7.63925341 60.3515625 20.7421875 C61.22554688 21.48726562 62.09953125 22.23234375 63 23 C63.91523438 23.76570313 64.83046875 24.53140625 65.7734375 25.3203125 C77.35386553 35.33857136 77.35386553 35.33857136 78.5625 42.1875 C78 45 78 45 76.4375 47.375 C73.02544071 49.64970619 71.02388226 49.63534983 67 49 C64.5546875 46.76171875 64.5546875 46.76171875 62 44 C51.31725227 32.45728152 40.04250157 24.80079837 25 20 C23.62521484 19.52240234 23.62521484 19.52240234 22.22265625 19.03515625 C12.67535422 16.12945563 2.86914993 16.73669264 -7 17 C-7 16.34 -7 15.68 -7 15 C-6.38125 14.7525 -5.7625 14.505 -5.125 14.25 C-2.5523472 12.73667483 -2.1156677 11.73146229 -1 9 C-0.55188863 6.64435404 -0.55188863 6.64435404 -0.375 4.25 C-0.26285156 3.05117187 -0.26285156 3.05117187 -0.1484375 1.828125 C-0.09945312 1.22484375 -0.05046875 0.6215625 0 0 Z " fill="#D0E9FC" transform="translate(134,126)"/>
<path d="M0 0 C6.54686352 5.84541386 10.48006546 11.50448935 11.30859375 20.26171875 C11.62144399 29.03100568 10.74795491 36.22384507 5.234375 43.25 C-0.43939045 49.32584332 -7.19235507 53.70961775 -15.65625 54.1328125 C-16.5946875 54.13023437 -17.533125 54.12765625 -18.5 54.125 C-19.90765625 54.12886719 -19.90765625 54.12886719 -21.34375 54.1328125 C-23.7214263 54.01392868 -25.72683096 53.67551722 -28 53 C-28 52.34 -28 51.68 -28 51 C-27.41992188 50.731875 -26.83984375 50.46375 -26.2421875 50.1875 C-18.82072205 46.46452063 -14.48586874 41.78057381 -11.125 34.1875 C-8.80546174 27.14604457 -9.14193824 19.18291321 -11.7578125 12.26953125 C-15.54978396 5.34143246 -20.82224481 0.21082844 -28 -3 C-27.67 -3.66 -27.34 -4.32 -27 -5 C-17.70398173 -7.69095266 -7.79884296 -5.43594849 0 0 Z " fill="#D1E9FC" transform="translate(452,392)"/>
<path d="M0 0 C16.28567307 0.09265545 30.5642296 6.14887495 42.3125 17.375 C43.75680855 20.26361709 43.68938506 22.17147701 43.3125 25.375 C41.25 28.25 41.25 28.25 38.3125 30.375 C34.14144669 31.057536 32.08258569 30.81920037 28.4140625 28.703125 C25.14986598 26.25292207 22.76220899 23.67049668 20.125 20.5625 C12.0712924 11.45944939 2.60398504 6.65118194 -8.6875 2.375 C-5.85821438 -0.45428562 -3.95870311 0.04136576 0 0 Z " fill="#B5DAF7" transform="translate(140.6875,266.625)"/>
<path d="M0 0 C2.5 2.125 2.5 2.125 4 5 C4.07481382 9.26438773 3.64839572 11.23718151 0.875 14.5 C-2.97148295 16.50686067 -4.88546541 16.27176524 -9 15 C-11.5 12.875 -11.5 12.875 -13 10 C-13.07481382 5.73561227 -12.64839572 3.76281849 -9.875 0.5 C-6.02851705 -1.50686067 -4.11453459 -1.27176524 0 0 Z " fill="#CFE9FC" transform="translate(37,126)"/>
<path d="M0 0 C2.59952849 0.57448144 3.50436059 1.38232372 5.12109375 3.46875 C6.21554921 7.06481794 6.44075849 8.76548757 4.87109375 12.21875 C3.12109375 14.46875 3.12109375 14.46875 0.12109375 16.46875 C-3.08900138 16.81024948 -5.21799124 16.75455109 -8.19140625 15.46875 C-10.76666245 12.4165945 -11.16999074 9.40605076 -10.87890625 5.46875 C-8.42237204 0.10903901 -5.3967693 -0.07280633 0 0 Z " fill="#CFE9FC" transform="translate(246.87890625,475.53125)"/>
<path d="M0 0 C2.5 1.5 2.5 1.5 4 4 C4.60443392 6.80917861 4.66040854 9.19757073 4 12 C1.45767292 14.99097304 -0.1574697 15.84202557 -4 16.5625 C-8.13607554 15.78698584 -9.54999553 14.38677089 -12 11 C-12.62491523 7.04220351 -12.61006839 4.99136114 -10.5 1.5625 C-6.97441116 -0.64099302 -4.04985528 -0.79669284 0 0 Z " fill="#D0E9FC" transform="translate(487,328)"/>
</svg>
