<?xml version="1.0" encoding="UTF-8"?>
<svg version="1.1" xmlns="http://www.w3.org/2000/svg" width="512" height="512">
<path d="M0 0 C12.19092209 9.33088171 20.2471394 21.15845287 22.52734375 36.5625 C22.76994916 39.38071084 22.9430362 42.17252433 23 45 C23.5259375 44.84144531 24.051875 44.68289062 24.59375 44.51953125 C35.19339476 42.23097159 46.33388638 43.85036995 55.53515625 49.578125 C61.77492735 54.20326418 66.39362278 59.81775688 71 66 C71.94875 65.7834375 72.8975 65.566875 73.875 65.34375 C104.89996162 58.7929566 135.07370641 64.39185745 162 81 C172.69314679 88.23924293 181.76893858 96.69968205 189.0625 107.375 C189.84391357 108.50687744 189.84391357 108.50687744 190.64111328 109.66162109 C191.65596629 111.13380993 192.66814989 112.60784364 193.67724609 114.08398438 C194.72393913 115.60012446 195.8035712 117.09351958 196.89453125 118.578125 C209.26546946 135.68200791 211.61205396 157.59832165 213 178 C214.85625 177.52433594 214.85625 177.52433594 216.75 177.0390625 C238.7492702 171.40174951 261.58823132 175.70993684 281 187 C299.72428174 198.7702844 313.73489726 217.76247786 318.9675293 239.36791992 C323.42910834 261.68650798 319.97381228 284.67811808 308 304 C306.14294893 306.5173359 304.26177655 308.89521166 302.15234375 311.203125 C300.79395116 312.91251194 300.79395116 312.91251194 301.1875 314.890625 C301.455625 315.58671875 301.72375 316.2828125 302 317 C306.80269376 329.49857652 308.91204413 344.89719271 304.03515625 357.78125 C303.69355469 358.5134375 303.35195313 359.245625 303 360 C302.58621094 360.8971875 302.17242187 361.794375 301.74609375 362.71875 C295.07857898 375.94477384 284.23161626 386.30067131 270 391 C263.67118649 392.72320481 257.73935856 393.2907783 251.1975708 393.26742554 C250.25166919 393.27195665 249.30576757 393.27648776 248.33120227 393.28115618 C245.18331598 393.29374706 242.03560389 393.29218325 238.88769531 393.29052734 C236.62177306 393.29651591 234.35585285 393.30332221 232.0899353 393.31088257 C225.94928439 393.32851633 219.80868926 393.33323685 213.66801548 393.33451414 C209.82736446 393.33593778 205.98672753 393.34021143 202.14608002 393.34550858 C189.426788 393.36304684 176.70754226 393.3723499 163.98824111 393.37084763 C163.30376217 393.37076772 162.61928323 393.3706878 161.9140625 393.37060547 C161.22873942 393.37052371 160.54341634 393.37044195 159.8373259 393.37035771 C148.73712961 393.36954524 137.63706914 393.38867701 126.53691211 393.4168822 C115.11551196 393.44567266 103.69420545 393.45905361 92.27276301 393.45769465 C85.87006591 393.45718582 79.46752262 393.46282561 73.06485748 393.48405075 C67.04010677 393.50347868 61.01565588 393.50352624 54.99089432 393.48901749 C52.78713923 393.48693396 50.58336515 393.49160285 48.37964249 393.5037384 C28.99217464 393.60353767 13.84272348 390.95719532 -0.8984375 377.2578125 C-8.5014886 369.08947879 -13.49587445 358.924182 -14.54541016 347.81274414 C-14.63166656 346.91165421 -14.71792297 346.01056427 -14.80679321 345.08216858 C-14.87055145 344.39505295 -14.93430969 343.70793732 -15 343 C-16.80379372 343.00999275 -16.80379372 343.00999275 -18.64402771 343.02018738 C-30.0437154 343.0813218 -41.44336931 343.12612665 -52.84318447 343.15543652 C-58.70224848 343.17101214 -64.56117887 343.19210035 -70.42016602 343.22631836 C-76.08714654 343.25920333 -81.75399952 343.27691374 -87.42106819 343.28463173 C-89.57013007 343.29012342 -91.71918593 343.30084526 -93.86819267 343.31719017 C-120.57366906 343.51200547 -144.30833436 339.20193677 -165 321 C-165.76183594 320.33355469 -166.52367187 319.66710937 -167.30859375 318.98046875 C-177.57150317 309.39345285 -184.28094998 297.11351401 -189 284 C-189.3403125 283.05769531 -189.680625 282.11539062 -190.03125 281.14453125 C-195.99760459 260.67662038 -192.98485304 236.68129574 -183.1875 217.9375 C-179.74463505 211.76950619 -175.73958377 206.23109616 -171 201 C-170.26265625 200.16984375 -169.5253125 199.3396875 -168.765625 198.484375 C-153.85784195 182.60222704 -133.7237529 174.13245074 -112.1484375 172.75390625 C-105.63229912 172.63923301 -100.12545069 173.21867052 -93.8125 174.8125 C-90.36436919 175.54029568 -90.36436919 175.54029568 -87 175 C-83.47223244 172.17236557 -80.87734009 169.04191869 -78.05078125 165.54296875 C-69.28476723 154.85555848 -54.37972614 148.98512257 -41 147 C-30.35641791 146.3363398 -20.19607969 146.58095531 -10 150 C-9.84144531 149.27296875 -9.68289062 148.5459375 -9.51953125 147.796875 C-7.58437751 139.45753846 -4.83228947 131.66457893 -1 124 C-1.98203762 124.00276538 -1.98203762 124.00276538 -2.98391438 124.00558662 C-18.95213479 124.04985503 -34.9203337 124.0828999 -50.88860035 124.10362434 C-58.61089603 124.11391424 -66.33315062 124.12793058 -74.05541992 124.15087891 C-80.79020536 124.17088309 -87.52496102 124.18373304 -94.25977534 124.18817699 C-97.82211953 124.19077253 -101.38437857 124.19682487 -104.94669533 124.21146011 C-108.93430908 124.22770804 -112.92177703 124.22797521 -116.90942383 124.22705078 C-118.65946968 124.23783661 -118.65946968 124.23783661 -120.44487 124.24884033 C-129.84898968 124.22534746 -138.93230607 123.58921898 -147.375 119.125 C-148.33148438 118.63257813 -149.28796875 118.14015625 -150.2734375 117.6328125 C-160.09912842 111.74865949 -165.36570685 103.22455161 -168.34375 92.30078125 C-170.74037455 80.24633038 -168.3561398 69.67103453 -161.78515625 59.38671875 C-155.63400691 51.16275322 -147.5048349 46.10135377 -137.65625 43.34375 C-134.82549896 42.97741751 -132.16919121 43.1265027 -129.32836914 43.31933594 C-122.53393316 43.7321744 -122.53393316 43.7321744 -116.26953125 41.36328125 C-114.8078039 39.96364498 -113.38429198 38.52288894 -112.00390625 37.04296875 C-107.2735978 32.22045156 -100.87077351 30.52667819 -94.28515625 30.015625 C-90.45978273 29.9894686 -86.78520311 30.4592567 -83 31 C-82.79246094 30.33355469 -82.58492188 29.66710937 -82.37109375 28.98046875 C-77.1210572 13.27429246 -67.80975843 2.45145078 -53 -5 C-35.52362667 -12.21605092 -15.69266753 -10.5384776 0 0 Z " fill="#BEE9FB" transform="translate(192,64)"/>
<path d="M0 0 C19.85783346 -0.50657738 36.81082832 6.0897283 51.578125 19.15234375 C60.9321268 28.16843416 68.55690661 40.43195515 71.578125 53.15234375 C72.52896973 53.11306763 72.52896973 53.11306763 73.49902344 53.07299805 C90.1791995 52.4746808 101.38701406 53.28141977 114.6171875 64.28515625 C116.578125 66.15234375 116.578125 66.15234375 118.578125 69.15234375 C120.49378697 69.51862216 120.49378697 69.51862216 122.69140625 69.33984375 C123.5208374 69.31414307 124.35026855 69.28844238 125.20483398 69.26196289 C126.09114502 69.22578857 126.97745605 69.18961426 127.890625 69.15234375 C144.05110515 68.86358417 157.85126114 72.38956191 169.890625 83.83984375 C182.4984186 97.39219518 186.35515375 109.34156618 185.859375 127.46484375 C185.60891279 132.75794509 184.82924642 137.3272986 182.578125 142.15234375 C182.16433594 143.04953125 181.75054687 143.94671875 181.32421875 144.87109375 C174.65670398 158.09711759 163.80974126 168.45301506 149.578125 173.15234375 C143.24931149 174.87554856 137.31748356 175.44312205 130.7756958 175.41976929 C129.82979419 175.4243004 128.88389257 175.42883151 127.90932727 175.43349993 C124.76144098 175.44609081 121.61372889 175.444527 118.46582031 175.44287109 C116.19989806 175.44885966 113.93397785 175.45566596 111.6680603 175.46322632 C105.52740939 175.48086008 99.38681426 175.4855806 93.24614048 175.48685789 C89.40548946 175.48828153 85.56485253 175.49255518 81.72420502 175.49785233 C69.004913 175.51539059 56.28566726 175.52469365 43.56636611 175.52319138 C42.88188717 175.52311147 42.19740823 175.52303155 41.4921875 175.52294922 C40.80686442 175.52286746 40.12154134 175.5227857 39.4154509 175.52270146 C28.31525461 175.52188899 17.21519414 175.54102076 6.11503711 175.56922595 C-5.30636304 175.59801641 -16.72766955 175.61139736 -28.14911199 175.6100384 C-34.55180909 175.60952957 -40.95435238 175.61516936 -47.35701752 175.6363945 C-53.38176823 175.65582243 -59.40621912 175.65586999 -65.43098068 175.64136124 C-67.63473577 175.63927771 -69.83850985 175.6439466 -72.04223251 175.65608215 C-91.42970036 175.75588142 -106.57915152 173.10953907 -121.3203125 159.41015625 C-131.77484851 148.17833132 -135.99341659 134.20981774 -135.69921875 119.13671875 C-134.84576071 106.87577219 -129.14853189 93.87900064 -120.421875 85.15234375 C-108.53470245 75.46507002 -97.66303071 70.06588832 -82.296875 69.90234375 C-81.29309814 69.88820435 -81.29309814 69.88820435 -80.26904297 69.8737793 C-75.60279787 69.90427387 -71.80849578 70.7167224 -67.421875 72.15234375 C-67.45667969 71.59289062 -67.49148437 71.0334375 -67.52734375 70.45703125 C-68.09213567 53.72843257 -61.66198474 36.62965526 -50.421875 24.15234375 C-49.71675781 23.35570312 -49.01164062 22.5590625 -48.28515625 21.73828125 C-37.37992894 10.11306309 -22.10009382 1.21931973 -5.84375 0.2109375 C-3.89513494 0.16379359 -1.94725641 0.08669292 0 0 Z " fill="#DFF0F9" transform="translate(312.421875,281.84765625)"/>
<path d="M0 0 C12.19092209 9.33088171 20.2471394 21.15845287 22.52734375 36.5625 C22.76994916 39.38071084 22.9430362 42.17252433 23 45 C23.5259375 44.84144531 24.051875 44.68289062 24.59375 44.51953125 C35.19339476 42.23097159 46.33388638 43.85036995 55.53515625 49.578125 C61.93681536 54.3232613 67.22906786 59.44759891 70 67 C69.47535156 67.1959375 68.95070313 67.391875 68.41015625 67.59375 C45.28378677 76.52106734 23.25783619 88.98812571 9 110 C8.56307831 111.16112305 8.12615662 112.32224609 7.67599487 113.51855469 C5.94165456 117.87302279 3.96440978 121.34854493 0 124 C-8.5730733 126.53190495 -17.95260367 125.72007769 -26.80108023 125.48537827 C-30.38574768 125.40474918 -33.97050424 125.40290958 -37.55593872 125.3918457 C-43.57738761 125.36247881 -49.59632982 125.28250778 -55.61669922 125.16601562 C-64.07567815 125.00240263 -72.53362581 124.92932763 -80.99391532 124.87498283 C-87.59765852 124.82953351 -94.20120962 124.76152293 -100.8046875 124.6875 C-101.85685023 124.67578325 -101.85685023 124.67578325 -102.93026876 124.6638298 C-107.60736094 124.60952505 -112.28379332 124.53409944 -116.96044922 124.44921875 C-118.12235779 124.43441467 -119.28426636 124.4196106 -120.48138428 124.40435791 C-129.83467313 124.20822462 -138.97807526 123.56501774 -147.375 119.125 C-148.33148438 118.63257813 -149.28796875 118.14015625 -150.2734375 117.6328125 C-160.09912842 111.74865949 -165.36570685 103.22455161 -168.34375 92.30078125 C-170.74037455 80.24633038 -168.3561398 69.67103453 -161.78515625 59.38671875 C-155.63400691 51.16275322 -147.5048349 46.10135377 -137.65625 43.34375 C-134.82549896 42.97741751 -132.16919121 43.1265027 -129.32836914 43.31933594 C-122.53393316 43.7321744 -122.53393316 43.7321744 -116.26953125 41.36328125 C-114.8078039 39.96364498 -113.38429198 38.52288894 -112.00390625 37.04296875 C-107.2735978 32.22045156 -100.87077351 30.52667819 -94.28515625 30.015625 C-90.45978273 29.9894686 -86.78520311 30.4592567 -83 31 C-82.79246094 30.33355469 -82.58492188 29.66710937 -82.37109375 28.98046875 C-77.1210572 13.27429246 -67.80975843 2.45145078 -53 -5 C-35.52362667 -12.21605092 -15.69266753 -10.5384776 0 0 Z " fill="#9EDDF6" transform="translate(192,64)"/>
<path d="M0 0 C0.16491943 0.61182129 0.32983887 1.22364258 0.49975586 1.85400391 C11.50347926 42.20975561 29.96583272 80.46227763 59 111 C60.13205902 112.30641633 61.25753984 113.61857467 62.375 114.9375 C71.58364302 125.48636806 81.76768764 134.6537679 93 143 C92.80664062 143.556875 92.61328125 144.11375 92.4140625 144.6875 C90.08205735 151.52189134 88.12184401 158.04350458 87.4453125 165.25390625 C87.36039551 166.14537354 87.27547852 167.03684082 87.18798828 167.95532227 C87.12595215 168.63006592 87.06391602 169.30480957 87 170 C74.3856412 170.06988169 61.77132936 170.12300356 49.15681553 170.15543652 C43.29775152 170.17101214 37.43882113 170.19210035 31.57983398 170.22631836 C25.91285346 170.25920333 20.24600048 170.27691374 14.57893181 170.28463173 C12.42986993 170.29012342 10.28081407 170.30084526 8.13180733 170.31719017 C-18.57366906 170.51200547 -42.30833436 166.20193677 -63 148 C-63.76183594 147.33355469 -64.52367188 146.66710937 -65.30859375 145.98046875 C-75.57150317 136.39345285 -82.28094998 124.11351401 -87 111 C-87.3403125 110.05769531 -87.680625 109.11539063 -88.03125 108.14453125 C-93.99760459 87.67662038 -90.98485304 63.68129574 -81.1875 44.9375 C-77.74463505 38.76950619 -73.73958377 33.23109616 -69 28 C-68.26265625 27.16984375 -67.5253125 26.3396875 -66.765625 25.484375 C-49.21141462 6.78283061 -25.25220443 -1.06532737 0 0 Z " fill="#AEE4FE" transform="translate(90,237)"/>
<path d="M0 0 C-0.10957031 0.54567627 -0.21914062 1.09135254 -0.33203125 1.65356445 C-1.76934394 8.82479075 -3.1984863 15.99761554 -4.60449219 23.17504883 C-4.86647039 24.50806509 -5.13012066 25.84075393 -5.39550781 27.1730957 C-8.53469872 42.94499842 -10.30488974 58.37363361 -10.625 74.4375 C-10.66331552 76.0553564 -10.70237427 77.67319538 -10.7421875 79.29101562 C-10.83665507 83.1938636 -10.92119936 87.09680558 -11 91 C-15.41630613 91.14724041 -19.83196784 91.23471774 -24.25 91.3125 C-25.48492187 91.35439453 -26.71984375 91.39628906 -27.9921875 91.43945312 C-39.00652888 91.58437867 -48.56296641 88.84122398 -57.19140625 81.7734375 C-65.74063007 73.3903973 -70.06975105 62.74901796 -70.4375 50.8125 C-69.95980927 39.08596309 -65.32855276 28.80745729 -56.8125 20.6875 C-49.05600038 14.20406377 -40.42249825 10.63534172 -30.32763672 11.3190918 C-23.48621511 11.71720758 -23.48621511 11.71720758 -17.1640625 9.328125 C-14.99759149 7.30214187 -13.00613882 5.1826446 -11 3 C-6.99424856 0.53492219 -4.62226111 -0.12408755 0 0 Z " fill="#83D4ED" transform="translate(93,96)"/>
</svg>
