<?xml version="1.0" encoding="UTF-8"?>
<svg version="1.1" xmlns="http://www.w3.org/2000/svg" width="512" height="512">
<path d="M0 0 C17.21446216 14.6249281 27.32727008 33.67922449 29.8125 56.1875 C30.24536271 63.15574081 29.45413928 69.93378108 28.5703125 76.8359375 C28.48209229 77.53702637 28.39387207 78.23811523 28.30297852 78.96044922 C28.0124344 80.91629577 27.5888837 82.85097945 27.16015625 84.78125 C26.64337553 88.04502246 26.64337553 88.04502246 28.73828125 90.1953125 C29.58777344 90.83210938 30.43726563 91.46890625 31.3125 92.125 C48.58566473 106.4508555 58.90196862 128.82821158 61 151 C62.55562749 175.84161568 56.58899248 200.18141041 40.20703125 219.5390625 C39.47871094 220.35117187 38.75039063 221.16328125 38 222 C37.19949219 222.89460937 36.39898437 223.78921875 35.57421875 224.7109375 C18.44996638 242.82459112 -4.24097714 252.75565824 -29.13032198 253.46003056 C-35.04803105 253.54582534 -40.96368482 253.5379383 -46.88183594 253.51757812 C-49.55141577 253.52300859 -52.22095153 253.52999383 -54.89051819 253.53881836 C-61.34582911 253.55646962 -67.80095249 253.55282477 -74.25627032 253.5411678 C-79.50697533 253.53208353 -84.75762829 253.53093086 -90.00833893 253.53526306 C-91.13512795 253.53618246 -91.13512795 253.53618246 -92.28468038 253.53712043 C-93.81131354 253.5383995 -95.33794669 253.53969635 -96.86457983 253.5410108 C-111.12947031 253.55237651 -125.39425743 253.53936455 -139.65913096 253.51780933 C-151.87095011 253.49992732 -164.08261716 253.50305931 -176.29443359 253.52148438 C-190.51925792 253.54293698 -204.74399211 253.55129358 -218.96883035 253.53903532 C-220.48819493 253.53776128 -222.00755952 253.53650379 -223.52692413 253.53526306 C-224.27424649 253.53464596 -225.02156884 253.53402886 -225.79153733 253.53339306 C-231.0315361 253.52995439 -236.27147716 253.53573599 -241.51146698 253.54518127 C-247.90324123 253.556451 -254.29481923 253.55325697 -260.68657127 253.5320583 C-263.94113651 253.52161634 -267.19531184 253.51949661 -270.44988441 253.53065491 C-292.53716818 253.59937303 -309.97784014 251.32657689 -326.75 235.44140625 C-337.51300701 223.76279621 -343.694736 207.67073065 -343.2421875 191.78125 C-341.79508516 175.1629134 -336.09785103 161.68738823 -324 150 C-323.401875 149.41605469 -322.80375 148.83210937 -322.1875 148.23046875 C-317.9191746 144.32771751 -313.12945879 141.62870224 -308 139 C-308.2165625 138.46375 -308.433125 137.9275 -308.65625 137.375 C-312.41213964 126.80286621 -312.71420277 114.78371655 -308.25390625 104.38671875 C-303.00638402 94.39844435 -295.01803016 86.57519727 -284.359375 82.69140625 C-279.36647953 81.22825642 -274.90179151 80.8887683 -269.6875 80.9375 C-268.43324219 80.94652344 -267.17898438 80.95554687 -265.88671875 80.96484375 C-264.93410156 80.97644531 -263.98148437 80.98804688 -263 81 C-262.8040625 80.1028125 -262.608125 79.205625 -262.40625 78.28125 C-256.57092573 53.93386252 -242.26547745 33.63010036 -220.9375 20.26171875 C-208.58809484 12.92007089 -194.31566648 8.77066394 -180 8 C-179.28199219 7.94714844 -178.56398437 7.89429687 -177.82421875 7.83984375 C-157.47584066 7.03153167 -138.63371152 13.7779412 -122 25 C-119.25491856 21.62799309 -116.68867045 18.18063539 -114.1875 14.625 C-101.87626859 -2.24093607 -83.41505939 -13.0844379 -62.84765625 -16.56640625 C-40.25937177 -19.11188805 -18.10522831 -14.17897589 0 0 Z " fill="#F6F6F5" transform="translate(397,111)"/>
<path d="M0 0 C17.21446216 14.6249281 27.32727008 33.67922449 29.8125 56.1875 C30.43075718 66.3269177 29.5888388 77.44490597 26 87 C21.93257853 85.52640553 18.48949177 83.5168193 14.8125 81.25 C6.69868154 76.44124175 -1.94806908 73.53363505 -11 71 C-11.66999023 70.79262207 -12.33998047 70.58524414 -13.03027344 70.37158203 C-17.79216828 69.06754522 -22.04577643 68.97343194 -26.9765625 69.2265625 C-28.224375 69.28714844 -29.4721875 69.34773438 -30.7578125 69.41015625 C-33.34617591 69.55395422 -35.93265928 69.73659743 -38.515625 69.95703125 C-42.3400936 70.10351711 -45.32856061 70.10171776 -49 69 C-51.55030108 66.16978124 -53.01232536 63.50876889 -54.55908203 60.03637695 C-58.27348437 52.20919602 -65.75873889 48.21516378 -73.421875 44.91015625 C-83.30732678 41.42029221 -93.31674452 42.40091389 -103 46 C-103.79664063 45.11957031 -104.59328125 44.23914063 -105.4140625 43.33203125 C-106.48417029 42.15866744 -107.55449437 40.98550085 -108.625 39.8125 C-109.14707031 39.23435547 -109.66914063 38.65621094 -110.20703125 38.06054688 C-113.58744053 34.36713674 -117.08434071 31.12194457 -121 28 C-119.33717699 16.25631249 -107.24288732 5.33539063 -98.375 -1.6875 C-68.99256063 -22.83537037 -28.63674714 -22.42665712 0 0 Z " fill="#FEDF26" transform="translate(397,111)"/>
<path d="M0 0 C3.05752852 1.75645255 4.51912964 3.26824075 6.4375 6.1875 C7.2879451 10.43972548 6.6882968 14.01353707 5 18 C1.81712603 21.03483332 -0.16254686 21.88036384 -4.5 22.5 C-8.70093265 21.89986676 -10.79326564 20.75928305 -14 18 C-15.92693706 14.90014474 -16.00600905 13.16825346 -15.875 9.5 C-14.92080906 5.68323625 -13.71834365 3.8007177 -11 1 C-7.53472176 -0.73263912 -3.78892972 -0.4719774 0 0 Z " fill="#56A5E2" transform="translate(218,429)"/>
<path d="M0 0 C2.82424288 2.19022918 4.41508603 3.83017207 6 7 C6.49337839 11.93378393 6.52463704 14.06919235 4.0625 18.4375 C0.12136552 21.73518395 -2.92099432 22.40632045 -8 22 C-11.68514299 20.47787572 -14.16974759 18.56417575 -16 15 C-16.56041277 10.03634407 -16.5325029 7.97625531 -14.125 3.5625 C-10.30654676 -1.04210538 -5.68204271 -0.82193071 0 0 Z " fill="#56A5E2" transform="translate(349,391)"/>
<path d="M0 0 C2.93423195 1.79646854 4.47205355 2.9441071 6 6 C6.6326744 10.51910283 6.77294479 14.66253178 4.0625 18.5 C0.61076209 21.31774523 -1.41119984 22.02706216 -5.78125 22.23828125 C-9.35517431 21.85446191 -11.37644628 20.36759726 -14 18 C-16.58644464 14.5905957 -16.36503115 11.1613551 -16 7 C-12.56238275 -0.36632267 -7.49569379 -1.00420778 0 0 Z " fill="#56A5E2" transform="translate(261,391)"/>
<path d="M0 0 C0.77085937 -0.01417969 1.54171875 -0.02835937 2.3359375 -0.04296875 C4.89061989 0.2142433 6.44921909 0.84281137 8.625 2.1875 C11.7779475 6.12868438 12.15755319 9.21700357 11.625 14.1875 C10.30907862 17.23489688 8.98008251 18.8741919 6.5 21.0625 C2.32313134 22.69692687 -1.11267461 22.55175243 -5.375 21.1875 C-8.65134314 18.51293417 -10.00524101 17.06600772 -10.8125 12.96484375 C-11.03104767 8.87390458 -10.7043799 6.71450784 -8.5 3.1875 C-5.55269608 0.4135669 -3.94815297 0.03279197 0 0 Z " fill="#56A5E2" transform="translate(298.375,428.8125)"/>
<path d="M0 0 C2.87029869 1.79393668 4.49131638 2.98263276 6 6 C6.61534861 10.96674233 6.78240834 14.76329005 4.0625 19.0625 C0.05613335 21.59714012 -3.26833914 22.43318022 -8 22 C-12.11234128 19.98121428 -14.32979898 18.24153376 -16 14 C-16.42556948 9.04388878 -15.65591243 5.80349272 -12.5 1.9375 C-8.61872247 -0.75601308 -4.54519393 -0.92912804 0 0 Z " fill="#56A5E2" transform="translate(173,391)"/>
<path d="M0 0 C4.72843614 1.57313172 8.3433843 4.20641235 12.3125 7.125 C12.95767578 7.59292969 13.60285156 8.06085938 14.26757812 8.54296875 C15.84848894 9.6905929 17.42472301 10.84465477 19 12 C17.99122289 16.48885556 16.04097726 18.56915386 13 22 C9.96132181 20.65396955 7.99614388 19.19575827 5.765625 16.7421875 C5.19199219 16.11699219 4.61835938 15.49179688 4.02734375 14.84765625 C3.44082031 14.19667969 2.85429687 13.54570313 2.25 12.875 C1.64800781 12.21628906 1.04601562 11.55757812 0.42578125 10.87890625 C-1.05480215 9.25731491 -2.52977125 7.63097546 -4 6 C-2.68 4.02 -1.36 2.04 0 0 Z " fill="#FFDF25" transform="translate(264,98)"/>
<path d="M0 0 C2.46800047 1.15173355 4.04783565 2.04783565 6 4 C5.63763941 7.14342751 4.36838195 9.17549074 2.49609375 11.671875 C2.00302734 12.33574219 1.50996094 12.99960938 1.00195312 13.68359375 C0.48568359 14.36550781 -0.03058594 15.04742187 -0.5625 15.75 C-1.08263672 16.44738281 -1.60277344 17.14476563 -2.13867188 17.86328125 C-3.42014181 19.57974556 -4.70932798 21.29044431 -6 23 C-9.90669429 21.56171454 -12.19713709 20.11429212 -15 17 C-13.67879172 14.06769807 -12.25361803 12.01335101 -9.9609375 9.765625 C-9.38085938 9.19199219 -8.80078125 8.61835937 -8.203125 8.02734375 C-7.59984375 7.44082031 -6.9965625 6.85429688 -6.375 6.25 C-5.76398438 5.64800781 -5.15296875 5.04601562 -4.5234375 4.42578125 C-3.02011376 2.94594695 -1.51065144 1.47235324 0 0 Z " fill="#FFDF25" transform="translate(416,87)"/>
<path d="M0 0 C2.94622382 3.54453388 4.76983058 7.41088583 6.6875 11.5625 C7.00783203 12.23474609 7.32816406 12.90699219 7.65820312 13.59960938 C9.04125162 16.56918257 10 18.68516943 10 22 C4.555 23.485 4.555 23.485 -1 25 C-1.83763953 21.73021427 -2.67027816 18.45929506 -3.5 15.1875 C-3.73847656 14.25873047 -3.97695313 13.32996094 -4.22265625 12.37304688 C-4.44824219 11.48037109 -4.67382812 10.58769531 -4.90625 9.66796875 C-5.11572266 8.84578857 -5.32519531 8.0236084 -5.54101562 7.17651367 C-6 5 -6 5 -6 2 C-4.02 1.34 -2.04 0.68 0 0 Z " fill="#FFDF25" transform="translate(313,67)"/>
<path d="M0 0 C0.33 1.98 0.66 3.96 1 6 C-1.55886504 7.32002556 -4.12167068 8.63113782 -6.6875 9.9375 C-7.40873047 10.31068359 -8.12996094 10.68386719 -8.87304688 11.06835938 C-12.56505742 12.93965239 -15.83693096 14.48269556 -20 15 C-20.50615298 13.73160474 -21.00469099 12.46016898 -21.5 11.1875 C-21.7784375 10.47980469 -22.056875 9.77210938 -22.34375 9.04296875 C-23 7 -23 7 -23 4 C-20.58343624 3.35377959 -18.16675354 2.70800996 -15.75 2.0625 C-15.06808594 1.88009766 -14.38617188 1.69769531 -13.68359375 1.50976562 C-11.78970056 1.00411453 -9.89487972 0.50194154 -8 0 C-7.2265625 -0.2165625 -6.453125 -0.433125 -5.65625 -0.65625 C-3.53420118 -1.09667523 -2.03974093 -0.65563101 0 0 Z " fill="#FFDF25" transform="translate(452,135)"/>
<path d="M0 0 C1.99954746 -0.04254356 4.00041636 -0.04080783 6 0 C7 1 7 1 7.1328125 2.86328125 C7.11127449 9.61544611 6.64658552 16.28012901 6 23 C2.70303895 24.09898702 1.59505097 23.87124444 -1.6875 23.0625 C-2.49574219 22.86785156 -3.30398438 22.67320313 -4.13671875 22.47265625 C-4.75160156 22.31667969 -5.36648438 22.16070312 -6 22 C-4.7205886 14.39086902 -2.57243067 7.26774103 0 0 Z " fill="#FFDF25" transform="translate(364,64)"/>
<path d="M0 0 C7.60913098 1.2794114 14.73225897 3.42756933 22 6 C21.67 8.31 21.34 10.62 21 13 C17.54133208 12.86149295 14.08316725 12.71295273 10.625 12.5625 C9.64015625 12.52318359 8.6553125 12.48386719 7.640625 12.44335938 C6.69960938 12.40146484 5.75859375 12.35957031 4.7890625 12.31640625 C3.91975098 12.27974854 3.05043945 12.24309082 2.15478516 12.20532227 C0 12 0 12 -2 11 C-1.85892253 9.54119891 -1.71197585 8.08296449 -1.5625 6.625 C-1.48128906 5.81289062 -1.40007812 5.00078125 -1.31640625 4.1640625 C-1 2 -1 2 0 0 Z " fill="#FFDF25" transform="translate(435,185)"/>
</svg>
