<?xml version="1.0" encoding="UTF-8"?>
<svg version="1.1" xmlns="http://www.w3.org/2000/svg" width="512" height="512">
<path d="M0 0 C0 0.66 0 1.32 0 2 C-1.41386111 3.20027784 -2.88416686 4.33428348 -4.375 5.4375 C-24.69825823 21.40372685 -37.11794202 45.53552869 -40.5859375 70.97265625 C-43.51961714 96.60669001 -37.07980285 123.93564353 -21 144.375 C-19.67710224 145.92563065 -18.34408107 147.46769456 -17 149 C-16.39800781 149.74507812 -15.79601562 150.49015625 -15.17578125 151.2578125 C0.09503108 169.63401015 23.64665338 180.59538817 47 184 C51.17072304 184.3137989 55.31842825 184.38089741 59.5 184.375 C61.20542969 184.37367065 61.20542969 184.37367065 62.9453125 184.37231445 C72.7450508 184.23613017 81.61790189 182.72100351 91 180 C92.09570312 179.69191406 93.19140625 179.38382813 94.3203125 179.06640625 C96.56156624 178.41400788 98.78469356 177.73472475 101 177 C99.60828501 181.91990056 97.40246854 185.91958819 94.5625 190.125 C94.12510498 190.77662109 93.68770996 191.42824219 93.23706055 192.09960938 C88.73456221 198.64231473 83.53451825 204.32754983 78 210 C77.41992188 210.64195312 76.83984375 211.28390625 76.2421875 211.9453125 C60.94438365 228.47309053 38.44543574 237.82036916 17 243 C17.59167969 243.84820312 18.18335938 244.69640625 18.79296875 245.5703125 C24.35907938 253.75168264 28.23576133 261.42969469 31 271 C31.36738281 272.22203125 31.36738281 272.22203125 31.7421875 273.46875 C36.56284557 292.75138229 31.83164229 313.59716222 22 330.4375 C10.7753785 347.2988336 -5.67356021 358.27753102 -25.44052696 362.57368588 C-29.9360394 363.32247299 -34.40493032 363.28171707 -38.95239258 363.26742554 C-40.02206205 363.27195665 -41.09173153 363.27648776 -42.19381523 363.28115618 C-45.7607651 363.29376714 -49.32756162 363.29218191 -52.89453125 363.29052734 C-55.459378 363.29651478 -58.02422296 363.30332083 -60.58906555 363.31088257 C-66.82398205 363.32669933 -73.05884285 363.33299021 -79.29377753 363.33410732 C-84.36779316 363.3350602 -89.4417964 363.33918242 -94.51580811 363.34550858 C-108.93029476 363.36311188 -123.34475173 363.37234928 -137.75924921 363.37084763 C-138.53527412 363.37076772 -139.31129903 363.3706878 -140.11083984 363.37060547 C-140.88782274 363.37052371 -141.66480563 363.37044195 -142.46533346 363.37035771 C-155.04042202 363.36954585 -167.61539049 363.38866054 -180.19044435 363.4168822 C-193.13059188 363.44569178 -206.07068102 363.45941796 -219.0108614 363.45769465 C-226.2643421 363.45703336 -233.51769705 363.46240999 -240.77114868 363.48405075 C-247.60026081 363.50429612 -254.42910459 363.50350676 -261.25823021 363.48901749 C-263.75379004 363.48693726 -266.24936674 363.49158291 -268.74489784 363.5037384 C-285.5236897 363.58012125 -301.60140986 362.99701686 -316.875 355.25 C-317.57496094 354.90710938 -318.27492188 354.56421875 -318.99609375 354.2109375 C-325.15580332 351.1027231 -330.66763218 347.38170257 -336 343 C-336.76441406 342.39800781 -337.52882813 341.79601562 -338.31640625 341.17578125 C-352.76321847 329.19120833 -362.15928391 311.96160445 -367 294 C-367.33644531 292.80697266 -367.33644531 292.80697266 -367.6796875 291.58984375 C-373.36201628 267.0312858 -367.07652045 241.0429778 -354 220 C-338.62253183 198.85944466 -317.46679144 185.37380412 -291.6875 180.75 C-281.19392752 179.31269856 -270.47506048 179.50356279 -260 181 C-259.59910156 180.39414063 -259.19820313 179.78828125 -258.78515625 179.1640625 C-254.33408353 172.60352448 -249.43679363 166.76096361 -244 161 C-243.00419922 159.89011719 -243.00419922 159.89011719 -241.98828125 158.7578125 C-221.70554917 137.04563073 -191.06475021 126.18192547 -161.9296875 125.0234375 C-151.954134 124.82578197 -141.76317165 125.97209212 -132 128 C-131.96036133 127.39752441 -131.92072266 126.79504883 -131.87988281 126.17431641 C-129.27070388 88.19706837 -117.95470775 55.87984013 -89.3125 29.52734375 C-82.67513214 23.90294627 -75.55803094 19.28874314 -68 15 C-66.93265625 14.3915625 -65.8653125 13.783125 -64.765625 13.15625 C-44.28270344 2.19355959 -22.90516618 -0.41478168 0 0 Z " fill="#D5DAF2" transform="translate(390,21)"/>
<path d="M0 0 C0 0.66 0 1.32 0 2 C-1.41386111 3.20027784 -2.88416686 4.33428348 -4.375 5.4375 C-24.69825823 21.40372685 -37.11794202 45.53552869 -40.5859375 70.97265625 C-43.51961714 96.60669001 -37.07980285 123.93564353 -21 144.375 C-19.67710224 145.92563065 -18.34408107 147.46769456 -17 149 C-16.39800781 149.74507812 -15.79601562 150.49015625 -15.17578125 151.2578125 C0.09503108 169.63401015 23.64665338 180.59538817 47 184 C51.17072304 184.3137989 55.31842825 184.38089741 59.5 184.375 C61.20542969 184.37367065 61.20542969 184.37367065 62.9453125 184.37231445 C72.7450508 184.23613017 81.61790189 182.72100351 91 180 C92.09570312 179.69191406 93.19140625 179.38382813 94.3203125 179.06640625 C96.56156624 178.41400788 98.78469356 177.73472475 101 177 C99.60828501 181.91990056 97.40246854 185.91958819 94.5625 190.125 C94.12510498 190.77662109 93.68770996 191.42824219 93.23706055 192.09960938 C88.73456221 198.64231473 83.53451825 204.32754983 78 210 C77.41992188 210.64195312 76.83984375 211.28390625 76.2421875 211.9453125 C60.83158064 228.59496313 38.94411085 237.03054172 17.62890625 242.93359375 C15 243 15 243 12.9375 241.4453125 C12.298125 240.67960938 11.65875 239.91390625 11 239.125 C-3.99349518 222.97428874 -22.90988649 219.17036539 -44 217 C-44.3403125 215.88625 -44.680625 214.7725 -45.03125 213.625 C-55.10679815 181.52778964 -73.93443596 156.03664882 -103.859375 140.0390625 C-109.19050065 137.32277536 -114.73380737 135.24962694 -120.37890625 133.2890625 C-124.00289276 131.99897022 -127.48107127 130.5488721 -131 129 C-132.55947007 94.63390035 -120.46305949 63.26004903 -97.625 37.8125 C-88.93262331 28.41644031 -79.10337618 21.30052044 -68 15 C-66.93265625 14.3915625 -65.8653125 13.783125 -64.765625 13.15625 C-44.28270344 2.19355959 -22.90516618 -0.41478168 0 0 Z " fill="#FBBB40" transform="translate(390,21)"/>
<path d="M0 0 C3.9718708 2.13869966 6.36074038 3.7860157 8 8 C8.50561601 15.11524882 5.42839576 21.18351727 2.30078125 27.36328125 C1.82811325 28.317686 1.35544525 29.27209076 0.86845398 30.25541687 C-0.12917198 32.25976936 -1.13387377 34.26061404 -2.14526367 36.25805664 C-3.68645904 39.31043835 -5.19489752 42.37752904 -6.70117188 45.44726562 C-7.67775683 47.39940454 -8.65620956 49.35061043 -9.63671875 51.30078125 C-10.08383713 52.21434891 -10.53095551 53.12791656 -10.99162292 54.06916809 C-13.65880927 59.26926054 -15.74915482 62.31752791 -21 65 C-25.46045184 66.1889072 -28.4609141 65.30384842 -32.4375 63.0625 C-35.77680389 59.07162462 -36.31905871 56.15065969 -36 51 C-34.83180962 47.21442088 -33.08548995 43.81508078 -31.25 40.3125 C-30.50532471 38.83257568 -30.50532471 38.83257568 -29.74560547 37.32275391 C-28.70370274 35.25502821 -27.65325893 33.19158624 -26.59472656 31.13232422 C-25.01809504 28.03554184 -23.49748747 24.91715135 -21.9921875 21.78515625 C-21.03688987 19.81489488 -20.08117602 17.84483524 -19.125 15.875 C-18.46612793 14.4988855 -18.46612793 14.4988855 -17.79394531 13.0949707 C-15.39345464 8.23703011 -13.21112795 4.4606299 -9 1 C-5.64870516 -0.11709828 -3.51689744 -0.34479387 0 0 Z " fill="#DBDFF4" transform="translate(174,426)"/>
<path d="M0 0 C3.65069697 3.05466482 4.85912924 4.81433776 5.421875 9.55078125 C5.2679654 15.17331155 2.70050081 19.7032339 0.1875 24.625 C-0.30516357 25.61612793 -0.79782715 26.60725586 -1.30541992 27.62841797 C-2.33951943 29.70580753 -3.37974716 31.78015673 -4.42578125 33.8515625 C-5.97846715 36.95693429 -7.47994015 40.08232393 -8.96875 43.21875 C-9.91614243 45.18775233 -10.86404042 47.15651149 -11.8125 49.125 C-12.24344971 50.0423291 -12.67439941 50.9596582 -13.1184082 51.90478516 C-15.7226485 57.21689728 -18.01072838 60.72932928 -23 64 C-25.78888825 64.82538788 -28.16845475 64.62485392 -31 64 C-36.5 61 -36.5 61 -38 58 C-39.02912037 50.08205676 -36.94616626 44.4735768 -33.328125 37.5390625 C-32.84929871 36.58607269 -32.37047241 35.63308289 -31.87713623 34.6512146 C-30.86760449 32.65153284 -29.84849103 30.65666229 -28.8203125 28.66650391 C-27.24892926 25.62292611 -25.70821282 22.56529972 -24.171875 19.50390625 C-23.18404246 17.55640262 -22.19451695 15.6097566 -21.203125 13.6640625 C-20.742547 12.7536319 -20.28196899 11.84320129 -19.80743408 10.90518188 C-15.11674232 1.86455127 -10.65921883 -2.98682139 0 0 Z " fill="#DBDFF4" transform="translate(390,427)"/>
<path d="M0 0 C3.65069697 3.05466482 4.85912924 4.81433776 5.421875 9.55078125 C5.2679654 15.17331155 2.70050081 19.7032339 0.1875 24.625 C-0.30516357 25.61612793 -0.79782715 26.60725586 -1.30541992 27.62841797 C-2.33951943 29.70580753 -3.37974716 31.78015673 -4.42578125 33.8515625 C-5.97846715 36.95693429 -7.47994015 40.08232393 -8.96875 43.21875 C-9.91614243 45.18775233 -10.86404042 47.15651149 -11.8125 49.125 C-12.24344971 50.0423291 -12.67439941 50.9596582 -13.1184082 51.90478516 C-15.7226485 57.21689728 -18.01072838 60.72932928 -23 64 C-25.78888825 64.82538788 -28.16845475 64.62485392 -31 64 C-36.5 61 -36.5 61 -38 58 C-39.02912037 50.08205676 -36.94616626 44.4735768 -33.328125 37.5390625 C-32.84929871 36.58607269 -32.37047241 35.63308289 -31.87713623 34.6512146 C-30.86760449 32.65153284 -29.84849103 30.65666229 -28.8203125 28.66650391 C-27.24892926 25.62292611 -25.70821282 22.56529972 -24.171875 19.50390625 C-23.18404246 17.55640262 -22.19451695 15.6097566 -21.203125 13.6640625 C-20.742547 12.7536319 -20.28196899 11.84320129 -19.80743408 10.90518188 C-15.11674232 1.86455127 -10.65921883 -2.98682139 0 0 Z " fill="#DCE0F4" transform="translate(70,427)"/>
<path d="M0 0 C3.04346551 2.53622126 4.64403515 4.05866669 5.35708618 7.94744873 C5.53221263 14.65385785 3.4257074 19.43393194 0.3984375 25.328125 C-0.31268692 26.75617462 -0.31268692 26.75617462 -1.03817749 28.21307373 C-2.04002373 30.21413826 -3.05074758 32.21078017 -4.06982422 34.203125 C-5.62173027 37.243594 -7.13871876 40.29970073 -8.65234375 43.359375 C-9.63338237 45.308317 -10.61638996 47.25626939 -11.6015625 49.203125 C-12.05181793 50.11153137 -12.50207336 51.01993774 -12.9659729 51.95587158 C-15.6722267 57.19296295 -18.12430559 60.63513212 -23 64 C-25.81000354 64.87812611 -28.1527656 64.72454474 -31 64 C-34.01286852 62.23002108 -36.41228811 60.17542377 -38 57 C-38.78792074 49.6082794 -36.44776579 44.76424742 -33.109375 38.26171875 C-32.60835266 37.25913528 -32.10733032 36.25655182 -31.59112549 35.22358704 C-30.53275486 33.11452184 -29.46656916 31.00936238 -28.39306641 28.90795898 C-26.75118837 25.68982924 -25.1376124 22.45865151 -23.52734375 19.22460938 C-22.49383184 17.17364973 -21.45872957 15.12349056 -20.421875 13.07421875 C-19.93942322 12.10860519 -19.45697144 11.14299164 -18.9598999 10.14811707 C-18.26963715 8.80575737 -18.26963715 8.80575737 -17.56542969 7.4362793 C-17.1657196 6.64988571 -16.76600952 5.86349213 -16.35418701 5.05326843 C-12.45095293 -0.86495944 -6.59532368 -2.04018768 0 0 Z " fill="#DBDFF4" transform="translate(283,427)"/>
</svg>
