<?xml version="1.0" encoding="UTF-8"?>
<svg version="1.1" xmlns="http://www.w3.org/2000/svg" width="512" height="512">
<path d="M0 0 C0.75078827 0.00182281 1.50157654 0.00364563 2.27511597 0.00552368 C13.22478781 0.05030076 23.61132095 0.50682038 34.25 3.3125 C35.57417385 3.62128635 36.89839408 3.92987388 38.22265625 4.23828125 C61.91173187 10.14441701 82.26913924 23.19740505 100.25 39.3125 C101.04019531 40.01761719 101.83039063 40.72273438 102.64453125 41.44921875 C113.67672246 51.8850753 122.287499 64.90100133 129.25 78.3125 C129.85457031 79.4571875 130.45914062 80.601875 131.08203125 81.78125 C134.71703746 88.93447901 137.33026535 96.23373656 139.5625 103.9375 C139.80500488 104.771604 140.04750977 105.60570801 140.29736328 106.46508789 C143.72479706 118.92374912 144.62730333 131.20853711 144.5625 144.0625 C144.55976578 145.1886824 144.55976578 145.1886824 144.55697632 146.33761597 C144.51219924 157.28728781 144.05567962 167.67382095 141.25 178.3125 C140.94121365 179.63667385 140.63262612 180.96089408 140.32421875 182.28515625 C137.1332641 195.05501831 131.14949337 206.61181741 125.25 218.3125 C124.5829374 219.64563529 123.91612987 220.97889841 123.25 222.3125 C123.6625 222.71597656 124.075 223.11945313 124.5 223.53515625 C141.17822816 241.06963273 144.79262894 264.29375965 144.51953125 287.51171875 C144.11752601 301.95024189 139.30849682 313.87095354 132.25 326.3125 C131.76660156 327.16457031 131.28320312 328.01664062 130.78515625 328.89453125 C118.40714596 348.80698259 97.80123042 361.87439675 75.25 367.3125 C71.28833161 368.06364659 67.54492737 368.43928769 63.51478863 368.44672108 C62.38818945 368.45117892 61.26159027 368.45563676 60.10085171 368.46022969 C58.8731485 368.46004533 57.64544528 368.45986097 56.38053894 368.45967102 C55.0684196 368.46334771 53.75630026 368.4670244 52.40441972 368.4708125 C48.76808636 368.48080078 45.13176951 368.48454418 41.49542439 368.48720181 C37.57082557 368.49111442 33.64623969 368.50069221 29.72164917 368.50941467 C20.24530711 368.52915419 10.76896403 368.53924303 1.29260656 368.54814246 C-3.17562859 368.5525303 -7.64386256 368.5578959 -12.11209679 368.56313133 C-26.97602626 368.58014264 -41.839955 368.59463458 -56.70389271 368.60188007 C-60.55902418 368.60378981 -64.41415566 368.60571017 -68.26928711 368.60766602 C-69.70646154 368.60839163 -69.70646154 368.60839163 -71.17266979 368.6091319 C-86.677271 368.61742388 -102.18179484 368.64274717 -117.6863623 368.67524669 C-133.62320077 368.70837845 -149.56000001 368.72633443 -165.49687308 368.72952431 C-174.43719671 368.73168397 -183.37740759 368.74035238 -192.31769753 368.76598549 C-199.93530196 368.78777638 -207.55276626 368.79570198 -215.17039833 368.78601871 C-219.0510413 368.78149788 -222.93139566 368.7832293 -226.81199837 368.80278015 C-256.76713353 368.94542549 -256.76713353 368.94542549 -270.75 364.3125 C-271.59893231 364.03223119 -272.44786463 363.75196238 -273.32252216 363.46320057 C-297.23245648 354.72698309 -316.06275584 336.46326444 -327.44140625 313.96875 C-338.06113662 290.75971522 -339.75630488 263.36513728 -331.00244141 239.25341797 C-321.39436808 213.87371292 -302.6500038 194.40401909 -278.0625 183.0625 C-274.03394842 181.34822273 -270.47101044 180.18730483 -266.14453125 179.546875 C-257.19869267 178.4857189 -257.19869267 178.4857189 -250.21484375 173.375 C-248.84372014 171.00669558 -247.71846341 168.5479623 -246.5859375 166.05859375 C-240.54924694 152.85460636 -227.28338193 145.19464654 -214.6484375 139.35546875 C-207.49736989 136.78224092 -201.60767911 136.24379815 -194.03417969 136.8503418 C-185.064776 137.66218776 -185.064776 137.66218776 -176.66845703 135.12451172 C-173.1259732 131.97663875 -170.61599355 128.11433448 -168.04785156 124.16357422 C-166.00188262 121.24548984 -163.52667138 118.92471775 -160.875 116.5625 C-159.89917969 115.69238281 -158.92335937 114.82226562 -157.91796875 113.92578125 C-151.5693912 108.56758988 -144.65456996 103.91554664 -137.75 99.3125 C-136.78718196 97.16220638 -135.92826381 94.96484729 -135.125 92.75 C-120.8790237 55.38387762 -92.84974762 27.70687952 -56.85327148 10.82739258 C-51.41805376 8.41968344 -45.82979721 6.65301623 -40.125 5 C-39.290896 4.75749512 -38.45679199 4.51499023 -37.59741211 4.26513672 C-25.13875088 0.83770294 -12.85396289 -0.06480333 0 0 Z " fill="#EDEEF0" transform="translate(351.75,15.6875)"/>
<path d="M0 0 C0.75078827 0.00182281 1.50157654 0.00364563 2.27511597 0.00552368 C13.22478781 0.05030076 23.61132095 0.50682038 34.25 3.3125 C35.57417385 3.62128635 36.89839408 3.92987388 38.22265625 4.23828125 C61.91173187 10.14441701 82.26913924 23.19740505 100.25 39.3125 C101.04019531 40.01761719 101.83039063 40.72273438 102.64453125 41.44921875 C113.67672246 51.8850753 122.287499 64.90100133 129.25 78.3125 C129.85457031 79.4571875 130.45914062 80.601875 131.08203125 81.78125 C134.71703746 88.93447901 137.33026535 96.23373656 139.5625 103.9375 C139.80500488 104.771604 140.04750977 105.60570801 140.29736328 106.46508789 C143.72479706 118.92374912 144.62730333 131.20853711 144.5625 144.0625 C144.55976578 145.1886824 144.55976578 145.1886824 144.55697632 146.33761597 C144.51219924 157.28728781 144.05567962 167.67382095 141.25 178.3125 C140.94121365 179.63667385 140.63262612 180.96089408 140.32421875 182.28515625 C136.94792646 195.79831852 130.97754115 209.72118827 123.25 221.3125 C119.78310577 219.8222061 117.5586015 217.8161472 114.875 215.1875 C106.08802938 207.16069253 91.25871788 197.71318133 79.1652832 196.02075195 C77.25 195.3125 77.25 195.3125 76.29614258 193.38916016 C76.08111084 192.55175293 75.8660791 191.7143457 75.64453125 190.8515625 C75.38824951 189.91441406 75.13196777 188.97726563 74.86791992 188.01171875 C74.60213135 186.99722656 74.33634277 185.98273438 74.0625 184.9375 C67.54594019 161.99863958 56.22600915 142.89434512 40.25 125.3125 C39.06664062 124.00345703 39.06664062 124.00345703 37.859375 122.66796875 C13.21321559 96.75685745 -23.33257108 82.20702963 -58.70703125 81.09375 C-71.0784448 80.84605803 -82.70544654 81.47342668 -94.75 84.3125 C-95.97203125 84.57933594 -97.1940625 84.84617187 -98.453125 85.12109375 C-110.25703698 87.94649821 -122.25774025 92.3542147 -132.6875 98.625 C-133.698125 99.181875 -134.70875 99.73875 -135.75 100.3125 C-136.41 99.9825 -137.07 99.6525 -137.75 99.3125 C-122.81094166 59.0649193 -95.95971788 29.16520845 -56.85327148 10.82739258 C-51.41805376 8.41968344 -45.82979721 6.65301623 -40.125 5 C-39.290896 4.75749512 -38.45679199 4.51499023 -37.59741211 4.26513672 C-25.13875088 0.83770294 -12.85396289 -0.06480333 0 0 Z " fill="#FEE352" transform="translate(351.75,15.6875)"/>
<path d="M0 0 C3.54845632 1.18281877 3.97871046 2.34831544 5.62593079 5.55793762 C6.09920052 6.5192585 6.09920052 6.5192585 6.58203125 7.5 C6.91724289 8.16323776 7.25245453 8.82647552 7.5978241 9.5098114 C8.68201354 11.66717251 9.74893213 13.83240504 10.8125 16 C11.3549939 17.09811508 11.3549939 17.09811508 11.90844727 18.21841431 C28.18931487 51.24678411 28.18931487 51.24678411 24.3671875 65.33203125 C21.76918482 71.45255109 16.55420143 76.21097243 10.671875 79.171875 C4.19785035 81.17844404 -4.17277577 81.2761327 -10.4375 78.5 C-16.28805087 74.96450582 -20.92899228 69.51443744 -23 63 C-25.82601712 41.37353216 -10.1178677 18.16183091 0 0 Z " fill="#80D6FB" transform="translate(383,416)"/>
<path d="M0 0 C3.54845632 1.18281877 3.97871046 2.34831544 5.62593079 5.55793762 C6.09920052 6.5192585 6.09920052 6.5192585 6.58203125 7.5 C6.91724289 8.16323776 7.25245453 8.82647552 7.5978241 9.5098114 C8.68201354 11.66717251 9.74893213 13.83240504 10.8125 16 C11.3549939 17.09811508 11.3549939 17.09811508 11.90844727 18.21841431 C28.18931487 51.24678411 28.18931487 51.24678411 24.3671875 65.33203125 C21.76918482 71.45255109 16.55420143 76.21097243 10.671875 79.171875 C4.19785035 81.17844404 -4.17277577 81.2761327 -10.4375 78.5 C-16.28805087 74.96450582 -20.92899228 69.51443744 -23 63 C-25.82601712 41.37353216 -10.1178677 18.16183091 0 0 Z " fill="#80D6FB" transform="translate(255,416)"/>
<path d="M0 0 C3.54845632 1.18281877 3.97871046 2.34831544 5.62593079 5.55793762 C6.09920052 6.5192585 6.09920052 6.5192585 6.58203125 7.5 C6.91724289 8.16323776 7.25245453 8.82647552 7.5978241 9.5098114 C8.68201354 11.66717251 9.74893213 13.83240504 10.8125 16 C11.3549939 17.09811508 11.3549939 17.09811508 11.90844727 18.21841431 C28.18931487 51.24678411 28.18931487 51.24678411 24.3671875 65.33203125 C21.76918482 71.45255109 16.55420143 76.21097243 10.671875 79.171875 C4.19785035 81.17844404 -4.17277577 81.2761327 -10.4375 78.5 C-16.28805087 74.96450582 -20.92899228 69.51443744 -23 63 C-25.82601712 41.37353216 -10.1178677 18.16183091 0 0 Z " fill="#80D6FB" transform="translate(127,416)"/>
</svg>
