<?xml version="1.0" encoding="UTF-8"?>
<svg version="1.1" xmlns="http://www.w3.org/2000/svg" width="512" height="512">
<path d="M0 0 C10.72949002 10.09423503 10.72949002 10.09423503 14 15 C17.00510876 15.28836902 19.86569954 15.4112684 22.875 15.4375 C51.67107831 16.32525542 79.04607355 26.23451969 101 45 C101.51401367 45.43570313 102.02802734 45.87140625 102.55761719 46.3203125 C124.17329289 64.83643295 139.88767837 90.80151014 145 119 C145.969375 119.268125 146.93875 119.53625 147.9375 119.8125 C162.41796152 123.97868668 175.81340416 129.66005474 187 140 C187.97582031 140.88429687 188.95164062 141.76859375 189.95703125 142.6796875 C204.8906026 156.63057 214.49392275 174.86109227 218 195 C218.226875 196.27875 218.45375 197.5575 218.6875 198.875 C221.05894412 223.04354751 215.22978284 247.70335926 200.25 267.125 C198.85758294 268.77082629 197.43949729 270.39518942 196 272 C195.18789063 272.90621094 194.37578125 273.81242187 193.5390625 274.74609375 C178.68917313 290.44517034 156.62367131 302.1786748 134.72659612 303.09515059 C131.91324572 303.13784734 129.10142903 303.14768636 126.28775024 303.14717102 C125.20768782 303.15084771 124.1276254 303.1545244 123.01483381 303.1583125 C119.39481276 303.16932751 115.77482044 303.17318952 112.15478516 303.17700195 C109.55920318 303.18326836 106.9636221 303.18991532 104.36804199 303.19691467 C96.57803932 303.21664074 88.78803543 303.22674124 80.99801403 303.23564246 C77.32312153 303.24003245 73.64823046 303.24539748 69.97333908 303.25063133 C57.74553794 303.26764117 45.51773768 303.28213261 33.28992653 303.28938007 C30.11955387 303.29128975 26.94918122 303.29321011 23.77880859 303.29516602 C22.99089504 303.29564976 22.20298149 303.2961335 21.39119177 303.2966319 C8.6438805 303.30492203 -4.10333663 303.33024281 -16.85060684 303.36274669 C-29.95901977 303.39589691 -43.06738498 303.41383608 -56.17584002 303.41702431 C-63.52715117 303.41918226 -70.87832509 303.42782522 -78.22959518 303.45348549 C-85.15222001 303.47759466 -92.07459518 303.48096844 -98.99725342 303.47072411 C-101.5287114 303.47023047 -104.06018181 303.47649966 -106.59160233 303.49028015 C-122.90601545 303.57407426 -138.45091021 303.20686847 -153.25 295.4375 C-154.23021118 294.93476562 -154.23021118 294.93476562 -155.23022461 294.421875 C-162.16515652 290.67042642 -167.56118098 285.63932848 -173 280 C-173.66386719 279.36707031 -174.32773438 278.73414063 -175.01171875 278.08203125 C-183.42747216 269.5149834 -188.70739077 256.62115713 -191 245 C-191.226875 243.906875 -191.45375 242.81375 -191.6875 241.6875 C-192.95237118 226.7620201 -191.34315309 212.68446732 -185 199 C-186.03125 198.814375 -187.0625 198.62875 -188.125 198.4375 C-202.55207787 194.71602762 -214.68040088 185.89476227 -222.9375 173.5625 C-232.52877418 157.11697378 -235.31357787 140.88822159 -230.90625 122.3203125 C-226.55935108 106.39417423 -216.63949866 93.07353932 -202.3125 84.625 C-192.68528654 79.25567177 -182.07534384 76.22278289 -171 77 C-171.04640625 76.27039063 -171.0928125 75.54078125 -171.140625 74.7890625 C-171.95335711 51.27788373 -162.32692637 26.7232788 -146.375 9.5 C-144.6010339 7.64828916 -142.80227898 5.82446087 -141 4 C-140.14535156 3.03707031 -140.14535156 3.03707031 -139.2734375 2.0546875 C-122.93535158 -15.95909954 -96.84499733 -24.34806696 -73.30273438 -25.89794922 C-46.23903268 -27.09733719 -20.31534754 -17.96210347 0 0 Z " fill="#D8E1E8" transform="translate(263,66)"/>
<path d="M0 0 C2.2016534 2.04877976 4.35999409 4.1370095 6.5 6.25 C7.01675293 6.75740723 7.53350586 7.26481445 8.06591797 7.78759766 C10.63418329 10.37811386 12.47540647 12.70258236 14 16 C13.175 16.12004395 12.35 16.24008789 11.5 16.36376953 C-10.8262829 19.53925122 -10.8262829 19.53925122 -32 27 C-32.97549805 27.43868408 -32.97549805 27.43868408 -33.97070312 27.88623047 C-65.01581499 41.88914745 -88.68356947 67.25190372 -101 99 C-102.57477969 103.6005727 -103.79432929 108.29159876 -105 113 C-105.34417969 114.0828125 -105.68835938 115.165625 -106.04296875 116.28125 C-108.4577227 125.66429392 -108.27103475 135.49231227 -108.5625 145.125 C-108.60581131 146.47657242 -108.64942902 147.82813506 -108.69335938 149.1796875 C-108.79857434 152.45304194 -108.90071479 155.72646125 -109 159 C-110.90458984 159.03867187 -110.90458984 159.03867187 -112.84765625 159.078125 C-135.34025417 159.73024347 -155.80486536 165.63616604 -172 182 C-174.91410467 185.52280746 -177.50703292 189.17065874 -180 193 C-180.45375 193.66902344 -180.9075 194.33804688 -181.375 195.02734375 C-182.26537908 196.34127122 -183.13626391 197.66840687 -184 199 C-199.21488849 196.63906903 -211.77156725 188.28800458 -221.125 176.26953125 C-230.56958409 162.16371924 -235.03408314 146.37743727 -232.46484375 129.48046875 C-228.94448664 111.72478782 -220.84790756 97.31935397 -205.7734375 86.734375 C-195.27401184 80.12195798 -183.52813113 76.1208329 -171 77 C-171.04640625 76.27039063 -171.0928125 75.54078125 -171.140625 74.7890625 C-171.95335711 51.27788373 -162.32692637 26.7232788 -146.375 9.5 C-144.6010339 7.64828916 -142.80227898 5.82446087 -141 4 C-140.14535156 3.03707031 -140.14535156 3.03707031 -139.2734375 2.0546875 C-122.93535158 -15.95909954 -96.84499733 -24.34806696 -73.30273438 -25.89794922 C-46.22299689 -27.09804785 -20.33691294 -17.95135131 0 0 Z " fill="#AFC3D1" transform="translate(263,66)"/>
<path d="M0 0 C3.34625024 2.52676039 4.67977847 4.03933542 6 8 C6.10433306 10.0994138 6.14862785 12.20198759 6.16113281 14.30395508 C6.17074036 15.60573196 6.1803479 16.90750885 6.19024658 18.24873352 C6.19509497 19.67233098 6.1993737 21.09593048 6.203125 22.51953125 C6.20887922 23.98060609 6.21463692 25.44168092 6.22039795 26.90275574 C6.23090075 29.96683096 6.23674794 33.03088001 6.24023438 36.0949707 C6.24571365 40.01235101 6.26973226 43.92938279 6.29820633 47.84665394 C6.31687441 50.86562597 6.32204054 53.8845148 6.32357025 56.90353966 C6.32658857 58.34717397 6.33458936 59.79080711 6.34775543 61.23438454 C6.36489916 63.25880628 6.36107888 65.28337229 6.35644531 67.30786133 C6.36009094 68.45797195 6.36373657 69.60808258 6.36749268 70.79304504 C5.94508691 74.47920355 4.94854768 76.85485966 3 80 C-0.93211413 82.46720886 -3.74215615 83.35899294 -8.25 82.4375 C-10.89277884 81.60939522 -11.93600356 81.06399644 -13.9375 79.0625 C-15.95253407 75.15096328 -16.13529118 72.03978365 -16.16113281 67.69604492 C-16.17074036 66.39426804 -16.1803479 65.09249115 -16.19024658 63.75126648 C-16.19509497 62.32766902 -16.1993737 60.90406952 -16.203125 59.48046875 C-16.20887922 58.01939391 -16.21463692 56.55831908 -16.22039795 55.09724426 C-16.23090075 52.03316904 -16.23674794 48.96911999 -16.24023438 45.9050293 C-16.24571365 41.98764899 -16.26973226 38.07061721 -16.29820633 34.15334606 C-16.31687441 31.13437403 -16.32204054 28.1154852 -16.32357025 25.09646034 C-16.32658857 23.65282603 -16.33458936 22.20919289 -16.34775543 20.76561546 C-16.36489916 18.74119372 -16.36107888 16.71662771 -16.35644531 14.69213867 C-16.36009094 13.54202805 -16.36373657 12.39191742 -16.36749268 11.20695496 C-15.94561379 7.52539429 -14.93575027 5.14647221 -13 2 C-8.77005384 -0.8199641 -4.96779552 -0.79231188 0 0 Z " fill="#68D7F7" transform="translate(261,389)"/>
<path d="M0 0 C2.75569447 2.18159145 4.43588747 3.87177494 6 7 C6.11229705 9.12252493 6.15935241 11.24860319 6.17700195 13.37402344 C6.18357315 14.02792053 6.19014435 14.68181763 6.19691467 15.35552979 C6.21665331 17.52347934 6.22831281 19.69135953 6.23828125 21.859375 C6.24235678 22.60026619 6.2464323 23.34115738 6.25063133 24.10449982 C6.27149675 28.02767153 6.28579511 31.95080823 6.29516602 35.87402344 C6.30621793 39.92044413 6.34060169 43.96631299 6.38033772 48.01253891 C6.40652619 51.12844848 6.4148599 54.24422718 6.41844749 57.36023712 C6.42330952 58.85133837 6.43491271 60.34243393 6.45348549 61.83342743 C6.47792127 63.92552412 6.47690474 66.01620175 6.4699707 68.10839844 C6.47877007 69.89138336 6.47877007 69.89138336 6.48774719 71.71038818 C5.89225337 75.72669737 4.55816265 77.87726337 2 81 C-1.83654974 82.70513322 -4.06192345 83.18393658 -8.1875 82.375 C-11.21030889 80.89718232 -12.94662833 79.6617781 -15 77 C-15.98797104 73.26237034 -16.13651868 69.70641402 -16.16113281 65.85205078 C-16.17074036 64.63373566 -16.1803479 63.41542053 -16.19024658 62.16018677 C-16.19449646 60.85177826 -16.19874634 59.54336975 -16.203125 58.1953125 C-16.20595238 57.52461605 -16.20877975 56.8539196 -16.21169281 56.16289902 C-16.22664354 52.61461752 -16.23589937 49.06637626 -16.24023438 45.51806641 C-16.24571765 41.86763001 -16.26975399 38.21756684 -16.29820633 34.56724739 C-16.3168983 31.74639838 -16.32204174 28.92563821 -16.32357025 26.10473251 C-16.32803836 24.10901308 -16.34664928 22.11334133 -16.36553955 20.1177063 C-16.34745368 12.73763807 -16.28931544 6.9218761 -11.375 1.0625 C-7.61069823 -0.62152974 -4.03893301 -0.79194765 0 0 Z " fill="#68D6F7" transform="translate(414,389)"/>
<path d="M0 0 C3.49890004 2.11391877 4.70578686 3.11736059 6 7 C6.1097035 9.19645863 6.15902189 11.39609181 6.17700195 13.59521484 C6.18357315 14.26061783 6.19014435 14.92602081 6.19691467 15.61158752 C6.21660918 17.81137205 6.22830055 20.01108848 6.23828125 22.2109375 C6.24235678 22.96319233 6.2464323 23.71544716 6.25063133 24.49049759 C6.27147398 28.47087579 6.28578442 32.45121969 6.29516602 36.43164062 C6.30623698 40.53978141 6.34064931 44.64738151 6.38033772 48.75533104 C6.40649357 51.91752116 6.41485681 55.0795821 6.41844749 58.24187088 C6.42331484 59.75612675 6.4349332 61.27037679 6.45348549 62.78452682 C6.47786063 64.90545211 6.47691619 67.02497333 6.4699707 69.14599609 C6.47877007 70.95443497 6.47877007 70.95443497 6.48774719 72.79940796 C5.90024898 76.65456513 4.74249473 78.27297462 2 81 C-2.27587302 82.93624439 -4.22507711 83.23247687 -8.75 81.875 C-11.97500083 80.0144226 -13.19272314 79.15469899 -15 76 C-15.38768005 72.89515686 -15.38768005 72.89515686 -15.40405273 69.19946289 C-15.41091599 68.52416031 -15.41777924 67.84885773 -15.42485046 67.15309143 C-15.44311618 64.92606437 -15.43928151 62.69974198 -15.43359375 60.47265625 C-15.43815585 58.92093171 -15.44346151 57.3692092 -15.44947815 55.81748962 C-15.45840888 52.56680082 -15.45598689 49.31635768 -15.44604492 46.06567383 C-15.43455781 41.90479845 -15.45476207 37.74477206 -15.48396206 33.58400822 C-15.50233019 30.37974176 -15.5020304 27.17567851 -15.49632454 23.9713726 C-15.49617138 22.43760424 -15.50221109 20.90382205 -15.51461601 19.37010384 C-15.5295361 17.22284209 -15.51884402 15.07714524 -15.50170898 12.92993164 C-15.50154282 11.70955704 -15.50137665 10.48918243 -15.50120544 9.23182678 C-14.90565551 5.39165654 -13.6975947 3.74363954 -11 1 C-7.53984865 -0.73007568 -3.78327445 -0.4835273 0 0 Z " fill="#69D7F7" transform="translate(107,389)"/>
<path d="M0 0 C3.0190434 1.75299294 5.41511201 3.83022401 7 7 C7.28509874 12.51034515 7.31377238 18.02179481 7.35009766 23.53881836 C7.36665215 25.3826968 7.39393569 27.22651119 7.43212891 29.07006836 C7.48695665 31.73064405 7.50877979 34.38971637 7.5234375 37.05078125 C7.54610687 37.87177811 7.56877625 38.69277496 7.59213257 39.53865051 C7.57613737 43.88242023 7.41096167 45.48848566 4.59228516 48.99682617 C1.27030942 51.56386431 -0.1920071 52.20758273 -4.3125 51.9375 C-5.07175781 51.90527344 -5.83101562 51.87304688 -6.61328125 51.83984375 C-10.15773118 50.59261505 -12.11239353 48.13937724 -14 45 C-14.53383309 42.14373489 -14.79056742 39.85693517 -14.8125 37.00390625 C-14.83473633 36.25213608 -14.85697266 35.50036591 -14.87988281 34.72581482 C-14.92125778 33.14356097 -14.95084432 31.56095932 -14.96923828 29.97827148 C-14.99988337 27.57165885 -15.07317008 25.16912518 -15.15234375 22.76367188 C-15.18743591 21.21880561 -15.22006932 19.67388113 -15.25 18.12890625 C-15.27167236 17.4182753 -15.29334473 16.70764435 -15.31567383 15.97547913 C-15.35051865 10.20178655 -14.1643161 5.48495552 -10.3125 1.0625 C-6.8608483 -0.52339402 -3.67105205 -0.77507817 0 0 Z " fill="#68D7F7" transform="translate(178,389)"/>
<path d="M0 0 C2.75569447 2.18159145 4.43588747 3.87177494 6 7 C6.12334212 9.71296605 6.1884001 12.39924215 6.203125 15.11328125 C6.20882507 15.91984665 6.21452515 16.72641205 6.22039795 17.55741882 C6.22985195 19.26637458 6.23638352 20.9753486 6.24023438 22.68432617 C6.2499232 25.29183041 6.280935 27.89854078 6.3125 30.50585938 C6.31903185 32.16666199 6.32428161 33.82747024 6.328125 35.48828125 C6.3404718 36.26553055 6.3528186 37.04277985 6.36553955 37.84358215 C6.34683603 42.41762814 5.87583575 45.38920036 3 49 C-1.01858595 51.6790573 -4.27641721 51.69610694 -9 51 C-11.87029869 49.20606332 -13.49131638 48.01736724 -15 45 C-15.13571688 42.14170883 -15.21273921 39.30900434 -15.23828125 36.44921875 C-15.246353 35.59826126 -15.25442474 34.74730377 -15.26274109 33.87055969 C-15.27658294 32.06745441 -15.28730465 30.26432291 -15.29516602 28.46118164 C-15.31236789 25.70863933 -15.35625049 22.95730162 -15.40039062 20.20507812 C-15.41051863 18.45313383 -15.4190344 16.70117933 -15.42578125 14.94921875 C-15.44328934 14.12822189 -15.46079742 13.30722504 -15.47883606 12.46134949 C-15.46364043 8.44125548 -15.3055325 6.48150102 -13.09838867 3.00317383 C-9.2181013 -0.70104465 -5.17484118 -0.82225456 0 0 Z " fill="#68D7F7" transform="translate(342,389)"/>
</svg>
