<?xml version="1.0" encoding="UTF-8"?>
<svg version="1.1" xmlns="http://www.w3.org/2000/svg" width="512" height="512">
<path d="M0 0 C19.40904628 16.870588 30.20955509 37.28200397 38.671875 61.2265625 C39.49429687 60.88882813 40.31671875 60.55109375 41.1640625 60.203125 C42.28039062 59.75710937 43.39671875 59.31109375 44.546875 58.8515625 C45.63742187 58.41070312 46.72796875 57.96984375 47.8515625 57.515625 C66.68297854 50.71974237 88.96161495 52.63378145 106.91235352 60.96289062 C128.04588987 71.30181403 142.8428634 87.13039017 150.515625 109.375 C157.25734265 131.03645613 155.04440766 153.69055462 144.73632812 173.7253418 C142.12383045 178.59600809 139.29340169 183.03659364 135.671875 187.2265625 C135.09050781 187.94972656 134.50914062 188.67289063 133.91015625 189.41796875 C122.98182724 202.51866337 106.41952039 211.92260525 89.671875 215.2265625 C88.57875 215.4534375 87.485625 215.6803125 86.359375 215.9140625 C80.46923881 216.41322658 74.5791438 216.30030095 68.671875 216.2265625 C68.37539063 217.18949219 68.07890625 218.15242187 67.7734375 219.14453125 C66.671875 222.2265625 66.671875 222.2265625 65.046875 223.5390625 C61.61008082 224.53392397 58.23243678 224.87050632 54.671875 225.2265625 C55.1771875 225.72285156 55.6825 226.21914063 56.203125 226.73046875 C61.49175052 232.26044027 61.49175052 232.26044027 62.359375 236.9140625 C61.53421446 240.88983603 60.81942906 242.6298304 57.671875 245.2265625 C53.6533997 246.03025756 51.35275043 246.2507902 47.83203125 244.10546875 C44.52215336 241.29942005 41.7135012 238.31046674 39.0859375 234.8671875 C33.63128634 228.05213371 33.63128634 228.05213371 25.83398438 224.64160156 C19.08891007 224.09818962 12.38971224 224.4990766 5.671875 225.2265625 C6.48192993 226.02876221 6.48192993 226.02876221 7.30834961 226.84716797 C9.74461876 229.26269956 12.17703607 231.68207367 14.609375 234.1015625 C15.45951172 234.94332031 16.30964844 235.78507812 17.18554688 236.65234375 C18.39887695 237.86083984 18.39887695 237.86083984 19.63671875 239.09375 C20.3855835 239.83737793 21.13444824 240.58100586 21.90600586 241.34716797 C24.12108018 243.70464649 24.61671023 244.81282672 25.046875 248.0390625 C24.671875 251.2265625 24.671875 251.2265625 22.609375 254.1015625 C19.671875 256.2265625 19.671875 256.2265625 16.359375 256.9765625 C11.00116073 255.88675621 8.44669899 253.0404364 4.671875 249.2265625 C3.68828693 248.2544115 2.70386211 247.28310661 1.71875 246.3125 C-0.98441825 243.63739979 -3.6611185 240.93769227 -6.328125 238.2265625 C-7.75286493 246.77846298 -9.31926833 256.49888113 -4.47949219 264.1484375 C0.09612069 269.54092009 5.32134178 274.18073672 10.81420898 278.62036133 C13.28655228 280.75803337 13.62180503 281.77593279 13.984375 285.0390625 C13.58565888 289.1059669 12.78603729 290.57952455 9.671875 293.2265625 C6.26085316 293.90876687 4.87242271 294.17060895 1.671875 293.2265625 C-1.30768077 291.17938473 -3.82942227 288.83159301 -6.328125 286.2265625 C-6.47507812 287.23976563 -6.47507812 287.23976563 -6.625 288.2734375 C-7.8276906 295.44810898 -7.8276906 295.44810898 -10.015625 298.8515625 C-13.37943639 300.85166657 -15.48456243 300.8334408 -19.328125 300.2265625 C-22.43298478 298.134157 -24.01833688 296.59880914 -24.85546875 292.890625 C-25.11214477 290.66141135 -25.27438065 288.46916774 -25.328125 286.2265625 C-26.05515625 286.98453125 -26.05515625 286.98453125 -26.796875 287.7578125 C-32.96050035 293.73178784 -32.96050035 293.73178784 -37.578125 293.9140625 C-41.328125 293.2265625 -41.328125 293.2265625 -43.828125 291.7265625 C-45.49870137 288.94226856 -46.06402979 286.72798651 -46.00146484 283.47460938 C-44.50714653 278.48560175 -39.2457733 275.44770068 -35.390625 272.2265625 C-28.26763213 265.82885545 -24.18887188 261.01954114 -23.56420898 251.25390625 C-23.58420339 246.54504836 -23.76863896 241.90347829 -24.328125 237.2265625 C-24.988125 237.2265625 -25.648125 237.2265625 -26.328125 237.2265625 C-26.658125 238.2165625 -26.988125 239.2065625 -27.328125 240.2265625 C-27.988125 240.2265625 -28.648125 240.2265625 -29.328125 240.2265625 C-29.55628906 240.78085937 -29.78445313 241.33515625 -30.01953125 241.90625 C-31.70007366 244.88607744 -33.82924199 246.9545337 -36.265625 249.3515625 C-37.14089844 250.22039062 -38.01617187 251.08921875 -38.91796875 251.984375 C-42.74229529 255.54217635 -45.09277236 256.70673994 -50.38671875 256.53125 C-52.328125 256.2265625 -52.328125 256.2265625 -54.828125 254.7265625 C-56.52044175 251.90603458 -57.08511758 249.65576465 -56.890625 246.35546875 C-55.74044876 242.00237116 -52.47012011 239.28813112 -49.328125 236.2265625 C-48.35511149 235.24513192 -47.38386131 234.26195105 -46.4140625 233.27734375 C-43.73977859 230.57197858 -41.03995915 227.89426192 -38.328125 225.2265625 C-46.89751146 223.71047616 -56.67938699 222.10514496 -64.25146484 227.18945312 C-68.04441433 230.5920991 -71.41140892 234.20502931 -74.67871094 238.11230469 C-80.4268539 244.9530094 -80.4268539 244.9530094 -83.58276367 245.91088867 C-86.93086752 245.98243097 -89.01396495 245.44405792 -91.765625 243.5390625 C-93.55662314 240.88838526 -94.25178759 239.43273388 -94.328125 236.2265625 C-92.57073037 231.54017681 -89.98710771 228.58887094 -86.328125 225.2265625 C-86.91980469 225.21238281 -87.51148438 225.19820312 -88.12109375 225.18359375 C-92.55623094 224.91589379 -94.7852181 224.64759234 -98.390625 221.8515625 C-100.328125 219.2265625 -100.328125 219.2265625 -100.328125 216.2265625 C-101.37265681 216.22932788 -102.41718863 216.23209326 -103.49337292 216.23494244 C-128.94243259 216.30162508 -154.39148088 216.35087962 -179.84060955 216.38199902 C-192.14775897 216.39744921 -204.45485058 216.4185034 -216.76196289 216.45288086 C-227.49238192 216.48283978 -238.22275907 216.50215093 -248.95321876 216.50882798 C-254.63168863 216.51272923 -260.31003871 216.5218592 -265.98847008 216.54375267 C-271.34083411 216.56422042 -276.69302978 216.57037558 -282.04542923 216.56588554 C-284.00246027 216.56670616 -285.95949735 216.57261013 -287.91649437 216.58417892 C-307.89299564 216.69640823 -325.26428549 213.76076499 -340.26611328 199.48632812 C-351.6044608 188.15953856 -358.45913297 174.09017472 -358.70849609 158.00488281 C-358.69042394 148.02577033 -358.49451517 139.45492204 -354.328125 130.2265625 C-353.90402344 129.27910156 -353.47992188 128.33164063 -353.04296875 127.35546875 C-349.5392413 120.31873479 -344.85348056 114.77151152 -339.328125 109.2265625 C-338.51601563 108.37964844 -338.51601563 108.37964844 -337.6875 107.515625 C-330.86955848 101.00758992 -318.89748073 94.51218666 -309.453125 94.1015625 C-308.751875 94.1428125 -308.050625 94.1840625 -307.328125 94.2265625 C-307.34907227 93.67419922 -307.37001953 93.12183594 -307.39160156 92.55273438 C-308.16451259 68.93492146 -303.48221879 48.84939382 -287.1015625 31.05859375 C-272.01838202 15.65675453 -252.43353477 7.24004311 -230.828125 6.9765625 C-214.93478199 6.98584166 -200.72076067 11.33176857 -187.484375 20.08984375 C-185.14464292 21.53745634 -185.14464292 21.53745634 -181.328125 21.2265625 C-179.26525779 19.20130597 -179.26525779 19.20130597 -177.328125 16.4765625 C-157.04514092 -9.2481978 -127.89853182 -25.37477347 -95.3359375 -29.3046875 C-60.50426404 -32.87024074 -26.7653458 -22.54501871 0 0 Z " fill="#D8EBF1" transform="translate(358.328125,34.7734375)"/>
<path d="M0 0 C2.375 1.3125 2.375 1.3125 4 4 C4.62160321 7.66113756 4.87211472 11.29132699 5 15 C5.49628906 14.43410156 5.99257813 13.86820313 6.50390625 13.28515625 C9.77618367 9.75209011 12.06327015 7.31753554 16.6875 5.75 C20.82626618 6.06235971 22.28086874 6.8809965 25 10 C26.0625 12.875 26.0625 12.875 26 16 C22.85822589 21.61089684 18.41979606 25.87898529 13.875 30.375 C12.78251953 31.47908203 12.78251953 31.47908203 11.66796875 32.60546875 C10.97058594 33.30027344 10.27320313 33.99507812 9.5546875 34.7109375 C8.92030762 35.34306152 8.28592773 35.97518555 7.63232422 36.62646484 C6 38 6 38 4 38 C4.495 50.375 4.495 50.375 5 63 C10.79147924 57.16901917 10.79147924 57.16901917 16.57739258 51.33251953 C17.30079834 50.60661621 18.0242041 49.88071289 18.76953125 49.1328125 C19.87711792 48.01737061 19.87711792 48.01737061 21.00708008 46.87939453 C23.96329895 44.09157475 25.28513401 42.98700244 29.4375 43.0625 C33 44 33 44 35.5 46.1875 C37 49 37 49 37.1875 51.8125 C33.80673285 60.88719078 23.73530352 68.34037404 17 75 C25.25 75.33 33.5 75.66 42 76 C42.99 74.02 42.99 74.02 44 72 C45.5246582 70.21655273 45.5246582 70.21655273 47.30078125 68.43359375 C47.94853516 67.78326172 48.59628906 67.13292969 49.26367188 66.46289062 C49.93978516 65.79451172 50.61589844 65.12613281 51.3125 64.4375 C51.97701172 63.76525391 52.64152344 63.09300781 53.32617188 62.40039062 C61.75993049 54 61.75993049 54 67.0625 54 C70.84861588 55.28889051 72.09266488 56.49050337 74 60 C74.30297437 64.01441035 73.72882772 66.12907379 71.13671875 69.2265625 C69.14753045 71.22635038 67.12029419 73.14051648 65 75 C65.74765625 75.02578125 66.4953125 75.0515625 67.265625 75.078125 C75.28434505 75.5399361 75.28434505 75.5399361 78.625 77.6875 C80.3324613 80.55913945 80.86092227 82.66213458 81 86 C80.22007534 88.55248071 79.52181547 89.61867331 77.375 91.1875 C73.946712 92.36033537 70.60450765 92.63954924 67 93 C67.5053125 93.49628906 68.010625 93.99257813 68.53125 94.50390625 C73.81987552 100.03387777 73.81987552 100.03387777 74.6875 104.6875 C73.86233946 108.66327353 73.14755406 110.4032679 70 113 C65.9815247 113.80369506 63.68087543 114.0242277 60.16015625 111.87890625 C56.85027836 109.07285755 54.0416262 106.08390424 51.4140625 102.640625 C45.95941134 95.82557121 45.95941134 95.82557121 38.16210938 92.41503906 C31.41703507 91.87162712 24.71783724 92.2725141 18 93 C18.54003662 93.5347998 19.08007324 94.06959961 19.63647461 94.62060547 C22.07274376 97.03613706 24.50516107 99.45551117 26.9375 101.875 C27.78763672 102.71675781 28.63777344 103.55851562 29.51367188 104.42578125 C30.32255859 105.23144531 31.13144531 106.03710938 31.96484375 106.8671875 C32.7137085 107.61081543 33.46257324 108.35444336 34.23413086 109.12060547 C36.44920518 111.47808399 36.94483523 112.58626422 37.375 115.8125 C37 119 37 119 34.9375 121.875 C32 124 32 124 28.6875 124.75 C23.32928573 123.66019371 20.77482399 120.8138739 17 117 C16.01641193 116.027849 15.03198711 115.05654411 14.046875 114.0859375 C11.34370675 111.41083729 8.6670065 108.71112977 6 106 C4.57526007 114.55190048 3.00885667 124.27231863 7.84863281 131.921875 C12.42424569 137.31435759 17.64946678 141.95417422 23.14233398 146.39379883 C25.61467728 148.53147087 25.94993003 149.54937029 26.3125 152.8125 C25.91378388 156.8794044 25.11416229 158.35296205 22 161 C18.58897816 161.68220437 17.20054771 161.94404645 14 161 C11.02044423 158.95282223 8.49870273 156.60503051 6 154 C5.90203125 154.67546875 5.8040625 155.3509375 5.703125 156.046875 C4.5004344 163.22154648 4.5004344 163.22154648 2.3125 166.625 C-1.05131139 168.62510407 -3.15643743 168.6068783 -7 168 C-10.10485978 165.9075945 -11.69021188 164.37224664 -12.52734375 160.6640625 C-12.78401977 158.43484885 -12.94625565 156.24260524 -13 154 C-13.4846875 154.5053125 -13.969375 155.010625 -14.46875 155.53125 C-20.63237535 161.50522534 -20.63237535 161.50522534 -25.25 161.6875 C-29 161 -29 161 -31.5 159.5 C-33.17057637 156.71570606 -33.73590479 154.50142401 -33.67333984 151.24804688 C-32.17902153 146.25903925 -26.9176483 143.22113818 -23.0625 140 C-15.93950713 133.60229295 -11.86074688 128.79297864 -11.23608398 119.02734375 C-11.25607839 114.31848586 -11.44051396 109.67691579 -12 105 C-12.66 105 -13.32 105 -14 105 C-14.495 106.485 -14.495 106.485 -15 108 C-15.66 108 -16.32 108 -17 108 C-17.22816406 108.55429687 -17.45632813 109.10859375 -17.69140625 109.6796875 C-19.37194866 112.65951494 -21.50111699 114.7279712 -23.9375 117.125 C-24.81277344 117.99382812 -25.68804687 118.86265625 -26.58984375 119.7578125 C-30.41417029 123.31561385 -32.76464736 124.48017744 -38.05859375 124.3046875 C-40 124 -40 124 -42.5 122.5 C-44.19231675 119.67947208 -44.75699258 117.42920215 -44.5625 114.12890625 C-43.41232376 109.77580866 -40.14199511 107.06156862 -37 104 C-36.02698649 103.01856942 -35.05573631 102.03538855 -34.0859375 101.05078125 C-31.41165359 98.34541608 -28.71183415 95.66769942 -26 93 C-34.56938646 91.48391366 -44.35126199 89.87858246 -51.92333984 94.96289062 C-55.71628933 98.3655366 -59.08328392 101.97846681 -62.35058594 105.88574219 C-68.0987289 112.7264469 -68.0987289 112.7264469 -71.25463867 113.68432617 C-74.60274252 113.75586847 -76.68583995 113.21749542 -79.4375 111.3125 C-81.22849814 108.66182276 -81.92366259 107.20617138 -82 104 C-80.24260537 99.31361431 -77.65898271 96.36230844 -74 93 C-74.59167969 92.98582031 -75.18335938 92.97164063 -75.79296875 92.95703125 C-80.03105878 92.70122484 -82.51532445 92.31988586 -86.125 89.9375 C-88.35161238 86.4491406 -88.33321132 84.83479745 -87.78515625 80.8671875 C-86.68672969 78.25500891 -85.45516417 77.3927933 -83 76 C-80.203125 75.48828125 -80.203125 75.48828125 -77.25 75.3125 C-76.26515625 75.24675781 -75.2803125 75.18101562 -74.265625 75.11328125 C-73.14414062 75.05720703 -73.14414062 75.05720703 -72 75 C-72.56589844 74.44570312 -73.13179688 73.89140625 -73.71484375 73.3203125 C-74.44832031 72.59585938 -75.18179687 71.87140625 -75.9375 71.125 C-76.66839844 70.40570313 -77.39929688 69.68640625 -78.15234375 68.9453125 C-80.4141112 66.56400132 -80.93081724 65.4447463 -81.4375 62.1875 C-81 59 -81 59 -78.375 56.0625 C-75 54 -75 54 -72.04418945 54.09155273 C-68.34443729 55.19563308 -67.26715483 56.45102114 -64.91796875 59.47265625 C-55.58273962 71.18170738 -55.58273962 71.18170738 -42.12890625 76.32421875 C-36.03072314 76.46477742 -30.01978491 75.96613832 -24 75 C-24.57032959 74.43490723 -25.14065918 73.86981445 -25.72827148 73.28759766 C-28.30060675 70.73599645 -30.86909337 68.18055542 -33.4375 65.625 C-34.33533203 64.73554688 -35.23316406 63.84609375 -36.15820312 62.9296875 C-37.01220703 62.07890625 -37.86621094 61.228125 -38.74609375 60.3515625 C-39.53685303 59.56604004 -40.3276123 58.78051758 -41.14233398 57.97119141 C-43.40261298 55.5727826 -43.92925654 54.45477938 -44.4375 51.1875 C-44 48 -44 48 -41.375 45.0625 C-38 43 -38 43 -35.08984375 43.125 C-31.52435337 44.13469639 -29.87050005 45.40578021 -27.1875 47.9375 C-26.33542969 48.74058594 -25.48335938 49.54367188 -24.60546875 50.37109375 C-21.20074298 53.80644674 -17.97460194 57.37224633 -14.8125 61.03125 C-13.14650056 63.07471909 -13.14650056 63.07471909 -11 64 C-11 55.42 -11 46.84 -11 38 C-12.32 37.34 -13.64 36.68 -15 36 C-16.89111328 34.35180664 -16.89111328 34.35180664 -18.8203125 32.41015625 C-19.52027344 31.70826172 -20.22023438 31.00636719 -20.94140625 30.28320312 C-21.66199219 29.55037109 -22.38257813 28.81753906 -23.125 28.0625 C-23.85332031 27.33353516 -24.58164062 26.60457031 -25.33203125 25.85351562 C-32.79835647 18.32508603 -32.79835647 18.32508603 -33.4375 14.125 C-33 11 -33 11 -30.875 8.125 C-28 6 -28 6 -25.1875 5.25 C-20.39228364 6.3782862 -17.25258993 9.37479834 -14 13 C-13.505 14.485 -13.505 14.485 -13 16 C-12.34 16 -11.68 16 -11 16 C-11.04640625 15.18015625 -11.0928125 14.3603125 -11.140625 13.515625 C-11.17671875 12.43796875 -11.2128125 11.3603125 -11.25 10.25 C-11.29640625 9.18265625 -11.3428125 8.1153125 -11.390625 7.015625 C-11 4 -11 4 -9.203125 1.640625 C-6.00510128 -0.74088203 -3.8839311 -0.5548473 0 0 Z " fill="#26A3B9" transform="translate(346,167)"/>
<path d="M0 0 C2.9336317 0.60841232 4.19624742 2.00599639 5.90234375 4.39453125 C7.05805079 7.86165236 7.23069668 10.93602685 7.46484375 14.58203125 C7.54863281 15.85433594 7.63242187 17.12664062 7.71875 18.4375 C7.77933594 19.41332031 7.83992188 20.38914062 7.90234375 21.39453125 C8.95035156 20.32912109 8.95035156 20.32912109 10.01953125 19.2421875 C10.92960937 18.32308594 11.8396875 17.40398437 12.77734375 16.45703125 C13.68226563 15.54050781 14.5871875 14.62398438 15.51953125 13.6796875 C18.45462764 10.86488195 19.2102913 10.45861018 23.27734375 10.08203125 C26.90234375 10.39453125 26.90234375 10.39453125 29.27734375 12.01953125 C31.28740418 14.95731187 31.82968354 16.83418085 31.90234375 20.39453125 C29.89591443 24.42055491 27.28095031 27.1730891 24.015625 30.23046875 C22.60893555 31.58011719 22.60893555 31.58011719 21.17382812 32.95703125 C19.6933008 34.36944596 18.20826394 35.77564893 16.7097168 37.16894531 C15.25443612 38.52711183 13.82218335 39.90982059 12.390625 41.29296875 C11.09958862 42.50992432 11.09958862 42.50992432 9.7824707 43.75146484 C7.34182723 47.18250058 7.34748527 49.27316069 7.90234375 53.39453125 C10.59374903 55.43996348 10.59374903 55.43996348 13.90234375 57.39453125 C15.46372218 59.46435855 16.85986765 61.57525475 18.21484375 63.78515625 C19.85441662 65.65787827 19.85441662 65.65787827 22.66113281 65.80737305 C26.85663189 65.27298099 28.68674901 63.36314478 31.44921875 60.3984375 C31.94649475 59.89030014 32.44377075 59.38216278 32.95611572 58.85862732 C34.53630888 57.23835905 36.09454137 55.59881154 37.65234375 53.95703125 C39.2285997 52.32336519 40.80905344 50.6938948 42.39141846 49.06614685 C43.37312252 48.05331749 44.35045784 47.03623161 45.32293701 46.01454163 C48.40648693 42.79503974 49.75455943 41.50080758 54.27734375 41.08203125 C57.90234375 41.39453125 57.90234375 41.39453125 60.27734375 43.01953125 C62.28740418 45.95731187 62.82968354 47.83418085 62.90234375 51.39453125 C60.92185217 55.32979373 58.36045001 58.15260198 55.21484375 61.20703125 C54.40660156 61.99722656 53.59835937 62.78742188 52.765625 63.6015625 C52.15074219 64.19324219 51.53585937 64.78492188 50.90234375 65.39453125 C52.083125 65.4203125 53.26390625 65.44609375 54.48046875 65.47265625 C56.03779698 65.52894522 57.59508722 65.58629239 59.15234375 65.64453125 C59.92964844 65.65871094 60.70695313 65.67289062 61.5078125 65.6875 C65.25528421 65.84764836 67.30661864 65.95523081 70.38671875 68.2265625 C72.56174991 71.33775397 72.90234375 73.6173787 72.90234375 77.39453125 C70.81609036 80.82194754 69.72791265 82.11934162 65.90234375 83.39453125 C63.33599514 83.62171621 60.78556268 83.81061309 58.21484375 83.95703125 C57.51294922 84.00021484 56.81105469 84.04339844 56.08789062 84.08789062 C54.35959169 84.19370485 52.63099265 84.29459706 50.90234375 84.39453125 C51.68480469 85.11898437 52.46726562 85.8434375 53.2734375 86.58984375 C54.29622944 87.56571863 55.31832871 88.54231984 56.33984375 89.51953125 C56.85611328 89.99390625 57.37238281 90.46828125 57.90429688 90.95703125 C61.32817625 94.26901914 62.7755667 96.60369315 62.90234375 101.39453125 C61.29822527 104.92359192 60.16075013 106.22226033 56.90234375 108.39453125 C52.07025728 108.32324976 49.86588061 108.12634368 45.99389648 105.18554688 C44.67820679 103.75758789 44.67820679 103.75758789 43.3359375 102.30078125 C42.85334976 101.79405884 42.37076202 101.28733643 41.87355042 100.76525879 C40.34422875 99.15760598 38.84011079 97.52929833 37.33984375 95.89453125 C35.83517208 94.26074982 34.32575881 92.6335949 32.79542542 91.02380371 C31.40870395 89.56483859 30.04436628 88.08469387 28.68139648 86.60351562 C25.3713426 83.97245461 23.0699749 83.63406138 18.90234375 83.39453125 C18.67546875 84.11640625 18.44859375 84.83828125 18.21484375 85.58203125 C16.17397113 89.95532972 13.46314222 92.66615863 9.08984375 94.70703125 C8.36796875 94.93390625 7.64609375 95.16078125 6.90234375 95.39453125 C7.2222246 101.8222446 8.12337526 104.47390088 12.99609375 108.99609375 C13.50281616 109.48105316 14.00953857 109.96601257 14.53161621 110.46566772 C16.13928736 112.00158221 17.76794924 113.51212219 19.40234375 115.01953125 C21.03478986 116.53575299 22.66109474 118.0568381 24.27307129 119.59481812 C25.73332099 120.98683808 27.21287286 122.35852646 28.69335938 123.72900391 C31.19928277 126.75284029 31.76044492 128.50369222 31.90234375 132.39453125 C30.29822527 135.92359192 29.16075013 137.22226033 25.90234375 139.39453125 C19.82082242 139.51377677 16.91830612 137.14953588 12.69921875 133.18359375 C12.10625 132.59320313 11.51328125 132.0028125 10.90234375 131.39453125 C10.04382813 130.53988281 10.04382813 130.53988281 9.16796875 129.66796875 C8.7503125 129.24773437 8.33265625 128.8275 7.90234375 128.39453125 C7.82886719 129.71517578 7.82886719 129.71517578 7.75390625 131.0625 C7.67914063 132.22394531 7.604375 133.38539063 7.52734375 134.58203125 C7.45773437 135.73058594 7.388125 136.87914062 7.31640625 138.0625 C6.80675745 142.16373044 6.05140209 145.20443511 3.15234375 148.20703125 C0.0930445 149.82166141 -1.68063343 149.95241253 -5.09765625 149.39453125 C-7.79267812 147.37326485 -9.76191976 145.75571473 -10.59204102 142.39013672 C-10.81215224 140.11017871 -10.89287815 137.87233881 -10.91015625 135.58203125 C-10.93529297 134.79376953 -10.96042969 134.00550781 -10.98632812 133.19335938 C-11.04488606 131.26094752 -11.07421113 129.32768798 -11.09765625 127.39453125 C-11.81050781 128.17699219 -12.52335937 128.95945312 -13.2578125 129.765625 C-14.22442773 130.78854791 -15.19192281 131.8106399 -16.16015625 132.83203125 C-16.62615234 133.34830078 -17.09214844 133.86457031 -17.57226562 134.39648438 C-21.20218746 138.17456628 -23.88583135 139.28377228 -29.09765625 139.39453125 C-32.04521357 138.04890726 -33.64042897 137.30898581 -35.09765625 134.39453125 C-35.82507671 127.39038147 -35.82507671 127.39038147 -32.89453125 123.37841797 C-31.8980252 122.42332857 -30.88104362 121.48927645 -29.84765625 120.57421875 C-29.31495117 120.06706329 -28.78224609 119.55990784 -28.23339844 119.03738403 C-26.53948479 117.42753966 -24.8219447 115.84675371 -23.09765625 114.26953125 C-21.375331 112.68350858 -19.66010433 111.09211202 -17.96191406 109.48025513 C-16.90806773 108.48073878 -15.84008937 107.49585738 -14.75683594 106.52828979 C-12.18098348 104.09329077 -11.14674501 102.71628662 -10.60546875 99.16845703 C-10.81487334 96.1379666 -10.81487334 96.1379666 -13.72265625 94.45703125 C-14.83640625 93.77640625 -15.95015625 93.09578125 -17.09765625 92.39453125 C-19.28644349 90.21067371 -21.33234895 87.93607297 -23.09765625 85.39453125 C-23.09765625 84.73453125 -23.09765625 84.07453125 -23.09765625 83.39453125 C-29.08814398 83.73906765 -31.51687033 85.11927865 -35.56640625 89.48828125 C-36.05040894 89.99500366 -36.53441162 90.50172607 -37.03308105 91.02380371 C-38.57001854 92.6336159 -40.08584669 94.26112067 -41.59765625 95.89453125 C-43.59039144 98.04755028 -45.60261192 100.17936999 -47.62890625 102.30078125 C-48.51126953 103.25275391 -49.39363281 104.20472656 -50.30273438 105.18554688 C-53.66613744 107.843834 -55.850403 108.26778466 -60.09765625 108.39453125 C-63.04521357 107.04890726 -64.64042897 106.30898581 -66.09765625 103.39453125 C-66.67542712 99.78346328 -66.77112156 97.38807759 -64.67578125 94.296875 C-62.88239603 92.24674447 -61.03727794 90.3065567 -59.09765625 88.39453125 C-58.3603125 87.65589844 -57.62296875 86.91726563 -56.86328125 86.15625 C-56.280625 85.57488281 -55.69796875 84.99351562 -55.09765625 84.39453125 C-56.12246094 84.35714844 -57.14726562 84.31976563 -58.203125 84.28125 C-59.56383687 84.21556046 -60.92451236 84.14911416 -62.28515625 84.08203125 C-62.95869141 84.05947266 -63.63222656 84.03691406 -64.32617188 84.01367188 C-68.69607295 83.77918938 -71.62733184 83.09725602 -75.09765625 80.39453125 C-76.75582423 77.0781953 -77.33526844 75.3233789 -76.41015625 71.70703125 C-75.12397073 69.44089485 -74.08979352 68.05090523 -72.09765625 66.39453125 C-70.1965332 65.9621582 -70.1965332 65.9621582 -68.0859375 65.8828125 C-67.32861328 65.84736328 -66.57128906 65.81191406 -65.79101562 65.77539062 C-65.00533203 65.75283203 -64.21964844 65.73027344 -63.41015625 65.70703125 C-62.61287109 65.67287109 -61.81558594 65.63871094 -60.99414062 65.60351562 C-59.02913721 65.52115021 -57.06341929 65.45616058 -55.09765625 65.39453125 C-55.80792969 64.69585937 -56.51820313 63.9971875 -57.25 63.27734375 C-58.16910156 62.36726563 -59.08820313 61.4571875 -60.03515625 60.51953125 C-60.95167969 59.61460937 -61.86820313 58.7096875 -62.8125 57.77734375 C-65.60091549 54.8697652 -66.03088501 54.10230637 -66.41015625 50.08203125 C-66.09765625 46.39453125 -66.09765625 46.39453125 -64.59765625 43.45703125 C-61.69765468 41.06452996 -59.85823922 40.89468915 -56.15066528 41.00198364 C-52.61494544 41.67803443 -50.59691089 44.02755098 -48.3125 46.609375 C-47.80771622 47.1397084 -47.30293243 47.67004181 -46.78285217 48.21644592 C-45.1797176 49.90364347 -43.60562579 51.61442818 -42.03515625 53.33203125 C-40.45952066 55.0441753 -38.87845747 56.74910822 -37.27674866 58.43690491 C-36.28376715 59.48401278 -35.3053909 60.54523479 -34.3447113 61.62205505 C-30.8456433 65.32356162 -28.12485673 66.12969541 -23.09765625 66.39453125 C-22.85015625 65.67265625 -22.60265625 64.95078125 -22.34765625 64.20703125 C-20.06894926 59.07994053 -17.1190665 55.90523638 -12.09765625 53.39453125 C-11.43765625 53.39453125 -10.77765625 53.39453125 -10.09765625 53.39453125 C-11.31563688 47.8085606 -12.85543961 45.03200606 -17.0703125 40.96875 C-17.55342392 40.49508499 -18.03653534 40.02141998 -18.5342865 39.53340149 C-20.06477065 38.03723694 -21.61145903 36.55931324 -23.16015625 35.08203125 C-24.70872064 33.58347484 -26.25372527 32.08137405 -27.79673767 30.57710266 C-29.19046859 29.22173998 -30.59318731 27.87563782 -31.99633789 26.5300293 C-34.91247448 23.56645933 -35.06558731 22.7921861 -35.41015625 18.51953125 C-35.35106252 15.56484472 -35.16330589 14.50394732 -33.59765625 11.89453125 C-30.13851615 9.81904719 -26.98294375 9.60448672 -23.09765625 10.39453125 C-20.51702162 12.03830182 -18.61399916 14.11071428 -16.59765625 16.39453125 C-16.06140625 16.966875 -15.52515625 17.53921875 -14.97265625 18.12890625 C-13.66194237 19.53324255 -12.37705352 20.9616063 -11.09765625 22.39453125 C-11.071875 21.1415625 -11.04609375 19.88859375 -11.01953125 18.59765625 C-10.96324456 16.94658002 -10.90589735 15.2955397 -10.84765625 13.64453125 C-10.83347656 12.81953125 -10.81929688 11.99453125 -10.8046875 11.14453125 C-10.55886976 5.04825127 -10.55886976 5.04825127 -8.30078125 1.84765625 C-5.31593375 -0.12107295 -3.48272645 -0.17510915 0 0 Z M-6.34765625 70.08203125 C-8.24927801 72.26354113 -8.24927801 72.26354113 -8.66015625 74.89453125 C-8.26000042 77.59841778 -8.26000042 77.59841778 -5.97265625 79.83203125 C-3.14856125 81.76091348 -3.14856125 81.76091348 0.15234375 80.76953125 C3.00651042 79.68619792 3.00651042 79.68619792 3.90234375 77.39453125 C4.31909895 74.43664556 4.31909895 74.43664556 3.90234375 71.39453125 C2.24860879 69.40419484 2.24860879 69.40419484 -0.09765625 68.39453125 C-4.03307292 67.99453125 -4.03307292 67.99453125 -6.34765625 70.08203125 Z " fill="#25A2B8" transform="translate(281.09765625,359.60546875)"/>
<path d="M0 0 C16.61886761 12.8542359 27.81784324 31.08926251 31 52 C32.72559904 74.84309668 29.47220218 97.00358045 14.54296875 115.21484375 C14.03378906 115.80394531 13.52460938 116.39304688 13 117 C12.41863281 117.72316406 11.83726562 118.44632813 11.23828125 119.19140625 C-1.41719785 134.36257897 -20.5417683 143.69139624 -40 146 C-42.64511313 146.06515057 -45.29168825 146.08591426 -47.9375 146.0625 C-48.62134766 146.05798828 -49.30519531 146.05347656 -50.00976562 146.04882812 C-51.67321604 146.0371956 -53.3366205 146.01926694 -55 146 C-55.28875 145.05125 -55.5775 144.1025 -55.875 143.125 C-56.76825109 139.94788422 -56.76825109 139.94788422 -59 138 C-58.03320312 137.45472656 -57.06640625 136.90945312 -56.0703125 136.34765625 C-36.58102904 125.15248582 -22.05131378 109.17442059 -15.5546875 87.23828125 C-10.18482182 65.56973876 -12.66926739 44.80453809 -23 25 C-25.43424423 21.12137019 -28.11158696 17.54988168 -31 14 C-31.59296875 13.23171875 -32.1859375 12.4634375 -32.796875 11.671875 C-40.39629872 2.38369045 -50.81485936 -4.75736045 -62 -9 C-61.97550781 -7.8346875 -61.95101563 -6.669375 -61.92578125 -5.46875 C-61.94627972 13.19305999 -68.74429709 34.93252831 -81.9375 48.25 C-83.27923412 49.51333563 -84.62879526 50.76871411 -86 52 C-87.23420284 48.29739148 -86.56307955 46.93633804 -85.5625 43.1875 C-83.68661086 35.11887883 -83.72529833 27.06235236 -83.75 18.8125 C-83.75330322 17.54237061 -83.75660645 16.27224121 -83.76000977 14.96362305 C-83.83553111 7.26794762 -84.23590274 -0.34214619 -85 -8 C-58.06437461 -23.71244815 -24.37976062 -17.08264606 0 0 Z " fill="#BDD9E5" transform="translate(481,105)"/>
<path d="M0 0 C2.8964256 2.76302495 3.92337986 4.3378107 4.38720703 8.34643555 C4.34450684 9.597229 4.30180664 10.84802246 4.2578125 12.13671875 C4.24305522 13.53318585 4.23009251 14.92967286 4.21875 16.32617188 C4.17964972 18.50185835 4.12553961 20.67408408 4.03808594 22.84838867 C3.63411359 32.02399521 3.63411359 32.02399521 7.28417969 40.24853516 C9.74573478 42.71052408 12.21470694 44.91560195 15 47 C15.49854492 46.5781543 15.99708984 46.15630859 16.51074219 45.72167969 C17.69986979 44.71549479 18.8889974 43.7093099 20.078125 42.703125 C20.71234375 42.14109375 21.3465625 41.5790625 22 41 C22.6899707 40.4536792 23.37994141 39.9073584 24.09082031 39.34448242 C26.73096409 36.10237236 26.48326807 33.92928887 26.46875 29.78515625 C26.47579956 29.09240097 26.48284912 28.39964569 26.4901123 27.68589783 C26.51953161 24.73351651 26.50298824 21.78180005 26.49072266 18.8293457 C26.48833565 16.66838497 26.50929147 14.50848502 26.53125 12.34765625 C26.52673828 11.05867432 26.52222656 9.76969238 26.51757812 8.44165039 C27.0810161 4.42202226 28.10134932 2.79471113 31 0 C34.4375 -1.0625 34.4375 -1.0625 38 -1 C40.80189446 0.76641172 42.51524911 2.03049822 44 5 C44.22950319 7.204364 44.41075933 9.41392173 44.5625 11.625 C44.64628906 12.81351562 44.73007813 14.00203125 44.81640625 15.2265625 C44.87699219 16.14179688 44.93757813 17.05703125 45 18 C45.55429688 17.43410156 46.10859375 16.86820312 46.6796875 16.28515625 C47.40414062 15.55167969 48.12859375 14.81820313 48.875 14.0625 C49.59429687 13.33160156 50.31359375 12.60070312 51.0546875 11.84765625 C53.70341067 9.33190111 54.66186364 9.03130892 58.375 8.6875 C62 9 62 9 64.375 10.5625 C66.65353057 13.98029586 67.2069511 15.860978 67 20 C65.00409654 23.02443311 62.59877486 25.48857892 60 28 C59.42765625 28.57234375 58.8553125 29.1446875 58.265625 29.734375 C57.84796875 30.15203125 57.4303125 30.5696875 57 31 C58.03640625 31.02578125 59.0728125 31.0515625 60.140625 31.078125 C61.51045801 31.13441951 62.88024805 31.19176655 64.25 31.25 C64.93191406 31.26417969 65.61382812 31.27835937 66.31640625 31.29296875 C69.6887022 31.45667244 71.70428383 31.78339262 74.453125 33.796875 C76.0902629 36.12855625 76.54390268 37.19022851 76.5 40 C76.51546875 40.99 76.51546875 40.99 76.53125 42 C75.73794294 44.98656775 74.42671773 46.10395849 72 48 C68.67529297 48.38720703 68.67529297 48.38720703 64.7421875 48.2578125 C63.29689172 48.24305212 61.85157666 48.23009021 60.40625 48.21875 C58.14720548 48.17966618 55.89149858 48.12563981 53.63378906 48.03808594 C44.11982322 47.49728887 44.11982322 47.49728887 35.71582031 51.28417969 C33.25601946 53.74398054 31.06613443 56.204865 29 59 C31.3779348 64.11529142 34.12510306 68.01572126 39 71 C44.5968264 72.02435284 50.07963989 71.90265884 55.75 71.75 C58.00931273 71.71095491 60.26726365 71.68367449 62.5269165 71.67926025 C64.56604658 71.67223938 66.60494544 71.62767152 68.64355469 71.58105469 C72 72 72 72 74.42480469 73.89550781 C76.59613495 76.79644812 76.57106846 78.58652737 76.39453125 82.09765625 C75.78611893 85.03128795 74.38853486 86.29390367 72 88 C68.99221479 89.00259507 66.46179353 89.30314642 63.3125 89.5625 C62.31863281 89.64628906 61.32476562 89.73007812 60.30078125 89.81640625 C59.54152344 89.87699219 58.78226562 89.93757813 58 90 C58.56589844 90.49628906 59.13179688 90.99257813 59.71484375 91.50390625 C65.69029629 97.03828848 65.69029629 97.03828848 67.1875 101.6875 C66.97848561 105.38008752 66.28528899 107.12222868 64 110 C60.61931138 111.69034431 57.58958885 111.98394821 54 111 C50.62430967 108.31823056 47.80147854 105.26839163 45 102 C44.98582031 102.95261719 44.97164063 103.90523438 44.95703125 104.88671875 C44.56878137 115.09664136 44.56878137 115.09664136 41.875 119.375 C38.21915866 121.4413451 36.13729813 121.67701242 32 121 C29.63502561 119.13291495 28.33969285 117.67938569 27 115 C26.96461403 112.71899436 26.98655222 110.43701227 27.03515625 108.15625 C27.04119406 106.75000919 27.04435216 105.34375365 27.04492188 103.9375 C27.04662946 101.72837636 27.06177553 99.52463759 27.12670898 97.31640625 C27.43168281 88.0414261 27.43168281 88.0414261 23.70263672 79.73828125 C21.24524168 77.28045288 18.78159587 75.07948532 16 73 C15.50145508 73.4218457 15.00291016 73.84369141 14.48925781 74.27832031 C13.30013021 75.28450521 12.1110026 76.2906901 10.921875 77.296875 C10.28765625 77.85890625 9.6534375 78.4209375 9 79 C8.31075439 79.5463208 7.62150879 80.0926416 6.91137695 80.65551758 C4.27169529 83.89333377 4.50205264 86.07341774 4.49609375 90.21484375 C4.48667252 90.90759903 4.47725128 91.60035431 4.46754456 92.31410217 C4.43893774 94.52220376 4.43581411 96.7292283 4.4375 98.9375 C4.43388481 101.14204383 4.42426579 103.34580478 4.39674377 105.55018616 C4.37230861 107.55277975 4.3700231 109.55560726 4.36889648 111.55834961 C3.97697836 115.21478228 3.2109008 117.0969501 1 120 C-2.05693322 121.52846661 -4.62984547 121.23242445 -8 121 C-11.1850357 119.23984869 -11.83296972 118.50109084 -13 115 C-13.22451458 112.77425665 -13.40782878 110.54418481 -13.5625 108.3125 C-13.68818359 106.54326172 -13.68818359 106.54326172 -13.81640625 104.73828125 C-13.90728516 103.38283203 -13.90728516 103.38283203 -14 102 C-14.556875 102.6496875 -15.11375 103.299375 -15.6875 103.96875 C-21.75333152 110.60837639 -21.75333152 110.60837639 -25.23828125 111.703125 C-28.24274941 111.77102259 -30.69867777 111.13134559 -33.4375 109.9375 C-35.79259706 107.01717965 -35.93611417 104.70537805 -36 101 C-34.10754998 96.43585584 -30.52037179 93.36391082 -27 90 C-27.72445312 89.96261719 -28.44890625 89.92523438 -29.1953125 89.88671875 C-34.74573714 89.50928987 -39.22869628 89.13901561 -44 86 C-45.56471233 82.87057535 -45.69701958 79.38917777 -45 76 C-43.42700195 73.88671875 -43.42700195 73.88671875 -41 72 C-37.67529297 71.61279297 -37.67529297 71.61279297 -33.7421875 71.7421875 C-32.29689172 71.75694788 -30.85157666 71.76990979 -29.40625 71.78125 C-27.14720548 71.82033382 -24.89149858 71.87436019 -22.63378906 71.96191406 C-13.11982322 72.50271113 -13.11982322 72.50271113 -4.71582031 68.71582031 C-2.25601946 66.25601946 -0.06613443 63.795135 2 61 C-0.3779348 55.88470858 -3.12510306 51.98427874 -8 49 C-13.5968264 47.97564716 -19.07963989 48.09734116 -24.75 48.25 C-27.00931273 48.28904509 -29.26726365 48.31632551 -31.5269165 48.32073975 C-33.56604658 48.32776062 -35.60494544 48.37232848 -37.64355469 48.41894531 C-41 48 -41 48 -43.42480469 46.10449219 C-45.13052003 43.82562264 -45.54387941 42.80828236 -45.5 40 C-45.5103125 39.34 -45.520625 38.68 -45.53125 38 C-44.72556146 34.96681962 -43.52675953 33.85081112 -41 32 C-38.29447755 31.5509984 -35.95769409 31.30630366 -33.25 31.25 C-32.20392578 31.20552734 -32.20392578 31.20552734 -31.13671875 31.16015625 C-29.42509187 31.08981542 -27.71254185 31.04260054 -26 31 C-26.63808594 30.43152344 -27.27617188 29.86304688 -27.93359375 29.27734375 C-34.7038961 22.95064935 -34.7038961 22.95064935 -36.1875 18.1875 C-36.0053537 15.09101298 -35.83140506 13.47239683 -34 11 C-30.15691236 8.43794158 -28.5659696 8.32633235 -24 9 C-21.03643633 11.04881748 -18.52272497 13.43667945 -16 16 C-15.34 16.66 -14.68 17.32 -14 18 C-13.97421875 17.11957031 -13.9484375 16.23914063 -13.921875 15.33203125 C-13.86515625 14.17058594 -13.8084375 13.00914062 -13.75 11.8125 C-13.70359375 10.66394531 -13.6571875 9.51539063 -13.609375 8.33203125 C-12.90517707 4.48151307 -11.70313907 2.7793554 -9 0 C-5.77839187 -1.61080407 -3.42436421 -0.82657067 0 0 Z " fill="#25A2B8" transform="translate(103,283)"/>
<path d="M0 0 C14.16830007 12.73292185 27.84490895 30.1276232 33.01611328 48.78735352 C33.01611328 50.10735352 33.01611328 51.42735352 33.01611328 52.78735352 C32.20271484 52.81313477 31.38931641 52.83891602 30.55126953 52.86547852 C23.52343757 53.21331272 16.91996374 54.05439859 10.07861328 55.66235352 C9.38195557 55.82380859 8.68529785 55.98526367 7.9675293 56.15161133 C4.56277723 56.99048099 1.40479254 57.99026941 -1.80029297 59.42016602 C-4.98388672 60.78735352 -4.98388672 60.78735352 -7.98388672 60.78735352 C-8.17982422 60.04614258 -8.37576172 59.30493164 -8.57763672 58.54125977 C-12.83292504 43.55604185 -19.46795178 30.13485934 -28.98388672 17.78735352 C-29.40009277 17.24626953 -29.81629883 16.70518555 -30.24511719 16.14770508 C-48.81444653 -7.68421553 -74.72477844 -21.8725167 -103.98388672 -28.21264648 C-75.83198809 -46.9805789 -21.21411658 -18.43957788 0 0 Z " fill="#BDD9E5" transform="translate(359.98388671875,36.212646484375)"/>
<path d="M0 0 C4.6992228 3.5530709 9.19620504 8.06243168 10.5625 13.9375 C11.31535289 20.71317599 10.81509863 26.42093455 6.5625 31.9375 C0.76353183 37.39185736 -4.15929309 39.33183201 -12.0625 39.21484375 C-17.49725814 38.58019272 -21.75450002 36.03648244 -25.3125 31.9375 C-29.80667305 25.59278511 -30.20208462 20.66278354 -29.4375 12.9375 C-27.94952095 6.92566517 -24.36802254 3.18015608 -19.140625 0.00390625 C-12.93328015 -2.44494512 -6.28178015 -1.94164114 0 0 Z " fill="#D8EBF1" transform="translate(421.4375,372.0625)"/>
<path d="M0 0 C5.15359221 4.65080272 7.22135587 7.76460108 7.875 14.5625 C7.38189793 20.47972488 5.29751541 24.66211949 1 28.75 C-3.8756052 31.87538795 -8.80750258 32.05372747 -14.4375 31.3125 C-18.52998716 29.657652 -21.50558224 27.39472707 -24.375 24.0625 C-26.75650485 17.89860509 -27.18430982 12.23975447 -24.52734375 6.10546875 C-19.37163984 -2.37649575 -8.55338457 -4.19893424 0 0 Z " fill="#D8EBF1" transform="translate(154.4375,444.6875)"/>
<path d="M0 0 C4.28590933 2.79515826 7.22425239 5.92275717 8.875 10.875 C9.27180449 16.13265945 8.76998146 19.43602842 5.875 23.875 C1.91984364 28.11266753 -1.07459876 29.68155338 -6.88671875 30.00390625 C-12.05855338 29.7060519 -15.25545261 27.66893457 -19 24.25 C-21.64788098 20.04454197 -22.40940596 16.8133217 -22.125 11.875 C-20.45678897 5.98719635 -17.9639666 3.30260134 -13.125 -0.125 C-8.46247142 -1.67917619 -4.63746673 -1.66948802 0 0 Z " fill="#BFDAE6" transform="translate(234.125,295.125)"/>
<path d="M0 0 C13.156712 -0.57480781 13.156712 -0.57480781 18 3 C23.19636266 8.08339825 26.0158835 12.45061167 26.375 19.8125 C26.23669689 24.98349951 25.17883153 28.8763491 22 33 C16.74713686 37.94070529 12.48062825 40.16883277 5.25 40.0625 C4.45078125 40.05347656 3.6515625 40.04445313 2.828125 40.03515625 C2.22484375 40.02355469 1.6215625 40.01195312 1 40 C0.67 39.34 0.34 38.68 0 38 C0.53109375 37.72027344 1.0621875 37.44054687 1.609375 37.15234375 C6.50211081 34.3756269 10.377468 31.63294128 12 26 C12.75360954 19.55533913 12.96371051 13.41707103 9 8 C6.25910187 5.25910187 3.73058771 3.24352924 0 2 C0 1.34 0 0.68 0 0 Z " fill="#BFDAE6" transform="translate(406,371)"/>
<path d="M0 0 C6.29255319 -0.48404255 6.29255319 -0.48404255 9.375 1.625 C11.38506043 4.56278062 11.92733979 6.4396496 12 10 C9.99357068 14.02602366 7.37860656 16.77855785 4.11328125 19.8359375 C3.17548828 20.73570312 2.23769531 21.63546875 1.27148438 22.5625 C-0.20904295 23.97491471 -1.69407981 25.38111768 -3.19262695 26.77441406 C-4.64790763 28.13258058 -6.0801604 29.51528934 -7.51171875 30.8984375 C-8.37240967 31.70974121 -9.23310059 32.52104492 -10.11987305 33.35693359 C-12.56051652 36.78796933 -12.55485848 38.87862944 -12 43 C-9.30859472 45.04543223 -9.30859472 45.04543223 -6 47 C0 53.86486486 0 53.86486486 0 56 C-5.21505376 56.52150538 -5.21505376 56.52150538 -8 56 C-10.125 53.3125 -10.125 53.3125 -12 50 C-14.73677374 47.30701464 -17.80841099 45.127726 -21 43 C-21.515625 39.73046875 -21.515625 39.73046875 -21 36 C-19.28544796 33.75345043 -17.82209808 32.15531897 -15.75 30.3125 C-15.21729492 29.80630127 -14.68458984 29.30010254 -14.13574219 28.77856445 C-11.86704986 26.62383836 -9.55902382 24.51306381 -7.25390625 22.39746094 C-5.57161609 20.84201012 -3.91088223 19.26574003 -2.25 17.6875 C-1.7250293 17.22061768 -1.20005859 16.75373535 -0.65917969 16.27270508 C2.17701002 13.57299868 2.97697049 12.20428025 3.421875 8.2578125 C2.97636581 4.81749154 2.61808394 4.07264979 0 2 C0 1.34 0 0.68 0 0 Z " fill="#178CA7" transform="translate(301,370)"/>
<path d="M0 0 C2.91034567 2.77576881 3.91972132 4.39260438 4.45068359 8.40991211 C4.43344238 9.68616455 4.41620117 10.96241699 4.3984375 12.27734375 C4.40317303 13.69205895 4.40839641 15.10677259 4.4140625 16.52148438 C4.39933514 18.73132507 4.37495178 20.94053468 4.33984375 23.15014648 C3.87617619 31.53125757 3.87617619 31.53125757 6.41113281 39.19970703 C8.24893657 40.93311072 8.24893657 40.93311072 11 43 C10.93115234 45.01538086 10.93115234 45.01538086 10 47 C7.9375 48.25 7.9375 48.25 6 49 C-4.84862078 40.70491578 -4.84862078 40.70491578 -5.953125 34.07910156 C-6.32334212 29.75680391 -6.17988244 25.45359975 -6 21.125 C-5.95121455 18.89632597 -5.91826708 16.66854901 -5.8996582 14.43942261 C-5.8763134 12.43318525 -5.81050981 10.42757284 -5.7421875 8.42236328 C-6.01882539 4.75010006 -6.85136602 2.94101307 -9 0 C-5.77839187 -1.61080407 -3.42436421 -0.82657067 0 0 Z " fill="#178BA6" transform="translate(103,283)"/>
<path d="M0 0 C2.99296512 1.7159112 5.62632971 3.48048005 8 6 C8.67092121 8.95219965 8.1670685 11.70352294 7.8125 14.6875 C7.50576355 21.39802087 8.7522028 25.31021198 13.23046875 30.3984375 C17.34257859 34.59573597 21.67569413 38.53243641 26.15820312 42.33032227 C28.5800589 44.52585138 28.94961847 45.5465662 29.3125 48.8125 C28.91378388 52.8794044 28.11416229 54.35296205 25 57 C22.19811145 57.42242213 19.8580389 57.23816991 17 57 C17 56.34 17 55.68 17 55 C17.66 55 18.32 55 19 55 C19.2475 53.80375 19.495 52.6075 19.75 51.375 C19.88921875 50.70210938 20.0284375 50.02921875 20.171875 49.3359375 C19.91321196 45.82047166 18.27227476 43.56355188 16 41 C14.72590517 39.90393869 13.42668305 38.83669646 12.109375 37.79296875 C0.85625614 28.68427363 0.85625614 28.68427363 -0.74023438 21.81494141 C-1.39500913 14.51128351 -0.9036796 7.26419369 0 0 Z " fill="#178BA6" transform="translate(343,271)"/>
<path d="M0 0 C1.32 0.66 2.64 1.32 4 2 C4 3.32 4 4.64 4 6 C3.18740723 6.75667969 2.37481445 7.51335937 1.53759766 8.29296875 C-1.7383284 11.78762607 -1.61402947 13.58692569 -1.6015625 18.3125 C-1.60956879 19.00384033 -1.61757507 19.69518066 -1.62582397 20.4074707 C-1.64880628 22.60558442 -1.63946794 24.80183828 -1.625 27 C-1.6211425 29.19781255 -1.6246678 31.39480772 -1.64559937 33.5925293 C-1.66317104 35.58634841 -1.6557397 37.58034149 -1.64697266 39.57421875 C-2.02369582 43.22994451 -2.79007099 45.09917385 -5 48 C-8.01324195 49.50662097 -10.68286377 49.17770373 -14 49 C-14.66 48.34 -15.32 47.68 -16 47 C-15.34459229 46.48445557 -14.68918457 45.96891113 -14.01391602 45.43774414 C-11.2894233 42.1398826 -11.61122321 40.22712123 -11.77734375 35.99609375 C-11.79698448 34.60093897 -11.81449174 33.20575284 -11.83007812 31.81054688 C-11.87521058 29.63223483 -11.93652892 27.45846255 -12.03735352 25.28198242 C-12.57380353 12.49634675 -12.57380353 12.49634675 -8.48876953 7.52001953 C-5.86345197 4.74123221 -3.02569896 2.3309803 0 0 Z " fill="#168BA5" transform="translate(109,355)"/>
<path d="M0 0 C1.5778125 0.2475 1.5778125 0.2475 3.1875 0.5 C2.68195676 4.92350331 1.23734798 7.28071602 -1.8125 10.5 C-6.15732759 13.5 -6.15732759 13.5 -8.8125 13.5 C-8.49261915 19.92771335 -7.59146849 22.57936963 -2.71875 27.1015625 C-2.21202759 27.58652191 -1.70530518 28.07148132 -1.18322754 28.57113647 C0.42444361 30.10705096 2.05310549 31.61759094 3.6875 33.125 C5.31994611 34.64122174 6.94625099 36.16230685 8.55822754 37.70028687 C10.01847724 39.09230683 11.49802911 40.46399521 12.97851562 41.83447266 C15.48443902 44.85830904 16.04560117 46.60916097 16.1875 50.5 C14.58338152 54.02906067 13.44590638 55.32772908 10.1875 57.5 C7.5 57.625 7.5 57.625 5.1875 57.5 C5.1875 54.5 5.1875 54.5 7.1875 52.5 C7.94163353 49.25643424 7.94163353 49.25643424 7.1875 45.5 C4.00742662 40.93131492 -0.19887788 37.07283023 -4.21484375 33.24609375 C-4.95927734 32.53646484 -5.70371094 31.82683594 -6.47070312 31.09570312 C-8.00664583 29.64136149 -9.5538379 28.19882017 -11.11132812 26.76757812 C-16.63253423 21.4496066 -16.63253423 21.4496066 -17.546875 16.625 C-16.8125 13.5 -16.8125 13.5 -15.23828125 12.00390625 C-14.54089844 11.69324219 -13.84351563 11.38257813 -13.125 11.0625 C-9.58847743 9.21358118 -8.09891882 7.72402257 -6.25 4.1875 C-4.26213673 0.55896875 -4.26213673 0.55896875 0 0 Z " fill="#178CA6" transform="translate(296.8125,441.5)"/>
<path d="M0 0 C9.73032529 -0.62329486 9.73032529 -0.62329486 14.4375 1.6875 C19.59109221 6.33830272 21.65885587 9.45210108 22.3125 16.25 C21.81939793 22.16722488 19.73501541 26.34961949 15.4375 30.4375 C11.77811735 32.78325811 9.06373043 33.11771078 4.8125 33.0625 C3.91144531 33.05347656 3.01039063 33.04445313 2.08203125 33.03515625 C1.39496094 33.02355469 0.70789063 33.01195312 0 33 C1 30 1 30 3.4375 28.0625 C6.69568939 25.44005488 7.79689115 23.56346581 8.3359375 19.4140625 C8.41996981 13.41415541 8.19483258 9.66092508 4 5 C2.68441297 3.97676564 1.35622245 2.96873032 0 2 C0 1.34 0 0.68 0 0 Z " fill="#BFDAE6" transform="translate(140,443)"/>
<path d="M0 0 C4.13907366 0.15619146 6.34200698 0.4242561 9.5 3.1875 C11 6 11 6 11.1875 8.8125 C9.4343367 13.51835939 6.47858739 16.43914872 3 20 C2.51402344 20.50499023 2.02804687 21.00998047 1.52734375 21.53027344 C-0.07753105 23.19528175 -1.69253728 24.84967361 -3.3125 26.5 C-3.84012939 27.04092285 -4.36775879 27.5818457 -4.91137695 28.13916016 C-6.23565651 29.46578811 -7.61395262 30.73804487 -9 32 C-9.66 32 -10.32 32 -11 32 C-10.96334229 32.57443848 -10.92668457 33.14887695 -10.88891602 33.74072266 C-10.74252997 36.36825961 -10.65211958 38.99493968 -10.5625 41.625 C-10.50384766 42.52863281 -10.44519531 43.43226563 -10.38476562 44.36328125 C-10.21475106 51.01813726 -10.21475106 51.01813726 -12.58935547 53.98730469 C-14.32893438 55.47837233 -16.05880978 56.78632623 -18 58 C-21.04819789 36.9193051 -21.04819789 36.9193051 -16.15136719 29.01660156 C-12.24547777 24.4767975 -7.87248633 20.71624414 -3.25390625 16.92578125 C0.58932296 13.73001629 0.58932296 13.73001629 2.1875 9.1640625 C1.97660271 5.60517066 1.13576013 3.81920337 -1 1 C-0.67 0.67 -0.34 0.34 0 0 Z " fill="#1A8CA7" transform="translate(361,173)"/>
<path d="M0 0 C6.21967963 0.34553776 6.21967963 0.34553776 8.9375 2.625 C10.56334598 6.25924395 10.69932567 8.00271805 10 12 C7.00869736 15.43151138 3.50083288 18.2763777 0.0625 21.25 C-7.67111627 28.02973487 -7.67111627 28.02973487 -11.3046875 37.28515625 C-11.43739664 40.54730298 -11.23083575 43.75260929 -11.01953125 47.0078125 C-11 51 -11 51 -12.51171875 53.7421875 C-16.86357932 58 -16.86357932 58 -19 58 C-19.23355931 53.81344935 -19.37482637 49.62858126 -19.5 45.4375 C-19.56703125 44.25607422 -19.6340625 43.07464844 -19.703125 41.85742188 C-19.89654059 33.22625108 -19.89654059 33.22625108 -17.39013672 29.7980957 C-15.34623829 28.02456321 -13.24001082 26.51495469 -11 25 C-9.93692208 24.04294797 -8.89519839 23.0613049 -7.8828125 22.05078125 C-6.03249259 20.21356559 -4.17826925 18.38027349 -2.3203125 16.55078125 C-0.32058654 14.35242931 1.00984613 12.77243083 2 10 C1.68533358 6.14533632 1.16750011 4.25125017 -1 1 C-0.67 0.67 -0.34 0.34 0 0 Z " fill="#B9D7E3" transform="translate(369,173)"/>
<path d="M0 0 C4.83407252 0.41434907 6.89537674 2.37793954 10 6 C11.35609289 10.06827866 11.5298986 13.74629346 11 18 C8.91725603 22.09110422 7.22831466 24.25035255 3 26 C2.67 26.66 2.34 27.32 2 28 C-2.7686271 24.5030068 -5.33170824 21.88808855 -7 16 C-7.4000121 10.62840888 -6.44856558 7.05593001 -2.9375 2.9375 C-1.97658816 1.94041266 -1.00340709 0.95431072 0 0 Z " fill="#D8ECF2" transform="translate(219,296)"/>
<path d="M0 0 C3.20835619 -0.59150558 4.88810415 -0.78685886 8 0 C11.91941897 2.86720046 15.13038934 6.33356521 18.4375 9.875 C19.80165039 11.28072266 19.80165039 11.28072266 21.19335938 12.71484375 C28.81720962 20.62907216 28.81720962 20.62907216 29.375 24.8125 C29 28 29 28 26.9375 30.875 C23.34962488 33.47048413 21.3322929 33.4247346 17 33 C17 32.34 17 31.68 17 31 C17.66 31 18.32 31 19 31 C19.2475 29.80375 19.495 28.6075 19.75 27.375 C19.88921875 26.70210938 20.0284375 26.02921875 20.171875 25.3359375 C19.70084518 18.93421409 13.18614881 13.91420363 8.875 9.6875 C8.24207031 9.05521484 7.60914063 8.42292969 6.95703125 7.77148438 C3.77512182 4.48560226 3.77512182 4.48560226 0 2 C0 1.34 0 0.68 0 0 Z " fill="#178BA6" transform="translate(354,258)"/>
<path d="M0 0 C4.13907366 0.15619146 6.34200698 0.4242561 9.5 3.1875 C11 6 11 6 11.1875 8.8125 C9.43493178 13.51676206 6.4807649 16.44279939 3 20 C2.51402344 20.49967285 2.02804687 20.9993457 1.52734375 21.51416016 C-9.65029168 32.97672917 -9.65029168 32.97672917 -14.625 33.0625 C-15.73875 33.041875 -16.8525 33.02125 -18 33 C-15.08418332 29.41771093 -12.10049481 26.05845344 -8.7421875 22.88671875 C-8.15977295 22.33008545 -7.5773584 21.77345215 -6.97729492 21.19995117 C-5.79971573 20.08148386 -4.60995196 18.97568365 -3.4074707 17.8840332 C-0.37787655 14.98851921 0.88310493 13.445604 1.9765625 9.27734375 C2.00322598 5.54889991 1.22459223 3.93646175 -1 1 C-0.67 0.67 -0.34 0.34 0 0 Z " fill="#1B8DA7" transform="translate(372,210)"/>
<path d="M0 0 C6.25 -0.48076923 6.25 -0.48076923 9.4375 1.5625 C11.05630461 4.08783518 11.71748395 5.8890466 11.64868164 8.90258789 C10.09570443 13.92390036 5.2286564 17.450172 1.5 20.9375 C0.14068359 22.24944336 0.14068359 22.24944336 -1.24609375 23.58789062 C-3.48196975 25.74139224 -5.73900834 27.87288284 -8 30 C-2.39 30.33 3.22 30.66 9 31 C9 31.33 9 31.66 9 32 C0.42 32 -8.16 32 -17 32 C-12.54569959 26.80331618 -8.06111945 21.99036709 -3.1484375 17.27539062 C0.63174243 13.6114994 0.63174243 13.6114994 3 9 C2.68533358 5.14533632 2.16750011 3.25125017 0 0 Z " fill="#B8D7E3" transform="translate(379,211)"/>
<path d="M0 0 C1.27875 0.20625 2.5575 0.4125 3.875 0.625 C0.66739749 4.43135497 -2.53246109 8.17063567 -6.125 11.625 C-4.65160352 15.07584966 -2.70127385 17.23225096 0 19.8125 C1.30777335 21.06675237 2.604094 22.33340483 3.875 23.625 C3.875 23.955 3.875 24.285 3.875 24.625 C0.31268732 25.20898569 -1.6727326 25.4634078 -5.125 24.625 C-9.1933089 21.65200504 -12.65018634 18.26218813 -16.125 14.625 C-15.43485472 9.35031818 -11.54271589 6.2768476 -7.9140625 2.7109375 C-4.9652365 0.50551301 -3.62221248 -0.03449726 0 0 Z " fill="#168BA6" transform="translate(138.125,330.375)"/>
<path d="M0 0 C4.19287932 -0.61146157 7.60481155 -0.89176993 11.2734375 1.453125 C13.28069624 3.22906396 15.15812638 5.05394801 17 7 C17.82757813 7.75216797 17.82757813 7.75216797 18.671875 8.51953125 C20.97046928 11.08178782 20.88496888 13.66409751 21 17 C19.65437601 19.94755732 18.91445456 21.54277272 16 23 C13.3276379 23.13415472 10.67749512 23.04318541 8 23 C8.309375 22.46375 8.61875 21.9275 8.9375 21.375 C10.30665984 18.31452505 11 16.39687359 11 13 C8.22772575 7.99614329 4.13871848 3.89526445 0 0 Z " fill="#178CA7" transform="translate(149,371)"/>
<path d="M0 0 C3.6875 0.3125 3.6875 0.3125 6.0625 1.875 C8.34103057 5.29279586 8.8944511 7.173478 8.6875 11.3125 C6.70089351 14.34916992 4.26118912 16.77187755 1.6875 19.3125 C0.759375 20.55 0.759375 20.55 -0.1875 21.8125 C-3.60426876 24.22433677 -7.26414262 23.62391211 -11.3125 23.3125 C-10.92578125 22.86519531 -10.5390625 22.41789062 -10.140625 21.95703125 C-9.0597821 20.70229035 -7.98587936 19.44154703 -6.91796875 18.17578125 C-5.62368734 16.67365903 -4.25919993 15.23219224 -2.875 13.8125 C-0.97516884 11.2909245 -0.97516884 11.2909245 -1.4375 7.6875 C-2.14097492 4.21430811 -2.14097492 4.21430811 -4.3125 1.3125 C-3.3125 0.3125 -3.3125 0.3125 0 0 Z " fill="#168CA7" transform="translate(161.3125,291.6875)"/>
<path d="M0 0 C-2.28296086 5.39021614 -6.67820639 9.12562524 -10.73852539 13.21899414 C-12.17983267 14.67972931 -13.59838767 16.1603891 -15.01757812 17.64257812 C-15.93345703 18.56876953 -16.84933594 19.49496094 -17.79296875 20.44921875 C-18.6233667 21.29830811 -19.45376465 22.14739746 -20.30932617 23.0222168 C-23.56401795 25.41458211 -26.0164705 25.72948884 -30 26 C-30 21.92437173 -27.92402856 20.42142839 -25.21484375 17.67578125 C-24.47398277 16.91638496 -24.47398277 16.91638496 -23.71815491 16.14164734 C-22.66882115 15.07273419 -21.61526274 14.00795452 -20.55786133 12.94702148 C-18.95001058 11.32511991 -17.37072509 9.67855796 -15.79101562 8.02929688 C-14.76727785 6.99315599 -13.74193604 5.958597 -12.71484375 4.92578125 C-12.24787582 4.43209549 -11.7809079 3.93840973 -11.29978943 3.42976379 C-7.62751163 -0.16942465 -5.02385958 -0.49212203 0 0 Z " fill="#178DA7" transform="translate(251,442)"/>
<path d="M0 0 C6.29255319 -0.48404255 6.29255319 -0.48404255 9.375 1.625 C11.38506043 4.56278062 11.92733979 6.4396496 12 10 C10.04800938 13.85376926 7.56955201 16.67422311 4.5 19.6875 C3.7265625 20.45449219 2.953125 21.22148437 2.15625 22.01171875 C-0.71226746 24.65678286 -2.21645311 25.96927267 -6.1875 26.125 C-7.5796875 26.063125 -7.5796875 26.063125 -9 26 C-7.03015218 21.07538044 -2.99291848 18.18349253 0.8828125 14.73046875 C3.57369613 11.26012252 3.51982147 9.29107526 3 5 C1.60414215 3.18523997 1.60414215 3.18523997 0 2 C0 1.34 0 0.68 0 0 Z " fill="#178DA7" transform="translate(332,401)"/>
<path d="M0 0 C3.27895512 -0.40882647 5.89682342 -0.69530987 8.78027344 1.12207031 C10.58091155 2.71111033 12.2311026 4.37455369 13.875 6.125 C14.45507812 6.69476563 15.03515625 7.26453125 15.6328125 7.8515625 C19.05095633 11.36554213 20.92710354 13.88266873 21 19 C19.39588152 22.52906067 18.25840638 23.82772908 15 26 C12.3125 26.125 12.3125 26.125 10 26 C10 23 10 23 12 21 C12.64555483 17.41358427 12.71617456 15.04408595 10.609375 11.97265625 C8.79652854 9.91941058 6.91468988 7.95820556 5 6 C4.00836586 4.84391168 3.02744672 3.67845505 2.0625 2.5 C1.0415625 1.2625 1.0415625 1.2625 0 0 Z " fill="#178CA6" transform="translate(323,442)"/>
<path d="M0 0 C3.17477694 -0.54291202 4.93470006 -0.77645688 8 0 C11.35031607 2.76958441 14.00641533 6.12966314 16.8125 9.4375 C22.35513 15.54650592 26.62374702 20.02403891 35.11401367 20.69360352 C38.80101726 20.68485908 42.34082928 20.47122579 46 20 C46 20.33 46 20.66 46 21 C25.22760996 24.18594939 25.22760996 24.18594939 16.80566406 19.05322266 C10.46371463 13.80353242 4.85552126 7.65031514 0 1 C0 0.67 0 0.34 0 0 Z " fill="#B1D4E1" transform="translate(277,222)"/>
<path d="M0 0 C6.70647887 -0.83830986 6.70647887 -0.83830986 10.2421875 1.453125 C17.78055994 8.02503943 17.78055994 8.02503943 18.375 13.375 C17.92972154 17.67935843 17.33911332 19.24523151 14 22 C11.19803394 22.41708655 8.85743265 22.23811939 6 22 C6 21.34 6 20.68 6 20 C6.66 20 7.32 20 8 20 C8.8465562 16.92678759 9.29597253 14.18663758 9 11 C7.0599475 7.89804792 4.60009485 5.54820826 2 3 C1.34 2.01 0.68 1.02 0 0 Z " fill="#1690AA" transform="translate(402,258)"/>
<path d="M0 0 C4.27976659 -0.42222509 6.34933739 -0.46562582 9.90600586 2.07958984 C10.86057724 3.02186109 11.79622253 3.98358563 12.71484375 4.9609375 C13.21544815 5.46670319 13.71605255 5.97246887 14.23182678 6.49356079 C15.2810773 7.55988757 16.32195413 8.63451208 17.35473633 9.71679688 C18.94102545 11.37869349 20.55048282 13.01500065 22.16601562 14.6484375 C23.18371295 15.68871563 24.20003945 16.73033699 25.21484375 17.7734375 C25.69598129 18.26621185 26.17711884 18.75898621 26.6728363 19.26669312 C30 22.76438347 30 22.76438347 30 25 C26.13231353 25.43300811 24.49704456 25.37314715 21.33105469 22.99633789 C20.45352539 22.08102295 19.57599609 21.16570801 18.671875 20.22265625 C18.19679504 19.73671494 17.72171509 19.25077362 17.23223877 18.75010681 C15.72333924 17.20114704 14.23646982 15.63296884 12.75 14.0625 C11.24508002 12.5001605 9.73595751 10.94202153 8.22491455 9.38560486 C6.85975702 7.97512587 5.50528881 6.55432449 4.15136719 5.13305664 C2.1869751 2.96341651 2.1869751 2.96341651 0 2 C0 1.34 0 0.68 0 0 Z " fill="#168BA5" transform="translate(220,401)"/>
<path d="M0 0 C0.96292969 0.18046875 1.92585938 0.3609375 2.91796875 0.546875 C0.56037226 5.9326259 -3.70452822 9.65749244 -7.76953125 13.796875 C-8.95579102 15.05757813 -8.95579102 15.05757813 -10.16601562 16.34375 C-15.99062073 22.26935982 -15.99062073 22.26935982 -19.22509766 23.09179688 C-21.1640625 23.09375 -21.1640625 23.09375 -24.08203125 22.546875 C-21.72443476 17.1611241 -17.45953428 13.43625756 -13.39453125 9.296875 C-12.60369141 8.45640625 -11.81285156 7.6159375 -10.99804688 6.75 C-4.36742803 0.00439932 -4.36742803 0.00439932 0 0 Z " fill="#178BA6" transform="translate(294.08203125,257.453125)"/>
<path d="M0 0 C3.77161307 0.16762725 5.56391139 0.61982019 8.4375 3.125 C10 6 10 6 10.3125 9.25 C8.34327339 14.87636174 4.85720184 18.58477996 0 22 C-3.05936187 22.7346494 -4.83876944 22.51729227 -8 22 C-7.60167969 21.54109375 -7.20335937 21.0821875 -6.79296875 20.609375 C-5.70115692 19.34489219 -4.6154244 18.07514013 -3.53515625 16.80078125 C-2.4208056 15.49361675 -1.28044284 14.20848712 -0.125 12.9375 C1.48302295 10.16812713 1.32787294 8.14758022 1 5 C0.10168984 2.69769234 0.10168984 2.69769234 -1 1 C-0.67 0.67 -0.34 0.34 0 0 Z " fill="#1A8DA7" transform="translate(410,221)"/>
<path d="M0 0 C7.38052027 -0.48396854 7.38052027 -0.48396854 10 1.5625 C11.46472477 5.13276662 11.64138068 7.15171591 11 11 C9.32953859 13.29792329 7.52932324 15.28288585 5.53125 17.30078125 C3.77685455 18.86639446 3.77685455 18.86639446 4 21 C0.7 21 -2.6 21 -6 21 C-5.071875 19.9275 -4.14375 18.855 -3.1875 17.75 C-2.64351563 17.10546875 -2.09953125 16.4609375 -1.5390625 15.796875 C-0.42275348 14.49357005 0.74349643 13.23251981 1.9375 12 C3.62100864 8.83104255 2.80173218 6.39194386 2 3 C1.34 2.01 0.68 1.02 0 0 Z " fill="#B8D7E3" transform="translate(416,222)"/>
<path d="M0 0 C9.89914663 -0.61442979 9.89914663 -0.61442979 13.6875 1.5 C15.54830465 5.0443898 15.81261388 8.08175288 15 12 C12.79259319 14.96858157 11.51402627 15.82865791 8 17 C6.43881572 17.06740865 4.8749748 17.08514456 3.3125 17.0625 C2.10013672 17.04896484 2.10013672 17.04896484 0.86328125 17.03515625 C0.24839844 17.02355469 -0.36648437 17.01195312 -1 17 C-0.195625 16.360625 0.60875 15.72125 1.4375 15.0625 C3.2750504 13.59396498 3.2750504 13.59396498 5 12 C5.33856828 6.67326964 5.33856828 6.67326964 3 2 C2.01 1.34 1.02 0.68 0 0 Z " fill="#178CA6" transform="translate(164,355)"/>
<path d="M0 0 C0.48210937 0.42152344 0.96421875 0.84304688 1.4609375 1.27734375 C2.09257812 1.82519531 2.72421875 2.37304688 3.375 2.9375 C4.00148437 3.48277344 4.62796875 4.02804687 5.2734375 4.58984375 C6.95632334 6.06958624 6.95632334 6.06958624 9 7 C9.47138774 11.80815498 9.70477383 14.95351764 6.9375 19.0625 C3.35587659 21.42484735 1.20965814 21.41271158 -3 21 C-2.49396008 18.83125748 -2.00016187 17.00032373 -1 15 C-0.76827173 12.45384991 -0.58105471 9.92603775 -0.4375 7.375 C-0.39431641 6.66859375 -0.35113281 5.9621875 -0.30664062 5.234375 C-0.20055249 3.48981463 -0.09977111 1.74493303 0 0 Z " fill="#178CA6" transform="translate(138,383)"/>
<path d="M0 0 C7.32026144 -0.48801743 7.32026144 -0.48801743 10.4375 1.75 C12.93049367 5.33991089 13.2150742 8.56007386 13 12.875 C12.979375 13.69742187 12.95875 14.51984375 12.9375 15.3671875 C11.49506717 19.41801969 8.35833487 21.45823154 5 24 C4.97421875 22.68644531 4.9484375 21.37289063 4.921875 20.01953125 C4.86558171 18.2838215 4.80823465 16.5481457 4.75 14.8125 C4.73582031 13.94818359 4.72164063 13.08386719 4.70703125 12.19335938 C4.50362456 6.88444484 4.00445887 3.86830727 0 0 Z " fill="#168BA6" transform="translate(275,360)"/>
<path d="M0 0 C5.15224147 0.4264698 7.376545 1.76501954 10.9609375 5.4375 C11.84394531 6.33210937 12.72695313 7.22671875 13.63671875 8.1484375 C14.54035156 9.08945313 15.44398438 10.03046875 16.375 11 C17.31009102 11.95160978 18.24627908 12.90214289 19.18359375 13.8515625 C26 20.8185521 26 20.8185521 26 22 C22.93891455 22.42962603 20.96468962 22.65296894 18 22 C16.02024414 20.38652215 14.6340176 18.59968249 13.07421875 16.578125 C10.45128848 13.31798568 7.54085692 10.43309843 4.5625 7.5 C4.01754883 6.95956055 3.47259766 6.41912109 2.91113281 5.86230469 C1.60974127 4.5725253 0.30520697 3.28591819 -1 2 C-0.67 1.34 -0.34 0.68 0 0 Z " fill="#188BA6" transform="translate(271,221)"/>
<path d="M0 0 C3.31101691 2.80162969 3.92428443 4.60880289 4.75 8.875 C4.63390267 11.78296172 4.14931423 12.82453095 2.23828125 15.0703125 C-3.32009109 20 -3.32009109 20 -5 20 C-5.03738281 18.97519531 -5.07476562 17.95039063 -5.11328125 16.89453125 C-5.17897079 15.53381938 -5.24541709 14.17314389 -5.3125 12.8125 C-5.33505859 12.13896484 -5.35761719 11.46542969 -5.38085938 10.77148438 C-5.61595554 6.39014677 -6.42442686 3.55608624 -9 0 C-5.77839187 -1.61080407 -3.42436421 -0.82657067 0 0 Z " fill="#178BA6" transform="translate(143,283)"/>
<path d="M0 0 C0.57295163 3.55230013 0.8420478 5.56626015 0 9 C-3.66650942 13.76038516 -8.00782808 17.67188538 -13 21 C-15.33199388 21.07905064 -17.66832622 21.08798769 -20 21 C-18.5450489 17.65215892 -16.70194509 15.45622627 -14.12109375 12.890625 C-13.36505859 12.13652344 -12.60902344 11.38242187 -11.83007812 10.60546875 C-11.04052734 9.82816406 -10.25097656 9.05085938 -9.4375 8.25 C-8.64408203 7.45722656 -7.85066406 6.66445313 -7.03320312 5.84765625 C-1.14025522 0 -1.14025522 0 0 0 Z " fill="#1594AC" transform="translate(327,270)"/>
<path d="M0 0 C2 0 2 0 4.625 2.125 C8.1080446 6.43734093 7.60703775 11.45451057 7.6640625 16.7578125 C7 20 7 20 4.66796875 22.4140625 C1.52259325 24.2837879 -0.40129302 24.33476344 -4 24 C-4 23.34 -4 22.68 -4 22 C-3.5155542 21.55551514 -3.0311084 21.11103027 -2.53198242 20.65307617 C-0.57549368 18.54193908 -0.58367963 17.39365297 -0.48828125 14.55078125 C-0.45283203 13.70322266 -0.41738281 12.85566406 -0.38085938 11.98242188 C-0.35830078 11.10134766 -0.33574219 10.22027344 -0.3125 9.3125 C-0.27833984 8.41982422 -0.24417969 7.52714844 -0.20898438 6.60742188 C-0.12654352 4.40507329 -0.05738449 2.20312062 0 0 Z " fill="#178BA6" transform="translate(280,485)"/>
<path d="M0 0 C8.92674617 -0.6132879 8.92674617 -0.6132879 12.625 1.5 C14.58535075 5.06427409 14.76550426 8.0258928 14 12 C12.625 14.5 12.625 14.5 10 16 C6.63905152 16.31607666 3.3643667 16.2311397 0 16 C0.66 15.484375 1.32 14.96875 2 14.4375 C4.2915944 12.07246021 4.2915944 12.07246021 4.5 8.5625 C3.93237649 4.5181825 2.80548184 2.89315314 0 0 Z " fill="#178BA6" transform="translate(165,315)"/>
<path d="M0 0 C0.33 0 0.66 0 1 0 C1 8.58 1 17.16 1 26 C-2.47314225 24.26342888 -3.86596489 23.34841265 -6.34765625 20.62890625 C-7.25547852 19.64374023 -7.25547852 19.64374023 -8.18164062 18.63867188 C-8.80232422 17.95353516 -9.42300781 17.26839844 -10.0625 16.5625 C-11.30303071 15.20931015 -12.54390389 13.85643417 -13.78515625 12.50390625 C-14.33051025 11.90392822 -14.87586426 11.3039502 -15.43774414 10.68579102 C-16.92232881 9.08381303 -18.44498104 7.53339307 -20 6 C-16.68067707 5.31108392 -15.20425343 5.06812536 -12 6 C-7.85811245 9.40362188 -4.64910335 12.98598631 -1 17 C-0.67 11.39 -0.34 5.78 0 0 Z " fill="#ACD3E0" transform="translate(334,205)"/>
<path d="M0 0 C5.13204273 0.43453792 7.49517832 1.83724063 11.1875 5.375 C12.02667969 6.16648438 12.86585938 6.95796875 13.73046875 7.7734375 C14.47941406 8.50820312 15.22835938 9.24296875 16 10 C16.59039062 10.50402344 17.18078125 11.00804687 17.7890625 11.52734375 C20.0625022 14.29213977 19.16832084 17.57747623 19 21 C11.84198775 15.17371096 5.47408234 8.5617015 -1 2 C-0.67 1.34 -0.34 0.68 0 0 Z " fill="#1D8EA8" transform="translate(308,210)"/>
<path d="M0 0 C7.27272727 -0.48484848 7.27272727 -0.48484848 10.4375 1.625 C12.34562497 4.52534996 12.8557024 6.5368575 13 10 C12.19230572 12.64336311 11.56688041 13.65019633 9.21484375 15.1015625 C6.71351421 16.11621117 4.93568703 16.2039908 2.25 16.125 C1.45078125 16.10695313 0.6515625 16.08890625 -0.171875 16.0703125 C-0.77515625 16.04710937 -1.3784375 16.02390625 -2 16 C-1.175 15.505 -0.35 15.01 0.5 14.5 C3.15220735 11.84779265 3.39544037 11.50274774 3.5 8 C3.29312027 4.53476449 2.51028412 2.51028412 0 0 Z " fill="#188CA7" transform="translate(414,243)"/>
<path d="M0 0 C7.24637681 -0.48309179 7.24637681 -0.48309179 10.4375 1.5625 C12.53567796 4.83565762 13 7.11417724 13 11 C11.5625 13.9375 11.5625 13.9375 9 16 C6.19737123 16.41639056 3.85822433 16.23818536 1 16 C1.33 15.34 1.66 14.68 2 14 C2.66 14 3.32 14 4 14 C4.67277818 7.26118089 4.67277818 7.26118089 2 1.375 C1.34 0.92125 0.68 0.4675 0 0 Z " fill="#178CA6" transform="translate(341,426)"/>
<path d="M0 0 C3.57763189 -0.32523926 5.39542581 -0.42956587 8.375 1.6875 C10 4 10 4 10.625 6.3125 C9.67553551 10.39519733 7.08836404 13.22367274 4 16 C3.34 16 2.68 16 2 16 C1.93941406 15.18015625 1.87882812 14.3603125 1.81640625 13.515625 C1.73261719 12.43796875 1.64882813 11.3603125 1.5625 10.25 C1.48128906 9.18265625 1.40007812 8.1153125 1.31640625 7.015625 C1.05909227 4.56320038 0.68187782 2.36078709 0 0 Z " fill="#198CA7" transform="translate(340,167)"/>
<path d="M0 0 C6.74796945 4.85440659 6.74796945 4.85440659 7.6875 9.125 C6.83213866 12.70196561 6.06653959 13.95564027 3 16 C-0.75 16.25 -0.75 16.25 -4 16 C-3 14 -2 12 -1 10 C-0.77377919 8.29636178 -0.59111527 6.58671299 -0.4375 4.875 C-0.31181641 3.50988281 -0.31181641 3.50988281 -0.18359375 2.1171875 C-0.12300781 1.41851562 -0.06242187 0.71984375 0 0 Z " fill="#168CA6" transform="translate(343,319)"/>
<path d="M0 0 C2.85947552 -0.23828963 5.1975057 -0.42704675 8 0 C10.5625 2.1875 10.5625 2.1875 12 5 C12.1875 7.4375 12.1875 7.4375 11 10 C8.81173525 12.19868505 6.46819531 14.12468711 4 16 C3.96261719 15.18015625 3.92523438 14.3603125 3.88671875 13.515625 C3.82097656 12.43796875 3.75523437 11.3603125 3.6875 10.25 C3.62949219 9.18265625 3.57148438 8.1153125 3.51171875 7.015625 C2.96909846 3.8178932 2.14928855 2.37401309 0 0 Z " fill="#B7D7E3" transform="translate(346,167)"/>
<path d="M0 0 C-0.14308594 0.92232422 -0.14308594 0.92232422 -0.2890625 1.86328125 C-0.45535156 3.07564453 -0.45535156 3.07564453 -0.625 4.3125 C-0.74101562 5.11300781 -0.85703125 5.91351563 -0.9765625 6.73828125 C-1.21533407 9.28723215 -1.21533407 9.28723215 1 12 C0.67 12.33 0.34 12.66 0 13 C-6.6 12.4 -6.6 12.4 -9 10 C-9.55021834 3.94759825 -9.55021834 3.94759825 -7.875 1.0625 C-5.214973 -0.44484863 -2.99793795 -0.19986253 0 0 Z " fill="#178BA6" transform="translate(275,428)"/>
<path d="M0 0 C0.39173498 3.26445815 0.69045545 5.88141268 -1.08984375 8.765625 C-3.94820427 11.88935056 -5.63999441 12.91870841 -9.875 13.875 C-11.421875 13.936875 -11.421875 13.936875 -13 14 C-13 11 -13 11 -10.6640625 8.30078125 C-9.65880492 7.29685338 -8.64541032 6.3010225 -7.625 5.3125 C-7.11710937 4.80138672 -6.60921875 4.29027344 -6.0859375 3.76367188 C-2.26699141 0 -2.26699141 0 0 0 Z " fill="#188DA7" transform="translate(265,485)"/>
<path d="M0 0 C6.79559055 -0.70299213 6.79559055 -0.70299213 9.8671875 1.08984375 C13.09459913 4.00069108 13.94401533 5.42149175 14.375 9.875 C14.25125 10.90625 14.1275 11.9375 14 13 C12.34049923 11.57757077 10.68126579 10.15484775 9.0234375 8.73046875 C7.67961097 7.5812117 6.33066453 6.43791326 4.9765625 5.30078125 C4.34492188 4.76839844 3.71328125 4.23601562 3.0625 3.6875 C2.47597656 3.19636719 1.88945312 2.70523437 1.28515625 2.19921875 C0.86105469 1.80347656 0.43695313 1.40773438 0 1 C0 0.67 0 0.34 0 0 Z " fill="#168CA6" transform="translate(250,370)"/>
<path d="M0 0 C3.625 0.1875 3.625 0.1875 6.625 2.1875 C6.91796875 4.3515625 6.91796875 4.3515625 6.8125 6.8125 C6.78542969 7.62976563 6.75835937 8.44703125 6.73046875 9.2890625 C6.69566406 9.91554688 6.66085938 10.54203125 6.625 11.1875 C2.81864503 7.97989749 -0.92063567 4.78003891 -4.375 1.1875 C-3.375 0.1875 -3.375 0.1875 0 0 Z " fill="#168CA6" transform="translate(75.375,291.8125)"/>
<path d="M0 0 C0.05399736 1.45792884 0.09279177 2.91642712 0.125 4.375 C0.14820312 5.18710937 0.17140625 5.99921875 0.1953125 6.8359375 C0 9 0 9 -2 11 C-4.68839385 11.26991906 -7.29141936 11.08737357 -10 11 C-8.59698853 7.81326038 -6.92234929 5.67778594 -4.4375 3.25 C-3.81746094 2.63640625 -3.19742188 2.0228125 -2.55859375 1.390625 C-1 0 -1 0 0 0 Z " fill="#168BA6" transform="translate(82,383)"/>
<path d="M0 0 C0 2.97 0 5.94 0 9 C-3.21451269 10.60725635 -6.43612536 10.05748185 -10 10 C-9.06409496 8.8944811 -8.12620142 7.79064547 -7.1875 6.6875 C-6.66542969 6.07261719 -6.14335937 5.45773437 -5.60546875 4.82421875 C-1.35974304 0 -1.35974304 0 0 0 Z " fill="#178CA7" transform="translate(327,318)"/>
<path d="M0 0 C0.33 0 0.66 0 1 0 C1 3.63 1 7.26 1 11 C-1 11 -1 11 -2.7265625 9.3203125 C-3.35304688 8.59585938 -3.97953125 7.87140625 -4.625 7.125 C-5.25664062 6.40570313 -5.88828125 5.68640625 -6.5390625 4.9453125 C-8 3 -8 3 -8 1 C-5.69 1.33 -3.38 1.66 -1 2 C-0.67 1.34 -0.34 0.68 0 0 Z " fill="#ADD4E0" transform="translate(334,172)"/>
<path d="M0 0 C5.625 -0.25 5.625 -0.25 9 2 C9.40843923 4.71203652 9.13336867 7.2437142 9 10 C7.86800647 9.0919838 6.74467637 8.17316174 5.625 7.25 C4.99851562 6.73953125 4.37203125 6.2290625 3.7265625 5.703125 C1.91687682 3.91800519 0.99882545 2.32050356 0 0 Z " fill="#1E8FA9" transform="translate(318,173)"/>
</svg>
