<?xml version="1.0" encoding="UTF-8"?>
<svg version="1.1" xmlns="http://www.w3.org/2000/svg" width="512" height="512">
<path d="M0 0 C3.57026681 3.14550119 7.02866942 6.39687952 10.47363281 9.67871094 C11.25480469 10.39542969 12.03597656 11.11214844 12.84082031 11.85058594 C35.15621309 32.97476558 49.01654408 64.40401153 52.47363281 94.67871094 C52.52369233 97.34669869 52.49138809 100.00990254 52.47363281 102.67871094 C53.02914322 102.66982849 53.58465363 102.66094604 54.15699768 102.65179443 C60.01463373 102.56230386 65.87207124 102.5025621 71.73022461 102.45898438 C73.90738837 102.43904727 76.08449985 102.41188755 78.26147461 102.37695312 C94.31318379 102.12608753 108.38492454 102.78394639 122.84863281 110.49121094 C123.51290283 110.8337793 124.17717285 111.17634766 124.86157227 111.52929688 C130.20615102 114.36250462 134.90101315 117.71891659 139.47363281 121.67871094 C140.29734375 122.31292969 141.12105469 122.94714844 141.96972656 123.60058594 C154.827866 134.27223988 162.67496631 151.44584563 165.47363281 167.67871094 C166.99188426 190.97811177 163.85590802 211.88883691 149.09863281 230.61621094 C134.10756923 247.67588807 116.04524617 257.03951637 93.47363281 259.67871094 C88.62686306 259.94135168 83.79370583 259.95360834 78.94064331 259.93940735 C77.5199066 259.94243537 76.09917152 259.94632808 74.67843926 259.95099992 C70.81092087 259.96120533 66.94349596 259.9591173 63.07597017 259.95481932 C58.89037378 259.95233836 54.7047991 259.96138329 50.51921082 259.96885681 C42.33236113 259.98156898 34.14554429 259.98340177 25.9586864 259.98105655 C19.29820997 259.97926894 12.63774346 259.9810325 5.97726822 259.98528099 C5.0270157 259.98587618 4.07676317 259.98647137 3.09771512 259.98708459 C1.16683895 259.98829643 -0.76403721 259.98951057 -2.69491337 259.99072697 C-20.78076579 260.00158958 -38.86659954 259.99944637 -56.952453 259.99334212 C-73.46402273 259.98817689 -89.97553339 259.99942031 -106.48709144 260.01844034 C-123.47507674 260.03785783 -140.46303415 260.04606772 -157.45103061 260.04231709 C-166.97479056 260.04041062 -176.49850028 260.04283816 -186.02225113 260.05703163 C-194.13222424 260.06899654 -202.24211622 260.0702936 -210.35209055 260.05824146 C-214.48208087 260.05238777 -218.61192319 260.05115481 -222.74190331 260.06324387 C-254.93416044 260.15091457 -285.30848124 257.93972584 -310.52636719 235.67871094 C-311.78900391 234.61330078 -311.78900391 234.61330078 -313.07714844 233.52636719 C-332.05573832 217.13969398 -344.6962068 193.22751687 -346.828125 168.12573242 C-346.96169731 164.5541573 -346.9944626 161.00259237 -346.96386719 157.42871094 C-346.95556885 156.16454346 -346.94727051 154.90037598 -346.9387207 153.59790039 C-346.64320014 137.13603757 -342.91176466 123.32148165 -335.52636719 108.67871094 C-334.74132812 107.10863281 -334.74132812 107.10863281 -333.94042969 105.50683594 C-321.20837061 82.03016115 -298.82104787 65.38750436 -273.52636719 57.67871094 C-258.63323995 53.38261654 -242.86432213 52.88882392 -227.52636719 54.67871094 C-227.27580566 54.17645996 -227.02524414 53.67420898 -226.76708984 53.15673828 C-218.30417695 36.31918777 -208.82784938 22.05287882 -195.52636719 8.67871094 C-195.04441895 8.19273438 -194.5624707 7.70675781 -194.06591797 7.20605469 C-186.3233391 -0.49195126 -177.86059242 -6.68205329 -168.52636719 -12.32128906 C-167.56633789 -12.90523437 -167.56633789 -12.90523437 -166.58691406 -13.50097656 C-154.31811562 -20.82049996 -141.2248537 -25.40673762 -127.52636719 -29.32128906 C-126.80610352 -29.53043945 -126.08583984 -29.73958984 -125.34375 -29.95507812 C-83.76303522 -41.35251787 -32.10818341 -27.79422402 0 0 Z " fill="#EBF6FE" transform="translate(346.5263671875,32.3212890625)"/>
<path d="M0 0 C0.33 0.66 0.66 1.32 1 2 C-0.01578125 2.24234375 -1.0315625 2.4846875 -2.078125 2.734375 C-41.98115337 12.37756625 -74.76629986 33.69683162 -96.78466797 68.94726562 C-100.22956854 74.76581203 -103.12376226 80.88598626 -106 87 C-107.24366333 86.96072388 -107.24366333 86.96072388 -108.51245117 86.9206543 C-143.71032361 85.9592298 -171.61801618 92.7033452 -198 117.5625 C-219.11121019 139.23711768 -225.59621825 166.52911244 -225.2734375 195.98046875 C-224.56115089 222.45143712 -210.73178561 246.11792788 -192.09375 264.26953125 C-174.06103772 280.65390452 -151.70795356 287.44266998 -128 290 C-128 290.33 -128 290.66 -128 291 C-135.48487626 291.07708558 -142.96964745 291.12902627 -150.45483398 291.16479492 C-152.99263331 291.17973166 -155.53040751 291.2000884 -158.06811523 291.22631836 C-189.00813088 291.53773356 -217.93737632 288.24121052 -242 267 C-243.26263672 265.93458984 -243.26263672 265.93458984 -244.55078125 264.84765625 C-263.52937113 248.46098304 -276.16983961 224.54880593 -278.30175781 199.44702148 C-278.43533012 195.87544636 -278.46809541 192.32388143 -278.4375 188.75 C-278.42920166 187.48583252 -278.42090332 186.22166504 -278.41235352 184.91918945 C-278.11683295 168.45732664 -274.38539747 154.64277071 -267 140 C-266.21496094 138.42992187 -266.21496094 138.42992187 -265.4140625 136.828125 C-252.68200342 113.35145022 -230.29468068 96.70879342 -205 89 C-190.10687276 84.7039056 -174.33795494 84.21011298 -159 86 C-158.74943848 85.49774902 -158.49887695 84.99549805 -158.24072266 84.47802734 C-149.77780976 67.64047684 -140.30148219 53.37416788 -127 40 C-126.51805176 39.51402344 -126.03610352 39.02804688 -125.53955078 38.52734375 C-117.79697191 30.82933781 -109.33422523 24.63923577 -100 19 C-99.0399707 18.41605469 -99.0399707 18.41605469 -98.06054688 17.8203125 C-85.79174844 10.50078911 -72.69848651 5.91455144 -59 2 C-58.27973633 1.79084961 -57.55947266 1.58169922 -56.81738281 1.36621094 C-39.88594746 -3.27476301 -17.23796061 -2.94320956 0 0 Z " fill="#DBEBFC" transform="translate(278,1)"/>
<path d="M0 0 C4.835657 0.49176173 6.97728215 2.33327958 10.08178711 6.03955078 C11.6062777 8.03544523 13.06259833 10.06549832 14.5 12.125 C15.02190918 12.86854736 15.54381836 13.61209473 16.08154297 14.37817383 C24.86057767 27.17924396 32.1854965 40.45878722 30.6875 56.375 C28.83061468 63.99245 25.04957929 70.33206528 18.58203125 74.84375 C10.02696839 79.909054 2.50274193 81.29324272 -7.3125 79.375 C-15.60538544 76.83044215 -21.85620963 72.28644524 -26.1875 64.75 C-30.24730528 57.08745362 -30.63115905 48.5017492 -28.4765625 40.125 C-24.79971217 30.05684608 -12.43483813 1.40771752 0 0 Z " fill="#89C8FE" transform="translate(126.3125,333.625)"/>
<path d="M0 0 C4.36487019 2.95079654 7.26418424 6.60038082 10.3125 10.8125 C10.78816406 11.46686035 11.26382813 12.1212207 11.75390625 12.79541016 C21.04890038 25.87274229 28.78482127 39.49541677 27 56 C25.12409332 63.6202085 21.37142958 69.95054263 14.89453125 74.46875 C6.33946839 79.534054 -1.18475807 80.91824272 -11 79 C-19.29288544 76.45544215 -25.54370963 71.91144524 -29.875 64.375 C-33.93480528 56.71245362 -34.31865905 48.1267492 -32.1640625 39.75 C-27.98345309 28.30242524 -15.02257768 -1.80270932 0 0 Z " fill="#89C8FE" transform="translate(259,334)"/>
<path d="M0 0 C4.36487019 2.95079654 7.26418424 6.60038082 10.3125 10.8125 C10.78816406 11.46686035 11.26382813 12.1212207 11.75390625 12.79541016 C21.04890038 25.87274229 28.78482127 39.49541677 27 56 C25.12409332 63.6202085 21.37142958 69.95054263 14.89453125 74.46875 C6.33946839 79.534054 -1.18475807 80.91824272 -11 79 C-19.29288544 76.45544215 -25.54370963 71.91144524 -29.875 64.375 C-33.93480528 56.71245362 -34.31865905 48.1267492 -32.1640625 39.75 C-27.98345309 28.30242524 -15.02257768 -1.80270932 0 0 Z " fill="#89C8FE" transform="translate(388,334)"/>
<path d="M0 0 C7.6648955 1.36873134 12.82560412 10.56877959 17.18603516 16.67724609 C25.01237253 28.27860611 32.11094366 41.58743911 30.125 55.96484375 C27.80876677 65.82331142 22.13211403 72.42513248 13.66796875 77.78515625 C6.6300832 81.08176931 -2.79726252 80.77334287 -10.1875 78.96875 C-18.63251859 75.56728418 -24.89547977 69.57946573 -28.58984375 61.2890625 C-32.14138796 50.8935554 -30.21762928 41.28880408 -25.64453125 31.54296875 C-10.99879919 1.96407128 -10.99879919 1.96407128 0 0 Z " fill="#89C9FE" transform="translate(320.5,432.375)"/>
<path d="M0 0 C12.65032787 11.24924822 25.11236479 29.86608039 27 47 C27.37103751 55.95437191 24.95403267 63.57148341 18.94921875 70.296875 C10.67402119 78.12901363 3.96024162 79.61363671 -7.375 79.34375 C-15.81810466 78.54311076 -22.46496104 74.36710364 -28 68 C-32.91144334 60.20018924 -35.38075567 52.3321279 -33.38671875 43.1875 C-28.97169145 27.31674108 -19.98038631 13.19075732 -9 1 C-5.86128812 -0.56935594 -3.46144178 -0.35201103 0 0 Z " fill="#89C8FE" transform="translate(195,433)"/>
<path d="M0 0 C4.29677372 0.43696004 5.74847442 1.2680301 8.6875 4.375 C10 6.75 10 6.75 10.6875 9.375 C9.66796875 11.48828125 9.66796875 11.48828125 7.875 13.6875 C4.48370413 18.16212649 1.61777126 22.73868546 -1.125 27.625 C-1.50954346 28.29829346 -1.89408691 28.97158691 -2.2902832 29.6652832 C-5.9142461 36.14803443 -7.68717273 41.74042222 -7.625 49.25 C-7.61936035 49.95890381 -7.6137207 50.66780762 -7.60791016 51.39819336 C-7.42222529 59.3854001 -5.47992714 64.82887725 -0.07421875 70.765625 C2.87665405 73.46132254 6.19760628 75.45290118 9.6875 77.375 C9.3575 78.035 9.0275 78.695 8.6875 79.375 C0.32398798 81.64144791 -7.56760467 79.85168652 -15.3125 76.375 C-21.99844643 72.2083957 -26.52564714 65.97764832 -28.91796875 58.4765625 C-31.8555387 42.82891266 -24.81740222 29.08798586 -16.3125 16.375 C-4.90691391 0.55549969 -4.90691391 0.55549969 0 0 Z " fill="#61B7FE" transform="translate(126.3125,333.625)"/>
<path d="M0 0 C2.89647234 1.77738075 4.58739191 3.35664964 6.41796875 6.2109375 C7 9 7 9 5.25390625 12.27734375 C4.3719822 13.50843636 3.4737543 14.72795685 2.5625 15.9375 C-6.85177086 29.1605478 -11.87283793 40.6100434 -11 57 C-9.75896482 63.96241772 -5.50641964 69.4981222 0.16796875 73.546875 C2.08578004 74.75526583 4.0147833 75.90661923 6 77 C5.67 77.66 5.34 78.32 5 79 C-3.52872794 81.09284283 -11.87756234 79.91212598 -19.48046875 75.58984375 C-26.04954839 70.93537024 -31.56187086 64.10860045 -33 56 C-34.94793361 36.21456006 -23.31858888 19.52850126 -11.41796875 4.765625 C-7.75602141 0.57716181 -5.51726342 -0.66207161 0 0 Z " fill="#61B7FE" transform="translate(388,334)"/>
<path d="M0 0 C2.94135254 2.23798563 4.60008683 3.87950597 5.84765625 7.375 C6.05681458 10.97895886 4.84992035 12.06673077 2.5625 14.8125 C-0.97427801 19.39974458 -3.78468083 24.00746589 -6.375 29.1875 C-6.87471313 30.16650269 -6.87471313 30.16650269 -7.38452148 31.1652832 C-11.5369377 39.63314353 -13.85918769 49.09762654 -11.34765625 58.421875 C-8.4058901 65.74472635 -3.66957755 71.91501398 3.4375 75.5 C4.613125 75.995 5.78875 76.49 7 77 C1.73292879 80.51138081 -4.87299087 79.49746528 -11 79 C-18.61622495 77.16463266 -25.41210584 72.1098071 -29.57421875 65.5 C-34.0935096 56.79809899 -35.12867436 49.44933163 -32.5 40 C-27.69686086 25.44100384 -19.24021424 12.36899588 -9 1 C-5.86128812 -0.56935594 -3.46144178 -0.35201103 0 0 Z " fill="#61B7FE" transform="translate(195,433)"/>
<path d="M0 0 C4.40769952 0.7870892 5.82447859 2.08386872 8.5 5.625 C9.34765625 8 9.34765625 8 9.5 10.625 C8.12890625 12.95703125 8.12890625 12.95703125 6.0625 15.4375 C2.50806536 20.04139864 -0.28767003 24.66714595 -2.875 29.875 C-3.20814209 30.53604736 -3.54128418 31.19709473 -3.88452148 31.87817383 C-8.03656103 40.38788382 -10.15731813 48.89648687 -7.84765625 58.2734375 C-4.61097668 67.30280112 0.93873965 73.43172963 9.5 77.625 C6.61366441 80.51133559 4.46301864 79.95970452 0.4375 80 C-9.16898903 79.94635797 -15.70597022 77.23192414 -22.70703125 70.6640625 C-28.54241435 64.02774447 -30.86277624 56.37999986 -30.5 47.625 C-29.00882667 34.0897344 -14.81161684 2.64493158 0 0 Z " fill="#61B7FE" transform="translate(320.5,432.375)"/>
<path d="M0 0 C3.90724886 2.39762998 5.85160946 4.55163666 7 9 C5.9453125 11.18359375 5.9453125 11.18359375 4.125 13.4375 C-4.23445785 24.53397955 -13.63535343 38.51544107 -12 53 C-10.41216278 61.16227067 -7.30770499 67.70587265 -0.609375 72.828125 C1.56004622 74.28804997 3.74497121 75.67704978 6 77 C5.67 77.66 5.34 78.32 5 79 C-3.52872794 81.09284283 -11.87756234 79.91212598 -19.48046875 75.58984375 C-26.04954839 70.93537024 -31.56187086 64.10860045 -33 56 C-34.94793361 36.21456006 -23.31858888 19.52850126 -11.41796875 4.765625 C-7.75602141 0.57716181 -5.51726342 -0.66207161 0 0 Z " fill="#61B7FE" transform="translate(259,334)"/>
</svg>
