<?xml version="1.0" encoding="UTF-8"?>
<svg version="1.1" xmlns="http://www.w3.org/2000/svg" width="512" height="512">
<path d="M0 0 C0.68191406 0.59039062 1.36382812 1.18078125 2.06640625 1.7890625 C14.89860948 13.59167604 24.08163605 32.21142133 25.23925781 49.59228516 C25.29324719 53.31607977 25.26328824 57.02665974 25.1875 60.75 C25.17396484 62.03132813 25.16042969 63.31265625 25.14648438 64.6328125 C25.11152705 67.75566695 25.0624609 70.87759541 25 74 C25.69617432 73.85925049 26.39234863 73.71850098 27.10961914 73.57348633 C45.89926292 69.93796985 62.43516254 72.00665909 79 82 C91.7727594 91.35022442 100.44451875 104.60150536 103.3125 120.1875 C105.75653141 138.37673376 101.2549934 154.70048952 90.1875 169.375 C86.06055895 174.25302817 81.32312528 178.457846 76 182 C75.34 182 74.68 182 74 182 C74 182.66 74 183.32 74 184 C74.70511719 184.22558594 75.41023438 184.45117188 76.13671875 184.68359375 C79.59125975 186.27183429 82.08575309 188.47701936 84.8125 191.0625 C85.33875977 191.55709717 85.86501953 192.05169434 86.40722656 192.5612793 C102.2689259 207.62989367 113.51408134 226.74707505 114.3359375 249.1015625 C114.71154483 275.93707294 108.02903524 297.25174677 89.375 317.125 C72.76136013 333.12896501 51.4485169 340.57698862 28.60546875 340.29296875 C27.29210037 340.28872391 25.97873199 340.28447906 24.62556458 340.28010559 C21.18140626 340.26880515 17.7376447 340.23947158 14.29364014 340.20599365 C10.76026777 340.17496772 7.22682951 340.16153176 3.69335938 340.14648438 C-3.20458717 340.11458273 -10.10227439 340.06357284 -17 340 C-17.13881592 340.78479736 -17.27763184 341.56959473 -17.4206543 342.37817383 C-18.05635795 345.25504763 -18.87749971 346.50756296 -20.8125 348.6875 C-21.31394531 349.26886719 -21.81539063 349.85023438 -22.33203125 350.44921875 C-26.55582092 354.37625504 -30.6147477 354.42777541 -36.17578125 354.31640625 C-41.74381807 353.69260129 -45.5203466 351.4796534 -49.4375 347.5625 C-51 345 -51 345 -52 340 C-97.21 340.33 -142.42 340.66 -189 341 C-190.32 343.64 -191.64 346.28 -193 349 C-198.09698037 353.84834718 -202.4064721 354.35813556 -209.2109375 354.27734375 C-214.72952338 353.72857681 -218.25381859 351.06276632 -221.875 346.9375 C-224 344 -224 344 -225 341 C-225.56854486 340.99853344 -226.13708971 340.99706688 -226.7228632 340.99555588 C-240.62303109 340.95833698 -254.52295513 340.89887729 -268.42292881 340.81609726 C-275.14515592 340.77646204 -281.86726861 340.7439915 -288.58959961 340.72900391 C-295.08666254 340.71377192 -301.58337043 340.6792103 -308.08027458 340.63169098 C-310.54912148 340.61694451 -313.01801908 340.60896289 -315.48690987 340.60811615 C-339.66634027 340.59149546 -359.72790547 337.19050865 -377.48046875 319.59375 C-378.31191406 318.7378125 -379.14335937 317.881875 -380 317 C-380.61488281 316.3709375 -381.22976563 315.741875 -381.86328125 315.09375 C-397.04752225 298.4577857 -398.95432491 277.50639351 -398 256 C-396.14581536 238.51503886 -384.63669505 222.30159694 -371.6953125 211.1015625 C-364.01964421 205.11676607 -353.11832667 198 -343 198 C-343.15936035 197.43643799 -343.3187207 196.87287598 -343.48291016 196.29223633 C-346.9852437 180.76654716 -343.70397106 164.52134591 -335.6875 151.0625 C-327.76429478 139.59336354 -315.95343922 129.89941594 -302 127 C-301.01 127 -300.02 127 -299 127 C-299.061875 125.72125 -299.12375 124.4425 -299.1875 123.125 C-299.05944248 92.81805475 -285.01554699 65.03448961 -264.1875 43.75 C-241.92512335 21.72813518 -212.40311827 11.42655711 -181.45214844 11.57836914 C-161.90316566 12.02778809 -144.59151346 17.83251161 -127 26 C-126.731875 25.39414062 -126.46375 24.78828125 -126.1875 24.1640625 C-116.92737406 4.36445111 -100.05246459 -9.10853965 -80 -17 C-52.32327335 -25.84691387 -21.51814422 -19.68929652 0 0 Z " fill="#E9F8F9" transform="translate(398,38)"/>
<path d="M0 0 C0.68191406 0.59039062 1.36382812 1.18078125 2.06640625 1.7890625 C14.89860948 13.59167604 24.08163605 32.21142133 25.23925781 49.59228516 C25.29324719 53.31607977 25.26328824 57.02665974 25.1875 60.75 C25.17396484 62.03132813 25.16042969 63.31265625 25.14648438 64.6328125 C25.11152705 67.75566695 25.0624609 70.87759541 25 74 C25.69617432 73.85925049 26.39234863 73.71850098 27.10961914 73.57348633 C45.89926292 69.93796985 62.43516254 72.00665909 79 82 C91.7727594 91.35022442 100.44451875 104.60150536 103.3125 120.1875 C105.75653141 138.37673376 101.2549934 154.70048952 90.1875 169.375 C85.66937264 174.69302928 80.22157229 180.57538272 73.4765625 182.8515625 C70.43269325 183.03400261 69.1707581 182.35394889 66.5625 180.8125 C60.34254093 177.45465744 53.81650079 175.75134277 47 174 C46.37432129 173.82509033 45.74864258 173.65018066 45.10400391 173.4699707 C42.78623915 172.95225231 40.60642251 172.79003178 38.234375 172.68359375 C37.34492188 172.64169922 36.45546875 172.59980469 35.5390625 172.55664062 C34.61867188 172.51732422 33.69828125 172.47800781 32.75 172.4375 C31.81414062 172.39431641 30.87828125 172.35113281 29.9140625 172.30664062 C27.60951359 172.2008195 25.30486161 172.09873443 23 172 C22.84144531 170.94683594 22.68289063 169.89367187 22.51953125 168.80859375 C18.73379368 144.88440863 9.70673053 122.8493563 -10.25390625 107.87109375 C-27.11593371 96.38188869 -44.61827036 90.53195961 -65.1875 90.875 C-66.23486328 90.88402344 -67.28222656 90.89304687 -68.36132812 90.90234375 C-70.90780514 90.92559925 -73.45377031 90.95827431 -76 91 C-76.31155029 90.29963623 -76.62310059 89.59927246 -76.9440918 88.87768555 C-78.27169303 85.90688436 -79.63267375 82.95273239 -81 80 C-81.77923828 78.30423828 -81.77923828 78.30423828 -82.57421875 76.57421875 C-86.51925 68.30712529 -91.16462774 61.0893355 -97 54 C-97.71027344 53.13632813 -98.42054688 52.27265625 -99.15234375 51.3828125 C-107.14972139 42.0983343 -116.60388075 34.45819529 -127 28 C-123.43995155 13.37444014 -110.89957744 0.3138025 -98.5625 -7.875 C-66.92759205 -26.51050612 -27.78311824 -25.42180439 0 0 Z " fill="#8EBAC5" transform="translate(398,38)"/>
<path d="M0 0 C18.09570637 14.1298693 31.54295898 32.54801473 38.75341797 54.36914062 C39.65713135 54.33771973 39.65713135 54.33771973 40.57910156 54.30566406 C67.25413948 53.50576731 89.64248275 58.71663206 110.50341797 76.11914062 C127.31358528 91.96248941 136.98768258 113.32050537 137.75341797 136.36914062 C139.02314453 136.32273438 140.29287109 136.27632812 141.60107422 136.22851562 C164.51115687 135.64503284 185.51164306 142.23276735 202.44482422 158.16210938 C203.20666016 158.89042969 203.96849609 159.61875 204.75341797 160.36914062 C205.38119141 160.92214844 206.00896484 161.47515625 206.65576172 162.04492188 C220.46534981 174.66456813 228.26192202 195.21705209 229.14013672 213.61523438 C229.84539232 240.22649038 222.53588937 261.88356652 204.12841797 281.49414062 C188.45138714 296.59586757 167.82599259 304.84011422 146.13696289 304.52294922 C144.34218139 304.48206017 142.54772739 304.42716021 140.75341797 304.36914062 C143.08201194 302.04054665 145.19603886 301.17361405 148.19091797 299.80664062 C154.88110742 296.51362522 160.22890212 292.33778413 165.75341797 287.36914062 C166.46240234 286.75425781 167.17138672 286.139375 167.90185547 285.50585938 C177.17266919 276.94959453 183.7529523 265.23816928 187.75341797 253.36914062 C188.14529297 252.21542969 188.53716797 251.06171875 188.94091797 249.87304688 C196.39284019 224.59343572 191.71996268 194.74708295 179.66357422 171.65820312 C171.10869511 156.92771599 158.65731845 146.69108796 142.44091797 141.49414062 C127.79610094 138.07911176 117.37825703 140.95145977 104.75341797 148.36914062 C103.66416016 149.10648438 102.57490234 149.84382812 101.45263672 150.60351562 C98.20301915 152.72916995 96.56377396 153.03181123 92.75341797 152.36914062 C89.6971852 150.27803399 88.88878783 149.07607213 88.19091797 145.43164062 C89.17636471 140.06643058 93.27745486 137.65746252 97.44091797 134.55664062 C100.75341797 132.36914062 100.75341797 132.36914062 102.75341797 132.36914062 C93.01489851 108.07464261 81.28154571 85.80684303 57.75341797 72.36914062 C57.77698364 73.51129028 57.77698364 73.51129028 57.80102539 74.67651367 C57.8635025 78.13648003 57.90244969 81.59632752 57.94091797 85.05664062 C57.96605469 86.25482422 57.99119141 87.45300781 58.01708984 88.6875 C58.0315918 90.42290039 58.0315918 90.42290039 58.04638672 92.19335938 C58.06995239 93.78796997 58.06995239 93.78796997 58.09399414 95.41479492 C57.6717884 99.07724059 56.37784566 101.74471293 53.75341797 104.36914062 C46.9832862 105.18622549 46.9832862 105.18622549 44.05419922 103.24023438 C42.9338678 102.20128297 41.82797689 101.14662827 40.73388672 100.08007812 C38.3991792 98.06311187 35.9934187 96.78212872 33.25341797 95.36914062 C25.00417806 91.01254616 18.93558057 86.20337056 16.00170898 77.01489258 C15.29951302 74.349106 14.64735654 71.67456997 14.00341797 68.99414062 C6.86472142 41.39485566 -9.50616798 18.05957615 -34.24658203 3.36914062 C-34.92785156 2.96211914 -35.60912109 2.55509766 -36.31103516 2.13574219 C-58.01783576 -10.5859453 -80.49580169 -15.24922949 -105.24658203 -17.63085938 C-75.35015136 -37.56181315 -25.31184564 -19.14306746 0 0 Z " fill="#D3F1F5" transform="translate(283.24658203125,73.630859375)"/>
<path d="M0 0 C13.81860231 11.82634983 20.63234411 26.25946235 22.390625 44.15625 C23.11331218 60.23603982 16.62666117 75.57373783 6.3515625 87.66796875 C-4.12842164 98.5423609 -4.12842164 98.5423609 -10.828125 98.9296875 C-13.22265625 98.0390625 -13.22265625 98.0390625 -15.640625 96.6796875 C-19.96079029 94.35444111 -24.20298954 92.55704998 -28.828125 90.9296875 C-28.47621094 90.47980469 -28.12429688 90.02992188 -27.76171875 89.56640625 C-15.35226708 73.39847836 -9.46356772 58.51934075 -10.828125 37.9296875 C-13.02674473 22.24123146 -21.24886207 9.91463636 -33.390625 0.0546875 C-39.1098313 -4.17991647 -45.01137798 -7.0252884 -51.828125 -9.0703125 C-51.498125 -9.7303125 -51.168125 -10.3903125 -50.828125 -11.0703125 C-33.7452786 -16.12709436 -13.91251575 -10.18457645 0 0 Z " fill="#7CA1B1" transform="translate(479.828125,122.0703125)"/>
<path d="M0 0 C0.68191406 0.59039062 1.36382812 1.18078125 2.06640625 1.7890625 C14.84875267 13.54581948 23.90893307 31.99136815 25.25537109 49.27880859 C25.3280331 52.5661547 25.31261789 55.8375606 25.25 59.125 C25.24484375 60.24648437 25.2396875 61.36796875 25.234375 62.5234375 C25.1554803 70.68903941 25.1554803 70.68903941 24 73 C23.37544922 73.01981934 22.75089844 73.03963867 22.10742188 73.06005859 C19.23790619 73.15616932 16.36903453 73.26549487 13.5 73.375 C12.51773438 73.4059375 11.53546875 73.436875 10.5234375 73.46875 C4.71336817 73.70115277 -0.39376812 74.49365265 -6 76 C-7 75 -7 75 -7.06591797 72.92138672 C-7.02942139 71.56424561 -7.02942139 71.56424561 -6.9921875 70.1796875 C-6.50859931 44.77396343 -10.80703894 23.37703408 -28.765625 4.2734375 C-29.50296875 3.52320312 -30.2403125 2.77296875 -31 2 C-31.92039062 1.06027344 -31.92039062 1.06027344 -32.859375 0.1015625 C-42.5948025 -9.09300791 -55.88157304 -15.59144746 -69 -18 C-68.67 -18.66 -68.34 -19.32 -68 -20 C-44.91700156 -26.14477968 -16.95581771 -15.51472651 0 0 Z " fill="#7CA1B1" transform="translate(398,38)"/>
<path d="M0 0 C1.0103833 0.00491455 2.0207666 0.0098291 3.06176758 0.01489258 C24.27977503 0.34719612 43.00893871 9.29868605 58.2890625 23.76171875 C60.35495397 25.95883134 61.67753763 27.50504507 62.6875 30.3125 C62.52791529 33.50419413 61.88834071 35.03727384 60 37.625 C57.6875 39.3125 57.6875 39.3125 54.75 39.8125 C50.00587511 39.037949 47.72124252 36.40531352 44.5 33 C30.54193896 19.66229723 14.07087787 15.5627375 -4.6796875 15.9375 C-20.19961657 16.66981886 -35.68486542 23.94555171 -46.3125 35.3125 C-53.12608516 43.54805076 -57.8803798 53.31851813 -61.890625 63.17578125 C-63.3125 66.3125 -63.3125 66.3125 -65.3125 67.3125 C-69.09958949 67.66315643 -71.47702324 67.79289914 -74.8125 65.875 C-77.08800543 61.98767822 -76.17466513 58.62029289 -75.3125 54.3125 C-74.39326357 51.43914058 -73.19905043 48.77052418 -71.875 46.0625 C-71.52228027 45.33160156 -71.16956055 44.60070312 -70.80615234 43.84765625 C-60.82258544 23.9413184 -44.60760927 11.86043085 -24.421875 3.3203125 C-16.32912004 0.69728388 -8.4762491 -0.04897925 0 0 Z " fill="#CBE5E8" transform="translate(266.3125,206.6875)"/>
<path d="M0 0 C2.7259148 2.2754954 5.07712111 4.61253603 7.4453125 7.26953125 C9.74073169 9.64754198 9.74073169 9.64754198 12.9453125 9.89453125 C16.10320245 9.35701807 17.55387655 8.54431828 19.8828125 6.39453125 C20.3778125 7.28140625 20.8728125 8.16828125 21.3828125 9.08203125 C22.77237044 11.53971913 24.2234197 13.9228635 25.75390625 16.296875 C37.46157727 34.55553018 37.46157727 34.55553018 36.8828125 44.39453125 C31.90370355 44.39453125 31.39389713 43.36412915 27.9453125 39.95703125 C4.14021454 17.40146064 -24.79560413 7.63057393 -57.12109375 8.078125 C-69.54175289 8.47792803 -80.69132137 11.21644743 -91.9296875 16.5390625 C-92.6515625 16.82136719 -93.3734375 17.10367188 -94.1171875 17.39453125 C-94.7771875 17.06453125 -95.4371875 16.73453125 -96.1171875 16.39453125 C-87.61106235 3.35505574 -77.32814095 -4.53620738 -63.1171875 -10.60546875 C-62.2715625 -10.96769531 -61.4259375 -11.32992187 -60.5546875 -11.703125 C-40.11368763 -18.74609771 -16.71612261 -12.67587895 0 0 Z " fill="#D4F1F5" transform="translate(308.1171875,235.60546875)"/>
<path d="M0 0 C6.40972059 3.25704458 11.78254144 7.35728329 17.02490234 12.27758789 C18.00330078 13.15543945 18.00330078 13.15543945 19.00146484 14.05102539 C26.78790406 21.35724369 34.8013609 31.93633921 36.58740234 42.65258789 C35.84487429 46.1177188 34.97769051 47.30906244 32.02490234 49.27758789 C28.52490234 49.84008789 28.52490234 49.84008789 25.02490234 49.27758789 C22.57634124 47.12582207 21.29303909 44.81033327 19.83740234 41.91821289 C11.20155453 24.94092117 -1.90898483 15.2978698 -19.78369141 9.18774414 C-26.54160239 7.26045741 -32.87331827 7.15363929 -39.85009766 7.21508789 C-40.82462891 7.21959961 -41.79916016 7.22411133 -42.80322266 7.22875977 C-45.19391199 7.24047883 -47.58447205 7.2568857 -49.97509766 7.27758789 C-50.88085149 3.93037303 -51.07898974 1.00452311 -51.03759766 -2.47241211 C-51.02857422 -3.45725586 -51.01955078 -4.44209961 -51.01025391 -5.45678711 C-50.99865234 -6.20444336 -50.98705078 -6.95209961 -50.97509766 -7.72241211 C-34.63639694 -13.16864568 -14.84131391 -7.10231764 0 0 Z " fill="#CBE5E8" transform="translate(104.97509765625,228.722412109375)"/>
<path d="M0 0 C0.64964023 1.89453221 1.29455115 3.79068649 1.9375 5.6875 C2.47697266 7.27111328 2.47697266 7.27111328 3.02734375 8.88671875 C4.62338609 13.99533619 5.18016585 18.57772879 5.25 23.9375 C5.27578125 25.12214844 5.3015625 26.30679687 5.328125 27.52734375 C4.83425503 32.7541343 2.81938689 36.77397412 -1.0625 40.3125 C-5.35786751 43.75604358 -9.58950022 44.36465751 -15 44 C-20.60687745 42.87667089 -24.4068493 40.51710374 -28 36 C-31.41187777 30.1998078 -31.51902495 25.39477636 -30 19 C-25.35069186 9.1202202 -10.9277609 -0.65598565 0 0 Z " fill="#61DBFB" transform="translate(342,432)"/>
<path d="M0 0 C3.75891665 8.03041283 5.18532225 15.2949606 5.375 24.1875 C5.41403442 25.20348267 5.41403442 25.20348267 5.45385742 26.23999023 C5.47712406 32.78112438 2.68123002 36.19868212 -1.625 40.8125 C-5.63142208 43.93872329 -10.04618499 44.25305866 -15 44 C-20.12943206 43.04842691 -24.29882594 40.73551184 -27.80078125 36.859375 C-30.62202859 32.48506317 -31.44632346 27.63622831 -30.58203125 22.53125 C-28.2337447 14.7468747 -23.80755837 10.48462778 -17.0625 6.3125 C-16.45470703 5.92255859 -15.84691406 5.53261719 -15.22070312 5.13085938 C-10.12739595 1.9166364 -6.09170876 -0.34809764 0 0 Z " fill="#61DBFB" transform="translate(161,432)"/>
<path d="M0 0 C0.74649188 2.42858691 1.48101302 4.85974087 2.19921875 7.296875 C2.83854684 9.45499715 3.50799337 11.60418958 4.1875 13.75 C5.8794947 20.83613167 6.40886042 28.9735591 3.3125 35.625 C-1.27790751 40.33947258 -4.49506966 43.13705616 -11.125 43.3125 C-16.59621396 43.25513472 -20.57025074 42.24917929 -25 39 C-29.75886416 33.87506936 -30.31468869 30.57658494 -30.19921875 23.74609375 C-29.7799008 17.96608352 -27.1591047 14.94116213 -23.125 11.0625 C-16.89475476 5.76168479 -8.54906417 -0.75991681 0 0 Z " fill="#63DBFB" transform="translate(376,349)"/>
<path d="M0 0 C3.63276813 9.86761202 8.04826127 23.54861259 3.375 33.75 C0.75152143 37.86223458 -2.35790976 40.45263659 -7 42 C-14.18775819 42.69817396 -19.18869898 42.41658878 -25 38 C-28.71427599 34.38244995 -30.91628987 31.18098486 -31.0546875 25.921875 C-30.46622637 18.80917093 -28.28811844 13.80422867 -22.796875 9.12109375 C-7.39215007 -2.09335223 -7.39215007 -2.09335223 0 0 Z " fill="#63DBFB" transform="translate(204,350)"/>
<path d="M0 0 C0.53109375 0.22816406 1.0621875 0.45632813 1.609375 0.69140625 C2.2577039 2.91984839 2.90293869 5.14919085 3.546875 7.37890625 C4.08634766 9.24095703 4.08634766 9.24095703 4.63671875 11.140625 C6.63369742 18.43080014 8.03571403 25.71267106 5.421875 33.00390625 C2.51980648 37.30697337 -0.5418747 40.70822369 -5.390625 42.69140625 C-11.91397294 43.65370136 -17.34694976 43.1879632 -22.73046875 39.23046875 C-26.9776206 35.29310916 -28.6070338 31.53984118 -28.953125 25.75390625 C-28.65903972 19.50222231 -26.20659964 15.38119335 -21.734375 11.109375 C-16.67597785 7.04765356 -6.65911782 -0.85959201 0 0 Z " fill="#64DBFA" transform="translate(285.390625,287.30859375)"/>
<path d="M0 0 C2.15059309 3.53186832 2.3797728 6.66287993 2.625 10.75 C2.69976562 11.92046875 2.77453125 13.0909375 2.8515625 14.296875 C2.90054688 15.18890625 2.94953125 16.0809375 3 17 C2.04222656 17.1959375 1.08445312 17.391875 0.09765625 17.59375 C-11.80619013 20.20347425 -23.13341769 24.37888774 -33.296875 31.21875 C-36.54862545 33.36152198 -38.17936481 33.66445829 -42 33 C-45.05623277 30.90889337 -45.86463014 29.70693151 -46.5625 26.0625 C-45.55666929 20.58631058 -41.36279193 18.1513291 -37.0625 15.0625 C-27.52163408 8.94817242 -17.43576411 5.51662144 -6.421875 3.29248047 C-4.60232135 2.91679516 -2.79879623 2.4650237 -1 2 C-0.67 1.34 -0.34 0.68 0 0 Z " fill="#CBE5E8" transform="translate(418,193)"/>
<path d="M0 0 C1.9375 1.6875 1.9375 1.6875 3 4 C2.76721016 10.63019945 -0.05533516 15.54464556 -3.25 21.25 C-3.72824219 22.1471875 -4.20648438 23.044375 -4.69921875 23.96875 C-9.24848422 32.20427664 -9.24848422 32.20427664 -14 34 C-17.14770774 33.87409169 -19.1702365 33.54363816 -21.8125 31.8125 C-23.56347132 29.13996482 -23.80721472 27.20320154 -24 24 C-23.13230414 21.22094357 -21.82065693 18.74244753 -20.4375 16.1875 C-20.06979492 15.4855249 -19.70208984 14.7835498 -19.32324219 14.06030273 C-11.66052076 -0.35806298 -11.66052076 -0.35806298 -8.01953125 -1.765625 C-4.91682395 -2.12570709 -2.82272624 -1.26121811 0 0 Z " fill="#61DBFB" transform="translate(446,461)"/>
<path d="M0 0 C2.25195272 2.6151709 3.03454655 4.06724323 2.90625 7.53125 C1.59332219 12.55659438 -0.88659864 16.75107867 -3.4375 21.25 C-3.94087891 22.16007812 -4.44425781 23.07015625 -4.96289062 24.0078125 C-9.79084781 32.65068937 -9.79084781 32.65068937 -13.8125 33.8125 C-17.65043347 34.03826079 -19.03442731 33.38893356 -22 31 C-23.77639484 28.65838862 -24.02133796 27.43983736 -23.87890625 24.50390625 C-22.61036682 19.44666238 -20.122291 15.26459962 -17.5625 10.75 C-17.05912109 9.83992188 -16.55574219 8.92984375 -16.03710938 7.9921875 C-11.33319545 -0.42863052 -11.33319545 -0.42863052 -8.25 -1.75 C-4.98695314 -2.11256076 -2.95955529 -1.38532375 0 0 Z " fill="#61DBFB" transform="translate(214,461)"/>
<path d="M0 0 C2.4375 1.5 2.4375 1.5 4 4 C4.89810714 11.40732404 2.41690186 15.99105977 -1.25 22.3125 C-1.74113281 23.20517578 -2.23226563 24.09785156 -2.73828125 25.01757812 C-6.90477492 32.40060492 -6.90477492 32.40060492 -11 35 C-13.806552 35.29627708 -16.3111353 34.83349097 -19 34 C-21 32.3125 -21 32.3125 -22 30 C-22.35799366 25.42435629 -21.68427222 22.67051358 -19.48046875 18.671875 C-18.95259766 17.70765625 -18.42472656 16.7434375 -17.88085938 15.75 C-17.32205078 14.76 -16.76324219 13.77 -16.1875 12.75 C-15.64029297 11.74453125 -15.09308594 10.7390625 -14.52929688 9.703125 C-8.64500357 -0.91000038 -8.64500357 -0.91000038 0 0 Z " fill="#61DBFB" transform="translate(469,413)"/>
<path d="M0 0 C2.375 1.125 2.375 1.125 4 3 C5.52192142 7.82420376 4.6977502 10.50856408 2.49682617 14.81201172 C2.12662354 15.49279785 1.7564209 16.17358398 1.375 16.875 C1.00544189 17.58027832 0.63588379 18.28555664 0.25512695 19.01220703 C-6.68539481 32.12359654 -6.68539481 32.12359654 -11 35 C-14.3675602 34.81959499 -16.99113606 34.63894716 -19.875 32.8125 C-21.54133277 30.12785277 -21.80935812 28.1712544 -22 25 C-21.10965183 22.20066008 -19.77534507 19.70042783 -18.375 17.125 C-18.00616699 16.42044678 -17.63733398 15.71589355 -17.25732422 14.98999023 C-8.99975818 -0.62067298 -8.99975818 -0.62067298 0 0 Z " fill="#62DBFB" transform="translate(288,413)"/>
<path d="M0 0 C2.4375 1.5625 2.4375 1.5625 4 4 C4.99166128 10.94162897 2.01191978 15.76566372 -1.25 21.75 C-1.74113281 22.69488281 -2.23226562 23.63976562 -2.73828125 24.61328125 C-6.94100474 32.49198689 -6.94100474 32.49198689 -11 35 C-13.9375 35.5 -13.9375 35.5 -17 35 C-19.875 32.875 -19.875 32.875 -22 30 C-22.46516008 25.43837968 -21.67336461 22.65072253 -19.48046875 18.671875 C-18.95259766 17.70765625 -18.42472656 16.7434375 -17.88085938 15.75 C-17.32205078 14.76 -16.76324219 13.77 -16.1875 12.75 C-15.64029297 11.74453125 -15.09308594 10.7390625 -14.52929688 9.703125 C-8.64500357 -0.91000038 -8.64500357 -0.91000038 0 0 Z " fill="#61DBFB" transform="translate(237,413)"/>
<path d="M0 0 C1.51853511 3.03707023 1.56295073 5.72000405 1 9 C-0.47780445 12.5888492 -2.36812226 15.89576451 -4.3125 19.25 C-4.81201172 20.1471875 -5.31152344 21.044375 -5.82617188 21.96875 C-11.13434074 31.36174815 -11.13434074 31.36174815 -15.375 32.8125 C-18.5252038 33.03751456 -20.23334006 32.49549186 -23 31 C-25.37732451 27.43401324 -25.79695724 25.11389698 -25 21 C-23.42613011 17.05642496 -21.43486069 13.3957362 -19.375 9.6875 C-18.85292969 8.68654297 -18.33085938 7.68558594 -17.79296875 6.65429688 C-13.86932938 -0.51966596 -13.86932938 -0.51966596 -9.83984375 -2.74609375 C-5.55180585 -3.12948091 -3.74676717 -2.05704864 0 0 Z " fill="#61DBFB" transform="translate(86,462)"/>
<path d="M0 0 C1.9375 1.6875 1.9375 1.6875 3 4 C2.76721016 10.63019945 -0.05533516 15.54464556 -3.25 21.25 C-3.72824219 22.1471875 -4.20648437 23.044375 -4.69921875 23.96875 C-9.24848422 32.20427664 -9.24848422 32.20427664 -14 34 C-17.15110307 33.87395588 -19.14895878 33.6745458 -21.64575195 31.69555664 C-23.76875254 29.0375002 -23.57444582 26.89437296 -23.45849609 23.58544922 C-22.56393913 18.54106251 -19.91691392 14.40726085 -17.3125 10.0625 C-16.78205078 9.11826172 -16.25160156 8.17402344 -15.70507812 7.20117188 C-11.65428385 0.25766317 -8.31470626 -3.97659864 0 0 Z " fill="#62DBFB" transform="translate(33,461)"/>
<path d="M0 0 C1.94140625 0.34375 1.94140625 0.34375 4.44140625 1.90625 C6.56122045 5.35094807 6.34026554 7.30729396 5.94140625 11.34375 C4.63797323 14.7323138 2.94699443 17.85787642 1.19140625 21.03125 C0.74796875 21.87236328 0.30453125 22.71347656 -0.15234375 23.58007812 C-5.53628835 33.56412833 -5.53628835 33.56412833 -11.49609375 35.40625 C-15.05859375 35.34375 -15.05859375 35.34375 -17.99609375 33.34375 C-20.64776958 29.48676698 -20.60024097 27.98906345 -20.05859375 23.34375 C-18.57334949 19.7577944 -16.6906328 16.44826377 -14.74609375 13.09375 C-14.24658203 12.1965625 -13.74707031 11.299375 -13.23242188 10.375 C-7.18972187 -0.31777776 -7.18972187 -0.31777776 0 0 Z " fill="#61DBFB" transform="translate(416.05859375,412.65625)"/>
<path d="M0 0 C2.80276489 1.5370001 2.96654126 2.88856914 3.88671875 5.953125 C4.60841278 11.50334702 1.46941415 15.98676224 -1.125 20.6875 C-1.61226562 21.62400391 -2.09953125 22.56050781 -2.6015625 23.52539062 C-7.32238925 32.32044152 -7.32238925 32.32044152 -12 35 C-15.5241557 34.93923869 -17.91616966 34.72255356 -20.875 32.75 C-22.41737769 30.35074582 -22.79653212 28.879853 -23 26 C-21.90002062 23.26460155 -20.76674747 20.82658081 -19.375 18.25 C-19.00616699 17.54351318 -18.63733398 16.83702637 -18.25732422 16.10913086 C-17.18508344 14.06521583 -16.09422467 12.03220569 -15 10 C-14.47921875 9.00613281 -13.9584375 8.01226562 -13.421875 6.98828125 C-9.94919921 0.49270394 -7.70093923 -0.8363725 0 0 Z " fill="#61DBFB" transform="translate(108,413)"/>
<path d="M0 0 C2.4375 1.5 2.4375 1.5 4 4 C4.89810714 11.40732404 2.41690186 15.99105977 -1.25 22.3125 C-1.74113281 23.20517578 -2.23226562 24.09785156 -2.73828125 25.01757812 C-7.04378379 32.64692863 -7.04378379 32.64692863 -11 35 C-14.40088303 34.88067077 -16.93097259 34.64141645 -19.875 32.875 C-21.6402186 29.932969 -22.2677618 27.38264907 -22 24 C-20.46725251 20.00811093 -18.38603506 16.38429704 -16.25 12.6875 C-15.69828125 11.68654297 -15.1465625 10.68558594 -14.578125 9.65429688 C-10.6947396 2.74168416 -8.64236994 -0.90972315 0 0 Z " fill="#61DBFB" transform="translate(56,413)"/>
<path d="M0 0 C2 2 2 2 2.47265625 5.94140625 C2.32529412 12.12442385 -0.4850766 16.7179845 -3.5625 21.9375 C-4.07619141 22.88173828 -4.58988281 23.82597656 -5.11914062 24.79882812 C-9.4721635 32.35308024 -9.4721635 32.35308024 -13.7265625 33.703125 C-17.63944545 34.05799267 -19.00488988 33.48166267 -22 31 C-24.11926169 27.82110746 -24.28654077 26.75352724 -23.63232422 23.10009766 C-22.29229067 18.64953064 -19.86013372 14.70179017 -17.5625 10.6875 C-17.05912109 9.78193359 -16.55574219 8.87636719 -16.03710938 7.94335938 C-11.33696667 -0.42701428 -11.33696667 -0.42701428 -8.25 -1.75 C-5.09371959 -2.10069782 -2.90646006 -1.20049437 0 0 Z " fill="#61DBFB" transform="translate(395,461)"/>
<path d="M0 0 C1.9375 1.6875 1.9375 1.6875 3 4 C2.72720814 10.42300833 0.16580629 15.17662417 -2.875 20.75 C-3.54595703 22.02423828 -3.54595703 22.02423828 -4.23046875 23.32421875 C-9.10310692 32.42268472 -9.10310692 32.42268472 -13.875 33.875 C-17.58842999 34.0235372 -19.05896353 33.18476995 -22 31 C-23 30 -23 30 -23.3828125 26.61328125 C-23.30214574 20.78055392 -20.59207982 16.21691329 -17.875 11.1875 C-17.400625 10.24712891 -16.92625 9.30675781 -16.4375 8.33789062 C-14.25133502 4.2048571 -12.73521595 1.50404448 -8.83203125 -1.171875 C-5.12107517 -2.25700974 -3.41588859 -1.74589861 0 0 Z " fill="#61DBFB" transform="translate(265,461)"/>
<path d="M0 0 C0.03738281 0.87140625 0.07476562 1.7428125 0.11328125 2.640625 C0.45084492 8.75648439 0.96980087 14.50995466 2.5625 20.4375 C4.72817523 28.53992673 4.72817523 28.53992673 4 33 C1.9375 36 1.9375 36 -1 38 C-4.625 38.125 -4.625 38.125 -8 37 C-15.48631334 28.97894999 -14.65022142 14.28831488 -15 4 C-13.25307205 3.32532438 -11.50231475 2.66055844 -9.75 2 C-8.77546875 1.62875 -7.8009375 1.2575 -6.796875 0.875 C-4 0 -4 0 0 0 Z " fill="#CCE5E8" transform="translate(100,165)"/>
</svg>
