<?xml version="1.0" encoding="UTF-8"?>
<svg version="1.1" xmlns="http://www.w3.org/2000/svg" width="512" height="512">
<path d="M0 0 C6.47435476 5.42849745 13.01374937 11.17170047 17.125 18.625 C17.87265625 18.42003906 18.6203125 18.21507812 19.390625 18.00390625 C20.37546875 17.73449219 21.3603125 17.46507812 22.375 17.1875 C23.34953125 16.92066406 24.3240625 16.65382812 25.328125 16.37890625 C26.71257812 16.00572266 26.71257812 16.00572266 28.125 15.625 C28.74656982 15.44718994 29.36813965 15.26937988 30.00854492 15.08618164 C32.32537617 14.58133746 34.41493313 14.49553832 36.78515625 14.4921875 C37.66107422 14.49089844 38.53699219 14.48960938 39.43945312 14.48828125 C40.34630859 14.49214844 41.25316406 14.49601562 42.1875 14.5 C43.09822266 14.49613281 44.00894531 14.49226563 44.94726562 14.48828125 C45.82189453 14.48957031 46.69652344 14.49085937 47.59765625 14.4921875 C48.39437744 14.49331543 49.19109863 14.49444336 50.01196289 14.49560547 C52.125 14.625 52.125 14.625 55.125 15.625 C55.50978516 14.30822266 55.50978516 14.30822266 55.90234375 12.96484375 C60.3459057 0.82667933 70.313166 -6.7427481 81.47265625 -12.33203125 C94.57873488 -17.48567336 109.24960608 -16.89302597 122.125 -11.375 C134.78340638 -5.36545354 142.89616755 4.21046361 148.12109375 17.078125 C149.71441945 21.56078296 150.62229735 25.89959513 151.125 30.625 C152.259375 30.295 153.39375 29.965 154.5625 29.625 C166.775493 26.96245176 179.40311364 27.44539601 190.2890625 33.91015625 C199.77667088 40.48554507 206.60611323 49.29913593 209.125 60.625 C209.71688776 70.50273345 210.25054351 79.81795156 205.125 88.625 C204.67769531 89.41261719 204.23039062 90.20023437 203.76953125 91.01171875 C198.27817158 99.9186158 190.31990412 106.54104395 180.01756287 109.16091919 C173.84954009 110.48110596 168.03800824 110.89341937 161.7421875 110.8203125 C160.80190704 110.8174826 159.86162659 110.81465271 158.89285278 110.81173706 C155.92843173 110.80065978 152.96432769 110.77557951 150 110.75 C147.97396274 110.73995407 145.94792068 110.73083106 143.921875 110.72265625 C138.98946365 110.70076144 134.05728532 110.66631957 129.125 110.625 C129.46998535 111.41729004 129.8149707 112.20958008 130.17041016 113.02587891 C136.7996529 128.52879941 137.86620948 143.35573397 132.41796875 159.5234375 C130.26816944 164.68035791 127.42461873 169.13385228 124.125 173.625 C123.62484375 174.33269531 123.1246875 175.04039062 122.609375 175.76953125 C113.72818203 187.14014952 99.157056 193.76921571 85.125 195.625 C81.35551478 195.77453876 77.58844732 195.7685031 73.81637573 195.76544189 C72.10016877 195.76989858 72.10016877 195.76989858 70.34929097 195.7744453 C66.5126384 195.78312194 62.67601707 195.78463968 58.83935547 195.78613281 C56.08950111 195.79022507 53.33965001 195.79576608 50.58979797 195.80117798 C43.11644701 195.81474131 35.64310142 195.82078299 28.1697402 195.82518864 C23.49977728 195.82795462 18.82981642 195.83219264 14.15985489 195.83669281 C1.22004006 195.8488832 -11.71977313 195.85918275 -24.65959358 195.8625679 C-25.48726287 195.86278747 -26.31493216 195.86300703 -27.16768234 195.86323325 C-28.41209175 195.86356067 -28.41209175 195.86356067 -29.68164074 195.8638947 C-31.36263029 195.86433816 -33.04361983 195.86478472 -34.72460938 195.86523438 C-35.55843139 195.8654558 -36.39225341 195.86567723 -37.25134276 195.86590537 C-50.75468652 195.86985129 -64.25797625 195.88730005 -77.76129915 195.9105939 C-91.63810147 195.93433798 -105.51487671 195.94677115 -119.39169967 195.94793582 C-127.17768859 195.9488509 -134.9636071 195.95456091 -142.74957657 195.97275543 C-149.38100157 195.98819778 -156.01233441 195.99325262 -162.64377399 195.98501733 C-166.02355827 195.98112526 -169.40300716 195.98361963 -172.78279305 195.99607468 C-176.45684459 196.00881698 -180.13042515 196.00290438 -183.80447388 195.99249268 C-184.85878353 196.00054908 -185.91309319 196.00860548 -186.99935162 196.01690602 C-201.58041775 195.92072544 -213.90072087 191.44577602 -224.6875 181.5 C-232.62395737 173.05849534 -238.05503568 162.30731553 -237.875 150.625 C-238.67083496 150.63547363 -239.46666992 150.64594727 -240.28662109 150.65673828 C-243.94104777 150.69866997 -247.59542357 150.72444352 -251.25 150.75 C-252.50167969 150.76675781 -253.75335938 150.78351563 -255.04296875 150.80078125 C-270.11015778 150.87966706 -281.68754132 148.28865156 -292.90234375 137.7265625 C-301.90504485 128.13556608 -303.66194788 116.99128449 -303.27734375 104.296875 C-302.55394022 93.0920079 -296.99098279 85.06465089 -288.875 77.625 C-278.08525027 68.82577307 -267.36657646 67.63500954 -253.875 68.625 C-250.73884306 69.08771168 -247.92358375 69.73813927 -244.875 70.625 C-244.71644531 69.73039062 -244.55789062 68.83578125 -244.39453125 67.9140625 C-241.44231923 52.61475382 -235.08689296 41.10484201 -222.1171875 31.9375 C-209.68364925 24.65933127 -196.42055855 22.90612041 -182.328125 25.203125 C-169.62659661 28.61085213 -158.91145152 36.52969702 -151.875 47.625 C-148.14459376 54.23501808 -146.24760058 60.04878829 -145.875 67.625 C-145.29524414 67.46652588 -144.71548828 67.30805176 -144.11816406 67.14477539 C-140.66279602 66.34411382 -137.15589697 66.25276918 -133.625 66.0625 C-132.87992188 66.01931641 -132.13484375 65.97613281 -131.3671875 65.93164062 C-129.536651 65.82603275 -127.70584824 65.72505799 -125.875 65.625 C-125.84921875 64.57183594 -125.8234375 63.51867187 -125.796875 62.43359375 C-125.07489512 41.68757453 -119.03979405 24.21903453 -104.875 8.625 C-104.33488281 7.99207031 -103.79476562 7.35914062 -103.23828125 6.70703125 C-95.11321468 -2.23668183 -83.19441381 -8.56198742 -71.875 -12.375 C-70.93011719 -12.69339844 -69.98523438 -13.01179688 -69.01171875 -13.33984375 C-45.3878486 -19.98884482 -19.54023315 -14.52639477 0 0 Z " fill="#DCE9FB" transform="translate(302.875,29.375)"/>
<path d="M0 0 C4.20142437 0.85743355 5.97745908 2.68686579 9.0625 5.625 C11.34061291 4.52813082 13.32382294 3.43430488 15.375 1.9375 C19.02195437 0.15642926 21.18667136 0.62015554 25.0625 1.625 C27 2.6875 27 2.6875 28.0625 4.625 C28.46111302 7.71425088 28.68891903 9.66691012 28.0625 12.625 C25.88149697 15.29067036 23.72307617 17.16546875 20.90625 19.125 C17.98599988 23.08466119 18.63857674 27.09879961 18.8125 31.875 C18.83054687 32.81085938 18.84859375 33.74671875 18.8671875 34.7109375 C18.91424327 37.01667015 18.97996287 39.32030945 19.0625 41.625 C19.57111572 41.08496338 20.07973145 40.54492676 20.60375977 39.98852539 C22.92814321 37.53904171 25.2760096 35.11338642 27.625 32.6875 C28.42486328 31.83736328 29.22472656 30.98722656 30.04882812 30.11132812 C36.81970155 23.17463739 36.81970155 23.17463739 40.97265625 22.45703125 C44.0625 22.625 44.0625 22.625 46.9375 24.25 C49.32990101 26.92385995 50.0625 28.05001271 50.0625 31.625 C47.78384558 37.71342052 43.4491862 41.58161577 38.875 46 C38.12541016 46.73605469 37.37582031 47.47210938 36.60351562 48.23046875 C34.76315176 50.03566643 32.91614077 51.83345508 31.0625 53.625 C43.01042472 55.123998 43.01042472 55.123998 53.92578125 51.65625 C55.89077512 49.23235048 55.89077512 49.23235048 57.5390625 46.7109375 C59.0625 44.625 59.0625 44.625 62.75 43.3125 C66.86379125 43.70059351 68.35320422 44.51727837 71.0625 47.625 C72.30971924 51.28870652 72.42547705 52.86447666 70.75 56.375 C69.0625 58.625 69.0625 58.625 67.0625 60.625 C67.27879621 63.65314701 68.35760937 65.02426562 70.1875 67.5 C72.0625 70.625 72.0625 70.625 72.0625 73.75 C70.89756028 77.0992017 69.96670212 78.58420932 67.0625 80.625 C64.3125 81.3125 64.3125 81.3125 61.0625 80.625 C57.0807285 77.87794296 53.61609977 75.28579932 52.0625 70.625 C42.1625 71.12 42.1625 71.12 32.0625 71.625 C33.19429688 72.69878906 34.32609375 73.77257812 35.4921875 74.87890625 C36.97461743 76.31442384 38.45635196 77.75065981 39.9375 79.1875 C40.68386719 79.89197266 41.43023437 80.59644531 42.19921875 81.32226562 C46.52013699 85.54586588 49.27069631 88.53707544 50.0625 94.625 C48.01704545 100.14772727 48.01704545 100.14772727 45.0625 101.625 C42.14331251 102.23316406 40.86691848 102.41665319 38.0625 101.625 C34.37133243 98.98758159 31.25015449 95.84163317 28.0625 92.625 C27.19109375 91.76648438 26.3196875 90.90796875 25.421875 90.0234375 C23.28550963 87.90722652 21.17173406 85.76825396 19.0625 83.625 C18.7325 90.225 18.4025 96.825 18.0625 103.625 C20.0425 104.615 20.0425 104.615 22.0625 105.625 C25.07698257 107.79598057 27.63530092 109.96721252 28.5859375 113.65625 C28.74895196 117.01685589 28.27926861 119.27817023 26.5 122.125 C23.03820157 124.25533749 21.0731591 124.23679546 17.0625 123.625 C14.46650692 122.16538521 12.38624415 120.521934 10.0625 118.625 C9.051875 119.45 8.04125 120.275 7 121.125 C4.17635537 123.13127381 2.94088985 123.6435507 -0.625 124.1875 C-3.9375 123.625 -3.9375 123.625 -6.375 122.0625 C-8.60753794 118.57974082 -8.62814221 116.69978906 -7.9375 112.625 C-5.49328513 108.82459067 -2.68643133 106.12428755 1.0625 103.625 C1.47777124 101.49805335 1.47777124 101.49805335 1.35546875 99.0546875 C1.34580078 98.15878906 1.33613281 97.26289063 1.32617188 96.33984375 C1.30103516 95.40269531 1.27589844 94.46554687 1.25 93.5 C1.23646484 92.55511719 1.22292969 91.61023438 1.20898438 90.63671875 C1.17356306 88.29891221 1.12417271 85.96223763 1.0625 83.625 C0.55799316 84.13474365 0.05348633 84.6444873 -0.46630859 85.16967773 C-2.74577034 87.46988095 -5.02907761 89.76622877 -7.3125 92.0625 C-8.1065625 92.86494141 -8.900625 93.66738281 -9.71875 94.49414062 C-10.47929687 95.25791016 -11.23984375 96.02167969 -12.0234375 96.80859375 C-12.7251709 97.51556396 -13.4269043 98.22253418 -14.14990234 98.95092773 C-16.7020243 101.34097147 -17.74351452 101.60703838 -21.3125 101.9375 C-24.9375 101.625 -24.9375 101.625 -27.375 100.125 C-29.11504264 97.34093177 -29.62027504 95.1988678 -29.55493164 91.91601562 C-28.1956854 86.87245425 -23.65777555 83.55480359 -19.9375 80.125 C-19.07898438 79.30257812 -18.22046875 78.48015625 -17.3359375 77.6328125 C-15.22003864 75.61095359 -13.08782017 73.61010645 -10.9375 71.625 C-22.78006217 70.23845735 -22.78006217 70.23845735 -33.75390625 73.37109375 C-35.41322274 75.38162625 -36.67817621 77.35148797 -37.9375 79.625 C-41.02923752 81.17086876 -43.53179552 80.91859521 -46.9375 80.625 C-49.375 79.125 -49.375 79.125 -50.9375 76.625 C-51.69123265 71.5163676 -51.44260785 68.84584949 -48.4375 64.625 C-47.6125 63.635 -46.7875 62.645 -45.9375 61.625 C-46.7625 60.8 -47.5875 59.975 -48.4375 59.125 C-50.58848387 56.55237441 -51.33812766 54.79752724 -51.4375 51.4375 C-50.9375 47.625 -50.9375 47.625 -49.875 45.6875 C-46.63948984 43.91318798 -44.66902229 43.50265501 -40.9375 43.625 C-36.79124827 46.30434678 -33.6661159 49.53207615 -30.9375 53.625 C-28.81055335 54.04027124 -28.81055335 54.04027124 -26.3671875 53.91796875 C-25.47128906 53.90830078 -24.57539063 53.89863281 -23.65234375 53.88867188 C-22.24662109 53.8509668 -22.24662109 53.8509668 -20.8125 53.8125 C-19.86761719 53.79896484 -18.92273438 53.78542969 -17.94921875 53.77148438 C-15.61141221 53.73606306 -13.27473763 53.68667271 -10.9375 53.625 C-11.41171387 53.15602295 -11.88592773 52.6870459 -12.37451172 52.20385742 C-14.52313085 50.07603477 -16.66784798 47.94432077 -18.8125 45.8125 C-19.55886719 45.07451172 -20.30523437 44.33652344 -21.07421875 43.57617188 C-21.78964844 42.86396484 -22.50507813 42.15175781 -23.2421875 41.41796875 C-24.2319458 40.43606567 -24.2319458 40.43606567 -25.24169922 39.43432617 C-28.53235708 35.9233752 -29.45529096 33.4073563 -29.3125 28.5703125 C-28.9375 26.625 -28.9375 26.625 -26.875 24.0625 C-22.86765055 22.10145665 -21.19256447 22.254725 -16.9375 23.625 C-13.97174551 25.66395621 -11.48478104 28.0912924 -8.9375 30.625 C-8.03644531 31.511875 -7.13539063 32.39875 -6.20703125 33.3125 C-3.76809747 35.73423397 -1.35103067 38.17794807 1.0625 40.625 C1.3925 34.025 1.7225 27.425 2.0625 20.625 C0.7425 19.965 -0.5775 19.305 -1.9375 18.625 C-5.6883126 15.84630168 -7.72534679 13.72433937 -8.625 9.0625 C-7.57774829 3.82624144 -5.29672815 1.12696344 0 0 Z " fill="#B1E4F9" transform="translate(332.9375,374.375)"/>
<path d="M0 0 C3.55235495 0.8846861 5.48240549 2.95115549 8.0390625 5.5078125 C9.0496875 4.6828125 10.0603125 3.8578125 11.1015625 3.0078125 C14.83380858 0.34839829 17.41302593 -0.19045717 22.0390625 0.5078125 C24.4140625 1.6328125 24.4140625 1.6328125 26.0390625 3.5078125 C27.14757257 6.90724338 27.38437173 8.69532018 25.9765625 12.0078125 C23.53235726 15.16162572 20.98732542 17.81046557 18.0390625 20.5078125 C17.3790625 20.5078125 16.7190625 20.5078125 16.0390625 20.5078125 C16.5340625 30.9028125 16.5340625 30.9028125 17.0390625 41.5078125 C18.32941406 40.13625 19.61976563 38.7646875 20.94921875 37.3515625 C22.66572125 35.56940143 24.38322161 33.78820108 26.1015625 32.0078125 C26.94912109 31.10160156 27.79667969 30.19539063 28.66992188 29.26171875 C35.82565635 21.91258605 35.82565635 21.91258605 40.01171875 21.84765625 C43.30870032 22.56661094 44.86448216 22.91504363 47.0390625 25.5078125 C48.0390625 28.8203125 48.0390625 28.8203125 48.0390625 32.5078125 C45.10430801 37.7622088 41.07687081 41.70829994 36.7890625 45.8828125 C36.139375 46.52347656 35.4896875 47.16414063 34.8203125 47.82421875 C33.23105365 49.39010614 31.63729833 50.95109759 30.0390625 52.5078125 C41.88162467 53.89435515 41.88162467 53.89435515 52.85546875 50.76171875 C54.51478524 48.75118625 55.77973871 46.78132453 57.0390625 44.5078125 C59.92767959 43.06350395 61.83553951 43.13092744 65.0390625 43.5078125 C68.32766564 45.93851917 69.80662665 47.415364 70.6640625 51.4453125 C69.80662895 55.64673687 67.97719671 57.42277158 65.0390625 60.5078125 C66.01152025 63.20077244 66.79650871 65.23830829 68.7265625 67.3828125 C70.0390625 69.5078125 70.0390625 69.5078125 69.9140625 73.0703125 C68.69505654 77.85926447 68.69505654 77.85926447 66.0390625 79.5078125 C63.2265625 80.4453125 63.2265625 80.4453125 60.0390625 80.5078125 C56.26846847 78.58404004 54.31852585 76.93664418 52 73.37890625 C50.29111775 71.28927697 49.43251717 70.59175344 46.76293945 70.0222168 C44.061445 69.91744052 41.42581599 69.98401973 38.7265625 70.1328125 C37.79521484 70.15988281 36.86386719 70.18695313 35.90429688 70.21484375 C33.61349378 70.28533 31.32748687 70.38377004 29.0390625 70.5078125 C29.57909912 71.01642822 30.11913574 71.52504395 30.67553711 72.04907227 C33.12502079 74.37345571 35.55067608 76.7213221 37.9765625 79.0703125 C38.82669922 79.87017578 39.67683594 80.67003906 40.55273438 81.49414062 C47.48769411 88.26332443 47.48769411 88.26332443 48.1484375 92.453125 C48.03818071 95.53243966 47.92334987 97.08515731 46.0390625 99.5078125 C43.61640731 101.39209987 42.06368966 101.50693071 38.984375 101.6171875 C33.13304237 100.69441581 29.46200441 95.54839298 25.6015625 91.4453125 C24.36116211 90.16430664 24.36116211 90.16430664 23.09570312 88.85742188 C21.0625921 86.75379833 19.0448188 84.63747897 17.0390625 82.5078125 C15.5400645 94.45573722 15.5400645 94.45573722 19.0078125 105.37109375 C21.43153433 107.337641 21.43153433 107.337641 23.9609375 108.98046875 C26.0390625 110.5078125 26.0390625 110.5078125 27.2265625 114.2578125 C26.95004173 119.05083921 26.95004173 119.05083921 25.0390625 121.5078125 C22.40644268 123.5554057 20.98011782 123.50566906 17.6015625 123.3828125 C13.77478873 122.44290315 11.88169883 121.17816784 9.0390625 118.5078125 C6.80795399 119.54368431 5.03268853 120.51333661 3.1640625 122.1328125 C0.20256253 124.04907719 -1.49571604 124.07356294 -4.9609375 123.5078125 C-8.17236605 121.13414792 -9.67678355 119.57338982 -10.7109375 115.6953125 C-9.57737468 110.87767051 -6.5001978 107.86290315 -2.9609375 104.5078125 C-2.3009375 104.1778125 -1.6409375 103.8478125 -0.9609375 103.5078125 C-0.9609375 96.9078125 -0.9609375 90.3078125 -0.9609375 83.5078125 C-2.06953125 84.63960938 -3.178125 85.77140625 -4.3203125 86.9375 C-5.78358712 88.41953455 -7.24714352 89.90129091 -8.7109375 91.3828125 C-9.44054687 92.12917969 -10.17015625 92.87554687 -10.921875 93.64453125 C-11.63085938 94.35996094 -12.33984375 95.07539063 -13.0703125 95.8125 C-13.71967773 96.47233887 -14.36904297 97.13217773 -15.03808594 97.81201172 C-18.29963033 100.68843216 -20.12765953 101.53705032 -24.5234375 101.3828125 C-27.9609375 100.5078125 -27.9609375 100.5078125 -29.8984375 98.8828125 C-31.39532101 95.5368376 -32.01719988 93.02187689 -30.9609375 89.5078125 C-28.15679827 85.81753 -24.83979045 82.73047724 -21.4609375 79.5703125 C-20.55472656 78.69568359 -19.64851563 77.82105469 -18.71484375 76.91992188 C-16.47896775 74.76642026 -14.22192916 72.63492966 -11.9609375 70.5078125 C-18.8909375 70.1778125 -25.8209375 69.8478125 -32.9609375 69.5078125 C-33.6209375 70.8278125 -34.2809375 72.1478125 -34.9609375 73.5078125 C-37.58088382 76.87744226 -39.95686619 79.15946123 -44.0234375 80.5703125 C-47.55320548 80.49521105 -49.18758337 79.64725711 -51.9609375 77.5078125 C-53.54085194 74.34798361 -53.30514485 72.00725389 -52.9609375 68.5078125 C-51.51573926 65.9003919 -49.85973243 63.83383629 -47.9609375 61.5078125 C-48.7859375 60.6828125 -49.6109375 59.8578125 -50.4609375 59.0078125 C-52.55934377 56.47773409 -53.40084369 54.67748236 -53.5859375 51.3828125 C-52.9609375 47.5078125 -52.9609375 47.5078125 -50.8359375 45.0078125 C-47.44843417 43.24041946 -45.7274117 42.8800668 -41.9609375 43.5078125 C-38.95424333 45.44068732 -37.23729934 47.02668516 -35.453125 50.1328125 C-32.1190093 53.3101516 -29.96573147 53.02816656 -25.5 52.94726562 C-24.57960938 52.90537109 -23.65921875 52.86347656 -22.7109375 52.8203125 C-21.77507812 52.79775391 -20.83921875 52.77519531 -19.875 52.75195312 C-17.56868076 52.69311845 -15.26562912 52.61098396 -12.9609375 52.5078125 C-13.47068115 52.00330566 -13.9804248 51.49879883 -14.50561523 50.97900391 C-16.80581845 48.69954216 -19.10216627 46.41623489 -21.3984375 44.1328125 C-22.20087891 43.33875 -23.00332031 42.5446875 -23.83007812 41.7265625 C-24.59384766 40.96601563 -25.35761719 40.20546875 -26.14453125 39.421875 C-26.85150146 38.7201416 -27.55847168 38.0184082 -28.28686523 37.29541016 C-30.67690897 34.7432882 -30.94297588 33.70179798 -31.2734375 30.1328125 C-30.9609375 26.5078125 -30.9609375 26.5078125 -29.3984375 24.0703125 C-25.86644215 21.80621292 -24.09952316 21.7490718 -19.9609375 22.5078125 C-16.92195991 24.4651201 -14.4965151 26.94600478 -11.9609375 29.5078125 C-10.97734943 30.4799635 -9.99292461 31.45126839 -9.0078125 32.421875 C-6.30464425 35.09697521 -3.627944 37.79668273 -0.9609375 40.5078125 C0.42560515 28.66525033 0.42560515 28.66525033 -2.70703125 17.69140625 C-4.71756375 16.03208976 -6.68742547 14.76713629 -8.9609375 13.5078125 C-10.38755969 10.65456813 -10.27127618 8.67326701 -9.9609375 5.5078125 C-7.55572462 0.89782114 -5.25296216 -0.29511023 0 0 Z " fill="#B0E4F9" transform="translate(129.9609375,248.4921875)"/>
<path d="M0 0 C12.56591109 8.35207925 20.66605072 19.89163495 24.6328125 34.48828125 C25.2221537 38.59078259 25.17917104 42.6501773 25.16015625 46.7890625 C25.16402344 47.63082031 25.16789062 48.47257812 25.171875 49.33984375 C25.16539955 53.45175237 25.07047612 57.27925222 24.03515625 61.2890625 C25.59363281 61.99869141 25.59363281 61.99869141 27.18359375 62.72265625 C42.17628019 69.74457016 54.59959672 79.60366704 61.47265625 95.2265625 C66.62285088 110.03927824 66.06095359 125.83443082 60.03515625 140.2890625 C57.97541633 144.18365759 55.64194383 147.74093496 53.03515625 151.2890625 C52.28492188 152.35060547 52.28492188 152.35060547 51.51953125 153.43359375 C42.5957137 164.8587844 28.09614131 171.33415252 14.03515625 173.2890625 C11.27824936 173.36943627 8.54861346 173.40607947 5.79296875 173.38671875 C5.02459686 173.3853038 4.25622498 173.38388885 3.46456909 173.38243103 C1.02972386 173.37686933 -1.40502669 173.3643241 -3.83984375 173.3515625 C-5.49869658 173.34654254 -7.15755087 173.34198051 -8.81640625 173.33789062 C-12.86592145 173.32691248 -16.91536659 173.30967456 -20.96484375 173.2890625 C-20.96484375 172.9590625 -20.96484375 172.6290625 -20.96484375 172.2890625 C-19.22460938 171.96035156 -19.22460938 171.96035156 -17.44921875 171.625 C-0.68869623 168.29627391 12.19883639 162.57813857 22.84765625 148.6015625 C31.5855429 135.40177628 34.0672937 118.99221553 31.38671875 103.5546875 C27.60895258 89.02481762 19.89517582 76.97170645 7.03515625 68.9765625 C2.54053213 66.37810793 -2.2107133 64.35863699 -6.96484375 62.2890625 C-6.94389648 61.56952393 -6.92294922 60.84998535 -6.90136719 60.10864258 C-6.38127496 39.54689508 -7.02311182 23.88486257 -21.65234375 8.0390625 C-27.69582666 2.30247521 -35.19934759 -1.78645449 -42.96484375 -4.7109375 C-42.96484375 -5.3709375 -42.96484375 -6.0309375 -42.96484375 -6.7109375 C-28.14594199 -10.81133345 -13.02251402 -7.51496857 0 0 Z " fill="#CBE2FE" transform="translate(373.96484375,51.7109375)"/>
<path d="M0 0 C8.90511955 6.788172 16.05532228 16.42027944 18.06347656 27.61499023 C18.31061691 29.98286194 18.48326599 32.31771367 18.54003906 34.69702148 C17.8271875 35.06053711 17.11433594 35.42405273 16.37988281 35.79858398 C5.34298969 41.59183879 -2.12180909 47.48573029 -6.49902344 59.56420898 C-7.21650568 61.93122985 -7.8770288 64.29370479 -8.45996094 66.69702148 C-9.45640625 66.53717773 -10.45285156 66.37733398 -11.47949219 66.21264648 C-25.6915085 64.19918826 -40.44284722 65.22801867 -52.45996094 73.69702148 C-64.34618315 82.83331101 -70.6586599 93.87503736 -72.92480469 108.74780273 C-73.16342057 111.05878126 -73.32150509 113.37788603 -73.45996094 115.69702148 C-79.72996094 115.69702148 -85.99996094 115.69702148 -92.45996094 115.69702148 C-93.01582055 96.65882983 -91.20541752 77.87516594 -77.55004883 63.11425781 C-65.7616549 51.2027475 -50.72359416 45.15073756 -34.03417969 44.57983398 C-31.17257095 44.5731087 -28.31995647 44.60574503 -25.45996094 44.69702148 C-25.32267578 43.6722168 -25.32267578 43.6722168 -25.18261719 42.62670898 C-24.14170686 38.40680225 -22.01267179 34.80801341 -19.89941406 31.04467773 C-17.61011162 26.73149921 -16.88566909 23.54783615 -17.45996094 18.69702148 C-23.08910293 5.89072345 -33.49308894 -0.30130034 -45.45996094 -6.30297852 C-35.01533525 -16.7476042 -9.58390513 -6.85274781 0 0 Z " fill="#CBE2FE" transform="translate(138.4599609375,63.302978515625)"/>
<path d="M0 0 C9.48760838 6.57538882 16.31705073 15.38897968 18.8359375 26.71484375 C19.42782526 36.5925772 19.96148101 45.90779531 14.8359375 54.71484375 C14.38863281 55.50246094 13.94132812 56.29007813 13.48046875 57.1015625 C7.45536115 66.87419011 -1.23010543 73.16934707 -12.44921875 75.84765625 C-19.82770588 77.23022248 -27.31560456 76.92780584 -34.7890625 76.83984375 C-36.28515023 76.82978983 -37.78124453 76.82066826 -39.27734375 76.8125 C-42.90638876 76.79068683 -46.53518235 76.75629116 -50.1640625 76.71484375 C-47.33758515 74.83052552 -46.1679222 74.39338933 -42.9765625 73.83984375 C-33.17765287 71.75025397 -24.98035057 66.37824779 -19.33203125 57.99609375 C-13.19538158 47.12631039 -11.04084612 35.8375811 -14.2265625 23.52734375 C-17.72720349 13.7029642 -23.03279294 7.09188178 -31.7109375 1.37109375 C-33.8118988 -0.04738967 -35.46173006 -1.42393945 -37.1640625 -3.28515625 C-24.77455699 -7.33931381 -11.31581398 -6.72004115 0 0 Z " fill="#CBE2FE" transform="translate(493.1640625,63.28515625)"/>
<path d="M0 0 C1.875 1.6875 1.875 1.6875 3 4 C2.89445438 10.01610018 2.89445438 10.01610018 0.4375 12.71875 C-3.00784882 14.52976669 -6.16553435 14.14626341 -9.9375 13.9375 C-25.80214489 13.51170596 -37.72991372 19.57144157 -49.12890625 30.20703125 C-49.74636719 30.79871094 -50.36382812 31.39039063 -51 32 C-50.64808594 32.46148437 -50.29617188 32.92296875 -49.93359375 33.3984375 C-48.88104158 34.78901556 -47.83614139 36.18540232 -46.796875 37.5859375 C-45.57406083 39.22876176 -44.33368422 40.85862644 -43.078125 42.4765625 C-39.18851975 47.66806041 -36.65796849 51.38739086 -37 58 C-38.5 60.5 -38.5 60.5 -41 62 C-44.5 62.5 -44.5 62.5 -48 62 C-51.20421504 59.2987722 -53.15375625 56.28469498 -55.25 52.6875 C-62.70553903 40.8342963 -73.97787886 34.88038162 -87.390625 31.5078125 C-89.91858906 31.01584345 -92.37140374 30.75537652 -94.9375 30.5625 C-97.90090912 30.28102924 -98.96280875 30.02358469 -101.5625 28.375 C-103.60842875 24.99476989 -103.62294612 22.87610916 -103 19 C-100.28840998 15.58864481 -98.49614243 15.06506786 -94.1875 14.5 C-83.30572289 15.0277116 -72.3513269 18.51508711 -63 24 C-62.73832031 23.41734375 -62.47664063 22.8346875 -62.20703125 22.234375 C-56.33959115 11.37296484 -42.89768366 4.42075145 -31.6015625 0.7421875 C-21.7751702 -2.06113763 -9.55290071 -4.73403073 0 0 Z " fill="#CBE2FE" transform="translate(338,111)"/>
<path d="M0 0 C9.30463613 6.94746164 15.61280418 15.72909553 19.34375 26.75 C19.5390625 29.42578125 19.5390625 29.42578125 19.46875 32.0625 C19.45070313 32.94550781 19.43265625 33.82851563 19.4140625 34.73828125 C19.39085937 35.40214844 19.36765625 36.06601562 19.34375 36.75 C18.17199219 36.71519531 17.00023437 36.68039063 15.79296875 36.64453125 C6.84228107 36.46159192 -1.1348204 36.59669565 -9.65625 39.75 C-10.68384475 36.73932765 -11.66004472 33.73640801 -12.515625 30.671875 C-14.71378728 22.84333216 -17.39006617 14.92709878 -23.33984375 9.1015625 C-24.65625 7.75 -24.65625 7.75 -24.65625 5.75 C-25.22601563 5.48058594 -25.79578125 5.21117187 -26.3828125 4.93359375 C-28.73524759 3.70887239 -30.84858457 2.31739038 -33.03125 0.8125 C-36.48102976 -1.51966516 -39.87885697 -3.50658783 -43.65625 -5.25 C-33.80730471 -15.09894529 -9.4906687 -6.16277189 0 0 Z " fill="#CBE2FE" transform="translate(432.65625,22.25)"/>
<path d="M0 0 C9.12150246 3.76771632 17.66700835 8.32044325 25 15 C25.76441406 15.69609375 26.52882813 16.3921875 27.31640625 17.109375 C31.42219645 21.02237158 31.42219645 21.02237158 33 23 C33 23.99 33 24.98 33 26 C32.42556152 26.11069824 31.85112305 26.22139648 31.25927734 26.33544922 C28.63036398 26.84449329 26.00269288 27.35969444 23.375 27.875 C22.47136719 28.04902344 21.56773437 28.22304688 20.63671875 28.40234375 C15.96135062 29.32376667 11.48482245 30.3461286 7 32 C6.55269531 31.40832031 6.10539062 30.81664062 5.64453125 30.20703125 C2.31476164 25.85490168 -0.9744645 21.73799725 -5 18 C-5.57621094 17.40703125 -6.15242188 16.8140625 -6.74609375 16.203125 C-16.37012404 6.81560207 -29.24211656 1.67272402 -42 -2 C-30.95696621 -8.32246795 -11.35820655 -4.35001246 0 0 Z " fill="#CBE2FE" transform="translate(282,18)"/>
<path d="M0 0 C2.00822379 1.5557618 2.88366266 2.43998192 3.4050293 4.94970703 C3.35560213 10.84274358 2.13765143 15.48334452 -0.1875 20.875 C-0.47947266 21.62007813 -0.77144531 22.36515625 -1.07226562 23.1328125 C-2.51987341 26.59461864 -3.53982621 28.63143156 -6.51171875 31.01171875 C-10.06052244 32.42121221 -12.3589992 32.01138911 -16 31 C-18 29.5 -18 29.5 -19 27 C-19.1009656 20.84109821 -17.34805739 15.78288835 -15.125 10.125 C-14.86855713 9.47039795 -14.61211426 8.8157959 -14.34790039 8.14135742 C-13.00589457 4.89062746 -11.85764424 2.13949281 -9 0 C-5.45026831 -1.1832439 -3.60040463 -0.90010116 0 0 Z " fill="#B1E4F9" transform="translate(408,317)"/>
<path d="M0 0 C2.00771582 1.55559661 2.8832812 2.44117727 3.40722656 4.94970703 C3.36225336 10.86368269 2.11087731 15.47870901 -0.25 20.875 C-0.55035156 21.62007813 -0.85070312 22.36515625 -1.16015625 23.1328125 C-2.81154025 27.03991678 -4.08534358 29.94460925 -8 32 C-12.0087499 32.68234041 -13.52115596 32.3158333 -16.9375 30.0625 C-19.23023039 26.65814275 -19.48416325 24.8300936 -18.78515625 20.8125 C-14.02534543 3.7624314 -14.02534543 3.7624314 -9 0 C-5.45026831 -1.1832439 -3.60040463 -0.90010116 0 0 Z " fill="#B1E4F9" transform="translate(271,317)"/>
<path d="M0 0 C2.00771582 1.55559661 2.8832812 2.44117727 3.40722656 4.94970703 C3.36225336 10.86368269 2.11087731 15.47870901 -0.25 20.875 C-0.55035156 21.62007813 -0.85070312 22.36515625 -1.16015625 23.1328125 C-2.81154025 27.03991678 -4.08534358 29.94460925 -8 32 C-12.0087499 32.68234041 -13.52115596 32.3158333 -16.9375 30.0625 C-19.23023039 26.65814275 -19.48416325 24.8300936 -18.78515625 20.8125 C-14.02534543 3.7624314 -14.02534543 3.7624314 -9 0 C-5.45026831 -1.1832439 -3.60040463 -0.90010116 0 0 Z " fill="#B1E4F9" transform="translate(287,276)"/>
<path d="M0 0 C1.91015625 0.44140625 1.91015625 0.44140625 4.47265625 2.44140625 C6.62695029 6.93732425 5.66674275 11.03922421 4.21411133 15.65136719 C3.37599633 17.89985982 2.47288358 20.10770964 1.53515625 22.31640625 C1.07882813 23.45335937 1.07882813 23.45335937 0.61328125 24.61328125 C-1.70714671 30.18627489 -1.70714671 30.18627489 -5.08984375 32.44140625 C-8.64009763 32.7641566 -11.18692979 32.84534144 -14.46484375 31.37890625 C-16.91429464 28.45840711 -16.89869481 26.23440086 -17.08984375 22.44140625 C-16.33786794 19.24301671 -15.15903428 16.28445419 -13.90234375 13.25390625 C-13.44504883 12.0637793 -13.44504883 12.0637793 -12.97851562 10.84960938 C-10.28052752 4.11312334 -7.83726436 -0.45412186 0 0 Z " fill="#B1E4F9" transform="translate(223.08984375,440.55859375)"/>
<path d="M0 0 C3.5625 0.5625 3.5625 0.5625 6.5625 2.5625 C8.83287214 5.9680582 8.67954794 7.39406229 8.06542969 11.32910156 C7.19217629 15.20702489 5.7374046 18.78689826 4.1875 22.4375 C3.73117188 23.57445312 3.73117188 23.57445312 3.265625 24.734375 C0.94519704 30.30736864 0.94519704 30.30736864 -2.4375 32.5625 C-5.98775388 32.88525035 -8.53458604 32.96643519 -11.8125 31.5 C-14.26195089 28.57950086 -14.24635106 26.35549461 -14.4375 22.5625 C-13.68552419 19.36411046 -12.50669053 16.40554794 -11.25 13.375 C-10.79270508 12.18487305 -10.79270508 12.18487305 -10.32617188 10.97070312 C-6.34842012 1.03883238 -6.34842012 1.03883238 0 0 Z " fill="#B0E4F9" transform="translate(99.4375,399.4375)"/>
<path d="M0 0 C2.6225115 2.2728433 2.96541785 3.61169188 3.2734375 7.0703125 C2.93571436 11.92387641 1.55052219 15.7670672 -0.25 20.25 C-0.55035156 21.05179687 -0.85070312 21.85359375 -1.16015625 22.6796875 C-4.03617074 29.99822651 -4.03617074 29.99822651 -8 32 C-12.0087499 32.68234041 -13.52115596 32.3158333 -16.9375 30.0625 C-19.23023039 26.65814275 -19.48416325 24.8300936 -18.78515625 20.8125 C-14.02534543 3.7624314 -14.02534543 3.7624314 -9 0 C-5.4314543 -1.18951523 -3.60804584 -0.97717908 0 0 Z " fill="#B1E4F9" transform="translate(424,276)"/>
<path d="M0 0 C2.418605 1.58460328 2.9109055 2.72579655 3.8046875 5.4765625 C4.08941678 10.61307871 2.27092171 14.50018565 0.3125 19.1875 C-0.21633789 20.54004883 -0.21633789 20.54004883 -0.75585938 21.91992188 C-3.83109879 29.47028118 -3.83109879 29.47028118 -8 32 C-11.29029921 32.4112874 -13.2941394 32.32431433 -16.3125 30.9375 C-18.71253619 28.1819029 -19.10046728 25.55377566 -19 22 C-18.11861217 18.44073041 -16.78341807 15.13020337 -15.375 11.75 C-15.03082031 10.8528125 -14.68664062 9.955625 -14.33203125 9.03125 C-12.76275087 5.16306072 -11.6863841 2.56366694 -8.421875 -0.1171875 C-5.19198286 -1.29453528 -3.26674506 -0.99422676 0 0 Z " fill="#B1E4F9" transform="translate(332,276)"/>
<path d="M0 0 C2.60155894 2.25468442 2.96085179 3.61002355 3.3046875 7.03515625 C2.91184573 12.14713564 1.27421174 16.14317468 -0.75 20.8125 C-1.09804688 21.67037109 -1.44609375 22.52824219 -1.8046875 23.41210938 C-2.15273438 24.23130859 -2.50078125 25.05050781 -2.859375 25.89453125 C-3.17358398 26.63550049 -3.48779297 27.37646973 -3.81152344 28.13989258 C-5.28308087 30.44305529 -6.43755237 31.10242455 -9 32 C-12.35205511 31.82357605 -14.97391301 31.56269287 -17.9375 29.9375 C-19.97640794 26.21949141 -19.49591976 21.78091966 -18.38793945 17.80200195 C-17.55761471 15.56064829 -16.64761745 13.3762587 -15.6875 11.1875 C-15.37876953 10.43791016 -15.07003906 9.68832031 -14.75195312 8.91601562 C-13.23437531 5.34092177 -12.02048585 2.55183017 -9 0 C-5.4314543 -1.18951523 -3.60804584 -0.97717908 0 0 Z " fill="#B1E4F9" transform="translate(363,317)"/>
<path d="M0 0 C2.375 1.125 2.375 1.125 4 3 C5.85814894 8.83730692 3.92251907 13.1716704 1.8125 18.625 C1.50763672 19.470625 1.20277344 20.31625 0.88867188 21.1875 C-0.75180299 25.54834303 -2.12197069 29.15662278 -6 32 C-10.39200889 32.71869236 -12.27833231 32.48111179 -16 30 C-18.27037214 26.5944418 -18.11704794 25.16843771 -17.50292969 21.23339844 C-16.62967629 17.35547511 -15.1749046 13.77560174 -13.625 10.125 C-13.32078125 9.36703125 -13.0165625 8.6090625 -12.703125 7.828125 C-9.95071981 1.21764759 -7.57449299 -0.66442921 0 0 Z " fill="#B1E4F9" transform="translate(179,441)"/>
<path d="M0 0 C1.94140625 0.34375 1.94140625 0.34375 4.44140625 1.90625 C6.5294239 5.29927869 6.24188903 7.37026066 5.94140625 11.34375 C5.08070183 14.52251989 3.91787179 17.54010111 2.69140625 20.59375 C2.39105469 21.39554687 2.09070313 22.19734375 1.78125 23.0234375 C-1.11586446 30.39566919 -1.11586446 30.39566919 -5.05859375 32.34375 C-8.93899464 32.82880011 -11.13475495 32.91226618 -14.49609375 30.84375 C-16.65721412 27.38595741 -16.51481246 24.27826229 -16.05859375 20.34375 C-15.20398484 17.2875462 -14.01957113 14.43436844 -12.74609375 11.53125 C-12.43736328 10.78166016 -12.12863281 10.03207031 -11.81054688 9.25976562 C-9.14429997 2.97864923 -7.56381504 -0.33431227 0 0 Z " fill="#B1E4F9" transform="translate(131.05859375,440.65625)"/>
<path d="M0 0 C1.91015625 0.44140625 1.91015625 0.44140625 4.47265625 2.44140625 C6.62695029 6.93732425 5.66674275 11.03922421 4.21411133 15.65136719 C3.37599633 17.89985982 2.47288358 20.10770964 1.53515625 22.31640625 C1.07882813 23.45335937 1.07882813 23.45335937 0.61328125 24.61328125 C-1.70714671 30.18627489 -1.70714671 30.18627489 -5.08984375 32.44140625 C-9.01242371 32.86932406 -11.19735783 33.07554098 -14.46484375 30.75390625 C-16.39666097 28.00478175 -16.86263198 26.80948662 -17.08984375 23.44140625 C-16.28990544 20.1518872 -15.11221412 17.03707683 -13.90234375 13.87890625 C-13.59748047 13.02876953 -13.29261719 12.17863281 -12.97851562 11.30273438 C-10.37707643 4.34920193 -8.078033 -0.46807294 0 0 Z " fill="#B1E4F9" transform="translate(86.08984375,440.55859375)"/>
<path d="M0 0 C3.5625 0.5625 3.5625 0.5625 6.5625 2.5625 C8.84934295 5.99276442 8.64858469 7.43934882 8.02978516 11.40039062 C7.28274639 14.85690855 6.09475925 18.04903959 4.75 21.3125 C4.50185547 21.95832031 4.25371094 22.60414063 3.99804688 23.26953125 C2.43863362 27.13433661 0.87043008 29.9839781 -2.4375 32.5625 C-6.06769782 33.01627473 -8.46067947 32.99949866 -11.8125 31.5 C-14.26195089 28.57950086 -14.24635106 26.35549461 -14.4375 22.5625 C-13.68552419 19.36411046 -12.50669053 16.40554794 -11.25 13.375 C-10.79270508 12.18487305 -10.79270508 12.18487305 -10.32617188 10.97070312 C-6.34842012 1.03883238 -6.34842012 1.03883238 0 0 Z " fill="#B1E4F9" transform="translate(236.4375,399.4375)"/>
<path d="M0 0 C2.4375 2.125 2.4375 2.125 4 5 C3.64379023 10.71360463 1.86006425 15.53038022 -0.3125 20.75 C-0.60833984 21.50410156 -0.90417969 22.25820313 -1.20898438 23.03515625 C-4.11144778 30.09384695 -4.11144778 30.09384695 -8 32 C-11.42819926 31.87971231 -13.94725831 31.6667364 -16.875 29.8125 C-18.57064088 27.08063414 -18.81250036 25.25239765 -19 22 C-18.09928215 18.47410987 -16.76173375 15.17228826 -15.375 11.8125 C-15.03082031 10.91080078 -14.68664062 10.00910156 -14.33203125 9.08007812 C-12.76347869 5.19342483 -11.70086316 2.57362628 -8.41796875 -0.11328125 C-5.11633398 -1.32405846 -3.32285053 -1.13118316 0 0 Z " fill="#B0E3F9" transform="translate(316,317)"/>
<path d="M0 0 C2.40580488 1.77269833 3.6485217 3.04629287 4.68237305 5.8515625 C5.30853888 10.08696549 3.22884684 14.05788156 1.8125 18 C1.35520508 19.35351562 1.35520508 19.35351562 0.88867188 20.734375 C-2.12849998 29.28619125 -2.12849998 29.28619125 -6 32 C-8.7639018 32.78274563 -11.21027184 32.65741545 -14 32 C-16.82403685 29.59956868 -17.85644259 28.11130327 -18.33203125 24.4296875 C-17.86606816 19.6165629 -16.10292837 15.6578334 -14.1875 11.25 C-13.83107422 10.38761719 -13.47464844 9.52523438 -13.10742188 8.63671875 C-10.17839164 1.76827722 -8.07488698 -0.8499881 0 0 Z " fill="#B1E4F9" transform="translate(195,400)"/>
<path d="M0 0 C2.3125 1.625 2.3125 1.625 4 4 C4.7131104 10.36881354 2.72757243 15.09739055 0.25 20.8125 C-0.09804688 21.67037109 -0.44609375 22.52824219 -0.8046875 23.41210938 C-1.15273438 24.23130859 -1.50078125 25.05050781 -1.859375 25.89453125 C-2.17358398 26.63550049 -2.48779297 27.37646973 -2.81152344 28.13989258 C-4.28308087 30.44305529 -5.43755237 31.10242455 -8 32 C-11.35205511 31.82357605 -13.97391301 31.56269287 -16.9375 29.9375 C-18.97640794 26.21949141 -18.49591976 21.78091966 -17.38793945 17.80200195 C-16.55761471 15.56064829 -15.64761745 13.3762587 -14.6875 11.1875 C-14.37876953 10.43791016 -14.07003906 9.68832031 -13.75195312 8.91601562 C-12.23437531 5.34092177 -11.02048585 2.55183017 -8 0 C-4.61786861 -1.12737713 -3.35228621 -1.06292002 0 0 Z " fill="#B0E4F9" transform="translate(378,276)"/>
<path d="M0 0 C1.94140625 0.4140625 1.94140625 0.4140625 4.44140625 2.5390625 C6.25934744 6.02344978 6.32046976 7.49855946 5.94140625 11.4140625 C4.88158061 14.75884003 3.52640628 17.94809922 2.12890625 21.1640625 C1.77248047 22.02644531 1.41605469 22.88882812 1.04882812 23.77734375 C-1.67126856 30.15584571 -1.67126856 30.15584571 -5.05859375 32.4140625 C-8.89552962 32.83263732 -11.17062439 32.96050519 -14.49609375 30.9140625 C-16.65721412 27.45626991 -16.51481246 24.34857479 -16.05859375 20.4140625 C-15.20398484 17.3578587 -14.01957113 14.50468094 -12.74609375 11.6015625 C-12.43736328 10.85197266 -12.12863281 10.10238281 -11.81054688 9.33007812 C-9.16063628 3.08744665 -7.53953578 -0.30546922 0 0 Z " fill="#B0E3F9" transform="translate(147.05859375,399.5859375)"/>
</svg>
