<?xml version="1.0" encoding="UTF-8"?>
<svg version="1.1" xmlns="http://www.w3.org/2000/svg" width="512" height="512">
<path d="M0 0 C0.99386719 0.50144531 1.98773438 1.00289062 3.01171875 1.51953125 C23.55397931 12.55596143 36.40625555 31.5608925 45.4375 52.5 C46.58054198 56.05461614 46.58054198 56.05461614 49 57 C50.73533092 57.03750583 52.47219259 57.01284258 54.20703125 56.95703125 C73.22156951 56.51878119 87.7303587 58.27464762 102.46875 71.4140625 C105.00085979 74.03660478 106.93992897 76.99818222 109 80 C112.04612975 81.52306488 114.70623785 81.52517525 118 81 C121.01675336 79.89096035 123.92049968 78.63282518 126.83984375 77.2890625 C140.35898358 71.77445664 159.43418767 71.57367507 173 77 C190.41300304 84.40395405 203.61262616 95.82372911 212 113 C212.42182132 114.85300079 212.83888952 116.70709349 213.25 118.5625 C213.99446103 121.12197053 213.99446103 121.12197053 216 123 C221.33062245 124.87932286 227.14611801 125.12225614 232.73144531 125.70800781 C247.3633881 127.59132718 261.43227162 137.82706005 270.4453125 149.04296875 C282.15568103 164.81986835 286.95077711 183.35520632 284.3125 202.8125 C281.09560564 220.23734445 271.47462035 236.35354746 257.0625 246.8125 C242.95986731 256.04095089 228.92650143 259.61819814 212.14968872 259.50793457 C210.59807817 259.51255455 209.04647201 259.51891476 207.49487484 259.52684355 C203.27028227 259.54341001 199.04605511 259.53534888 194.82146192 259.52289867 C190.25010131 259.5137979 185.67880081 259.52784279 181.10745239 259.53881836 C172.16705443 259.55655565 163.22679119 259.55278476 154.28638805 259.5411678 C147.01568097 259.53211371 139.7450115 259.53091801 132.47430038 259.53526306 C131.43728098 259.53587599 130.40026158 259.53648893 129.33181735 259.53712043 C127.22473852 259.53839941 125.11765969 259.53969626 123.01058088 259.5410108 C103.27617282 259.55240286 83.54183921 259.53932506 63.80744337 259.51780933 C46.89909813 259.49994491 29.99086278 259.50303974 13.08251953 259.52148438 C-6.58086457 259.54292452 -26.24418347 259.55129879 -45.90757763 259.53903532 C-48.0072747 259.53776121 -50.10697177 259.53650372 -52.20666885 259.53526306 C-53.23959309 259.53464596 -54.27251733 259.53402886 -55.3367423 259.53339306 C-62.5920328 259.52994919 -69.84728171 259.53574779 -77.10256577 259.54518127 C-85.95409787 259.55643786 -94.80548821 259.55328484 -103.65700422 259.5320583 C-108.16740644 259.52159612 -112.67757292 259.51734279 -117.18797302 259.53065491 C-121.32719482 259.54268606 -125.4659652 259.53584234 -129.60514678 259.5147447 C-131.09221266 259.51032349 -132.57931771 259.51244224 -134.06635784 259.52224785 C-157.581404 259.66525588 -178.42140662 251.5558149 -195.62890625 235.39453125 C-211.93999158 218.92221609 -220.75588868 198.34749578 -221.25 175.0625 C-220.70680666 150.71465741 -212.1210055 130.90489182 -195 114 C-194.17371094 113.175 -193.34742188 112.35 -192.49609375 111.5 C-177.27689537 97.0380972 -158.25096526 91.92229119 -138 89 C-137.94054199 88.27635254 -137.88108398 87.55270508 -137.81982422 86.80712891 C-135.4254689 58.98763031 -129.42951967 35.90643097 -109 16 C-107.77990234 14.78376953 -107.77990234 14.78376953 -106.53515625 13.54296875 C-78.30889895 -13.31086113 -34.06760793 -18.06151743 0 0 Z " fill="#EBF3FE" transform="translate(224,10)"/>
<path d="M0 0 C0.99 -0.03287109 0.99 -0.03287109 2 -0.06640625 C5.29534111 0.96982406 6.26234805 2.61604669 8 5.5625 C8.60370762 8.66516722 8.69521947 11.72013957 8.75 14.875 C8.77964844 15.71095703 8.80929688 16.54691406 8.83984375 17.40820312 C8.91016107 19.45912485 8.95738973 21.51081562 9 23.5625 C9.4655127 23.11189209 9.93102539 22.66128418 10.41064453 22.19702148 C14.41194314 18.38910518 17.25890323 16.5625 23 16.5625 C26.39808026 17.66458008 26.94731917 18.48347876 29 21.5625 C29.64979162 24.66705997 29.56515661 26.63715555 27.890625 29.37890625 C25.09990538 32.79822856 22.50572721 35.26417443 18.67578125 37.5234375 C11.88343735 41.45631519 11.88343735 41.45631519 8.31689453 48.16015625 C7.47623666 54.72800082 7.79837609 60.8685863 8 67.5625 C15.26 67.5625 22.52 67.5625 30 67.5625 C30.99 65.5825 30.99 65.5825 32 63.5625 C32.95481603 62.25130661 33.94712026 60.96686236 34.96875 59.70703125 C35.53980469 59.00255859 36.11085938 58.29808594 36.69921875 57.57226562 C37.29347656 56.84716797 37.88773437 56.12207031 38.5 55.375 C39.09425781 54.63830078 39.68851562 53.90160156 40.30078125 53.14257812 C44.74518391 47.68990805 44.74518391 47.68990805 47 46.5625 C50.79877599 46.21076148 53.14360153 46.03548556 56.4375 48.0625 C58.19470202 50.87402323 58.67631804 53.0715366 58.5390625 56.390625 C57.51526742 60.51548055 54.7264907 63.41574282 52 66.5625 C52.55461914 66.5718457 53.10923828 66.58119141 53.68066406 66.59082031 C56.20466481 66.64465722 58.72683814 66.72827254 61.25 66.8125 C62.55904297 66.83376953 62.55904297 66.83376953 63.89453125 66.85546875 C70.33951055 67.10146033 70.33951055 67.10146033 73.57421875 69.359375 C75.06526325 71.66334513 75.56780894 72.84432079 75.5625 75.5625 C75.58441406 76.2225 75.60632813 76.8825 75.62890625 77.5625 C74.59267594 80.85784111 72.94645331 81.82484805 70 83.5625 C66.89733278 84.16620762 63.84236043 84.25771947 60.6875 84.3125 C59.85154297 84.34214844 59.01558594 84.37179687 58.15429688 84.40234375 C56.10337515 84.47266107 54.05168438 84.51988973 52 84.5625 C52.6496875 85.28953125 52.6496875 85.28953125 53.3125 86.03125 C56.15985403 89.45862059 58.43856329 92.24579906 58.6875 96.8125 C58 100.5625 58 100.5625 55.875 103.0625 C52.46714413 104.84051176 50.78454468 105.27210213 47 104.5625 C43.0646723 100.98372883 39.66622612 96.94040117 36.25 92.875 C35.50943359 92.00391602 35.50943359 92.00391602 34.75390625 91.11523438 C31.12834821 86.81919643 31.12834821 86.81919643 30 84.5625 C19.11 84.0675 19.11 84.0675 8 83.5625 C6.87836788 95.91165589 6.87836788 95.91165589 10.34082031 107.61962891 C13.55874916 110.92521663 17.29756433 113.301757 21.29492188 115.56347656 C24.422393 117.39589521 27.361336 119.28517201 29 122.5625 C29.40616229 126.21796065 29.21434253 128.15167682 27.5 131.4375 C24.69692022 133.82011781 22.85133955 134.33729107 19.171875 134.13671875 C15.09138168 133.05788329 12.0967348 130.32979492 9 127.5625 C8.97421875 128.80386719 8.9484375 130.04523438 8.921875 131.32421875 C8.86557918 132.96618028 8.80823217 134.608106 8.75 136.25 C8.73582031 137.06662109 8.72164063 137.88324219 8.70703125 138.72460938 C8.54469597 142.73429088 8.27734493 145.09221947 6.203125 148.609375 C3.87446846 150.67378683 3.05242657 151.2263501 0 151.125 C-0.66 151.12628906 -1.32 151.12757813 -2 151.12890625 C-5.10033723 150.25088106 -6.14202317 149.22425376 -8 146.5625 C-8.62783525 143.31855937 -8.69642117 140.11003315 -8.75 136.8125 C-8.79447266 135.48025391 -8.79447266 135.48025391 -8.83984375 134.12109375 C-8.91036918 131.93480551 -8.96314637 129.74957232 -9 127.5625 C-9.53206055 128.02350098 -10.06412109 128.48450195 -10.61230469 128.95947266 C-13.98141376 131.8205138 -16.72206756 134.00025467 -21.25 134.1875 C-25 133.5625 -25 133.5625 -27.5 132 C-29.59311615 128.59868625 -29.55147685 126.49177257 -29 122.5625 C-26.00276924 118.10715698 -22.14166839 115.05184885 -17.9375 111.8125 C-17.00067383 111.07193359 -17.00067383 111.07193359 -16.04492188 110.31640625 C-13.3902844 108.2482255 -11.21573842 106.63441281 -8 105.5625 C-8 98.3025 -8 91.0425 -8 83.5625 C-20.54900587 82.29581342 -20.54900587 82.29581342 -32.23730469 86.11572266 C-36.0349689 89.89906687 -38.87901877 94.23917257 -41.73510742 98.75048828 C-43.47970945 101.24970393 -45.45097524 102.91537271 -48 104.5625 C-51.67572916 105.16261905 -53.25039216 105.08925145 -56.3125 102.9375 C-58.39744561 100.00313211 -58.92657532 98.1603095 -59 94.5625 C-57.24945853 90.78501577 -54.59781993 87.79498401 -52 84.5625 C-53.24136719 84.53671875 -54.48273437 84.5109375 -55.76171875 84.484375 C-57.40368028 84.42807918 -59.045606 84.37073217 -60.6875 84.3125 C-61.91243164 84.29123047 -61.91243164 84.29123047 -63.16210938 84.26953125 C-67.17179088 84.10719597 -69.52971947 83.83984493 -73.046875 81.765625 C-75.11128683 79.43696846 -75.6638501 78.61492657 -75.5625 75.5625 C-75.56378906 74.9025 -75.56507812 74.2425 -75.56640625 73.5625 C-74.68838106 70.46216277 -73.66175376 69.42047683 -71 67.5625 C-67.75605937 66.93466475 -64.54753315 66.86607883 -61.25 66.8125 C-59.91775391 66.76802734 -59.91775391 66.76802734 -58.55859375 66.72265625 C-56.37230551 66.65213082 -54.18707232 66.59935363 -52 66.5625 C-52.63228516 65.80066406 -52.63228516 65.80066406 -53.27734375 65.0234375 C-59.11394272 57.68992255 -59.11394272 57.68992255 -59 52.5625 C-56.86956522 47.99728261 -56.86956522 47.99728261 -54 46.5625 C-50.6875 46.1875 -50.6875 46.1875 -47 46.5625 C-43.02903361 50.08861348 -39.66134647 54.19040575 -36.25 58.25 C-35.75628906 58.83072266 -35.26257812 59.41144531 -34.75390625 60.00976562 C-31.12834821 64.30580357 -31.12834821 64.30580357 -30 66.5625 C-19.11 67.0575 -19.11 67.0575 -8 67.5625 C-6.87836788 55.21334411 -6.87836788 55.21334411 -10.34082031 43.50537109 C-13.55874916 40.19978337 -17.29756433 37.823243 -21.29492188 35.56152344 C-24.422393 33.72910479 -27.361336 31.83982799 -29 28.5625 C-29.26004123 25.05194334 -29.38797265 22.42973298 -27.9375 19.1875 C-24.99108373 16.71631216 -22.8063221 16.5625 -19 16.5625 C-15.8125 18.3125 -15.8125 18.3125 -13 20.5625 C-11.66925137 21.56593703 -10.33641761 22.56662564 -9 23.5625 C-8.9906543 23.00788086 -8.98130859 22.45326172 -8.97167969 21.88183594 C-8.91784278 19.35783519 -8.83422746 16.83566186 -8.75 14.3125 C-8.73582031 13.43980469 -8.72164063 12.56710937 -8.70703125 11.66796875 C-8.46103967 5.22298945 -8.46103967 5.22298945 -6.203125 1.98828125 C-3.89915487 0.49723675 -2.71817921 -0.00530894 0 0 Z " fill="#BDD8FB" transform="translate(88,294.4375)"/>
<path d="M0 0 C0.66 -0.00128906 1.32 -0.00257813 2 -0.00390625 C5.10033723 0.87411894 6.14202317 1.90074624 8 4.5625 C8.62783525 7.80644063 8.69642117 11.01496685 8.75 14.3125 C8.77964844 15.20066406 8.80929687 16.08882813 8.83984375 17.00390625 C8.91036918 19.19019449 8.96314637 21.37542768 9 23.5625 C9.76183594 22.93021484 9.76183594 22.93021484 10.5390625 22.28515625 C17.87257745 16.44855728 17.87257745 16.44855728 23 16.5625 C27.56521739 18.69293478 27.56521739 18.69293478 29 21.5625 C29.375 24.875 29.375 24.875 29 28.5625 C25.47388652 32.53346639 21.37209425 35.90115353 17.3125 39.3125 C16.73177734 39.80621094 16.15105469 40.29992187 15.55273438 40.80859375 C11.25669643 44.43415179 11.25669643 44.43415179 9 45.5625 C8.67 52.8225 8.34 60.0825 8 67.5625 C20.34915589 68.68413212 20.34915589 68.68413212 32.05712891 65.22167969 C35.36271663 62.00375084 37.739257 58.26493567 40.00097656 54.26757812 C41.83339521 51.140107 43.72267201 48.201164 47 46.5625 C50.51055666 46.30245877 53.13276702 46.17452735 56.375 47.625 C58.84618784 50.57141627 59 52.7561779 59 56.5625 C57.25 59.75 57.25 59.75 55 62.5625 C53.99656297 63.89324863 52.99587436 65.22608239 52 66.5625 C52.55461914 66.5718457 53.10923828 66.58119141 53.68066406 66.59082031 C56.20466481 66.64465722 58.72683814 66.72827254 61.25 66.8125 C62.55904297 66.83376953 62.55904297 66.83376953 63.89453125 66.85546875 C70.33951055 67.10146033 70.33951055 67.10146033 73.57421875 69.359375 C75.06526325 71.66334513 75.56780894 72.84432079 75.5625 75.5625 C75.58441406 76.2225 75.60632813 76.8825 75.62890625 77.5625 C74.59267594 80.85784111 72.94645331 81.82484805 70 83.5625 C66.89733278 84.16620762 63.84236043 84.25771947 60.6875 84.3125 C59.85154297 84.34214844 59.01558594 84.37179687 58.15429688 84.40234375 C56.10337515 84.47266107 54.05168438 84.51988973 52 84.5625 C52.45068848 85.02793213 52.90137695 85.49336426 53.36572266 85.97290039 C57.15623727 89.95712102 59.10611204 92.83244988 59 98.5625 C57.65437601 101.51005732 56.91445456 103.10527272 54 104.5625 C50.93753914 105.14582588 48.8845248 105.09966849 46.1796875 103.45703125 C42.76744139 100.65954203 40.29806323 98.06778249 38.0390625 94.23828125 C34.10618481 87.44593735 34.10618481 87.44593735 27.40234375 83.87939453 C20.83449918 83.03873666 14.6939137 83.36087609 8 83.5625 C8 90.8225 8 98.0825 8 105.5625 C9.98 106.5525 9.98 106.5525 12 107.5625 C13.31119339 108.51731603 14.59563764 109.50962026 15.85546875 110.53125 C16.55994141 111.10230469 17.26441406 111.67335938 17.99023438 112.26171875 C18.71533203 112.85597656 19.44042969 113.45023437 20.1875 114.0625 C20.92419922 114.65675781 21.66089844 115.25101562 22.41992188 115.86328125 C27.87259195 120.30768391 27.87259195 120.30768391 29 122.5625 C29.35173852 126.36127599 29.52701444 128.70610153 27.5 132 C24.68847677 133.75720202 22.4909634 134.23881804 19.171875 134.1015625 C15.04701945 133.07776742 12.14675718 130.2889907 9 127.5625 C8.9906543 128.11711914 8.98130859 128.67173828 8.97167969 129.24316406 C8.91784278 131.76716481 8.83422746 134.28933814 8.75 136.8125 C8.73582031 137.68519531 8.72164063 138.55789063 8.70703125 139.45703125 C8.46103967 145.90201055 8.46103967 145.90201055 6.203125 149.13671875 C3.89915487 150.62776325 2.71817921 151.13030894 0 151.125 C-0.99 151.15787109 -0.99 151.15787109 -2 151.19140625 C-5.29534111 150.15517594 -6.26234805 148.50895331 -8 145.5625 C-8.60370762 142.45983278 -8.69521947 139.40486043 -8.75 136.25 C-8.77964844 135.41404297 -8.80929687 134.57808594 -8.83984375 133.71679688 C-8.91016107 131.66587515 -8.95738973 129.61418438 -9 127.5625 C-9.72703125 128.2121875 -9.72703125 128.2121875 -10.46875 128.875 C-13.89612059 131.72235403 -16.68329906 134.00106329 -21.25 134.25 C-25 133.5625 -25 133.5625 -27.5 131.4375 C-29.27801176 128.02964413 -29.70960213 126.34704468 -29 122.5625 C-25.42122883 118.6271723 -21.37790117 115.22872612 -17.3125 111.8125 C-16.73177734 111.31878906 -16.15105469 110.82507813 -15.55273438 110.31640625 C-11.25669643 106.69084821 -11.25669643 106.69084821 -9 105.5625 C-8.67 98.3025 -8.34 91.0425 -8 83.5625 C-20.34915589 82.44086788 -20.34915589 82.44086788 -32.05712891 85.90332031 C-35.36271663 89.12124916 -37.739257 92.86006433 -40.00097656 96.85742188 C-41.83339521 99.984893 -43.72267201 102.923836 -47 104.5625 C-50.65546065 104.96866229 -52.58917682 104.77684253 -55.875 103.0625 C-58.25761781 100.25942022 -58.77479107 98.41383955 -58.57421875 94.734375 C-57.49538329 90.65388168 -54.76729492 87.6592348 -52 84.5625 C-53.24136719 84.54832031 -54.48273438 84.53414063 -55.76171875 84.51953125 C-57.40368243 84.472618 -59.04560837 84.42437068 -60.6875 84.375 C-61.91243164 84.36629883 -61.91243164 84.36629883 -63.16210938 84.35742188 C-67.52186177 84.1985645 -69.48185 83.95841975 -73.046875 81.234375 C-75 78.5625 -75 78.5625 -75.5625 75 C-75 71.5625 -75 71.5625 -73.57421875 69.39453125 C-69.68061677 66.62351558 -65.9223129 66.88841646 -61.25 66.8125 C-59.91775391 66.76802734 -59.91775391 66.76802734 -58.55859375 66.72265625 C-56.37230551 66.65213082 -54.18707232 66.59935363 -52 66.5625 C-52.46100098 66.03043945 -52.92200195 65.49837891 -53.39697266 64.95019531 C-56.2580138 61.58108624 -58.43775467 58.84043244 -58.625 54.3125 C-58 50.5625 -58 50.5625 -56.4375 48.0625 C-53.03618625 45.96938385 -50.92927257 46.01102315 -47 46.5625 C-42.54465698 49.55973076 -39.48934885 53.42083161 -36.25 57.625 C-35.75628906 58.24955078 -35.26257813 58.87410156 -34.75390625 59.51757812 C-32.6857255 62.1722156 -31.07191281 64.34676158 -30 67.5625 C-22.74 67.5625 -15.48 67.5625 -8 67.5625 C-6.73331342 55.01349413 -6.73331342 55.01349413 -10.55322266 43.32519531 C-14.33656687 39.5275311 -18.67667257 36.68348123 -23.18798828 33.82739258 C-25.68720393 32.08279055 -27.35287271 30.11152476 -29 27.5625 C-29.60011905 23.88677084 -29.52675145 22.31210784 -27.375 19.25 C-24.44063211 17.16505439 -22.5978095 16.63592468 -19 16.5625 C-15.22251577 18.31304147 -12.23248401 20.96468007 -9 23.5625 C-8.97421875 22.32113281 -8.9484375 21.07976562 -8.921875 19.80078125 C-8.86557918 18.15881972 -8.80823217 16.516894 -8.75 14.875 C-8.73582031 14.05837891 -8.72164063 13.24175781 -8.70703125 12.40039062 C-8.54469597 8.39070912 -8.27734493 6.03278053 -6.203125 2.515625 C-3.87446846 0.45121317 -3.05242657 -0.1013501 0 0 Z " fill="#BDD8FB" transform="translate(424,294.4375)"/>
<path d="M0 0 C19.88814516 0.14309468 35.80687297 6.43660669 50.17871094 20.41577148 C56.80966983 27.43977 62.18419847 35.41478719 64.28417969 44.89233398 C65.02864072 47.45180452 65.02864072 47.45180452 67.03417969 49.32983398 C72.36480214 51.20915684 78.1802977 51.45209012 83.765625 52.0378418 C98.39756779 53.92116117 112.46645131 64.15689404 121.47949219 75.37280273 C133.18986072 91.14970234 137.9849568 109.6850403 135.34667969 129.14233398 C132.12978533 146.56717844 122.50880004 162.68338144 108.09667969 173.14233398 C91.10569613 184.26085779 75.26894043 186.05472842 55.34619141 186.01611328 C51.64565445 186.01733846 47.94896559 186.07748331 44.24902344 186.14038086 C41.87793926 186.14851506 39.50684016 186.15319405 37.13574219 186.15405273 C36.03976715 186.17763351 34.94379211 186.20121429 33.81460571 186.22550964 C27.04558206 186.14455527 23.47092767 185.01472061 18.69442749 180.13117981 C17.87260483 179.23951363 17.87260483 179.23951363 17.03417969 178.32983398 C15.89466049 177.30195719 14.7497154 176.28002513 13.59667969 175.26733398 C1.76147079 163.10787279 -5.41916285 146.10511872 -6.96582031 129.32983398 C-7.05992187 128.41073242 -7.15402344 127.49163086 -7.25097656 126.54467773 C-7.507151 122.08461516 -7.38104678 119.97154762 -4.90332031 116.14233398 C-1.96582031 114.32983398 -1.96582031 114.32983398 1.65917969 114.32983398 C5.00027105 115.31978698 5.95827277 115.70964361 8.03417969 118.32983398 C8.60253906 120.25585938 8.60253906 120.25585938 8.87792969 122.42749023 C8.98782227 123.22405029 9.09771484 124.02061035 9.2109375 124.84130859 C9.31760742 125.68314697 9.42427734 126.52498535 9.53417969 127.39233398 C12.10319398 145.14475379 18.23571287 159.53920998 32.44433594 171.32983398 C40.39194322 177.17403332 50.82483476 183.59695126 61.03417969 182.32983398 C77.82698813 178.30150132 91.49344747 168.44651686 100.95703125 154.10864258 C111.09070217 137.37384514 113.41551486 119.36125865 109.03417969 100.32983398 C103.65366323 82.46483793 92.77633416 68.4242785 76.55371094 59.05249023 C66.92561317 54.33995847 57.37617421 51.77693812 46.60839844 51.76342773 C44.03417969 51.32983398 44.03417969 51.32983398 42.31933594 49.65405273 C40.88647656 47.06271131 39.82320261 44.47800079 38.78417969 41.70483398 C36.2928851 35.56263321 33.07902252 30.55252044 29.03417969 25.32983398 C28.5971875 24.71624023 28.16019531 24.10264648 27.70996094 23.47045898 C19.41752776 12.61309903 5.03464952 5.50772661 -7.96582031 2.32983398 C-5.37429831 -0.26168802 -3.53617617 0.04556139 0 0 Z " fill="#DBEAFE" transform="translate(372.9658203125,83.670166015625)"/>
<path d="M0 0 C2.28062828 3.42094242 2.21925007 4.68187222 2.125 8.6875 C2.10695313 9.68136719 2.08890625 10.67523438 2.0703125 11.69921875 C2.04710937 12.45847656 2.02390625 13.21773438 2 14 C2.70125 13.505 3.4025 13.01 4.125 12.5 C7.51250333 10.73260696 9.2335258 10.3722543 13 11 C16.28860314 13.43070667 17.76756415 14.9075515 18.625 18.9375 C17.57453896 24.08475908 14.7017556 26.85408098 10.4765625 29.69921875 C4.8527728 33.44278297 4.8527728 33.44278297 2.1328125 39.40234375 C1.90099722 42.63722058 1.83221221 45.76268255 2 49 C6.64715461 49.52467875 10.51646646 49.39783548 15 48 C18.83713997 44.93837294 21.70583205 41.02781305 24.63671875 37.125 C27 34 27 34 29 33 C33.05263598 32.45964854 34.53730231 32.65800605 37.875 35.125 C40 38 40 38 40.5 41 C39.95183265 44.28900407 38.91096302 46.29280239 37 49 C37.74765625 48.95359375 38.4953125 48.9071875 39.265625 48.859375 C47.32195927 48.56411668 47.32195927 48.56411668 50.625 50.6875 C52.17247438 53.29007055 52.85217288 54.96954407 53 58 C51.93600927 61.81263347 51.3748349 62.75011007 48 65 C45.30078125 65.1953125 45.30078125 65.1953125 42.3125 65.125 C41.31863281 65.10695313 40.32476562 65.08890625 39.30078125 65.0703125 C38.54152344 65.04710937 37.78226562 65.02390625 37 65 C37.495 65.70125 37.99 66.4025 38.5 67.125 C40.2468968 70.47321887 40.55466566 72.2758163 40 76 C37.85205345 79.17896089 36.2939828 79.90744986 32.625 81.0625 C28.78531254 80.99629849 27.35889489 80.38547748 24.5703125 77.80859375 C23 76 23 76 21.3046875 73.47265625 C17.55578524 67.85351643 17.55578524 67.85351643 11.59765625 65.1328125 C8.36277942 64.90099722 5.23731745 64.83221221 2 65 C1.47559566 69.6447242 1.59594638 73.52040034 3 78 C5.58277101 81.08891515 8.70693112 83.46115915 11.98291016 85.77636719 C15.53498213 88.35219228 16.81308165 89.29328479 17.98046875 93.70703125 C17.99979988 96.96625902 17.98209087 98.45159745 16 101 C13.28451712 103.11204224 11.93072979 102.99513893 8.4375 102.75 C5 102 5 102 2 100 C2.04640625 100.74765625 2.0928125 101.4953125 2.140625 102.265625 C2.43234391 110.22538383 2.43234391 110.22538383 0.5 113.6875 C-3.07792481 115.56591052 -6.04812832 115.75312309 -10 115 C-12.5 113.6875 -12.5 113.6875 -14 111 C-14.31868254 107.3085939 -14.22932824 103.69473274 -14 100 C-14.70125 100.495 -15.4025 100.99 -16.125 101.5 C-19.47321887 103.2468968 -21.2758163 103.55466566 -25 103 C-28.17896089 100.85205345 -28.90744986 99.2939828 -30.0625 95.625 C-29.99629849 91.78531254 -29.38547748 90.35889489 -26.80859375 87.5703125 C-25 86 -25 86 -22.47265625 84.3046875 C-16.85351643 80.55578524 -16.85351643 80.55578524 -14.1328125 74.59765625 C-13.90099722 71.36277942 -13.83221221 68.23731745 -14 65 C-18.6447242 64.47559566 -22.52040034 64.59594638 -27 66 C-30.08891515 68.58277101 -32.46115915 71.70693112 -34.77636719 74.98291016 C-37.33316781 78.50874732 -38.31257959 79.80913114 -42.671875 81.01953125 C-46.45050264 80.99735621 -48.06670967 80.32937762 -51 78 C-52.41000664 75.17998673 -52.24548451 73.12992745 -52 70 C-50.5 67.125 -50.5 67.125 -49 65 C-49.74765625 65.04640625 -50.4953125 65.0928125 -51.265625 65.140625 C-59.32195927 65.43588332 -59.32195927 65.43588332 -62.625 63.3125 C-64.20168784 60.66079772 -64.92621262 59.0990698 -65 56 C-62.72289157 50.36144578 -62.72289157 50.36144578 -60 49 C-58.12620395 48.92966231 -56.24998898 48.9156978 -54.375 48.9375 C-52.87066406 48.95103516 -52.87066406 48.95103516 -51.3359375 48.96484375 C-50.56507813 48.97644531 -49.79421875 48.98804688 -49 49 C-49.495 48.29875 -49.99 47.5975 -50.5 46.875 C-52.26739304 43.48749667 -52.6277457 41.7664742 -52 38 C-49.56929333 34.71139686 -48.0924485 33.23243585 -44.0625 32.375 C-38.91524092 33.42546104 -36.14591902 36.2982444 -33.30078125 40.5234375 C-29.55721703 46.1472272 -29.55721703 46.1472272 -23.59765625 48.8671875 C-20.36277942 49.09900278 -17.23731745 49.16778779 -14 49 C-13.47532125 44.35284539 -13.60216452 40.48353354 -15 36 C-18.06162706 32.16286003 -21.97218695 29.29416795 -25.875 26.36328125 C-29 24 -29 24 -30 22 C-30.54035146 17.94736402 -30.34199395 16.46269769 -27.875 13.125 C-25 11 -25 11 -22 10.5 C-18.71099593 11.04816735 -16.70719761 12.08903698 -14 14 C-14.04640625 13.25234375 -14.0928125 12.5046875 -14.140625 11.734375 C-14.43751071 3.63363621 -14.43751071 3.63363621 -12.1875 0.375 C-7.56997115 -2.5274467 -4.99349318 -1.8158157 0 0 Z " fill="#BED8FB" transform="translate(262,397)"/>
<path d="M0 0 C26.57827387 1.24762879 49.30141031 14.51407199 67.3125 33.375 C72.35748213 39.12317251 76.28204375 45.33331982 80 52 C80.556875 52.99 81.11375 53.98 81.6875 55 C88.17618318 67.19872438 91.16591655 79.95036658 91.25 93.6875 C91.270625 94.54150391 91.29125 95.39550781 91.3125 96.27539062 C91.32023437 97.50612305 91.32023437 97.50612305 91.328125 98.76171875 C91.3374707 99.50381592 91.34681641 100.24591309 91.35644531 101.01049805 C90.90152956 103.54961343 90.00146836 104.42440845 88 106 C85.295406 106.55618667 82.72263177 106.42629934 80 106 C77.32568511 104.18836733 77.04079641 103.12238923 76 100 C75.82717976 97.96571841 75.65719723 95.93112034 75.50732422 93.89501953 C74.20900071 77.51792123 69.56553055 63.43167477 60 50 C59.37222656 49.10796875 58.74445313 48.2159375 58.09765625 47.296875 C45.38260069 30.34346759 25.83257101 20.15384683 5.1875 16.75 C3.75470703 16.55664062 3.75470703 16.55664062 2.29296875 16.359375 C0 16 0 16 -2 15 C-1.85973717 12.68715544 -1.71264442 10.37472409 -1.5625 8.0625 C-1.48128906 6.77472656 -1.40007812 5.48695312 -1.31640625 4.16015625 C-1 1 -1 1 0 0 Z " fill="#DDEAFB" transform="translate(88,86)"/>
<path d="M0 0 C2.93952734 2.07465765 5.4820343 4.43625311 8 7 C8.48210937 6.57847656 8.96421875 6.15695312 9.4609375 5.72265625 C10.09257812 5.17480469 10.72421875 4.62695312 11.375 4.0625 C12.31472656 3.24458984 12.31472656 3.24458984 13.2734375 2.41015625 C16.7766869 -0.45109496 19.54216407 -0.30743696 24 0 C26.375 1.0625 26.375 1.0625 28 3 C29 6.3125 29 6.3125 29 10 C27.11473799 13.50120088 24.95462303 16.34083927 22 19 C23.0818758 21.52437686 23.97435171 22.9774606 26.0625 24.8125 C28.75680237 27.85445429 29 29.97560167 29 34 C27.06668035 37.70552932 25.64679286 38.75123352 21.75 40.25 C16.2669014 39.88446009 13.69141583 36.84482532 10 33 C7.49777075 34.17720912 5.74098191 35.22493676 3.625 37.0625 C0.57272556 39.31536923 -1.21815156 39.92121149 -5 40 C-9.56521739 37.86956522 -9.56521739 37.86956522 -11 35 C-11.59883983 31.25725105 -11.64600309 28.92539943 -9.4375 25.76171875 C-7.68363772 23.77094362 -5.89260127 21.85880482 -4 20 C-4.97866338 18.85373678 -5.95794587 17.70800212 -6.9375 16.5625 C-7.48277344 15.92441406 -8.02804687 15.28632813 -8.58984375 14.62890625 C-9.36795695 13.73008851 -10.15936528 12.84063472 -11 12 C-11.57971014 4.92753623 -11.57971014 4.92753623 -9.4375 1.5 C-5.89383548 -0.68071663 -4.10900306 -0.75331723 0 0 Z " fill="#A3CCFF" transform="translate(365,451)"/>
<path d="M0 0 C2.95082343 2.05991165 5.48184005 4.43605532 8 7 C8.48210937 6.57847656 8.96421875 6.15695312 9.4609375 5.72265625 C10.09257812 5.17480469 10.72421875 4.62695312 11.375 4.0625 C12.31472656 3.24458984 12.31472656 3.24458984 13.2734375 2.41015625 C16.77398289 -0.44888648 19.54152804 -0.38435103 24 0 C26.4375 1.5 26.4375 1.5 28 4 C28.88663547 8.91679667 28.88663547 8.91679667 28 12 C25.95190688 14.69860408 23.61909477 16.86196346 21 19 C21.63228516 19.72316406 21.63228516 19.72316406 22.27734375 20.4609375 C22.82519531 21.09257812 23.37304688 21.72421875 23.9375 22.375 C24.48277344 23.00148438 25.02804688 23.62796875 25.58984375 24.2734375 C28.45109496 27.7766869 28.30743696 30.54216407 28 35 C26.9375 37.375 26.9375 37.375 25 39 C21.6875 40 21.6875 40 18 40 C14.49879912 38.11473799 11.65916073 35.95462303 9 33 C6.10361872 34.22539208 4.51502345 35.46342204 2.1875 37.6875 C-1 40 -1 40 -4.625 40.125 C-8.6803591 38.77321363 -10.02446313 37.78644566 -12 34 C-12.13161901 30.38047722 -11.87543302 28.09971752 -9.58203125 25.21875 C-8.11920649 23.74550131 -6.56450773 22.36478334 -5 21 C-6.11561881 18.48985768 -7.24421627 16.71878127 -9.0625 14.625 C-11.31536923 11.57272556 -11.92121149 9.78184844 -12 6 C-9.22768548 0.05932602 -6.46699189 -0.83445057 0 0 Z " fill="#A4CBFF" transform="translate(130,451)"/>
<path d="M0 0 C2.93952734 2.07465765 5.4820343 4.43625311 8 7 C8.48210937 6.57847656 8.96421875 6.15695312 9.4609375 5.72265625 C10.09257812 5.17480469 10.72421875 4.62695312 11.375 4.0625 C12.31472656 3.24458984 12.31472656 3.24458984 13.2734375 2.41015625 C16.77398289 -0.44888648 19.54152804 -0.38435103 24 0 C26.65075774 1.88343313 27.71738192 3.34644568 29 6.3125 C29 11.01806895 26.32784116 14.52989014 23.25 17.9375 C22.63125 18.4634375 22.63125 18.4634375 22 19 C23.08196054 21.5245746 24.00633756 23.00576142 26.0625 24.875 C28.56424834 27.61885302 28.92469043 29.30983096 29 33 C27.39588152 36.52906067 26.25840638 37.82772908 23 40 C19.50140821 40 17.01611629 39.80091262 14.2109375 37.58984375 C12.7445203 36.11995163 11.36488533 34.56462465 10 33 C7.49208516 34.11462882 5.75605172 35.21757549 3.6875 37.0625 C0.31572799 39.49331238 -1.85394181 40 -6 40 C-8.9375 38.5625 -8.9375 38.5625 -11 36 C-11.68220437 32.58897816 -11.94404645 31.20054771 -11 28 C-8.95282223 25.02044423 -6.60503051 22.49870273 -4 20 C-4.97866338 18.85373678 -5.95794587 17.70800212 -6.9375 16.5625 C-7.48277344 15.92441406 -8.02804687 15.28632813 -8.58984375 14.62890625 C-9.36795695 13.73008851 -10.15936528 12.84063472 -11 12 C-11.57971014 4.92753623 -11.57971014 4.92753623 -9.4375 1.5 C-5.89383548 -0.68071663 -4.10900306 -0.75331723 0 0 Z " fill="#A4CCFF" transform="translate(466,451)"/>
<path d="M0 0 C2.95082343 2.05991165 5.48184005 4.43605532 8 7 C8.48210938 6.57847656 8.96421875 6.15695312 9.4609375 5.72265625 C10.09257813 5.17480469 10.72421875 4.62695312 11.375 4.0625 C12.31472656 3.24458984 12.31472656 3.24458984 13.2734375 2.41015625 C16.77398289 -0.44888648 19.54152804 -0.38435103 24 0 C26.4375 1.5 26.4375 1.5 28 4 C28.88663547 8.91679667 28.88663547 8.91679667 28 12 C25.95190688 14.69860408 23.61909477 16.86196346 21 19 C21.63228516 19.72316406 21.63228516 19.72316406 22.27734375 20.4609375 C22.82519531 21.09257812 23.37304688 21.72421875 23.9375 22.375 C24.48277344 23.00148438 25.02804688 23.62796875 25.58984375 24.2734375 C28.13122045 27.38504 28.40569037 30.00288724 28.33984375 34.01953125 C28 36 28 36 25.9375 38.5625 C21.97641008 40.50090571 20.20634091 40.30541614 16 39 C13.45573922 37.19967512 11.20862504 35.19519874 9 33 C6.10479187 34.32051249 4.56617636 35.41454259 2.1875 37.6875 C-1 40 -1 40 -4.6875 40 C-9.32943144 38.59866221 -9.32943144 38.59866221 -11 36 C-11.98455442 33.12207169 -12.11437243 31.45748973 -11.375 28.5 C-9.69142761 25.43895929 -7.55836898 23.35639248 -5 21 C-6.11676088 18.48728801 -7.27013919 16.6807446 -9.0625 14.5625 C-11.14816938 11.80403405 -11.91608882 10.44035835 -12 7 C-9.33795379 0.40826653 -7.14937047 -0.92249942 0 0 Z " fill="#A5CCFF" transform="translate(29,451)"/>
<path d="M0 0 C4.83958517 1.13872592 7.72642368 4.3064926 11.1875 7.75 C14.03905031 6.44048977 15.67447072 5.30537456 18.0625 3.125 C21.1875 0.75 21.1875 0.75 24.25 0.125 C28.2799485 0.98243585 29.75679333 2.46139686 32.1875 5.75 C32.9375 8.5625 32.9375 8.5625 32.1875 11.75 C30.07398759 14.6430009 27.71217534 17.21244366 25.1875 19.75 C26.49701023 22.60155031 27.63212544 24.23697072 29.8125 26.625 C32.1875 29.75 32.1875 29.75 32.8125 32.8125 C31.95506415 36.8424485 30.47610314 38.31929333 27.1875 40.75 C24.375 41.5 24.375 41.5 21.1875 40.75 C18.2944991 38.63648759 15.72505634 36.27467534 13.1875 33.75 C10.33594969 35.05951023 8.70052928 36.19462544 6.3125 38.375 C3.1875 40.75 3.1875 40.75 0.125 41.375 C-3.9049485 40.51756415 -5.38179333 39.03860314 -7.8125 35.75 C-8.5625 32.9375 -8.5625 32.9375 -7.8125 29.75 C-5.69898759 26.8569991 -3.33717534 24.28755634 -0.8125 21.75 C-2.12201023 18.89844969 -3.25712544 17.26302928 -5.4375 14.875 C-7.8125 11.75 -7.8125 11.75 -8.4375 8.6875 C-7.39423861 3.78417146 -4.82381222 1.28634992 0 0 Z " fill="#A4CBFF" transform="translate(285.8125,332.25)"/>
<path d="M0 0 C4.83958517 1.13872592 7.72642368 4.3064926 11.1875 7.75 C14.03905031 6.44048977 15.67447072 5.30537456 18.0625 3.125 C21.1875 0.75 21.1875 0.75 24.25 0.125 C28.2799485 0.98243585 29.75679333 2.46139686 32.1875 5.75 C32.9375 8.5625 32.9375 8.5625 32.1875 11.75 C30.07398759 14.6430009 27.71217534 17.21244366 25.1875 19.75 C26.49701023 22.60155031 27.63212544 24.23697072 29.8125 26.625 C32.1875 29.75 32.1875 29.75 32.8125 32.8125 C31.95506415 36.8424485 30.47610314 38.31929333 27.1875 40.75 C24.375 41.5 24.375 41.5 21.1875 40.75 C18.2944991 38.63648759 15.72505634 36.27467534 13.1875 33.75 C10.33594969 35.05951023 8.70052928 36.19462544 6.3125 38.375 C3.1875 40.75 3.1875 40.75 0.125 41.375 C-3.9049485 40.51756415 -5.38179333 39.03860314 -7.8125 35.75 C-8.5625 32.9375 -8.5625 32.9375 -7.8125 29.75 C-5.69898759 26.8569991 -3.33717534 24.28755634 -0.8125 21.75 C-2.12201023 18.89844969 -3.25712544 17.26302928 -5.4375 14.875 C-7.8125 11.75 -7.8125 11.75 -8.4375 8.6875 C-7.39423861 3.78417146 -4.82381222 1.28634992 0 0 Z " fill="#A3CCFF" transform="translate(201.8125,332.25)"/>
</svg>
