<?xml version="1.0" encoding="UTF-8"?>
<svg version="1.1" xmlns="http://www.w3.org/2000/svg" width="512" height="512">
<path d="M0 0 C0.67246765 -0.01221588 1.3449353 -0.02443176 2.03778076 -0.03701782 C21.09962785 -0.32835102 38.88069955 4.91911355 52.83984375 18.37890625 C53.51144531 19.05824219 54.18304688 19.73757812 54.875 20.4375 C55.74125 21.283125 56.6075 22.12875 57.5 23 C58.675625 24.2065625 58.675625 24.2065625 59.875 25.4375 C61.2069623 26.77220296 62.54042693 28.10540755 63.875 29.4375 C66.11131478 31.67381478 68.20788549 33.84306549 70.21875 36.29296875 C71.0953125 37.00066406 71.971875 37.70835938 72.875 38.4375 C76.04184822 38.15147177 76.04184822 38.15147177 79.375 36.75 C94.16036187 31.9349441 110.7390787 32.83016197 124.63671875 39.828125 C138.50542699 47.70571713 147.49336836 59.45919035 151.84765625 74.8828125 C152.96090166 79.51184226 153.875 83.66321147 153.875 88.4375 C155.85306641 88.36789063 155.85306641 88.36789063 157.87109375 88.296875 C183.95513366 87.65436282 207.28737241 95.12853005 226.59765625 113.25341797 C245.57595567 131.49270638 256.68899667 154.36805723 257.34790039 180.75634766 C257.55716328 209.18216584 249.11371673 232.8941872 228.875 253.4375 C207.33996829 275.00854347 181.69264162 280.90861003 152.36369476 280.96860565 C149.09502126 280.9684686 145.82642384 280.95735898 142.55777371 280.94573963 C138.16446399 280.9345363 133.77120553 280.94660287 129.37789917 280.95558167 C120.79418233 280.96945123 112.21061348 280.96200549 103.62690379 280.94690608 C93.6182138 280.92997526 83.60955994 280.93326497 73.60086004 280.93700016 C55.73916663 280.94286684 37.87754392 280.92875206 20.01586914 280.90405273 C2.7046443 280.88011747 -14.60648619 280.87305702 -31.91772461 280.88354492 C-50.80064341 280.89496462 -69.68351867 280.89687257 -88.56643695 280.88244683 C-90.58119913 280.88092108 -92.59596131 280.87940072 -94.6107235 280.87788582 C-95.60186397 280.877128 -96.59300444 280.87637019 -97.61417947 280.87558941 C-104.58283313 280.87085614 -111.55146727 280.87269109 -118.52012062 280.87695122 C-127.01411769 280.88188716 -135.50802573 280.87585163 -144.00200246 280.85605692 C-148.33164465 280.84621393 -152.66115153 280.84104745 -156.99080086 280.84894943 C-160.96001025 280.85604524 -164.92894749 280.84911135 -168.8981212 280.8313458 C-170.32782539 280.82732659 -171.7575547 280.82825831 -173.18724928 280.83486467 C-191.71130961 280.91308391 -207.52099572 275.62941083 -221.04321289 262.78051758 C-234.85009009 248.90270249 -239.40589192 232.73614339 -239.4440918 213.71826172 C-239.34919949 205.55997249 -238.47148266 198.95337089 -235.125 191.4375 C-234.76277344 190.56480469 -234.40054688 189.69210938 -234.02734375 188.79296875 C-227.1049626 173.51679883 -214.48462165 162.46813924 -199.12109375 156.21484375 C-192.8167347 153.87274498 -187.6383432 152.3014854 -180.875 152.375 C-179.79734375 152.38402344 -178.7196875 152.39304688 -177.609375 152.40234375 C-176.37960938 152.41974609 -176.37960938 152.41974609 -175.125 152.4375 C-175.03863281 151.69886719 -174.95226562 150.96023437 -174.86328125 150.19921875 C-172.54239895 133.44202266 -163.76113046 118.73584924 -150.44140625 108.34375 C-140.23287327 101.07711829 -128.60562013 96.27749695 -115.94921875 96.33984375 C-114.21381836 96.34467773 -114.21381836 96.34467773 -112.44335938 96.34960938 C-111.24517578 96.35798828 -110.04699219 96.36636719 -108.8125 96.375 C-106.9862207 96.38176758 -106.9862207 96.38176758 -105.12304688 96.38867188 C-102.12364774 96.40043422 -99.12434911 96.41687174 -96.125 96.4375 C-96.09921875 95.27476563 -96.0734375 94.11203125 -96.046875 92.9140625 C-95.20958504 66.33360679 -88.16669593 42.81209271 -69.125 23.4375 C-68.20460937 22.49777344 -68.20460937 22.49777344 -67.265625 21.5390625 C-49.01398581 4.30140326 -24.10564964 0.2356474 0 0 Z " fill="#D7EBF1" transform="translate(247.125,7.5625)"/>
<path d="M0 0 C0.67246765 -0.01221588 1.3449353 -0.02443176 2.03778076 -0.03701782 C15.00006997 -0.23512796 26.05817681 2.17648245 37.875 7.4375 C37.34390625 8.56285156 36.8128125 9.68820313 36.265625 10.84765625 C27.64133212 29.42556564 25.01337833 46.07394778 23.875 66.4375 C23.07835937 66.28023438 22.28171875 66.12296875 21.4609375 65.9609375 C3.57322922 63.34987769 -14.05288412 65.95351351 -29.125 76.4375 C-37.13532314 82.75877773 -43.29307901 89.3421193 -48.125 98.4375 C-48.60710937 99.345 -49.08921875 100.2525 -49.5859375 101.1875 C-52.67072261 107.46405698 -54.22797404 113.51567279 -55.125 120.4375 C-55.7334375 120.45167969 -56.341875 120.46585937 -56.96875 120.48046875 C-75.62362265 121.49551329 -92.63112365 129.55593258 -105.125 143.4375 C-107.82813917 146.94120323 -110.04825781 150.53389102 -112.125 154.4375 C-112.60710937 155.33339844 -113.08921875 156.22929687 -113.5859375 157.15234375 C-120.39581583 170.87050906 -121.19340291 187.73191865 -117.125 202.4375 C-111.04215448 220.44842541 -100.56232067 232.84147293 -83.80859375 241.65625 C-73.91105227 246.33058086 -64.32808172 247.88283311 -53.45100403 247.83622742 C-51.60543278 247.84619766 -51.60543278 247.84619766 -49.72257727 247.85636932 C-46.33820208 247.87169982 -42.95429983 247.87385442 -39.56992424 247.87023985 C-35.90883456 247.86961261 -32.24781687 247.88626765 -28.58676147 247.90075684 C-22.25396494 247.92348579 -15.92122319 247.93541806 -9.58838844 247.93988609 C-0.43234029 247.94636181 8.72360904 247.9693241 17.87961725 247.99622939 C32.73686958 248.03944391 47.59411773 248.06944109 62.45141602 248.09106445 C76.87852021 248.11209016 91.30559028 248.13937912 105.73266602 248.17504883 C106.62288773 248.17724765 107.51310945 248.17944648 108.43030759 248.18171193 C112.89656817 248.19278198 117.36282844 248.20397472 121.82908857 248.21522844 C158.84436292 248.30833797 195.8596541 248.37997092 232.875 248.4375 C231.91494333 249.56456494 230.95389738 250.69078724 229.99243164 251.81665039 C229.45735489 252.44390518 228.92227814 253.07115997 228.37098694 253.71742249 C215.43256088 268.59395326 194.24363218 278.03894489 174.875 280.4375 C164.12385222 281.14068982 153.32646853 280.98402005 142.55777371 280.94573963 C138.16446399 280.9345363 133.77120553 280.94660287 129.37789917 280.95558167 C120.79418233 280.96945123 112.21061348 280.96200549 103.62690379 280.94690608 C93.6182138 280.92997526 83.60955994 280.93326497 73.60086004 280.93700016 C55.73916663 280.94286684 37.87754392 280.92875206 20.01586914 280.90405273 C2.7046443 280.88011747 -14.60648619 280.87305702 -31.91772461 280.88354492 C-50.80064341 280.89496462 -69.68351867 280.89687257 -88.56643695 280.88244683 C-90.58119913 280.88092108 -92.59596131 280.87940072 -94.6107235 280.87788582 C-95.60186397 280.877128 -96.59300444 280.87637019 -97.61417947 280.87558941 C-104.58283313 280.87085614 -111.55146727 280.87269109 -118.52012062 280.87695122 C-127.01411769 280.88188716 -135.50802573 280.87585163 -144.00200246 280.85605692 C-148.33164465 280.84621393 -152.66115153 280.84104745 -156.99080086 280.84894943 C-160.96001025 280.85604524 -164.92894749 280.84911135 -168.8981212 280.8313458 C-170.32782539 280.82732659 -171.7575547 280.82825831 -173.18724928 280.83486467 C-191.71130961 280.91308391 -207.52099572 275.62941083 -221.04321289 262.78051758 C-234.85009009 248.90270249 -239.40589192 232.73614339 -239.4440918 213.71826172 C-239.34919949 205.55997249 -238.47148266 198.95337089 -235.125 191.4375 C-234.76277344 190.56480469 -234.40054688 189.69210938 -234.02734375 188.79296875 C-227.1049626 173.51679883 -214.48462165 162.46813924 -199.12109375 156.21484375 C-192.8167347 153.87274498 -187.6383432 152.3014854 -180.875 152.375 C-179.79734375 152.38402344 -178.7196875 152.39304688 -177.609375 152.40234375 C-176.37960938 152.41974609 -176.37960938 152.41974609 -175.125 152.4375 C-175.03863281 151.69886719 -174.95226562 150.96023437 -174.86328125 150.19921875 C-172.54239895 133.44202266 -163.76113046 118.73584924 -150.44140625 108.34375 C-140.23287327 101.07711829 -128.60562013 96.27749695 -115.94921875 96.33984375 C-114.21381836 96.34467773 -114.21381836 96.34467773 -112.44335938 96.34960938 C-111.24517578 96.35798828 -110.04699219 96.36636719 -108.8125 96.375 C-106.9862207 96.38176758 -106.9862207 96.38176758 -105.12304688 96.38867188 C-102.12364774 96.40043422 -99.12434911 96.41687174 -96.125 96.4375 C-96.09921875 95.27476563 -96.0734375 94.11203125 -96.046875 92.9140625 C-95.20958504 66.33360679 -88.16669593 42.81209271 -69.125 23.4375 C-68.20460937 22.49777344 -68.20460937 22.49777344 -67.265625 21.5390625 C-49.01398581 4.30140326 -24.10564964 0.2356474 0 0 Z " fill="#8FCBF6" transform="translate(247.125,7.5625)"/>
<path d="M0 0 C4.62408479 1.29745935 7.43803877 5.06285966 10.39453125 8.671875 C13.3735916 7.33777406 15.35240994 5.85012311 17.64453125 3.546875 C20.28832988 1.22715491 22.04164545 0.20510453 25.58203125 0.046875 C29.39453125 0.671875 29.39453125 0.671875 31.89453125 2.171875 C33.96384704 5.62073465 34.18949621 8.79607698 33.39453125 12.671875 C31.75797593 15.06541781 29.68052694 16.76971956 27.45703125 18.609375 C22.12862517 23.28424843 22.12862517 23.28424843 20.14453125 29.921875 C20.22703125 31.159375 20.30953125 32.396875 20.39453125 33.671875 C21.6257451 32.61174794 22.8543881 31.54863495 24.08203125 30.484375 C24.81808594 29.84886719 25.55414063 29.21335937 26.3125 28.55859375 C28.55778356 26.59885478 28.55778356 26.59885478 30.89453125 23.796875 C34.46668386 20.76054528 36.72596019 20.7459793 41.39453125 20.671875 C44.06121279 21.44380913 44.98327519 22.16270083 46.70703125 24.296875 C47.82540931 28.16036286 47.97946766 31.00405281 46.39453125 34.671875 C43.7116616 37.75485865 40.87807072 40.50438249 37.86328125 43.25390625 C35.20012792 45.49427907 35.20012792 45.49427907 34.39453125 48.671875 C39.32172183 48.54869524 42.23290921 48.33786601 45.73828125 44.73046875 C47.35411179 42.93399868 48.90714285 41.09435744 50.4609375 39.24414062 C54.38683546 34.88899829 54.38683546 34.88899829 57.49414062 34.21948242 C60.76856436 34.15888625 63.04299008 34.46973883 65.89453125 36.109375 C67.76594557 39.30637447 68.18858896 41.59353493 68.06640625 45.27734375 C66.7689469 49.90142854 63.00354659 52.71538252 59.39453125 55.671875 C60.72863219 58.65093535 62.21628314 60.62975369 64.51953125 62.921875 C66.83925134 65.56567363 67.86130172 67.3189892 68.01953125 70.859375 C67.39453125 74.671875 67.39453125 74.671875 65.89453125 77.171875 C62.43179614 79.24951607 59.27997707 79.5131192 55.39453125 78.671875 C52.81495025 76.8804993 50.90642835 74.63008788 48.89453125 72.234375 C44.43203096 66.86332491 44.43203096 66.86332491 37.98828125 64.76171875 C36.209375 64.71724609 36.209375 64.71724609 34.39453125 64.671875 C36.47933446 68.51194801 38.76833699 71.08795276 42.01953125 73.984375 C44.96989248 76.8627762 46.97118238 78.83988141 47.58203125 82.984375 C47.31184391 88.29805932 47.31184391 88.29805932 45.39453125 90.671875 C42.90254996 92.68462912 41.05014442 92.70208437 37.83203125 92.984375 C32.06459143 92.17129608 28.5332983 87.22039462 24.8125 83.140625 C22.57212718 80.47747167 22.57212718 80.47747167 19.39453125 79.671875 C19.51771101 84.59906558 19.72854024 87.51025296 23.3359375 91.015625 C25.13240757 92.63145554 26.97204881 94.1844866 28.82226562 95.73828125 C33.17609766 99.66299806 33.17609766 99.66299806 33.84912109 102.77148438 C33.91304295 106.08338852 33.6072457 108.31735092 31.89453125 111.171875 C29.0898457 112.85468633 26.83193369 113.40589636 23.55078125 113.27734375 C19.96972494 112.27179352 17.78280867 109.83652752 15.25390625 107.203125 C13.28136685 105.24807016 13.28136685 105.24807016 9.39453125 105.671875 C7.71607706 107.20541064 7.71607706 107.20541064 6.20703125 109.171875 C3.44687053 112.10454576 1.76980884 113.2190488 -2.29296875 113.359375 C-5.21460509 113.09513144 -6.59062704 112.68056283 -9.16796875 111.171875 C-11.15714888 107.7124313 -11.39126321 104.52295115 -10.60546875 100.671875 C-8.96916822 98.27818061 -6.89144071 96.5740108 -4.66796875 94.734375 C0.66043733 90.05950157 0.66043733 90.05950157 2.64453125 83.421875 C2.56203125 82.184375 2.47953125 80.946875 2.39453125 79.671875 C1.1633174 80.73200206 -0.0653256 81.79511505 -1.29296875 82.859375 C-2.02902344 83.49488281 -2.76507813 84.13039063 -3.5234375 84.78515625 C-5.76872106 86.74489522 -5.76872106 86.74489522 -8.10546875 89.546875 C-11.67762136 92.58320472 -13.93689769 92.5977707 -18.60546875 92.671875 C-21.27215029 91.89994087 -22.19421269 91.18104917 -23.91796875 89.046875 C-25.03634681 85.18338714 -25.19040516 82.33969719 -23.60546875 78.671875 C-20.9225991 75.58889135 -18.08900822 72.83936751 -15.07421875 70.08984375 C-12.41106542 67.84947093 -12.41106542 67.84947093 -11.60546875 64.671875 C-16.53265933 64.79505476 -19.44384671 65.00588399 -22.94921875 68.61328125 C-24.56504929 70.40975132 -26.11808035 72.24939256 -27.671875 74.09960938 C-31.59777296 78.45475171 -31.59777296 78.45475171 -34.70507812 79.12426758 C-37.97950186 79.18486375 -40.25392758 78.87401117 -43.10546875 77.234375 C-44.97688307 74.03737553 -45.39952646 71.75021507 -45.27734375 68.06640625 C-43.9798844 63.44232146 -40.21448409 60.62836748 -36.60546875 57.671875 C-37.91628996 54.68752963 -39.20678988 53.01429061 -41.73046875 50.984375 C-44.3788999 48.43331264 -45.0854582 46.72651766 -45.23046875 43.046875 C-45.00056423 40.08310587 -44.63479432 38.72197285 -43.10546875 36.109375 C-39.63162981 34.11191761 -36.46655936 33.83994466 -32.60546875 34.671875 C-30.02573548 36.46299452 -28.11734488 38.71368709 -26.10546875 41.109375 C-21.64296846 46.48042509 -21.64296846 46.48042509 -15.19921875 48.58203125 C-14.01328125 48.61167969 -12.82734375 48.64132812 -11.60546875 48.671875 C-13.69027196 44.83180199 -15.97927449 42.25579724 -19.23046875 39.359375 C-22.18082998 36.4809738 -24.18211988 34.50386859 -24.79296875 30.359375 C-24.52278141 25.04569068 -24.52278141 25.04569068 -22.60546875 22.671875 C-20.11348746 20.65912088 -18.26108192 20.64166563 -15.04296875 20.359375 C-9.27552893 21.17245392 -5.7442358 26.12335538 -2.0234375 30.203125 C0.21693532 32.86627833 0.21693532 32.86627833 3.39453125 33.671875 C3.27135149 28.74468442 3.06052226 25.83349704 -0.546875 22.328125 C-2.34334507 20.71229446 -4.18298631 19.1592634 -6.03320312 17.60546875 C-10.38834546 13.67957079 -10.38834546 13.67957079 -11.05786133 10.57226562 C-11.1184575 7.29784189 -10.80760492 5.02341617 -9.16796875 2.171875 C-5.97096928 0.30046068 -3.68380882 -0.12218271 0 0 Z M6.01953125 51.296875 C3.90746619 54.38373932 3.7825798 56.0001663 4.39453125 59.671875 C5.89453125 62.171875 5.89453125 62.171875 8.39453125 63.671875 C12.06623995 64.28382645 13.68266693 64.15894006 16.76953125 62.046875 C18.88159631 58.96001068 19.0064827 57.3435837 18.39453125 53.671875 C16.89453125 51.171875 16.89453125 51.171875 14.39453125 49.671875 C10.72282255 49.05992355 9.10639557 49.18480994 6.01953125 51.296875 Z " fill="#8FCBF7" transform="translate(140.60546875,375.328125)"/>
<path d="M0 0 C4.62408479 1.29745935 7.43803877 5.06285966 10.39453125 8.671875 C13.3735916 7.33777406 15.35240994 5.85012311 17.64453125 3.546875 C20.28832988 1.22715491 22.04164545 0.20510453 25.58203125 0.046875 C29.39453125 0.671875 29.39453125 0.671875 31.89453125 2.171875 C33.96384704 5.62073465 34.18949621 8.79607698 33.39453125 12.671875 C31.75797593 15.06541781 29.68052694 16.76971956 27.45703125 18.609375 C22.12862517 23.28424843 22.12862517 23.28424843 20.14453125 29.921875 C20.22703125 31.159375 20.30953125 32.396875 20.39453125 33.671875 C21.6257451 32.61174794 22.8543881 31.54863495 24.08203125 30.484375 C24.81808594 29.84886719 25.55414063 29.21335937 26.3125 28.55859375 C28.55778356 26.59885478 28.55778356 26.59885478 30.89453125 23.796875 C34.46668386 20.76054528 36.72596019 20.7459793 41.39453125 20.671875 C44.06121279 21.44380913 44.98327519 22.16270083 46.70703125 24.296875 C47.82540931 28.16036286 47.97946766 31.00405281 46.39453125 34.671875 C43.7116616 37.75485865 40.87807072 40.50438249 37.86328125 43.25390625 C35.20012792 45.49427907 35.20012792 45.49427907 34.39453125 48.671875 C39.32172183 48.54869524 42.23290921 48.33786601 45.73828125 44.73046875 C47.35411179 42.93399868 48.90714285 41.09435744 50.4609375 39.24414062 C54.38683546 34.88899829 54.38683546 34.88899829 57.49414062 34.21948242 C60.76856436 34.15888625 63.04299008 34.46973883 65.89453125 36.109375 C67.76594557 39.30637447 68.18858896 41.59353493 68.06640625 45.27734375 C66.7689469 49.90142854 63.00354659 52.71538252 59.39453125 55.671875 C60.72863219 58.65093535 62.21628314 60.62975369 64.51953125 62.921875 C66.83925134 65.56567363 67.86130172 67.3189892 68.01953125 70.859375 C67.39453125 74.671875 67.39453125 74.671875 65.89453125 77.171875 C62.43179614 79.24951607 59.27997707 79.5131192 55.39453125 78.671875 C52.81495025 76.8804993 50.90642835 74.63008788 48.89453125 72.234375 C44.43203096 66.86332491 44.43203096 66.86332491 37.98828125 64.76171875 C36.209375 64.71724609 36.209375 64.71724609 34.39453125 64.671875 C36.47933446 68.51194801 38.76833699 71.08795276 42.01953125 73.984375 C44.96989248 76.8627762 46.97118238 78.83988141 47.58203125 82.984375 C47.31184391 88.29805932 47.31184391 88.29805932 45.39453125 90.671875 C42.90254996 92.68462912 41.05014442 92.70208437 37.83203125 92.984375 C32.06459143 92.17129608 28.5332983 87.22039462 24.8125 83.140625 C22.57212718 80.47747167 22.57212718 80.47747167 19.39453125 79.671875 C19.51771101 84.59906558 19.72854024 87.51025296 23.3359375 91.015625 C25.13240757 92.63145554 26.97204881 94.1844866 28.82226562 95.73828125 C33.17609766 99.66299806 33.17609766 99.66299806 33.84912109 102.77148438 C33.91304295 106.08338852 33.6072457 108.31735092 31.89453125 111.171875 C29.0898457 112.85468633 26.83193369 113.40589636 23.55078125 113.27734375 C19.96972494 112.27179352 17.78280867 109.83652752 15.25390625 107.203125 C13.28136685 105.24807016 13.28136685 105.24807016 9.39453125 105.671875 C7.71607706 107.20541064 7.71607706 107.20541064 6.20703125 109.171875 C3.44687053 112.10454576 1.76980884 113.2190488 -2.29296875 113.359375 C-5.21460509 113.09513144 -6.59062704 112.68056283 -9.16796875 111.171875 C-11.16542614 107.69803606 -11.43739909 104.53296561 -10.60546875 100.671875 C-8.81434923 98.09214173 -6.56365666 96.18375113 -4.16796875 94.171875 C1.20308134 89.70937471 1.20308134 89.70937471 3.3046875 83.265625 C3.34916016 81.48671875 3.34916016 81.48671875 3.39453125 79.671875 C-0.44554176 81.75667821 -3.02154651 84.04568074 -5.91796875 87.296875 C-8.79636995 90.24723623 -10.77347516 92.24852613 -14.91796875 92.859375 C-20.23165307 92.58918766 -20.23165307 92.58918766 -22.60546875 90.671875 C-24.61822287 88.17989371 -24.63567812 86.32748817 -24.91796875 83.109375 C-24.10488983 77.34193518 -19.15398837 73.81064205 -15.07421875 70.08984375 C-12.41106542 67.84947093 -12.41106542 67.84947093 -11.60546875 64.671875 C-16.53265933 64.79505476 -19.44384671 65.00588399 -22.94921875 68.61328125 C-24.56504929 70.40975132 -26.11808035 72.24939256 -27.671875 74.09960938 C-31.59777296 78.45475171 -31.59777296 78.45475171 -34.70507812 79.12426758 C-37.97950186 79.18486375 -40.25392758 78.87401117 -43.10546875 77.234375 C-44.97688307 74.03737553 -45.39952646 71.75021507 -45.27734375 68.06640625 C-43.9798844 63.44232146 -40.21448409 60.62836748 -36.60546875 57.671875 C-37.91628996 54.68752963 -39.20678988 53.01429061 -41.73046875 50.984375 C-44.3788999 48.43331264 -45.0854582 46.72651766 -45.23046875 43.046875 C-45.00056423 40.08310587 -44.63479432 38.72197285 -43.10546875 36.109375 C-39.63162981 34.11191761 -36.46655936 33.83994466 -32.60546875 34.671875 C-30.02573548 36.46299452 -28.11734488 38.71368709 -26.10546875 41.109375 C-21.64296846 46.48042509 -21.64296846 46.48042509 -15.19921875 48.58203125 C-14.01328125 48.61167969 -12.82734375 48.64132812 -11.60546875 48.671875 C-13.69027196 44.83180199 -15.97927449 42.25579724 -19.23046875 39.359375 C-22.18082998 36.4809738 -24.18211988 34.50386859 -24.79296875 30.359375 C-24.52278141 25.04569068 -24.52278141 25.04569068 -22.60546875 22.671875 C-20.11348746 20.65912088 -18.26108192 20.64166563 -15.04296875 20.359375 C-9.27552893 21.17245392 -5.7442358 26.12335538 -2.0234375 30.203125 C0.21693532 32.86627833 0.21693532 32.86627833 3.39453125 33.671875 C3.27135149 28.74468442 3.06052226 25.83349704 -0.546875 22.328125 C-2.34334507 20.71229446 -4.18298631 19.1592634 -6.03320312 17.60546875 C-10.38834546 13.67957079 -10.38834546 13.67957079 -11.05786133 10.57226562 C-11.1184575 7.29784189 -10.80760492 5.02341617 -9.16796875 2.171875 C-5.97096928 0.30046068 -3.68380882 -0.12218271 0 0 Z M6.01953125 51.296875 C3.90746619 54.38373932 3.7825798 56.0001663 4.39453125 59.671875 C5.89453125 62.171875 5.89453125 62.171875 8.39453125 63.671875 C12.06623995 64.28382645 13.68266693 64.15894006 16.76953125 62.046875 C18.88159631 58.96001068 19.0064827 57.3435837 18.39453125 53.671875 C16.89453125 51.171875 16.89453125 51.171875 14.39453125 49.671875 C10.72282255 49.05992355 9.10639557 49.18480994 6.01953125 51.296875 Z " fill="#8FCBF7" transform="translate(332.60546875,311.328125)"/>
<path d="M0 0 C6.00363353 3.49553663 9.36269175 8.10503354 11.875 14.5 C13.47340268 23.45105504 12.37473916 30.60334011 7.375 38.25 C1.41684175 43.94910789 -4.5125279 46.7550919 -12.80078125 47.125 C-20.17370047 46.78356235 -25.48392646 44.01484021 -30.76953125 38.9296875 C-36.43924069 32.60725756 -37.16287789 26.76926823 -36.875 18.33984375 C-36.00031178 10.54965176 -32.43288367 6.43367789 -26.59765625 1.4453125 C-18.96089572 -3.81651505 -8.31570881 -3.74774737 0 0 Z " fill="#8FCBF7" transform="translate(275.5,410)"/>
<path d="M0 0 C6.00363353 3.49553663 9.36269175 8.10503354 11.875 14.5 C13.47340268 23.45105504 12.37473916 30.60334011 7.375 38.25 C1.41684175 43.94910789 -4.5125279 46.7550919 -12.80078125 47.125 C-20.17370047 46.78356235 -25.48392646 44.01484021 -30.76953125 38.9296875 C-36.43924069 32.60725756 -37.16287789 26.76926823 -36.875 18.33984375 C-36.00031178 10.54965176 -32.43288367 6.43367789 -26.59765625 1.4453125 C-18.96089572 -3.81651505 -8.31570881 -3.74774737 0 0 Z " fill="#3382F1" transform="translate(51.5,410)"/>
<path d="M0 0 C6.00363353 3.49553663 9.36269175 8.10503354 11.875 14.5 C13.47340268 23.45105504 12.37473916 30.60334011 7.375 38.25 C1.41684175 43.94910789 -4.5125279 46.7550919 -12.80078125 47.125 C-20.17370047 46.78356235 -25.48392646 44.01484021 -30.76953125 38.9296875 C-36.43924069 32.60725756 -37.16287789 26.76926823 -36.875 18.33984375 C-36.00031178 10.54965176 -32.43288367 6.43367789 -26.59765625 1.4453125 C-18.96089572 -3.81651505 -8.31570881 -3.74774737 0 0 Z " fill="#3382F1" transform="translate(467.5,338)"/>
<path d="M0 0 C4.05444174 3.34546832 6.9541417 6.20424872 7.70703125 11.58203125 C7.76157162 17.62510472 6.74452094 21.88981351 2.70703125 26.58203125 C-0.97139538 29.99130471 -3.83706953 30.88093265 -8.73046875 31.08203125 C-14.10408677 30.8556968 -17.07568463 29.93864514 -21.29296875 26.58203125 C-25.26320693 21.59378329 -25.93616905 17.50407188 -25.67578125 11.16796875 C-24.90084522 5.93319678 -22.35542514 3.40100805 -18.29296875 0.26953125 C-12.39189641 -3.04982194 -5.94160717 -3.67428178 0 0 Z " fill="#8FCBF7" transform="translate(88.29296875,336.41796875)"/>
<path d="M0 0 C4.8846525 2.26787438 7.73212562 5.1153475 10 10 C10.75381535 15.5997712 10.77303575 20.33499991 8.375 25.5 C3.80134327 30.3143755 0.6912538 32.25156236 -6 32.5 C-11.11720994 32.31000458 -14.18069828 31.62833663 -18 28 C-21.60084056 23.71791933 -23.25251835 19.60801172 -23 14 C-21.80328454 7.77477821 -19.10671417 4.58556527 -14 1 C-9.81388848 -1.09305576 -4.55867052 -0.42364608 0 0 Z " fill="#8FCBF7" transform="translate(381,448)"/>
<path d="M0 0 C2.5 1.5 2.5 1.5 4 4 C4.791013 8.02098277 4.62153384 10.96411027 2.5 14.5 C-1.03588973 16.62153384 -3.97901723 16.791013 -8 16 C-10.5 14.5 -10.5 14.5 -12 12 C-12.791013 7.97901723 -12.62153384 5.03588973 -10.5 1.5 C-6.96411027 -0.62153384 -4.02098277 -0.791013 0 0 Z " fill="#8ECBF7" transform="translate(84,480)"/>
<path d="M0 0 C2.5 1.5 2.5 1.5 4 4 C4.791013 8.02098277 4.62153384 10.96411027 2.5 14.5 C-1.03588973 16.62153384 -3.97901723 16.791013 -8 16 C-10.5 14.5 -10.5 14.5 -12 12 C-12.791013 7.97901723 -12.62153384 5.03588973 -10.5 1.5 C-6.96411027 -0.62153384 -4.02098277 -0.791013 0 0 Z " fill="#3382F1" transform="translate(316,472)"/>
<path d="M0 0 C2.5 1.5 2.5 1.5 4 4 C4.791013 8.02098277 4.62153384 10.96411027 2.5 14.5 C-1.03588973 16.62153384 -3.97901723 16.791013 -8 16 C-10.5 14.5 -10.5 14.5 -12 12 C-12.791013 7.97901723 -12.62153384 5.03588973 -10.5 1.5 C-6.96411027 -0.62153384 -4.02098277 -0.791013 0 0 Z " fill="#8ECBF7" transform="translate(444,432)"/>
<path d="M0 0 C2.5 1.5 2.5 1.5 4 4 C4.791013 8.02098277 4.62153384 10.96411027 2.5 14.5 C-1.03588973 16.62153384 -3.97901723 16.791013 -8 16 C-10.5 14.5 -10.5 14.5 -12 12 C-12.791013 7.97901723 -12.62153384 5.03588973 -10.5 1.5 C-6.96411027 -0.62153384 -4.02098277 -0.791013 0 0 Z " fill="#3382F1" transform="translate(228,360)"/>
<path d="M0 0 C2.5 1.5 2.5 1.5 4 4 C4.791013 8.02098277 4.62153384 10.96411027 2.5 14.5 C-1.03588973 16.62153384 -3.97901723 16.791013 -8 16 C-10.5 14.5 -10.5 14.5 -12 12 C-12.791013 7.97901723 -12.62153384 5.03588973 -10.5 1.5 C-6.96411027 -0.62153384 -4.02098277 -0.791013 0 0 Z " fill="#3382F1" transform="translate(28,344)"/>
<path d="M0 0 C2.5 1.5 2.5 1.5 4 4 C4.791013 8.02098277 4.62153384 10.96411027 2.5 14.5 C-1.03588973 16.62153384 -3.97901723 16.791013 -8 16 C-10.5 14.5 -10.5 14.5 -12 12 C-12.791013 7.97901723 -12.62153384 5.03588973 -10.5 1.5 C-6.96411027 -0.62153384 -4.02098277 -0.791013 0 0 Z " fill="#3382F1" transform="translate(404,320)"/>
<path d="M0 0 C2.5 1.5 2.5 1.5 4 4 C4.791013 8.02098277 4.62153384 10.96411027 2.5 14.5 C-1.03588973 16.62153384 -3.97901723 16.791013 -8 16 C-10.5 14.5 -10.5 14.5 -12 12 C-12.791013 7.97901723 -12.62153384 5.03588973 -10.5 1.5 C-6.96411027 -0.62153384 -4.02098277 -0.791013 0 0 Z " fill="#3382F1" transform="translate(148,320)"/>
<path d="M0 0 C0.66 0.33 1.32 0.66 2 1 C-3.28 6.28 -8.56 11.56 -14 17 C-14 12.95607032 -12.51908749 11.99868382 -9.8125 9.0625 C-9.03519531 8.20785156 -8.25789063 7.35320312 -7.45703125 6.47265625 C-5.09786332 4.09848566 -2.65532732 2.0327639 0 0 Z " fill="#A1D2F7" transform="translate(34,171)"/>
<path d="M0 0 C0.66 0.33 1.32 0.66 2 1 C-3.28 6.28 -8.56 11.56 -14 17 C-14 12.95607032 -12.51908749 11.99868382 -9.8125 9.0625 C-9.03519531 8.20785156 -8.25789063 7.35320312 -7.45703125 6.47265625 C-5.09786332 4.09848566 -2.65532732 2.0327639 0 0 Z " fill="#A2D3F6" transform="translate(98,115)"/>
</svg>
