<?xml version="1.0" encoding="UTF-8"?>
<svg version="1.1" xmlns="http://www.w3.org/2000/svg" width="512" height="512">
<path d="M0 0 C18.40597123 15.75680892 29.83283505 36.63836621 34.49609375 60.28076172 C35.05296875 60.08740234 35.60984375 59.89404297 36.18359375 59.69482422 C37.32828125 59.30423828 37.32828125 59.30423828 38.49609375 58.90576172 C39.60984375 58.52291016 39.60984375 58.52291016 40.74609375 58.13232422 C55.03000809 53.70918029 71.67272414 52.8210672 85.49609375 59.28076172 C100.0166211 67.28376337 110.47302328 78.20273281 115.49609375 94.28076172 C117.95297586 103.42925241 117.43796577 111.96386556 116.49609375 121.28076172 C117.04394531 121.25755859 117.59179688 121.23435547 118.15625 121.21044922 C139.63445699 120.72151443 159.35455207 127.06229096 175.19213867 141.81054688 C190.1537572 156.47763561 197.24482082 175.54646503 197.5234375 196.29345703 C197.22440895 218.02642513 187.3990762 236.09578181 172.15234375 250.92919922 C167.01888854 255.47381692 161.58913576 259.25270352 155.04716492 261.42710876 C147.81538409 263.78029428 147.81538409 263.78029428 142.62783813 269.13796997 C141.29720743 272.7439374 140.36062494 276.2851228 139.515625 280.03466797 C139.16696885 281.3831288 138.81291741 282.73020491 138.45378113 284.07591248 C137.52777591 287.5987691 136.67070428 291.13475578 135.82910156 294.67858887 C134.79439041 298.9817157 133.68203333 303.26528238 132.57814312 307.55107784 C131.72044116 310.88522978 130.87534174 314.22082951 130.06880188 317.56776428 C129.62639412 319.37004738 129.62639412 319.37004738 129.17504883 321.20874023 C128.79537712 322.79042747 128.79537712 322.79042747 128.40803528 324.40406799 C127.45912767 327.39737017 126.28776486 329.70770409 124.49609375 332.28076172 C121.68693901 333.68533909 119.60798841 333.52971329 116.49609375 333.28076172 C114.12109375 332.34326172 114.12109375 332.34326172 112.49609375 330.28076172 C111.94253569 322.86187528 113.45254196 316.66074835 115.5234375 309.56982422 C115.83181046 308.47987152 116.14018341 307.38991882 116.457901 306.26693726 C117.43881611 302.80997194 118.43600139 299.35794682 119.43359375 295.90576172 C120.10067275 293.56361641 120.76669919 291.22117104 121.43164062 288.87841797 C126.10648609 272.44958469 126.10648609 272.44958469 127.49609375 268.28076172 C115.28609375 268.28076172 103.07609375 268.28076172 90.49609375 268.28076172 C88.51609375 276.20076172 88.51609375 276.20076172 86.49609375 284.28076172 C85.47581172 288.0396955 84.44459367 291.78771173 83.37109375 295.53076172 C83.11972656 296.42666016 82.86835938 297.32255859 82.609375 298.24560547 C82.36316406 299.10798828 82.11695313 299.97037109 81.86328125 300.85888672 C81.64784668 301.61588867 81.43241211 302.37289063 81.21044922 303.15283203 C79.28583593 308.88589063 79.28583593 308.88589063 76.49609375 310.28076172 C69.23384591 310.85713059 69.23384591 310.85713059 66.49609375 308.71826172 C64.26201329 303.27269061 65.6678898 297.79377975 67.2109375 292.32373047 C67.38613419 291.69469315 67.56133087 291.06565582 67.74183655 290.41755676 C68.29734175 288.43197797 68.86547915 286.45026458 69.43359375 284.46826172 C69.81133061 283.12017379 70.18829078 281.77186797 70.56445312 280.42333984 C73.32288491 270.6271794 73.32288491 270.6271794 74.49609375 268.28076172 C62.28609375 268.61076172 50.07609375 268.94076172 37.49609375 269.28076172 C36.3153125 273.56560547 35.13453125 277.85044922 33.91796875 282.26513672 C32.9675785 285.68454444 32.01450822 289.10317975 31.05961609 292.52133179 C30.05310952 296.1270842 29.05135147 299.73400234 28.06103516 303.34423828 C27.10660531 306.82293119 26.13916942 310.29776504 25.16269684 313.77033234 C24.79286674 315.09427618 24.42770235 316.41953271 24.06734467 317.74608612 C23.56093229 319.60710737 23.03619892 321.46311362 22.51074219 323.31884766 C22.0710611 324.90436432 22.0710611 324.90436432 21.62249756 326.52191162 C20.36526339 329.60119862 19.07228755 331.19928149 16.49609375 333.28076172 C13.55859375 333.84326172 13.55859375 333.84326172 10.49609375 333.28076172 C7.55859375 331.28076172 7.55859375 331.28076172 5.49609375 328.28076172 C5.84077432 321.49725664 7.768184 315.13836486 9.62109375 308.63232422 C10.08153076 306.99171524 10.08153076 306.99171524 10.55126953 305.31796265 C11.19749448 303.01948227 11.84647022 300.72177369 12.49804688 298.42480469 C13.49829147 294.89801271 14.49008969 291.36892916 15.48046875 287.83935547 C16.11018889 285.60354083 16.74038057 283.36785893 17.37109375 281.13232422 C17.66902832 280.07405426 17.96696289 279.0157843 18.27392578 277.92544556 C18.68940674 276.46284805 18.68940674 276.46284805 19.11328125 274.97070312 C19.35675293 274.11102936 19.60022461 273.25135559 19.85107422 272.3656311 C20.49609375 270.28076172 20.49609375 270.28076172 21.49609375 268.28076172 C8.95609375 268.28076172 -3.58390625 268.28076172 -16.50390625 268.28076172 C-17.16390625 271.58076172 -17.82390625 274.88076172 -18.50390625 278.28076172 C-19.56343052 282.62840618 -20.72586843 286.94464467 -21.90795898 291.26049805 C-22.44644807 293.23676532 -22.97026798 295.21659237 -23.49414062 297.19677734 C-23.83638672 298.45039063 -24.17863281 299.70400391 -24.53125 300.99560547 C-24.83796631 302.13118896 -25.14468262 303.26677246 -25.46069336 304.43676758 C-26.48615095 307.23235745 -27.08755495 308.58564421 -29.50390625 310.28076172 C-32.6001104 310.6739305 -34.54615607 310.89844449 -37.50390625 310.28076172 C-40.06640625 308.28076172 -40.06640625 308.28076172 -41.50390625 305.28076172 C-41.13433994 297.51986924 -38.6216303 290.19292159 -36.44140625 282.78076172 C-34.49234375 276.09826172 -34.49234375 276.09826172 -32.50390625 269.28076172 C-44.71390625 268.95076172 -56.92390625 268.62076172 -69.50390625 268.28076172 C-70.82390625 273.89076172 -72.14390625 279.50076172 -73.50390625 285.28076172 C-75.15376335 291.76014099 -76.8875714 298.21282415 -78.65795898 304.66015625 C-79.18559369 306.59344663 -79.70596554 308.52873217 -80.21948242 310.46582031 C-80.97387964 313.3098479 -81.75002761 316.14712675 -82.53125 318.98388672 C-82.75538071 319.84532288 -82.97951141 320.70675903 -83.21043396 321.59429932 C-84.65159086 326.70998585 -86.16663399 329.89817113 -90.50390625 333.28076172 C-94.18845852 333.95751622 -95.74707133 333.77867943 -98.87890625 331.71826172 C-101.03187365 328.48881062 -100.93394683 326.01382055 -100.50390625 322.28076172 C-99.58877361 318.06383545 -98.41097322 313.93175925 -97.22265625 309.78466797 C-96.88971558 308.59598618 -96.5567749 307.40730438 -96.21374512 306.18260193 C-95.15227499 302.40037618 -94.07828089 298.62183974 -93.00390625 294.84326172 C-92.2794002 292.27411713 -91.55775579 289.70417962 -90.8359375 287.13427734 C-89.06961234 280.84656584 -87.28638579 274.56400208 -85.50390625 268.28076172 C-97.71390625 268.28076172 -109.92390625 268.28076172 -122.50390625 268.28076172 C-124.48390625 276.20076172 -124.48390625 276.20076172 -126.50390625 284.28076172 C-127.48702435 288.20340296 -128.48097265 292.11888377 -129.50390625 296.03076172 C-129.73851562 296.97435547 -129.973125 297.91794922 -130.21484375 298.89013672 C-132.49761033 307.53028548 -132.49761033 307.53028548 -136.50390625 310.28076172 C-140.00390625 310.84326172 -140.00390625 310.84326172 -143.50390625 310.28076172 C-146.00390625 308.34326172 -146.00390625 308.34326172 -147.50390625 305.28076172 C-147.17433734 297.10069235 -144.75376662 289.52812092 -142.44140625 281.71826172 C-141.14203125 277.28388672 -139.84265625 272.84951172 -138.50390625 268.28076172 C-150.71390625 268.61076172 -162.92390625 268.94076172 -175.50390625 269.28076172 C-176.62410156 273.32583984 -177.74429688 277.37091797 -178.8984375 281.53857422 C-179.79830122 284.77450989 -180.69940297 288.01009511 -181.60134125 291.24545288 C-182.55132226 294.65445424 -183.49913947 298.06402269 -184.44165039 301.47509766 C-185.52458979 305.39400891 -186.61751141 309.31007582 -187.7109375 313.22607422 C-188.04543411 314.44191193 -188.37993073 315.65774963 -188.7245636 316.91043091 C-189.04466904 318.05116058 -189.36477448 319.19189026 -189.69458008 320.3671875 C-189.97215652 321.36646271 -190.24973297 322.36573792 -190.53572083 323.39529419 C-193.31821461 331.6879159 -193.31821461 331.6879159 -196.50390625 333.28076172 C-200.49649746 333.81310721 -202.06900702 333.57686333 -205.44140625 331.28076172 C-207.78214209 327.87605504 -207.61114695 326.62217663 -206.99145508 322.67422485 C-206.02704147 317.93974848 -204.70539609 313.31115891 -203.37890625 308.66748047 C-203.07194824 307.57611282 -202.76499023 306.48474518 -202.44873047 305.36030579 C-201.47252272 301.89474037 -200.48824998 298.43152392 -199.50390625 294.96826172 C-198.84193393 292.62140143 -198.18047027 290.2743976 -197.51953125 287.92724609 C-196.31159896 283.64538481 -195.10253039 279.36385986 -193.88671875 275.08422852 C-193.64324707 274.22677536 -193.39977539 273.3693222 -193.14892578 272.48588562 C-192.63807374 270.7394392 -192.07932305 269.00701211 -191.50390625 267.28076172 C-192.05175781 267.26658203 -192.59960938 267.25240234 -193.1640625 267.23779297 C-212.80595894 266.05608538 -229.03493163 255.88737549 -242.50390625 242.28076172 C-243.23222656 241.57435547 -243.96054688 240.86794922 -244.7109375 240.14013672 C-261.27190566 223.02386983 -266.0537976 200.43876377 -265.78515625 177.42919922 C-265.13421494 156.20200322 -255.19409161 137.21335938 -240.50390625 122.28076172 C-239.74335938 121.50732422 -238.9828125 120.73388672 -238.19921875 119.93701172 C-222.88843291 105.27881675 -202.44365858 97.77115248 -181.37890625 98.15576172 C-179.94417969 98.16929687 -179.94417969 98.16929687 -178.48046875 98.18310547 C-176.154671 98.20636345 -173.82943331 98.23903959 -171.50390625 98.28076172 C-171.6639917 97.40637451 -171.82407715 96.5319873 -171.98901367 95.63110352 C-176.16657777 68.44821487 -169.66525621 41.95961436 -154.50390625 19.28076172 C-138.78659065 -1.9260575 -118.20035705 -16.36204342 -92.50390625 -22.71923828 C-91.63765625 -22.94353516 -90.77140625 -23.16783203 -89.87890625 -23.39892578 C-57.9911583 -30.16580253 -24.70894342 -20.64983707 0 0 Z " fill="#BDDCFB" transform="translate(290.50390625,49.71923828125)"/>
<path d="M0 0 C19.24024328 0.4483955 37.89013137 9.17912426 52 22 C52.90363281 22.81082031 53.80726563 23.62164062 54.73828125 24.45703125 C64.73084592 33.89675694 74.05090318 46.65892074 78 60 C77.61461794 66.38538206 77.61461794 66.38538206 75 69 C69.31441048 69.73362445 69.31441048 69.73362445 67 69 C63.88976609 65.04852187 61.8198974 60.72202525 59.6875 56.1875 C56.77571504 50.16949363 53.33023322 45.07717321 49 40 C48.38253906 39.18402344 47.76507813 38.36804688 47.12890625 37.52734375 C35.92538406 24.22701557 17.50385831 17.143096 0.875 14 C-2.01717998 13.40033699 -2.83879641 13.15143367 -5.0625 11.0625 C-6 9 -6 9 -6 6 C-4.02 6 -2.04 6 0 6 C0 4.02 0 2.04 0 0 Z " fill="#5A94D4" transform="translate(119,142)"/>
<path d="M0 0 C8.6779722 7.21641899 14.71670385 15.48291775 16.0703125 26.96484375 C16.28152889 33.78713313 16.28152889 33.78713313 15.625 37.1875 C13.42145598 39.38646285 12.18932587 40.08874297 9.125 40.625 C6.625 40.1875 6.625 40.1875 4.4375 38.8125 C2.15559248 35.50766842 1.77736035 32.61864086 1.1015625 28.70703125 C-0.39059527 20.81816435 -4.8075904 14.31718374 -11.41015625 9.79296875 C-17.45524618 6.68814035 -23.70591597 6.03851923 -30.375 7.1875 C-33.61216595 8.54514778 -36.57051506 10.08069904 -39.5859375 11.875 C-42.800751 13.38785341 -44.86199092 13.58926673 -48.375 13.1875 C-50.8125 11.0625 -50.8125 11.0625 -52.375 8.1875 C-52.2267342 4.57651047 -51.96492792 2.79030333 -49.40625 0.17578125 C-33.56560469 -10.31131264 -16.12424754 -11.29625787 0 0 Z " fill="#5A94D4" transform="translate(438.375,211.8125)"/>
<path d="M0 0 C3.68938309 3.36429401 5.18942058 6.54928015 5.90625 11.484375 C6.11463553 18.04851914 5.47152827 22.5642657 1.40234375 27.83984375 C-2.78943171 31.91111643 -7.76261935 33.8114763 -13.5625 34.1875 C-21.07161633 33.23396142 -25.62658569 30.17568262 -30.37109375 24.37109375 C-33.33374716 19.95274213 -33.03697315 14.78496345 -32.5 9.6875 C-30.73930653 3.872181 -27.60832389 0.02755793 -22.5 -3.3125 C-14.65976515 -6.84398509 -6.54417736 -5.42977034 0 0 Z " fill="#5793D3" transform="translate(410.5,407.3125)"/>
<path d="M0 0 C4.31127569 4.20959466 6.17071079 8.76105248 6.5 14.75 C6.28294499 20.28962131 4.41100525 24.77740119 0.63671875 28.8515625 C-4.19680966 33.12305273 -8.42772298 34.74886376 -14.88671875 34.56640625 C-20.39724809 33.88415024 -25.01741525 31.1236935 -28.9375 27.3125 C-33.09017284 21.727871 -32.69283828 14.96626644 -31.9375 8.3125 C-29.50436273 3.07189664 -25.45668859 -1.08717933 -20.125 -3.51171875 C-13.09873531 -5.73575818 -5.80954332 -4.57164485 0 0 Z " fill="#5793D4" transform="translate(303.9375,406.6875)"/>
<path d="M0 0 C3.53912206 3.24598265 5.32795014 5.7584769 5.93359375 10.578125 C6.08090355 17.89162331 5.72011985 23.15765363 0.5625 28.625 C-4.65850558 32.78049424 -8.63187169 34.01385131 -15.28515625 33.90234375 C-20.54266413 33.22487903 -24.83778409 30.63094591 -28.3125 26.6875 C-32.2057754 21.0766031 -33.34198789 16.3973531 -32.4375 9.625 C-30.6158401 3.83915976 -27.58107922 -0.07534541 -22.4375 -3.375 C-14.18787028 -6.62815587 -6.80170157 -5.70900944 0 0 Z " fill="#5793D4" transform="translate(197.4375,407.375)"/>
<path d="M0 0 C4.31127569 4.20959466 6.17071079 8.76105248 6.5 14.75 C6.28294499 20.28962131 4.41100525 24.77740119 0.63671875 28.8515625 C-4.19359479 33.12021168 -8.42956816 34.75706574 -14.88671875 34.5625 C-20.98671342 33.8188816 -25.03592691 30.86433528 -28.9375 26.3125 C-32.82425455 20.80157024 -32.56884859 15.84829179 -31.9375 9.3125 C-30.21852092 3.85221352 -26.66368523 0.3873675 -21.9375 -2.6875 C-14.67776926 -6.1215635 -6.27115765 -4.93489832 0 0 Z " fill="#5793D4" transform="translate(90.9375,406.6875)"/>
<path d="M0 0 C2.99948609 2.10774698 3.87017778 3.32203951 4.5625 6.9375 C3.52665637 12.57709308 -1.03594196 15.03410059 -5.375 18.3125 C-17.07896871 27.381138 -24.41516197 40.38818835 -27 55 C-27.16823332 56.97738858 -27.31436074 58.95679185 -27.4375 60.9375 C-27.68955112 64.33049585 -27.84656989 65.75564835 -29.6875 68.6875 C-32.78469427 70.44536702 -34.49549702 70.65709431 -38 70 C-40.76453481 67.89022343 -41.79870322 66.18518613 -42.3828125 62.74609375 C-43.13568055 45.90694512 -34.90344642 27.79425268 -24.06640625 15.17578125 C-7.80123322 -1.95030831 -7.80123322 -1.95030831 0 0 Z " fill="#5A94D4" transform="translate(192,66)"/>
<path d="M0 0 C-2.1558651 7.86951532 -4.31984878 15.73673362 -6.49413776 23.60117626 C-7.50357103 27.25330159 -8.51022535 30.90614512 -9.51049805 34.56079102 C-10.47651378 38.08986948 -11.4498688 41.61684855 -12.42827415 45.14251137 C-12.79965697 46.48574445 -13.16842143 47.82970439 -13.53447914 49.17439842 C-14.04893819 51.06244341 -14.57371008 52.94766905 -15.09887695 54.83276367 C-15.39421829 55.90531906 -15.68955963 56.97787445 -15.99385071 58.08293152 C-18.45879516 65.22939758 -18.45879516 65.22939758 -22 67 C-25.15863501 67.27466391 -27.41353643 67.23149878 -30.375 66.0625 C-32.98987365 62.7436219 -32.36500382 59.02443789 -32 55 C-31.21725733 51.04319703 -30.13043694 47.19664174 -29.0078125 43.32421875 C-28.70181122 42.23663773 -28.39580994 41.1490567 -28.08053589 40.02851868 C-27.43531637 37.74361165 -26.78451244 35.46027494 -26.12841797 33.1784668 C-25.12405372 29.6842078 -24.13676625 26.18547053 -23.15234375 22.68554688 C-22.52181896 20.46065794 -21.89034162 18.23603869 -21.2578125 16.01171875 C-20.81394699 14.44450325 -20.81394699 14.44450325 -20.3611145 12.84562683 C-20.08097504 11.87394058 -19.80083557 10.90225433 -19.51220703 9.90112305 C-19.26793976 9.04890671 -19.02367249 8.19669037 -18.77200317 7.31864929 C-18.01511638 5.04540084 -17.25450369 3.04331851 -16 1 C-13.3203125 0.13671875 -13.3203125 0.13671875 -10.125 -0.3125 C-9.07570313 -0.47363281 -8.02640625 -0.63476562 -6.9453125 -0.80078125 C-4.23521971 -0.98408991 -2.56337344 -0.72338274 0 0 Z " fill="#5793D4" transform="translate(435,316)"/>
<path d="M0 0 C5.28 0.33 10.56 0.66 16 1 C14.12113721 8.017797 12.23595769 15.03382569 10.33997726 22.047019 C9.45959963 25.30449212 8.58188061 28.56263093 7.71044922 31.82250977 C6.70448072 35.58018238 5.68907299 39.33519753 4.671875 43.08984375 C4.36441345 44.24645004 4.0569519 45.40305634 3.74017334 46.5947113 C0.23209422 59.4626729 0.23209422 59.4626729 -3 65 C-5.88861709 66.44430855 -7.79647701 66.37688506 -11 66 C-13.9375 64 -13.9375 64 -16 61 C-15.65602033 54.22598916 -13.7304174 47.88202807 -11.875 41.38671875 C-11.56804199 40.2953511 -11.26108398 39.20398346 -10.94482422 38.07954407 C-9.96861647 34.61397865 -8.98434373 31.1507622 -8 27.6875 C-7.33802768 25.34063971 -6.67656402 22.99363588 -6.015625 20.64648438 C-4.80769271 16.36462309 -3.59862414 12.08309814 -2.3828125 7.8034668 C-2.01760498 6.51728706 -2.01760498 6.51728706 -1.64501953 5.2051239 C-1.13416749 3.45867748 -0.5754168 1.72625039 0 0 Z " fill="#5893D3" transform="translate(99,317)"/>
<path d="M0 0 C5.28 0 10.56 0 16 0 C14.08374716 7.04464175 12.16301227 14.08804101 10.23828125 21.13037109 C9.58538284 23.52164378 8.93366776 25.91323992 8.28320312 28.30517578 C7.34302732 31.76161964 6.39847056 35.21684199 5.453125 38.671875 C5.02474335 40.25231598 5.02474335 40.25231598 4.58770752 41.86468506 C3.13658953 47.1519072 1.61260698 52.41389592 -0.02832031 57.64550781 C-0.33360657 58.62481262 -0.63889282 59.60411743 -0.95343018 60.61309814 C-2 63 -2 63 -5 65 C-9.01671881 65.61123982 -10.54536823 65.30953652 -13.9375 63 C-16.27807598 59.59552585 -16.10717544 58.34317074 -15.48754883 54.39569092 C-14.5216191 49.64935797 -13.20108654 45.00779193 -11.875 40.3515625 C-11.41456299 38.71095352 -11.41456299 38.71095352 -10.94482422 37.03720093 C-10.29859927 34.73872055 -9.64962353 32.44101197 -8.99804688 30.14404297 C-7.99780228 26.61725099 -7.00600406 23.08816744 -6.015625 19.55859375 C-5.38590486 17.32277911 -4.75571318 15.08709721 -4.125 12.8515625 C-3.82706543 11.79329254 -3.52913086 10.73502258 -3.22216797 9.64468384 C-2.80668701 8.18208633 -2.80668701 8.18208633 -2.3828125 6.68994141 C-2.13934082 5.83026764 -1.89586914 4.97059387 -1.64501953 4.08486938 C-1 2 -1 2 0 0 Z " fill="#5793D4" transform="translate(312,318)"/>
<path d="M0 0 C5.28 0 10.56 0 16 0 C13.2044469 12.20121496 10.16047046 24.30868644 6.84594727 36.37939453 C6.31831256 38.31268491 5.79794071 40.24797045 5.28442383 42.18505859 C4.53002661 45.02908618 3.75387864 47.86636503 2.97265625 50.703125 C2.74852554 51.56456116 2.52439484 52.42599731 2.29347229 53.3135376 C0.85231539 58.42922413 -0.66272774 61.61740941 -5 65 C-8.68455227 65.6767545 -10.24316508 65.49791771 -13.375 63.4375 C-15.5279674 60.2080489 -15.43004058 57.73305883 -15 54 C-14.08486736 49.78307373 -12.90706697 45.65099753 -11.71875 41.50390625 C-11.38580933 40.31522446 -11.05286865 39.12654266 -10.70983887 37.90184021 C-9.64836874 34.11961446 -8.57437464 30.34107802 -7.5 26.5625 C-6.77549395 23.99335541 -6.05384954 21.4234179 -5.33203125 18.85351562 C-3.56418405 12.56629186 -1.78509914 6.28234626 0 0 Z " fill="#5793D4" transform="translate(205,318)"/>
<path d="M0 0 C5.50874817 0.2547398 5.50874817 0.2547398 7.68852234 1.87493896 C10.08967698 5.10855321 9.37280167 8.74618347 8.96484375 12.59375 C8.25044082 16.3157695 7.2637475 19.93434856 6.2265625 23.578125 C5.94512894 24.59674622 5.66369537 25.61536743 5.37373352 26.66485596 C4.77984869 28.80432245 4.18032285 30.94223033 3.57543945 33.07861328 C2.65224426 36.34410192 1.7496497 39.61478148 0.84960938 42.88671875 C0.26813607 44.97169172 -0.31450609 47.05633913 -0.8984375 49.140625 C-1.30175041 50.60166656 -1.30175041 50.60166656 -1.71321106 52.09222412 C-4.19836048 60.80360085 -4.19836048 60.80360085 -7.03515625 64.59375 C-10.1637612 66.15805248 -12.5911855 65.95002284 -16.03515625 65.59375 C-18.53515625 63.59375 -18.53515625 63.59375 -20.03515625 60.59375 C-19.60608221 54.08514535 -17.95660738 47.9791053 -16.234375 41.70703125 C-15.95672806 40.68699509 -15.67908112 39.66695892 -15.39302063 38.61601257 C-14.80674924 36.47129823 -14.21743629 34.32741325 -13.62524414 32.18432617 C-12.72354214 28.90946742 -11.84095892 25.62982811 -10.95898438 22.34960938 C-10.385279 20.26009661 -9.81044753 18.17089264 -9.234375 16.08203125 C-8.97379807 15.10486649 -8.71322113 14.12770172 -8.44474792 13.1209259 C-5.18695963 1.51327805 -5.18695963 1.51327805 0 0 Z " fill="#5793D4" transform="translate(141.03515625,372.40625)"/>
<path d="M0 0 C3.18153523 0.10421214 5.41430654 0.19879905 7.96484375 2.19140625 C10.7856283 9.0670686 7.95049957 16.32185023 6.04296875 23.109375 C5.74171082 24.19978592 5.44045288 25.29019684 5.13006592 26.41365051 C4.49237025 28.71024113 3.84995784 31.00552665 3.203125 33.29956055 C2.21648464 36.81056707 1.25398971 40.32760978 0.29296875 43.84570312 C-0.33057657 46.0798336 -0.95552884 48.31357196 -1.58203125 50.546875 C-1.86761902 51.59795944 -2.15320679 52.64904388 -2.44744873 53.73197937 C-2.86743134 55.19919182 -2.86743134 55.19919182 -3.29589844 56.69604492 C-3.53572449 57.55429367 -3.77555054 58.41254242 -4.02264404 59.29679871 C-5.25148178 62.12716632 -6.65402134 63.68019621 -9.03515625 65.62890625 C-12.53515625 66.19140625 -12.53515625 66.19140625 -16.03515625 65.62890625 C-18.53515625 63.62890625 -18.53515625 63.62890625 -20.03515625 60.62890625 C-19.60608221 54.1203016 -17.95660738 48.01426155 -16.234375 41.7421875 C-15.95672806 40.72215134 -15.67908112 39.70211517 -15.39302063 38.65116882 C-14.80674924 36.50645448 -14.21743629 34.3625695 -13.62524414 32.21948242 C-12.72354214 28.94462367 -11.84095892 25.66498436 -10.95898438 22.38476562 C-10.385279 20.29525286 -9.81044753 18.20604889 -9.234375 16.1171875 C-8.97379807 15.14002274 -8.71322113 14.16285797 -8.44474792 13.15608215 C-5.20369145 1.60805053 -5.20369145 1.60805053 0 0 Z " fill="#5793D4" transform="translate(354.03515625,372.37109375)"/>
<path d="M0 0 C3.204964 0.18330975 3.97852352 0.49695738 6.625 2.5625 C9.76861659 9.12309115 6.10049094 17.75272675 4.26171875 24.44921875 C3.98407181 25.46925491 3.70642487 26.48929108 3.42036438 27.54023743 C2.83409299 29.68495177 2.24478004 31.82883675 1.65258789 33.97192383 C0.75088589 37.24678258 -0.13169733 40.52642189 -1.01367188 43.80664062 C-1.58737725 45.89615339 -2.16220872 47.98535736 -2.73828125 50.07421875 C-2.99885818 51.05138351 -3.25943512 52.02854828 -3.52790833 53.0353241 C-4.90818378 57.95330832 -6.08424364 61.97485691 -9.9375 65.5625 C-13.87061127 66.19460717 -15.96217068 66.16270266 -19.375 64.0625 C-21.96083628 59.92516195 -21.35611574 55.60425701 -20.40853882 50.98254395 C-19.65338859 48.03817682 -18.83134104 45.12126748 -17.98046875 42.203125 C-17.67683914 41.13632507 -17.37320953 40.06952515 -17.06037903 38.97039795 C-16.41899485 36.72667788 -15.77238548 34.4844456 -15.12084961 32.24365234 C-14.12530518 28.81355147 -13.15041184 25.3780527 -12.17773438 21.94140625 C-11.55070046 19.75746148 -10.92248578 17.57385531 -10.29296875 15.390625 C-9.85684517 13.85151459 -9.85684517 13.85151459 -9.41191101 12.28131104 C-8.99181511 10.84897125 -8.99181511 10.84897125 -8.56323242 9.38769531 C-8.32118576 8.55022766 -8.0791391 7.71276001 -7.82975769 6.84991455 C-6.0326992 2.24292962 -5.03388029 0.71912576 0 0 Z " fill="#5793D4" transform="translate(248.9375,372.4375)"/>
<path d="M0 0 C3.86350725 4.42889856 5.72525834 8.61821633 5.43359375 14.56640625 C4.59906605 19.61116378 3.42939008 23.39285076 -0.4375 26.9375 C-5.67234448 30.64019487 -11.24698091 30.76782298 -17.4375 29.9375 C-22.43980198 27.48182448 -25.93601535 23.9404693 -28.4375 18.9375 C-29.15968508 11.79852291 -28.88710235 6.67514514 -24.4375 0.9375 C-17.15748687 -4.94846806 -7.83131293 -5.65812359 0 0 Z " fill="#5793D4" transform="translate(342.4375,457.0625)"/>
<path d="M0 0 C4.20292706 3.53410684 7.64440028 7.4098105 8.203125 13.05078125 C8.30878583 18.14891633 7.96124966 21.65683383 5 26 C0.82768132 30.20651802 -2.81178721 32.13730428 -8.75 32.3125 C-14.05379863 32.24291664 -16.77509696 31.21092631 -21 28 C-25.11378919 22.6953771 -26.55025047 18.71305576 -26 12 C-24.2080071 6.77984676 -21.80376786 2.90460382 -17 0 C-11.14286412 -2.52660763 -5.84163159 -2.47685179 0 0 Z " fill="#5793D4" transform="translate(233,455)"/>
<path d="M0 0 C3.54158194 3.79455208 5.51695815 6.97640141 5.71875 12.2734375 C5.38879067 17.7672604 4.41211426 21.62674213 0.625 25.8125 C-4.41558353 29.72152396 -8.43790616 30.45152496 -14.7890625 30.19921875 C-19.78158217 29.45260327 -22.41382944 26.8775809 -25.6875 23.25 C-28.86418223 18.661459 -28.88406124 14.20854919 -28.375 8.8125 C-26.66020805 4.11938518 -24.27676237 0.9339099 -20.375 -2.1875 C-13.56427134 -5.33205962 -6.01676791 -4.49768294 0 0 Z " fill="#5793D4" transform="translate(129.375,457.1875)"/>
<path d="M0 0 C0.33 1.65 0.66 3.3 1 5 C2.98 4.67 4.96 4.34 7 4 C7.4375 7.125 7.4375 7.125 7 11 C5.00574068 13.42726364 2.52312759 15.14938846 0 17 C-9.05091542 24.01836819 -13.47810342 32.32194937 -17.921875 42.75 C-19 45 -19 45 -21 47 C-26.95169082 47.5410628 -26.95169082 47.5410628 -29.9375 46 C-32.09355451 41.94154444 -31.51273854 37.87088528 -30.34375 33.60546875 C-27.93040771 26.99998446 -24.28851662 21.53327674 -20 16 C-19.4534375 15.28714844 -18.906875 14.57429688 -18.34375 13.83984375 C-14.59255069 9.24816346 -6.42312471 0 0 0 Z " fill="#5A94D4" transform="translate(324,105)"/>
<path d="M0 0 C5.28 0 10.56 0 16 0 C13.78099291 9.13206765 11.43524948 18.2074 8.875 27.25 C8.62153809 28.15451904 8.36807617 29.05903809 8.10693359 29.9909668 C7.86281738 30.844729 7.61870117 31.69849121 7.3671875 32.578125 C7.15175293 33.33512695 6.93631836 34.09212891 6.71435547 34.87207031 C4.78974218 40.60512891 4.78974218 40.60512891 2 42 C-5.26224784 42.57636888 -5.26224784 42.57636888 -8 40.4375 C-10.23408046 34.99192889 -8.82820395 29.51301804 -7.28515625 24.04296875 C-7.10995956 23.41393143 -6.93476288 22.7848941 -6.7542572 22.13679504 C-6.198752 20.15121625 -5.6306146 18.16950286 -5.0625 16.1875 C-4.68476314 14.83941207 -4.30780297 13.49110625 -3.93164062 12.14257812 C-1.17320884 2.34641768 -1.17320884 2.34641768 0 0 Z " fill="#5893D4" transform="translate(365,318)"/>
<path d="M0 0 C1.39456452 0.00667256 2.78911118 0.01863093 4.18359375 0.03515625 C4.89451172 0.03966797 5.60542969 0.04417969 6.33789062 0.04882812 C8.09899388 0.06064761 9.86005411 0.07858362 11.62109375 0.09765625 C10.22332967 7.8669425 8.30178024 15.46593777 6.21704102 23.07739258 C5.67855193 25.05365985 5.15473202 27.0334869 4.63085938 29.01367188 C4.28861328 30.26728516 3.94636719 31.52089844 3.59375 32.8125 C3.28703369 33.9480835 2.98031738 35.08366699 2.66430664 36.25366211 C1.63884905 39.04925198 1.03744505 40.40253874 -1.37890625 42.09765625 C-4.4751104 42.49082503 -6.42115607 42.71533902 -9.37890625 42.09765625 C-11.94140625 40.09765625 -11.94140625 40.09765625 -13.37890625 37.09765625 C-13.00188651 29.36415371 -10.53546456 22.05353185 -8.37890625 14.66015625 C-8.00603869 13.3562546 -7.63363904 12.05221904 -7.26171875 10.74804688 C-4.19511165 0.121246 -4.19511165 0.121246 0 0 Z " fill="#5892D4" transform="translate(262.37890625,317.90234375)"/>
<path d="M0 0 C5.28 0 10.56 0 16 0 C14.90272717 4.47349693 13.79536037 8.9418355 12.65917969 13.40527344 C12.19811212 15.22017199 11.74073164 17.03600941 11.28613281 18.85253906 C10.53856874 21.82227397 9.77119347 24.78632262 9 27.75 C8.7632959 28.70213379 8.5265918 29.65426758 8.28271484 30.63525391 C6.00500236 39.25041184 6.00500236 39.25041184 2 42 C-1.5 42.5625 -1.5 42.5625 -5 42 C-7.5 40.0625 -7.5 40.0625 -9 37 C-8.67040608 28.81930988 -6.25097703 21.24898115 -3.9375 13.4375 C-3.55595974 12.12975575 -3.17509512 10.82181418 -2.79492188 9.51367188 C-1.86990414 6.34050976 -0.93585876 3.16998171 0 0 Z " fill="#5892D4" transform="translate(152,318)"/>
<path d="M0 0 C12.00389398 1.89177014 12.00389398 1.89177014 16 7 C15.78571429 13.21428571 15.78571429 13.21428571 13 16 C10.7578125 16.23046875 10.7578125 16.23046875 8.125 16.1875 C7.26132813 16.18105469 6.39765625 16.17460938 5.5078125 16.16796875 C3 16 3 16 1.12109375 15.51171875 C-3.07157464 14.50022785 -7.48881672 14.64787509 -11.78515625 14.4765625 C-15 14 -15 14 -16.90625 12.67578125 C-18.7969523 9.77895523 -18.40989977 7.3377553 -18 4 C-13.48065966 -2.12016692 -6.89354004 -0.59476489 0 0 Z " fill="#5A94D5" transform="translate(230,57)"/>
</svg>
