<?xml version="1.0" encoding="UTF-8"?>
<svg version="1.1" xmlns="http://www.w3.org/2000/svg" width="512" height="512">
<path d="M0 0 C10.01514834 6.81083716 15.44419432 14.68955 19.10546875 26.234375 C19.69862981 29.57526743 20.0229529 32.84372373 20.10546875 36.234375 C20.94078125 36.27304688 20.94078125 36.27304688 21.79296875 36.3125 C30.63423781 36.96962135 36.7375329 40.31981385 43.328125 46.1640625 C45.33566828 48.50251951 46.15382761 50.61053911 47.23046875 53.484375 C48.27545116 56.12557136 48.27545116 56.12557136 50.10546875 58.234375 C53.57462787 59.51155587 56.88379865 60.06071755 60.53515625 60.6171875 C70.4937712 62.33869862 78.90080175 68.62509216 84.89453125 76.62109375 C88.44428359 82.19053277 90.5529594 87.83367855 92.10546875 94.234375 C93.01296875 94.151875 93.92046875 94.069375 94.85546875 93.984375 C107.01415511 94.05791544 118.27227818 101.40508787 126.85546875 109.421875 C136.7938275 119.89455411 141.71216853 132.21418777 141.54296875 146.546875 C141.53467041 147.46259277 141.52637207 148.37831055 141.51782227 149.32177734 C141.15688309 163.88522356 135.82196197 175.36270111 125.91796875 185.984375 C111.91152425 199.27620499 96.04362071 201.41287672 77.59716797 201.34790039 C76.49355423 201.34804642 75.38994049 201.34819244 74.25288391 201.3483429 C70.63862071 201.34765137 67.02441034 201.33989484 63.41015625 201.33203125 C60.89096098 201.33016437 58.37176534 201.32874174 55.85256958 201.32774353 C49.92071968 201.32432754 43.98888646 201.31646209 38.0570451 201.30639404 C31.2975732 201.29517305 24.53810035 201.28970744 17.77862144 201.28469861 C3.88756024 201.27427765 -10.00348448 201.25671572 -23.89453125 201.234375 C-24.045271 202.33813477 -24.19601074 203.44189453 -24.35131836 204.57910156 C-26.36752592 218.14613956 -35.6848876 229.55109004 -45.89453125 238.234375 C-57.62139111 246.52086273 -69.42735405 250.54661551 -83.72235107 250.50180054 C-85.32474007 250.50859721 -85.32474007 250.50859721 -86.95950055 250.51553118 C-90.52740673 250.52815839 -94.09515993 250.52655587 -97.66308594 250.52490234 C-100.22604569 250.53088863 -102.78900364 250.53769441 -105.35195923 250.54525757 C-111.58466651 250.56108161 -117.81731807 250.56736552 -124.05004355 250.56848232 C-129.11935873 250.56943449 -134.18866148 250.57355319 -139.25797272 250.57988358 C-153.64835832 250.59748654 -168.03871417 250.60672395 -182.42911062 250.60522263 C-183.59148602 250.60510276 -183.59148602 250.60510276 -184.77734375 250.60498047 C-185.94114775 250.60485783 -185.94114775 250.60485783 -187.12846294 250.60473271 C-199.69729305 250.60392012 -212.26600323 250.62305333 -224.83479866 250.6512572 C-237.75794022 250.68002607 -250.68102337 250.69379529 -263.60419774 250.69206965 C-270.85250368 250.69140712 -278.10068389 250.69683911 -285.34896088 250.71842575 C-292.16819516 250.73860538 -298.98716039 250.73792304 -305.80640793 250.72339249 C-308.30406711 250.72130498 -310.80174294 250.7260017 -313.29937363 250.7381134 C-330.80865949 250.81749722 -344.20866171 250.43077294 -357.89453125 238.234375 C-368.45646695 226.98532452 -371.51862722 215.00643104 -371.2109375 199.91796875 C-370.66764296 188.53151534 -364.65865578 178.35141429 -356.89453125 170.234375 C-348.00469325 163.28918906 -338.95256358 159.067171 -327.64453125 159.171875 C-325.74960937 159.18541016 -325.74960937 159.18541016 -323.81640625 159.19921875 C-322.8521875 159.21082031 -321.88796875 159.22242188 -320.89453125 159.234375 C-320.64445312 158.51765625 -320.394375 157.8009375 -320.13671875 157.0625 C-314.92325176 145.1928456 -303.21390801 136.28404216 -291.58203125 131.296875 C-289.69541176 130.58447962 -287.80036046 129.89365894 -285.89453125 129.234375 C-285.21390625 128.98945313 -284.53328125 128.74453125 -283.83203125 128.4921875 C-279.81477504 127.1829924 -276.09263953 127.06302364 -271.89453125 127.234375 C-271.70890625 126.038125 -271.52328125 124.841875 -271.33203125 123.609375 C-266.72486751 103.11877264 -249.9636896 84.40207164 -232.89453125 73.234375 C-209.69498892 58.79085202 -182.50737472 54.54618711 -155.88037109 60.69433594 C-152.61957554 61.58109273 -149.54066737 62.81269942 -146.39453125 64.046875 C-141.43535539 65.92134215 -138.40035943 66.77254704 -133.375 65 C-130.89453125 64.234375 -130.89453125 64.234375 -127.2578125 63.90625 C-123.19494939 63.52690895 -119.67644983 62.87349095 -115.89453125 61.234375 C-113.38003833 57.84715429 -111.90816911 54.5732252 -110.3515625 50.6875 C-106.92794419 42.57361639 -99.61474944 37.97544989 -91.89453125 34.234375 C-84.05625953 31.13633595 -76.26453613 30.59337315 -67.89453125 31.234375 C-67.23453125 31.564375 -66.57453125 31.894375 -65.89453125 32.234375 C-65.85328125 30.996875 -65.81203125 29.759375 -65.76953125 28.484375 C-64.57744577 18.35959566 -58.97227691 10.28423114 -51.69140625 3.43359375 C-36.94172899 -8.164267 -16.06707914 -9.80070145 0 0 Z " fill="#D3EFFD" transform="translate(370.89453125,5.765625)"/>
<path d="M0 0 C1.546875 1.02480469 1.546875 1.02480469 3.125 2.0703125 C8.12814977 5.40909355 12.88275564 8.61972849 16.9375 13.125 C18.43764455 14.8047862 18.43764455 14.8047862 20 16 C23.10293293 16.24677006 23.10293293 16.24677006 26 15 C30.26901005 13.48805894 33.47191557 12.90566491 38 13 C38.48444764 14.99872739 38.9622766 16.99905937 39.4375 19 C39.70433594 20.11375 39.97117187 21.2275 40.24609375 22.375 C44.15597573 41.17484706 43.53651347 62.35389349 39 81 C38.83902832 81.68884277 38.67805664 82.37768555 38.51220703 83.08740234 C30.92884897 114.59366904 10.33955911 144.41401333 -17 162 C-17.82854492 162.53850586 -17.82854492 162.53850586 -18.67382812 163.08789062 C-30.35793394 170.61650766 -43.90761355 179.09161611 -58.1328125 179.14717102 C-59.3915065 179.15432632 -60.6502005 179.16148163 -61.94703674 179.16885376 C-63.33969091 179.17169389 -64.73234535 179.17440564 -66.125 179.17700195 C-67.59378723 179.18326963 -69.06257288 179.1899167 -70.53135681 179.19691467 C-75.3542267 179.21792982 -80.1770968 179.22831802 -85 179.23828125 C-86.66391008 179.24233044 -88.32781999 179.24644741 -89.99172974 179.25063133 C-97.81389974 179.26968126 -105.63606035 179.28390996 -113.45824909 179.2922433 C-122.46700088 179.30200061 -131.47550597 179.32828143 -140.48417091 179.36874419 C-147.45933036 179.39899015 -154.43441946 179.41372038 -161.40964317 179.41702431 C-165.56951224 179.41936609 -169.72911772 179.42821131 -173.88891602 179.45348549 C-177.80915917 179.47691876 -181.7289681 179.48093892 -185.64926338 179.47072411 C-187.07941706 179.47023224 -188.50959323 179.47644847 -189.9396801 179.49028015 C-204.17724967 179.62015438 -215.24929984 176.58067128 -226 167 C-236.5619357 155.75094952 -239.62409597 143.77205604 -239.31640625 128.68359375 C-238.77311171 117.29714034 -232.76412453 107.11703929 -225 99 C-216.110162 92.05481406 -207.05803233 87.832796 -195.75 87.9375 C-193.85507813 87.95103516 -193.85507813 87.95103516 -191.921875 87.96484375 C-190.47554687 87.98224609 -190.47554687 87.98224609 -189 88 C-188.62488281 86.92492187 -188.62488281 86.92492187 -188.2421875 85.828125 C-183.02872051 73.9584706 -171.31937676 65.04966716 -159.6875 60.0625 C-157.80088051 59.35010462 -155.90582921 58.65928394 -154 58 C-152.9790625 57.63261719 -152.9790625 57.63261719 -151.9375 57.2578125 C-147.92024379 55.9486174 -144.19810828 55.82864864 -140 56 C-139.7215625 54.205625 -139.7215625 54.205625 -139.4375 52.375 C-134.83033626 31.88439764 -118.06915835 13.16769664 -101 2 C-71.93907691 -16.09268927 -29.18309108 -20.70711977 0 0 Z " fill="#E5F7FE" transform="translate(239,77)"/>
<path d="M0 0 C4.69815568 1.82706054 4.69815568 1.82706054 6.8659668 3.0690918 C9.4188867 4.1827268 11.12200662 4.15795973 13.89453125 4.01953125 C14.84287842 3.98674072 15.79122559 3.9539502 16.76831055 3.92016602 C18.27518433 3.86687134 18.27518433 3.86687134 19.8125 3.8125 C38.46548245 3.50824078 53.80112212 10.22673372 67.390625 23.12890625 C75.20702517 31.72928668 82.17542487 42.57274276 83.546875 54.265625 C84.67584161 63.75627931 85.6448656 69.00212649 93.23828125 75.46484375 C106.45289461 87.59537284 115.24729978 108.46206849 116.16308594 126.14990234 C116.33169965 133.4492106 116.15888353 140.69135757 116 148 C106.76 148 97.52 148 88 148 C88.0825 144.49375 88.165 140.9875 88.25 137.375 C88.39337098 118.83843502 83.03837355 104.17513864 69.96875 90.75 C65.82339297 86.73729439 61.03955062 83.76834116 56 81 C56.15726562 80.33097656 56.31453125 79.66195312 56.4765625 78.97265625 C58.65258219 66.61481306 57.33999373 55.97915922 50.30859375 45.47265625 C44.73759936 38.48274471 37.37859561 34.7928652 29 32 C26.25647531 31.85061436 23.55678565 31.76202605 20.8125 31.75 C20.04454102 31.74605225 19.27658203 31.74210449 18.48535156 31.73803711 C12.9871595 31.79479793 9.04431768 32.76885949 4 35 C1.4375 35.125 1.4375 35.125 -1 34 C-2.00674616 33.02777085 -2.98170808 32.02236449 -3.9375 31 C-10.31641876 24.18455479 -19.05288138 19.73828205 -27 15 C-24.77615546 12.77615546 -23.53607885 12.37542161 -20.5625 11.5 C-19.67433594 11.23574219 -18.78617188 10.97148438 -17.87109375 10.69921875 C-14.94986392 9.98778999 -12.10935909 9.65299735 -9.125 9.3125 C-5.21916053 8.70478031 -5.21916053 8.70478031 -2.41796875 6.09765625 C-1.41651581 4.08413425 -0.62708388 2.15716854 0 0 Z " fill="#B2E5FB" transform="translate(259,59)"/>
<path d="M0 0 C2.07287297 0.00097067 4.14201837 -0.0406276 6.21435547 -0.08496094 C17.38356083 -0.10683989 17.38356083 -0.10683989 20.78857422 2.42285156 C23.99815751 6.50212839 26.60614507 10.69660263 29.08544922 15.25097656 C29.58302734 16.10691406 30.08060547 16.96285156 30.59326172 17.84472656 C33.6507397 23.38850532 35.7486613 28.16338555 34.21044922 34.50097656 C32.44978952 38.54298325 30.24134329 42.21046282 27.89794922 45.93847656 C27.30304688 46.93041016 26.70814453 47.92234375 26.09521484 48.94433594 C21.67321193 56.19246809 21.67321193 56.19246809 18.21044922 58.50097656 C13.82042403 58.91148497 9.42101029 58.87257951 5.01416016 58.87158203 C2.84961844 58.87594798 0.68712921 58.91225318 -1.47705078 58.95019531 C-2.85985634 58.95606544 -4.24267154 58.96003352 -5.62548828 58.96191406 C-7.5056665 58.97424072 -7.5056665 58.97424072 -9.42382812 58.98681641 C-13.43606704 58.40765237 -14.95798929 57.35561391 -17.78955078 54.50097656 C-20.18823449 51.26063098 -22.10905385 47.75264553 -24.10205078 44.25097656 C-24.65183594 43.33445312 -25.20162109 42.41792969 -25.76806641 41.47363281 C-30.79617355 32.71660646 -30.79617355 32.71660646 -30.37817383 27.61376953 C-29.01072083 22.70545835 -26.20751289 18.48178175 -23.53955078 14.18847656 C-22.95302734 13.20041016 -22.36650391 12.21234375 -21.76220703 11.19433594 C-15.56596738 0.96705949 -11.94864406 -0.03951831 0 0 Z " fill="#90DAFA" transform="translate(322.78955078125,453.4990234375)"/>
<path d="M0 0 C2.07287297 0.00097067 4.14201837 -0.0406276 6.21435547 -0.08496094 C17.3831658 -0.10683912 17.3831658 -0.10683912 20.78857422 2.45800781 C23.90568286 6.37450399 26.57840594 10.35905807 29.08544922 14.68847656 C29.58302734 15.48833984 30.08060547 16.28820312 30.59326172 17.11230469 C33.97195962 22.89043502 35.61618265 27.82309909 34.21044922 34.50097656 C32.68582321 38.22127383 30.69898869 41.50349804 28.52294922 44.87597656 C27.72727539 46.18888672 27.72727539 46.18888672 26.91552734 47.52832031 C24.12929258 52.00680809 21.72542492 55.60007546 17.21044922 58.50097656 C13.96826172 59.01855469 13.96826172 59.01855469 10.33544922 59.03222656 C9.02060547 59.03738281 7.70576172 59.04253906 6.35107422 59.04785156 C5.33110352 59.0352832 5.33110352 59.0352832 4.29052734 59.02246094 C2.21577028 59.00103152 0.14447461 59.02228715 -1.93017578 59.04785156 C-3.24501953 59.04269531 -4.55986328 59.03753906 -5.91455078 59.03222656 C-7.11337891 59.02771484 -8.31220703 59.02320313 -9.54736328 59.01855469 C-14.33165766 58.25479685 -16.62863505 56.06924008 -19.45874023 52.24609375 C-21.02490245 49.59089939 -22.57718269 46.93014941 -24.10205078 44.25097656 C-24.65183594 43.33445312 -25.20162109 42.41792969 -25.76806641 41.47363281 C-30.79617355 32.71660646 -30.79617355 32.71660646 -30.37817383 27.61376953 C-29.01072083 22.70545835 -26.20751289 18.48178175 -23.53955078 14.18847656 C-22.95302734 13.20041016 -22.36650391 12.21234375 -21.76220703 11.19433594 C-15.56596738 0.96705949 -11.94864406 -0.03951831 0 0 Z " fill="#90DAFA" transform="translate(411.78955078125,337.4990234375)"/>
<path d="M0 0 C1.31484375 -0.00515625 2.6296875 -0.0103125 3.984375 -0.015625 C5.0043457 -0.00305664 5.0043457 -0.00305664 6.04492188 0.00976562 C8.11967894 0.03119504 10.19097461 0.00993941 12.265625 -0.015625 C13.58046875 -0.01046875 14.8953125 -0.0053125 16.25 0 C17.44882812 0.00451172 18.64765625 0.00902344 19.8828125 0.01367188 C24.66710688 0.77742971 26.96408427 2.96298648 29.79418945 6.78613281 C31.36035167 9.44132718 32.91263191 12.10207715 34.4375 14.78125 C34.98728516 15.69777344 35.53707031 16.61429687 36.10351562 17.55859375 C41.75630811 27.4035814 41.75630811 27.4035814 40.125 33.53125 C38.52829511 37.30720672 36.54418379 40.7692871 34.4375 44.28125 C33.90705078 45.21324219 33.37660156 46.14523437 32.83007812 47.10546875 C30.07865984 51.8115756 27.81518628 55.54258654 23.125 58.53125 C18.84478182 59.23895161 14.59436759 59.14835696 10.26000977 59.10766602 C8.1957851 59.09380563 6.13610739 59.12788289 4.07226562 59.16601562 C-7.02208827 59.14966031 -7.02208827 59.14966031 -10.44921875 56.609375 C-13.67450599 52.51673998 -16.27121488 48.29574589 -18.75 43.71875 C-19.24757812 42.85443359 -19.74515625 41.99011719 -20.2578125 41.09960938 C-23.09834316 35.9296875 -25.38118128 31.45459752 -23.875 25.53125 C-22.28228586 21.75366813 -20.29408848 18.29305401 -18.1875 14.78125 C-17.39182617 13.38326172 -17.39182617 13.38326172 -16.58007812 11.95703125 C-12.24786252 4.54708211 -9.16705829 0.03449968 0 0 Z " fill="#90D9FA" transform="translate(247.875,337.46875)"/>
<path d="M0 0 C1.31484375 -0.00515625 2.6296875 -0.0103125 3.984375 -0.015625 C5.0043457 -0.00305664 5.0043457 -0.00305664 6.04492188 0.00976562 C8.11967894 0.03119504 10.19097461 0.00993941 12.265625 -0.015625 C13.58046875 -0.01046875 14.8953125 -0.0053125 16.25 0 C17.44882813 0.00451172 18.64765625 0.00902344 19.8828125 0.01367188 C24.66710688 0.77742971 26.96408427 2.96298648 29.79418945 6.78613281 C31.36035167 9.44132718 32.91263191 12.10207715 34.4375 14.78125 C34.98728516 15.69777344 35.53707031 16.61429687 36.10351562 17.55859375 C41.75630811 27.4035814 41.75630811 27.4035814 40.125 33.53125 C38.52829511 37.30720672 36.54418379 40.7692871 34.4375 44.28125 C33.90705078 45.21324219 33.37660156 46.14523437 32.83007812 47.10546875 C30.07885891 51.81123512 27.81830506 55.54797671 23.125 58.53125 C18.71267436 59.28281603 14.29964743 59.23240352 9.83276367 59.2175293 C7.69512883 59.21874566 5.56432215 59.27855801 3.42773438 59.34179688 C-6.3294184 59.4736561 -6.3294184 59.4736561 -9.99511719 57.23852539 C-11.6171547 55.42926944 -12.72314019 53.66863697 -13.875 51.53125 C-14.32770264 50.82718018 -14.78040527 50.12311035 -15.24682617 49.39770508 C-16.66294425 47.16857095 -17.9621599 44.89902268 -19.25 42.59375 C-19.69988281 41.83384766 -20.14976562 41.07394531 -20.61328125 40.29101562 C-23.32042824 35.47328138 -25.22313791 31.11721345 -23.875 25.53125 C-22.28713342 21.75167511 -20.29399183 18.29289289 -18.1875 14.78125 C-17.39182617 13.38326172 -17.39182617 13.38326172 -16.58007812 11.95703125 C-12.24786252 4.54708211 -9.16705829 0.03449968 0 0 Z " fill="#91DAFA" transform="translate(158.875,453.46875)"/>
<path d="M0 0 C2.06607834 0.03440617 4.12789288 0.02061817 6.1940918 0.0012207 C17.47509736 0.08445488 17.47509736 0.08445488 22.00463867 4.59692383 C24.40332238 7.83726941 26.32414174 11.34525486 28.31713867 14.84692383 C28.86692383 15.76344727 29.41670898 16.6799707 29.9831543 17.62426758 C35.63594678 27.46925523 35.63594678 27.46925523 34.00463867 33.59692383 C32.40793378 37.37288055 30.42382246 40.83496093 28.31713867 44.34692383 C27.78668945 45.27891602 27.25624023 46.2109082 26.7097168 47.17114258 C23.95829851 51.87724943 21.69482495 55.60826037 17.00463867 58.59692383 C12.72442049 59.30462543 8.47400626 59.21403078 4.13964844 59.17333984 C2.07542377 59.15947946 0.01574606 59.19355672 -2.0480957 59.23168945 C-13.14233856 59.2153343 -13.14233856 59.2153343 -16.56958008 56.63989258 C-19.70229792 52.71012253 -22.36385245 48.69925853 -24.87036133 44.34692383 C-25.36793945 43.53868164 -25.86551758 42.73043945 -26.37817383 41.89770508 C-29.55428595 36.44421585 -31.35883224 31.90983429 -29.99536133 25.59692383 C-28.61139404 21.97383198 -26.81694186 18.69544579 -24.87036133 15.34692383 C-24.39598633 14.47551758 -23.92161133 13.60411133 -23.43286133 12.70629883 C-17.14654636 1.5608323 -12.77543969 -0.23604639 0 0 Z " fill="#90D9FA" transform="translate(95.995361328125,337.403076171875)"/>
<path d="M0 0 C5.14811646 4.38543254 8.58063088 9.93563352 9.49609375 16.625 C9.31916396 22.39750333 6.20987207 26.91991433 3.3125 31.75 C2.78205078 32.68199219 2.25160156 33.61398437 1.70507812 34.57421875 C-1.04614109 39.27998512 -3.30669494 43.01672671 -8 46 C-12.41232564 46.75156603 -16.82535257 46.70115352 -21.29223633 46.6862793 C-23.42987117 46.68749566 -25.56067785 46.74730801 -27.69726562 46.81054688 C-37.55795085 46.93899021 -37.55795085 46.93899021 -41.20800781 44.56225586 C-42.77028332 42.78363936 -43.89589077 41.0886228 -45 39 C-45.55429688 38.14792969 -46.10859375 37.29585938 -46.6796875 36.41796875 C-47.07414063 35.68191406 -47.46859375 34.94585937 -47.875 34.1875 C-48.28492188 33.43855469 -48.69484375 32.68960938 -49.1171875 31.91796875 C-50 30 -50 30 -50 28 C-49.20078125 28.03480469 -48.4015625 28.06960938 -47.578125 28.10546875 C-32.17938291 28.48501521 -20.52566638 24.87425805 -9.26953125 14.37890625 C-5.16610006 10.07771934 -2.61216789 5.2826431 0 0 Z " fill="#75CFF9" transform="translate(190,466)"/>
<path d="M0 0 C0.66 0 1.32 0 2 0 C3.7265625 2.2734375 3.7265625 2.2734375 5.625 5.375 C6.25664062 6.37273437 6.88828125 7.37046875 7.5390625 8.3984375 C9.81111923 13.9996041 10.247189 18.92233369 7.94238281 24.60986328 C6.51072904 27.28579999 4.9577249 29.82519071 3.3125 32.375 C2.51682617 33.68791016 2.51682617 33.68791016 1.70507812 35.02734375 C-1.08115664 39.50583152 -3.4850243 43.09909889 -8 46 C-11.2421875 46.51757812 -11.2421875 46.51757812 -14.875 46.53125 C-16.18984375 46.53640625 -17.5046875 46.5415625 -18.859375 46.546875 C-19.8793457 46.53430664 -19.8793457 46.53430664 -20.91992188 46.52148438 C-22.99467894 46.50005496 -25.06597461 46.52131059 -27.140625 46.546875 C-28.45546875 46.54171875 -29.7703125 46.5365625 -31.125 46.53125 C-32.32382812 46.52673828 -33.52265625 46.52222656 -34.7578125 46.51757812 C-39.59472279 45.74542076 -41.97935046 43.40145587 -44.80078125 39.52734375 C-45.29964844 38.67269531 -45.79851562 37.81804687 -46.3125 36.9375 C-46.82425781 36.08027344 -47.33601563 35.22304688 -47.86328125 34.33984375 C-49 32 -49 32 -49 29 C-48.10539062 28.96261719 -47.21078125 28.92523438 -46.2890625 28.88671875 C-38.77775286 28.47832132 -32.03111201 27.72609781 -25 25 C-24.32710938 24.74605469 -23.65421875 24.49210937 -22.9609375 24.23046875 C-12.84791622 19.81861285 -6.35538638 11.89823194 -1.375 2.30859375 C-0.92125 1.54675781 -0.4675 0.78492188 0 0 Z " fill="#75CFF9" transform="translate(437,350)"/>
<path d="M0 0 C2.5504792 2.92832797 4.7376791 5.99876359 6.75 9.3125 C7.17796875 10.00988281 7.6059375 10.70726562 8.046875 11.42578125 C9.80016437 16.16109966 9.85622654 19.9300912 7.94677734 24.54614258 C6.49362312 27.34444288 4.93440789 30.04618637 3.3125 32.75 C2.78205078 33.68199219 2.25160156 34.61398437 1.70507812 35.57421875 C-1.04634016 40.2803256 -3.30981372 44.01133654 -8 47 C-12.28021818 47.70770161 -16.53063241 47.61710696 -20.86499023 47.57641602 C-22.9292149 47.56255563 -24.98889261 47.59663289 -27.05273438 47.63476562 C-38.14656218 47.61841109 -38.14656218 47.61841109 -41.76171875 44.75390625 C-43.72342689 42.34028629 -45.42973646 40.12383459 -46.875 37.375 C-47.28492187 36.61960937 -47.69484375 35.86421875 -48.1171875 35.0859375 C-49 33 -49 33 -49 30 C-48.12859375 29.97421875 -47.2571875 29.9484375 -46.359375 29.921875 C-31.98496947 29.2373795 -18.80920186 25.47711206 -8.6875 14.75 C-4.90490162 10.24617597 -2.33431952 5.37566851 0 0 Z " fill="#75CFF9" transform="translate(121,349)"/>
<path d="M0 0 C0.66 0 1.32 0 2 0 C3.1877008 1.98758092 4.34926975 3.99078846 5.5 6 C6.47453125 7.670625 6.47453125 7.670625 7.46875 9.375 C9.20651062 13.48888227 9.93675463 16.65345853 9 21 C7.42204303 24.78360147 5.41878912 28.23869504 3.3125 31.75 C2.78205078 32.68199219 2.25160156 33.61398437 1.70507812 34.57421875 C-1.04634016 39.2803256 -3.30981372 43.01133654 -8 46 C-12.28021818 46.70770161 -16.53063241 46.61710696 -20.86499023 46.57641602 C-22.9292149 46.56255563 -24.98889261 46.59663289 -27.05273438 46.63476562 C-38.14656218 46.61841109 -38.14656218 46.61841109 -41.76171875 43.75390625 C-43.72342689 41.34028629 -45.42973646 39.12383459 -46.875 36.375 C-47.28492188 35.61960937 -47.69484375 34.86421875 -48.1171875 34.0859375 C-49 32 -49 32 -49 29 C-48.10539063 28.96261719 -47.21078125 28.92523438 -46.2890625 28.88671875 C-38.77775286 28.47832132 -32.03111201 27.72609781 -25 25 C-24.32710937 24.74605469 -23.65421875 24.49210937 -22.9609375 24.23046875 C-12.84791622 19.81861285 -6.35538638 11.89823194 -1.375 2.30859375 C-0.92125 1.54675781 -0.4675 0.78492188 0 0 Z " fill="#75CFF9" transform="translate(279,350)"/>
<path d="M0 0 C0.66 0 1.32 0 2 0 C3.19049574 1.96492537 4.35132782 3.9478357 5.5 5.9375 C6.47453125 7.59072266 6.47453125 7.59072266 7.46875 9.27734375 C9.48743294 13.56450933 9.97107778 17.34534949 9 22 C7.25398373 26.04823771 5.03061694 29.70992713 2.6875 33.4375 C2.09259766 34.42943359 1.49769531 35.42136719 0.88476562 36.44335938 C-3.53723729 43.69149153 -3.53723729 43.69149153 -7 46 C-11.39002519 46.41050841 -15.78943893 46.37160295 -20.19628906 46.37060547 C-22.36083078 46.37497142 -24.52332001 46.41127661 -26.6875 46.44921875 C-28.07030556 46.45508888 -29.45312076 46.45905696 -30.8359375 46.4609375 C-32.71611572 46.47326416 -32.71611572 46.47326416 -34.63427734 46.48583984 C-38.59061567 45.91474502 -40.17847671 44.7706105 -43 42 C-44.80078125 39.52734375 -44.80078125 39.52734375 -46.3125 36.9375 C-46.82425781 36.08027344 -47.33601563 35.22304688 -47.86328125 34.33984375 C-49 32 -49 32 -49 29 C-47.65421875 28.99613281 -47.65421875 28.99613281 -46.28125 28.9921875 C-32.50609626 28.56527158 -20.07620638 25.3627764 -10.0546875 15.375 C-5.95543111 10.63669603 -2.73116321 5.62670198 0 0 Z " fill="#75CFF9" transform="translate(348,466)"/>
<path d="M0 0 C2.5625 2 2.5625 2 4 5 C3.7726477 12.04792138 1.29346378 17.52765932 -1.75 23.8125 C-2.18054688 24.75287109 -2.61109375 25.69324219 -3.0546875 26.66210938 C-7.14385674 35.22610304 -7.14385674 35.22610304 -12 37 C-15.91032112 37 -17.48097805 36.45248068 -20.4375 33.875 C-22.43024042 30.20835762 -22.04132342 27.88189276 -21 24 C-19.54877045 20.14599813 -17.85643463 16.42259199 -16.125 12.6875 C-15.67769531 11.68654297 -15.23039063 10.68558594 -14.76953125 9.65429688 C-11.46001788 2.42510911 -8.80521189 -1.6797091 0 0 Z " fill="#B2E5FB" transform="translate(166,395)"/>
<path d="M0 0 C2.5625 2.0625 2.5625 2.0625 4 5 C3.74664709 11.66580231 0.98760739 17.25258266 -1.75 23.25 C-2.18054688 24.24257813 -2.61109375 25.23515625 -3.0546875 26.2578125 C-3.48523438 27.20914062 -3.91578125 28.16046875 -4.359375 29.140625 C-4.74577148 30.00204102 -5.13216797 30.86345703 -5.53027344 31.75097656 C-7.3339565 34.51103111 -9.03842348 35.59762998 -12 37 C-15.91032112 37 -17.48097805 36.45248068 -20.4375 33.875 C-22.43024042 30.20835762 -22.04132342 27.88189276 -21 24 C-19.54877045 20.14599813 -17.85643463 16.42259199 -16.125 12.6875 C-15.67769531 11.68654297 -15.23039062 10.68558594 -14.76953125 9.65429688 C-11.4647163 2.43537217 -8.80058893 -1.69649907 0 0 Z " fill="#B2E5FB" transform="translate(325,395)"/>
<path d="M0 0 C2.37616683 3.56425025 2.70444157 5.88688016 2 10 C0.65285065 13.87497941 -1.05571442 17.5458457 -2.8125 21.25 C-3.26431641 22.24257813 -3.71613281 23.23515625 -4.18164062 24.2578125 C-8.02916164 32.54823734 -8.02916164 32.54823734 -11 35 C-13.15625 35.3984375 -13.15625 35.3984375 -15.5 35.375 C-16.66015625 35.38660156 -16.66015625 35.38660156 -17.84375 35.3984375 C-20.56338743 34.8958958 -21.39601656 34.23970858 -23 32 C-25.89348121 23.75079635 -19.02917121 13.77409299 -15.5 6.3125 C-14.9534375 5.15363281 -14.406875 3.99476563 -13.84375 2.80078125 C-10.06051231 -2.94621329 -5.98547967 -2.37160515 0 0 Z " fill="#B2E5FB" transform="translate(449,280)"/>
<path d="M0 0 C1.9375 1.6875 1.9375 1.6875 3 4 C2.70499864 10.72245528 -0.07753562 16.27774328 -2.875 22.3125 C-3.54595703 23.81393555 -3.54595703 23.81393555 -4.23046875 25.34570312 C-7.61801506 32.74534338 -7.61801506 32.74534338 -11 35 C-14.01689707 35.33521079 -16.09775379 35.55946915 -19 35 C-21.5625 32.9375 -21.5625 32.9375 -23 30 C-22.73855529 23.35058946 -20.02176 17.74596812 -17.3125 11.75 C-16.67924805 10.26113281 -16.67924805 10.26113281 -16.03320312 8.7421875 C-12.81268515 1.57252757 -12.81268515 1.57252757 -8.8671875 -1.20703125 C-5.14111333 -2.2375395 -3.41892562 -1.74745087 0 0 Z " fill="#B1E5FB" transform="translate(415,280)"/>
<path d="M0 0 C1.9375 1.6875 1.9375 1.6875 3 4 C2.70499864 10.72245528 -0.07753562 16.27774328 -2.875 22.3125 C-3.54595703 23.81393555 -3.54595703 23.81393555 -4.23046875 25.34570312 C-7.61801506 32.74534338 -7.61801506 32.74534338 -11 35 C-14.01689707 35.33521079 -16.09775379 35.55946915 -19 35 C-21.5625 32.9375 -21.5625 32.9375 -23 30 C-22.73855529 23.35058946 -20.02176 17.74596812 -17.3125 11.75 C-16.67924805 10.26113281 -16.67924805 10.26113281 -16.03320312 8.7421875 C-12.81268515 1.57252757 -12.81268515 1.57252757 -8.8671875 -1.20703125 C-5.14111333 -2.2375395 -3.41892562 -1.74745087 0 0 Z " fill="#B2E4FB" transform="translate(103,280)"/>
<path d="M0 0 C2.97819304 0.09205324 4.02122686 0.31014179 6.625 1.9375 C8.62026145 5.17979985 8.71774028 7.70798472 8.125 11.375 C6.78151049 15.25118344 5.06923091 18.92096097 3.3125 22.625 C2.86068359 23.61757813 2.40886719 24.61015625 1.94335938 25.6328125 C-1.9148047 33.94617042 -1.9148047 33.94617042 -4.875 36.375 C-8.37360317 37.43979227 -10.19291103 37.63853437 -13.625 36.3125 C-16.65779975 33.70092244 -17.36574255 32.37630853 -17.875 28.375 C-17.01531111 24.82116796 -15.46221356 21.65802593 -13.875 18.375 C-13.40416992 17.39225098 -13.40416992 17.39225098 -12.92382812 16.38964844 C-5.28435649 0.51138934 -5.28435649 0.51138934 0 0 Z " fill="#B2E5FB" transform="translate(353.875,394.625)"/>
<path d="M0 0 C1.9375 1.6875 1.9375 1.6875 3 4 C2.70499864 10.72245528 -0.07753562 16.27774328 -2.875 22.3125 C-3.54595703 23.81393555 -3.54595703 23.81393555 -4.23046875 25.34570312 C-7.61801506 32.74534338 -7.61801506 32.74534338 -11 35 C-14.01689707 35.33521079 -16.09775379 35.55946915 -19 35 C-21.5625 32.9375 -21.5625 32.9375 -23 30 C-22.73855529 23.35058946 -20.02176 17.74596812 -17.3125 11.75 C-16.67924805 10.26113281 -16.67924805 10.26113281 -16.03320312 8.7421875 C-12.81268515 1.57252757 -12.81268515 1.57252757 -8.8671875 -1.20703125 C-5.14111333 -2.2375395 -3.41892562 -1.74745087 0 0 Z " fill="#B1E5FB" transform="translate(256,280)"/>
<path d="M0 0 C1.94140625 0.34375 1.94140625 0.34375 4.44140625 1.90625 C6.4366677 5.14854985 6.53414653 7.67673472 5.94140625 11.34375 C4.59791674 15.21993344 2.88563716 18.88971097 1.12890625 22.59375 C0.67708984 23.58632813 0.22527344 24.57890625 -0.24023438 25.6015625 C-4.09839845 33.91492042 -4.09839845 33.91492042 -7.05859375 36.34375 C-10.74855384 37.46678133 -12.36848097 37.68113847 -15.87109375 35.96875 C-18.05859375 34.34375 -18.05859375 34.34375 -19.05859375 33.34375 C-19.7922892 25.50188684 -17.76521725 20.39931868 -14.24609375 13.46875 C-13.79427734 12.53289062 -13.34246094 11.59703125 -12.87695312 10.6328125 C-7.48183923 -0.33068903 -7.48183923 -0.33068903 0 0 Z " fill="#B1E4FB" transform="translate(197.05859375,394.65625)"/>
<path d="M0 0 C2.37616683 3.56425025 2.70444157 5.88688016 2 10 C0.65285065 13.87497941 -1.05571442 17.5458457 -2.8125 21.25 C-3.26431641 22.24257813 -3.71613281 23.23515625 -4.18164062 24.2578125 C-8.02916164 32.54823734 -8.02916164 32.54823734 -11 35 C-13.15625 35.3984375 -13.15625 35.3984375 -15.5 35.375 C-16.66015625 35.38660156 -16.66015625 35.38660156 -17.84375 35.3984375 C-20.54333235 34.89960163 -21.28995241 34.11415365 -23 32 C-24.78115685 24.75681698 -21.38567658 18.42349518 -18.1875 12.125 C-17.73568359 11.18914062 -17.28386719 10.25328125 -16.81835938 9.2890625 C-12.97488683 1.47867741 -12.97488683 1.47867741 -10 -1 C-6.00471255 -2.33176248 -3.90144863 -1.41870859 0 0 Z " fill="#B2E5FB" transform="translate(290,280)"/>
<path d="M0 0 C2.37616683 3.56425025 2.70444157 5.88688016 2 10 C0.65285065 13.87497941 -1.05571442 17.5458457 -2.8125 21.25 C-3.26431641 22.24257813 -3.71613281 23.23515625 -4.18164062 24.2578125 C-8.02916164 32.54823734 -8.02916164 32.54823734 -11 35 C-13.15625 35.3984375 -13.15625 35.3984375 -15.5 35.375 C-16.66015625 35.38660156 -16.66015625 35.38660156 -17.84375 35.3984375 C-20.54333235 34.89960163 -21.28995241 34.11415365 -23 32 C-24.78115685 24.75681698 -21.38567658 18.42349518 -18.1875 12.125 C-17.73568359 11.18914062 -17.28386719 10.25328125 -16.81835938 9.2890625 C-12.97488683 1.47867741 -12.97488683 1.47867741 -10 -1 C-6.00471255 -2.33176248 -3.90144863 -1.41870859 0 0 Z " fill="#B2E5FB" transform="translate(137,280)"/>
</svg>
