<svg clip-rule="evenodd" fill-rule="evenodd" height="512" stroke-linejoin="round" stroke-miterlimit="2" viewBox="0 0 100 100" width="512" xmlns="http://www.w3.org/2000/svg"><g transform="translate(-216 -432)"><g id="Icon"><path d="m307.24 502.941c.332-.612.322-1.353-.027-1.956-.348-.602-.985-.98-1.681-.998-21.613-.536-38.991-18.248-38.991-39.987 0-6.887 1.743-13.37 4.816-19.033.332-.612.322-1.352-.027-1.955-.348-.603-.985-.981-1.681-.998-.367-.009-.737-.014-1.108-.014-24.285 0-44 19.716-44 44s19.715 44 44 44c16.706 0 31.251-9.331 38.699-23.059z" fill="#cadcfc"/><path d="m294 478h-2c-1.104 0-2 .896-2 2s.896 2 2 2h2v2c0 1.104.896 2 2 2s2-.896 2-2v-2h2c1.104 0 2-.896 2-2s-.896-2-2-2h-2v-2c0-1.104-.896-2-2-2s-2 .896-2 2zm-16-28h-2c-1.104 0-2 .896-2 2s.896 2 2 2h2v2c0 1.104.896 2 2 2s2-.896 2-2v-2h2c1.104 0 2-.896 2-2s-.896-2-2-2h-2v-2c0-1.104-.896-2-2-2s-2 .896-2 2z" fill="#fee900"/></g></g></svg>