<svg clip-rule="evenodd" fill-rule="evenodd" height="512" stroke-linejoin="round" stroke-miterlimit="2" viewBox="0 0 100 100" width="512" xmlns="http://www.w3.org/2000/svg"><g transform="translate(-108)"><g id="Icon"><circle cx="158" cy="50" fill="#fee900" r="24"/><path d="m156 8v8c0 1.104.896 2 2 2s2-.896 2-2v-8c0-1.104-.896-2-2-2s-2 .896-2 2z" fill="#fee900"/><g transform="translate(0 76)"><path d="m156 8v8c0 1.104.896 2 2 2s2-.896 2-2v-8c0-1.104-.896-2-2-2s-2 .896-2 2z" fill="#fee900"/></g><g transform="matrix(0 1 -1 0 208 -108)"><path d="m156 8v8c0 1.104.896 2 2 2s2-.896 2-2v-8c0-1.104-.896-2-2-2s-2 .896-2 2z" fill="#fee900"/></g><g transform="matrix(0 1 -1 0 132 -108)"><path d="m156 8v8c0 1.104.896 2 2 2s2-.896 2-2v-8c0-1.104-.896-2-2-2s-2 .896-2 2z" fill="#fee900"/></g><g transform="matrix(.707 .707 -.707 .707 81.633 -97.078)"><path d="m156 8v8c0 1.104.896 2 2 2s2-.896 2-2v-8c0-1.104-.896-2-2-2s-2 .896-2 2z" fill="#fee900"/></g><g transform="matrix(.707 .707 -.707 .707 27.892 -43.338)"><path d="m156 8v8c0 1.104.896 2 2 2s2-.896 2-2v-8c0-1.104-.896-2-2-2s-2 .896-2 2z" fill="#fee900"/></g><g transform="matrix(.707 -.707 .707 .707 10.922 126.368)"><path d="m156 8v8c0 1.104.896 2 2 2s2-.896 2-2v-8c0-1.104-.896-2-2-2s-2 .896-2 2z" fill="#fee900"/></g><g transform="matrix(.707 -.707 .707 .707 64.662 180.108)"><path d="m156 8v8c0 1.104.896 2 2 2s2-.896 2-2v-8c0-1.104-.896-2-2-2s-2 .896-2 2z" fill="#fee900"/></g></g></g></svg>