<svg clip-rule="evenodd" fill-rule="evenodd" height="512" stroke-linejoin="round" stroke-miterlimit="2" viewBox="0 0 100 100" width="512" xmlns="http://www.w3.org/2000/svg"><g transform="translate(-216)"><g id="Icon"><path d="m238.452 48.005c-4.368.099-8.537 1.877-11.633 4.974-3.189 3.188-4.98 7.512-4.98 12.021 0 4.509 1.791 8.833 4.98 12.021 3.188 3.188 7.512 4.979 12.02 4.979h49c12.151 0 22-9.85 22-22 0-10.574-7.461-19.405-17.406-21.519-3.106-11.782-13.841-20.481-26.594-20.481-15.177 0-27.5 12.322-27.5 27.5 0 .844.039 1.68.113 2.505z" fill="#d9e2e9"/></g></g></svg>