<svg clip-rule="evenodd" fill-rule="evenodd" height="512" stroke-linejoin="round" stroke-miterlimit="2" viewBox="0 0 100 100" width="512" xmlns="http://www.w3.org/2000/svg"><g transform="translate(-432)"><g id="Icon"><path d="m489.618 34.101c-1.816-9.174-9.914-16.101-19.618-16.101-11.038 0-20 8.962-20 20h-.002c-3.182 0-6.234 1.264-8.484 3.514s-3.514 5.302-3.514 8.484v.004c0 3.182 1.264 6.234 3.514 8.484s5.302 3.514 8.484 3.514h37.949c3.713 0 7.273-1.475 9.898-4.1 2.626-2.625 4.1-6.185 4.1-9.898v-.004c0-3.713-1.474-7.273-4.1-9.898-2.228-2.228-5.13-3.628-8.227-3.999z" fill="#afc3d1"/><path d="m462.02 54h-2.022c-3.712 0-7.273 1.475-9.898 4.1s-4.1 6.185-4.1 9.898v.004c0 3.713 1.475 7.273 4.1 9.898s6.186 4.1 9.898 4.1h48.004c9.94 0 17.998-8.058 17.998-17.998 0-.001 0-.003 0-.004 0-8.9-6.46-16.29-14.948-17.74-2.944-10.519-12.609-18.245-24.065-18.245-13.79 0-24.987 11.196-24.987 24.987 0 .335.007.668.02 1z" fill="#d9e2e9"/></g></g></svg>