<svg clip-rule="evenodd" fill-rule="evenodd" height="512" stroke-linejoin="round" stroke-miterlimit="2" viewBox="0 0 100 100" width="512" xmlns="http://www.w3.org/2000/svg"><g transform="translate(-108 -216)"><g id="Icon"><g transform="translate(95.922 106)"><path d="m90 188v12c0 1.104.896 2 2 2s2-.896 2-2v-12c0-1.104-.896-2-2-2s-2 .896-2 2z" fill="#69d7f7"/></g><g transform="matrix(.492 0 0 .492 124.615 207.506)"><path d="m96.061 175.817v11.972c0 2.242 1.82 4.061 4.061 4.061 2.242 0 4.061-1.819 4.061-4.061v-11.972c0-2.242-1.819-4.062-4.061-4.062-2.241 0-4.061 1.82-4.061 4.062z" fill="#69d7f7"/></g><g transform="translate(40 105.973)"><path d="m86 188.027v12c0 1.104.896 2 2 2s2-.896 2-2v-12c0-1.104-.896-2-2-2s-2 .896-2 2z" fill="#69d7f7"/></g><g transform="matrix(.498 0 0 .498 92.206 206.422)"><path d="m96.018 175.999.157 11.973c.03 2.217 1.853 3.994 4.071 3.965 2.217-.03 3.994-1.853 3.965-4.071l-.157-11.973c-.029-2.217-1.853-3.994-4.071-3.965-2.217.029-3.994 1.853-3.965 4.071z" fill="#69d7f7"/></g><g transform="translate(66 106)"><path d="m90 188v12c0 1.104.896 2 2 2s2-.896 2-2v-12c0-1.104-.896-2-2-2s-2 .896-2 2z" fill="#69d7f7"/></g><path d="m165.618 240.094c-1.816-9.174-9.914-16.101-19.618-16.101-11.038 0-20 8.962-20 20h-.002c-3.182 0-6.234 1.264-8.484 3.514s-3.514 5.302-3.514 8.484v.004c0 3.182 1.264 6.234 3.514 8.484s5.302 3.514 8.484 3.514h37.949c3.713 0 7.273-1.475 9.898-4.1 2.626-2.625 4.1-6.185 4.1-9.898v-.004c0-3.712-1.474-7.273-4.1-9.898-2.228-2.228-5.13-3.627-8.227-3.999z" fill="#afc3d1"/><path d="m138.166 259.993h-2.168c-3.712 0-7.273 1.475-9.898 4.1s-4.1 6.186-4.1 9.898v.004c0 3.713 1.475 7.273 4.1 9.898s6.186 4.1 9.898 4.1h48.004c9.94 0 17.998-8.058 17.998-17.998 0-.001 0-.002 0-.004 0-8.733-6.221-16.013-14.473-17.652-2.188-11.563-12.355-20.321-24.551-20.321-13.791 0-24.987 11.197-24.987 24.988 0 1.011.06 2.008.177 2.987z" fill="#d9e2e9"/></g></g></svg>