<svg clip-rule="evenodd" fill-rule="evenodd" height="512" stroke-linejoin="round" stroke-miterlimit="2" viewBox="0 0 100 100" width="512" xmlns="http://www.w3.org/2000/svg"><g transform="translate(0 -216)"><g id="Icon"><path d="m26.09 255.967h-2.092c-3.712 0-7.273 1.475-9.898 4.1s-4.1 6.186-4.1 9.898v.004c0 3.713 1.475 7.273 4.1 9.898 2.625 2.626 6.186 4.1 9.898 4.1h48.004c9.94 0 17.998-8.058 17.998-17.998 0-.001 0-.002 0-.004 0-8.957-6.544-16.385-15.111-17.767-2.127-11.483-12.203-20.192-24.298-20.192-13.64 0-24.713 11.073-24.713 24.713 0 1.101.072 2.185.212 3.248z" fill="#afc3d1"/><g transform="translate(-12.078 101.994)"><path d="m90 188v12c0 1.104.896 2 2 2s2-.896 2-2v-12c0-1.104-.896-2-2-2s-2 .896-2 2z" fill="#69d7f7"/></g><g transform="matrix(.492 0 0 .492 16.615 203.5)"><path d="m96.061 175.817v11.972c0 2.242 1.82 4.061 4.061 4.061 2.242 0 4.061-1.819 4.061-4.061v-11.972c0-2.242-1.819-4.062-4.061-4.062-2.241 0-4.061 1.82-4.061 4.062z" fill="#69d7f7"/></g><g transform="translate(-68 101.967)"><path d="m86 188.027v12c0 1.104.896 2 2 2s2-.896 2-2v-12c0-1.104-.896-2-2-2s-2 .896-2 2z" fill="#69d7f7"/></g><g transform="matrix(.498 0 0 .498 -15.794 202.416)"><path d="m96.018 175.999.157 11.973c.03 2.217 1.853 3.994 4.071 3.965 2.217-.03 3.994-1.853 3.965-4.071l-.157-11.973c-.029-2.217-1.853-3.994-4.071-3.965-2.217.029-3.994 1.853-3.965 4.071z" fill="#69d7f7"/></g><g transform="translate(-42 101.994)"><path d="m90 188v12c0 1.104.896 2 2 2s2-.896 2-2v-12c0-1.104-.896-2-2-2s-2 .896-2 2z" fill="#69d7f7"/></g></g></g></svg>