<svg clip-rule="evenodd" fill-rule="evenodd" height="512" stroke-linejoin="round" stroke-miterlimit="2" viewBox="0 0 100 100" width="512" xmlns="http://www.w3.org/2000/svg"><g transform="translate(-432 -324)"><g id="Icon"><path d="m458.09 363.967h-2.092c-3.712 0-7.273 1.475-9.898 4.1s-4.1 6.186-4.1 9.898v.004c0 3.713 1.475 7.273 4.1 9.898 2.625 2.626 6.186 4.1 9.898 4.1h48.004c9.94 0 17.998-8.058 17.998-17.998 0-.001 0-.002 0-.004 0-8.957-6.544-16.385-15.111-17.767-2.127-11.483-12.203-20.192-24.298-20.192-13.64 0-24.713 11.073-24.713 24.713 0 1.101.072 2.185.212 3.248z" fill="#afc3d1"/><path d="m491.984 400.575-2.196-1.268c-.956-.552-2.18-.224-2.732.732s-.224 2.18.732 2.732l2.196 1.268-2.196 1.268c-.956.552-1.284 1.776-.732 2.732s1.776 1.284 2.732.732l2.196-1.268v2.536c0 1.104.897 2 2 2 1.104 0 2-.896 2-2v-2.536l2.197 1.268c.956.552 2.18.224 2.732-.732s.224-2.18-.732-2.732l-2.197-1.268 2.197-1.268c.956-.552 1.284-1.776.732-2.732s-1.776-1.284-2.732-.732l-2.197 1.268v-2.536c0-1.104-.896-2-2-2-1.103 0-2 .896-2 2z" fill="#cadcfc"/><path d="m510 400.575-2.196-1.268c-.956-.552-2.18-.224-2.732.732s-.224 2.18.732 2.732l2.196 1.268-2.196 1.268c-.956.552-1.284 1.776-.732 2.732s1.776 1.284 2.732.732l2.196-1.268v2.536c0 1.104.896 2 2 2s2-.896 2-2v-2.536l2.196 1.268c.956.552 2.18.224 2.732-.732s.224-2.18-.732-2.732l-2.196-1.268 2.196-1.268c.956-.552 1.284-1.776.732-2.732s-1.776-1.284-2.732-.732l-2.196 1.268v-2.536c0-1.104-.896-2-2-2s-2 .896-2 2z" fill="#cadcfc"/><g fill="#69d7f7"><path d="m480.336 396.885-8 12c-.612.918-.364 2.161.555 2.773.918.613 2.161.364 2.773-.554l8-12c.612-.919.364-2.162-.555-2.774-.918-.612-2.161-.364-2.773.555z"/><path d="m454.336 396.858-8 12c-.612.918-.364 2.161.555 2.773.918.613 2.161.364 2.773-.554l8-12c.612-.919.364-2.162-.555-2.774-.918-.612-2.161-.364-2.773.555z"/><path d="m466.258 396.885-3.973 5.959c-.613.919-.364 2.162.554 2.774.919.612 2.162.364 2.774-.555l3.973-5.959c.612-.919.364-2.162-.555-2.774-.918-.612-2.161-.364-2.773.555z"/></g></g></g></svg>