<svg clip-rule="evenodd" fill-rule="evenodd" height="512" stroke-linejoin="round" stroke-miterlimit="2" viewBox="0 0 100 100" width="512" xmlns="http://www.w3.org/2000/svg"><g transform="translate(-216 -108)"><g id="Icon"><path d="m273.629 132.101c-1.815-9.174-9.914-16.101-19.618-16.101-11.038 0-20 8.962-20 20h-.002c-3.182 0-6.233 1.264-8.483 3.514-2.251 2.25-3.515 5.302-3.515 8.484v.004c0 3.182 1.264 6.234 3.515 8.484 2.25 2.25 5.301 3.514 8.483 3.514h37.95c3.712 0 7.273-1.475 9.898-4.1s4.1-6.185 4.1-9.898v-.004c0-3.713-1.475-7.273-4.1-9.898-2.228-2.228-5.131-3.628-8.228-3.999z" fill="#afc3d1"/><g transform="translate(204.011 -1.987)"><path d="m90.336 186.891-8 12c-.612.918-.364 2.161.555 2.773.918.612 2.161.364 2.773-.555l8-12c.612-.918.364-2.161-.555-2.773-.918-.612-2.161-.364-2.773.555z" fill="#69d7f7"/></g><g transform="matrix(.492 0 0 .492 234.704 99.52)"><path d="m96.743 173.564-7.982 11.972c-1.243 1.865-.738 4.389 1.127 5.632 1.865 1.244 4.388.739 5.632-1.126l7.981-11.973c1.244-1.865.739-4.388-1.126-5.632-1.865-1.243-4.388-.738-5.632 1.127z" fill="#69d7f7"/></g><g transform="translate(152.011 -2.013)"><path d="m90.336 186.891-8 12c-.612.918-.364 2.161.555 2.773.918.612 2.161.364 2.773-.555l8-12c.612-.918.364-2.161-.555-2.773-.918-.612-2.161-.364-2.773.555z" fill="#69d7f7"/></g><g transform="matrix(.498 0 0 .498 206.14 98.435)"><path d="m96.693 173.717-7.982 11.973c-1.23 1.845-.731 4.342 1.114 5.572s4.342.731 5.572-1.114l7.982-11.973c1.23-1.845.731-4.342-1.114-5.572s-4.342-.731-5.572 1.114z" fill="#69d7f7"/></g><g transform="translate(178.011 -1.987)"><path d="m90.336 186.891-8 12c-.612.918-.364 2.161.555 2.773.918.612 2.161.364 2.773-.555l8-12c.612-.918.364-2.161-.555-2.773-.918-.612-2.161-.364-2.773.555z" fill="#69d7f7"/></g><path d="m246.177 152h-2.168c-3.712 0-7.273 1.475-9.898 4.1s-4.1 6.185-4.1 9.898v.004c0 3.713 1.475 7.273 4.1 9.898s6.186 4.1 9.898 4.1h48.004c9.94 0 17.998-8.058 17.998-17.998 0-.001 0-.003 0-.004 0-8.734-6.221-16.013-14.473-17.653-2.188-11.562-12.354-20.32-24.551-20.32-13.79 0-24.987 11.197-24.987 24.988 0 1.01.06 2.007.177 2.987z" fill="#d9e2e9"/></g></g></svg>