<svg clip-rule="evenodd" fill-rule="evenodd" height="512" stroke-linejoin="round" stroke-miterlimit="2" viewBox="0 0 100 100" width="512" xmlns="http://www.w3.org/2000/svg"><g transform="translate(-108 -432)"><g id="Icon"><path d="m199.966 465.335c.103-.555-.032-1.127-.372-1.576-.341-.449-.855-.733-1.416-.784-9.728-.866-17.365-9.051-17.365-19.004 0-1.202.111-2.378.325-3.52.103-.554-.032-1.126-.373-1.575-.34-.449-.854-.734-1.416-.784-.683-.061-1.374-.092-2.071-.092-12.738 0-23.08 10.342-23.08 23.08 0 12.739 10.342 23.081 23.08 23.081 11.285 0 20.689-8.118 22.688-18.826z" fill="#cadcfc"/><g transform="translate(95.922 324)"><path d="m90 188v12c0 1.104.896 2 2 2s2-.896 2-2v-12c0-1.104-.896-2-2-2s-2 .896-2 2z" fill="#69d7f7"/></g><g transform="matrix(.492 0 0 .492 124.615 425.506)"><path d="m96.061 175.817v11.972c0 2.242 1.82 4.061 4.061 4.061 2.242 0 4.061-1.819 4.061-4.061v-11.972c0-2.242-1.819-4.062-4.061-4.062-2.241 0-4.061 1.82-4.061 4.062z" fill="#69d7f7"/></g><g transform="translate(40 323.973)"><path d="m86 188.027v12c0 1.104.896 2 2 2s2-.896 2-2v-12c0-1.104-.896-2-2-2s-2 .896-2 2z" fill="#69d7f7"/></g><g transform="matrix(.498 0 0 .498 92.206 424.422)"><path d="m96.018 175.999.157 11.973c.03 2.217 1.853 3.994 4.071 3.965 2.217-.03 3.994-1.853 3.965-4.071l-.157-11.973c-.029-2.217-1.853-3.994-4.071-3.965-2.217.029-3.994 1.853-3.965 4.071z" fill="#69d7f7"/></g><g transform="translate(66 324)"><path d="m90 188v12c0 1.104.896 2 2 2s2-.896 2-2v-12c0-1.104-.896-2-2-2s-2 .896-2 2z" fill="#69d7f7"/></g><path d="m132.09 477.973h-2.092c-3.712 0-7.273 1.475-9.898 4.1s-4.1 6.186-4.1 9.898v.004c0 3.713 1.475 7.273 4.1 9.898s6.186 4.1 9.898 4.1h48.004c9.94 0 17.998-8.058 17.998-17.998 0-.001 0-.003 0-.004 0-8.957-6.544-16.385-15.111-17.767-2.127-11.484-12.203-20.192-24.298-20.192-13.64 0-24.713 11.073-24.713 24.712 0 1.102.072 2.186.212 3.249z" fill="#afc3d1"/></g></g></svg>