<svg clip-rule="evenodd" fill-rule="evenodd" height="512" stroke-linejoin="round" stroke-miterlimit="2" viewBox="0 0 100 100" width="512" xmlns="http://www.w3.org/2000/svg"><g transform="translate(-216 -216)"><g id="Icon"><g transform="translate(203.922 106)"><path d="m90 188v12c0 1.104.896 2 2 2s2-.896 2-2v-12c0-1.104-.896-2-2-2s-2 .896-2 2z" fill="#69d7f7"/></g><circle cx="248" cy="250" fill="#fee900" r="17"/><g transform="matrix(.903 -.391 .391 .903 9.049 312.39)"><path d="m250.032 16v-4c0-1.122-.91-2.032-2.032-2.032s-2.032.91-2.032 2.032v4c0 1.122.91 2.032 2.032 2.032s2.032-.91 2.032-2.032z" fill="#fee900"/></g><g transform="matrix(.903 -.391 .391 .903 27.986 356.159)"><path d="m250.032 16v-4c0-1.122-.91-2.032-2.032-2.032s-2.032.91-2.032 2.032v4c0 1.122.91 2.032 2.032 2.032s2.032-.91 2.032-2.032z" fill="#fee900"/></g><g transform="matrix(.391 .903 -.903 .391 185.61 11.049)"><path d="m250.032 16v-4c0-1.122-.91-2.032-2.032-2.032s-2.032.91-2.032 2.032v4c0 1.122.91 2.032 2.032 2.032s2.032-.91 2.032-2.032z" fill="#fee900"/></g><g transform="matrix(.391 .903 -.903 .391 141.841 29.986)"><path d="m250.032 16v-4c0-1.122-.91-2.032-2.032-2.032s-2.032.91-2.032 2.032v4c0 1.122.91 2.032 2.032 2.032s2.032-.91 2.032-2.032z" fill="#fee900"/></g><g transform="matrix(.362 -.915 .915 .362 123.153 463.081)"><path d="m250.032 16v-4c0-1.122-.91-2.032-2.032-2.032s-2.032.91-2.032 2.032v4c0 1.122.91 2.032 2.032 2.032s2.032-.91 2.032-2.032z" fill="#fee900"/></g><g transform="matrix(.362 -.915 .915 .362 167.492 480.64)"><path d="m250.032 16v-4c0-1.122-.91-2.032-2.032-2.032s-2.032.91-2.032 2.032v4c0 1.122.91 2.032 2.032 2.032s2.032-.91 2.032-2.032z" fill="#fee900"/></g><g transform="matrix(.915 .362 -.362 .915 34.919 125.153)"><path d="m250.032 16v-4c0-1.122-.91-2.032-2.032-2.032s-2.032.91-2.032 2.032v4c0 1.122.91 2.032 2.032 2.032s2.032-.91 2.032-2.032z" fill="#fee900"/></g><g transform="matrix(.915 .362 -.362 .915 17.36 169.492)"><path d="m250.032 16v-4c0-1.122-.91-2.032-2.032-2.032s-2.032.91-2.032 2.032v4c0 1.122.91 2.032 2.032 2.032s2.032-.91 2.032-2.032z" fill="#fee900"/></g><g transform="matrix(.492 0 0 .492 232.615 207.506)"><path d="m96.061 175.817v11.972c0 2.242 1.82 4.061 4.061 4.061 2.242 0 4.061-1.819 4.061-4.061v-11.972c0-2.242-1.819-4.062-4.061-4.062-2.241 0-4.061 1.82-4.061 4.062z" fill="#69d7f7"/></g><g transform="translate(148 105.973)"><path d="m86 188.027v12c0 1.104.896 2 2 2s2-.896 2-2v-12c0-1.104-.896-2-2-2s-2 .896-2 2z" fill="#69d7f7"/></g><g transform="matrix(.498 0 0 .498 200.206 206.422)"><path d="m96.018 175.999.157 11.973c.03 2.217 1.853 3.994 4.071 3.965 2.217-.03 3.994-1.853 3.965-4.071l-.157-11.973c-.029-2.217-1.853-3.994-4.071-3.965-2.217.029-3.994 1.853-3.965 4.071z" fill="#69d7f7"/></g><g transform="translate(174 106)"><path d="m90 188v12c0 1.104.896 2 2 2s2-.896 2-2v-12c0-1.104-.896-2-2-2s-2 .896-2 2z" fill="#69d7f7"/></g><path d="m246.176 260h-2.178c-3.712 0-7.273 1.475-9.898 4.1s-4.1 6.185-4.1 9.898v.004c0 3.713 1.475 7.273 4.1 9.898s6.186 4.1 9.898 4.1h48.004c9.94 0 17.998-8.058 17.998-17.998 0-.001 0-.003 0-.004 0-8.73-6.217-16.008-14.464-17.651-2.194-11.558-12.357-20.309-24.549-20.309-13.79 0-24.987 11.197-24.987 24.988 0 1.006.06 1.999.176 2.974z" fill="#afc3d1"/></g></g></svg>