<svg clip-rule="evenodd" fill-rule="evenodd" height="512" stroke-linejoin="round" stroke-miterlimit="2" viewBox="0 0 100 100" width="512" xmlns="http://www.w3.org/2000/svg"><g transform="translate(0 -108)"><g id="Icon"><circle cx="32" cy="141.987" fill="#fee900" r="17"/><g transform="matrix(.903 -.391 .391 .903 -206.951 204.377)"><path d="m250.032 16v-4c0-1.122-.91-2.032-2.032-2.032s-2.032.91-2.032 2.032v4c0 1.122.91 2.032 2.032 2.032s2.032-.91 2.032-2.032z" fill="#fee900"/></g><g transform="matrix(.903 -.391 .391 .903 -188.014 248.146)"><path d="m250.032 16v-4c0-1.122-.91-2.032-2.032-2.032s-2.032.91-2.032 2.032v4c0 1.122.91 2.032 2.032 2.032s2.032-.91 2.032-2.032z" fill="#fee900"/></g><g transform="matrix(.391 .903 -.903 .391 -30.391 -96.965)"><path d="m250.032 16v-4c0-1.122-.91-2.032-2.032-2.032s-2.032.91-2.032 2.032v4c0 1.122.91 2.032 2.032 2.032s2.032-.91 2.032-2.032z" fill="#fee900"/></g><g transform="matrix(.391 .903 -.903 .391 -74.159 -78.028)"><path d="m250.032 16v-4c0-1.122-.91-2.032-2.032-2.032s-2.032.91-2.032 2.032v4c0 1.122.91 2.032 2.032 2.032s2.032-.91 2.032-2.032z" fill="#fee900"/></g><g transform="matrix(.362 -.915 .915 .362 -92.847 355.067)"><path d="m250.032 16v-4c0-1.122-.91-2.032-2.032-2.032s-2.032.91-2.032 2.032v4c0 1.122.91 2.032 2.032 2.032s2.032-.91 2.032-2.032z" fill="#fee900"/></g><g transform="matrix(.362 -.915 .915 .362 -48.508 372.626)"><path d="m250.032 16v-4c0-1.122-.91-2.032-2.032-2.032s-2.032.91-2.032 2.032v4c0 1.122.91 2.032 2.032 2.032s2.032-.91 2.032-2.032z" fill="#fee900"/></g><g transform="matrix(.915 .362 -.362 .915 -181.081 17.139)"><path d="m250.032 16v-4c0-1.122-.91-2.032-2.032-2.032s-2.032.91-2.032 2.032v4c0 1.122.91 2.032 2.032 2.032s2.032-.91 2.032-2.032z" fill="#fee900"/></g><g transform="matrix(.915 .362 -.362 .915 -198.64 61.479)"><path d="m250.032 16v-4c0-1.122-.91-2.032-2.032-2.032s-2.032.91-2.032 2.032v4c0 1.122.91 2.032 2.032 2.032s2.032-.91 2.032-2.032z" fill="#fee900"/></g><g transform="translate(-12 -1.987)"><path d="m90.336 186.891-8 12c-.612.918-.364 2.161.555 2.773.918.612 2.161.364 2.773-.555l8-12c.612-.918.364-2.161-.555-2.773-.918-.612-2.161-.364-2.773.555z" fill="#69d7f7"/></g><g transform="matrix(.492 0 0 .492 18.693 99.52)"><path d="m96.743 173.564-7.982 11.972c-1.243 1.865-.738 4.389 1.127 5.632 1.865 1.244 4.388.739 5.632-1.126l7.981-11.973c1.244-1.865.739-4.388-1.126-5.632-1.865-1.243-4.388-.738-5.632 1.127z" fill="#69d7f7"/></g><g transform="translate(-64 -2.013)"><path d="m90.336 186.891-8 12c-.612.918-.364 2.161.555 2.773.918.612 2.161.364 2.773-.555l8-12c.612-.918.364-2.161-.555-2.773-.918-.612-2.161-.364-2.773.555z" fill="#69d7f7"/></g><g transform="matrix(.498 0 0 .498 -9.872 98.435)"><path d="m96.693 173.717-7.982 11.973c-1.23 1.845-.731 4.342 1.114 5.572s4.342.731 5.572-1.114l7.982-11.973c1.23-1.845.731-4.342-1.114-5.572s-4.342-.731-5.572 1.114z" fill="#69d7f7"/></g><g transform="translate(-38 -1.987)"><path d="m90.336 186.891-8 12c-.612.918-.364 2.161.555 2.773.918.612 2.161.364 2.773-.555l8-12c.612-.918.364-2.161-.555-2.773-.918-.612-2.161-.364-2.773.555z" fill="#69d7f7"/></g><path d="m30.176 151.987h-2.178c-3.712 0-7.273 1.474-9.898 4.099-2.625 2.626-4.1 6.186-4.1 9.899v.004c0 3.712 1.475 7.272 4.1 9.898 2.625 2.625 6.186 4.1 9.898 4.1h48.004c9.94 0 17.998-8.058 17.998-17.998 0-.002 0-.003 0-.004 0-8.731-6.217-16.008-14.464-17.651-2.194-11.558-12.357-20.309-24.549-20.309-13.79 0-24.987 11.197-24.987 24.988 0 1.006.06 1.998.176 2.973z" fill="#afc3d1"/></g></g></svg>