<svg clip-rule="evenodd" fill-rule="evenodd" height="512" stroke-linejoin="round" stroke-miterlimit="2" viewBox="0 0 100 100" width="512" xmlns="http://www.w3.org/2000/svg"><g transform="translate(-324 -216)"><g id="Icon"><path d="m350.09 255.967h-2.092c-3.712 0-7.273 1.475-9.898 4.1s-4.1 6.186-4.1 9.898v.004c0 3.713 1.475 7.273 4.1 9.898 2.625 2.626 6.186 4.1 9.898 4.1h48.004c9.94 0 17.998-8.058 17.998-17.998 0-.001 0-.002 0-.004 0-8.957-6.544-16.385-15.111-17.767-2.127-11.483-12.203-20.192-24.298-20.192-13.64 0-24.713 11.073-24.713 24.713 0 1.101.072 2.185.212 3.248z" fill="#d9e2e9"/><circle cx="346" cy="290" fill="#afc3d1" r="2"/><g transform="translate(6.014 8.082)"><circle cx="346" cy="290" fill="#afc3d1" r="2"/></g><g transform="translate(14)"><circle cx="346" cy="290" fill="#afc3d1" r="2"/></g><g transform="translate(20 8.082)"><circle cx="346" cy="290" fill="#afc3d1" r="2"/></g><g transform="translate(41.986)"><circle cx="346" cy="290" fill="#afc3d1" r="2"/></g><g transform="translate(49.986 8.082)"><circle cx="346" cy="290" fill="#afc3d1" r="2"/></g><g transform="translate(27.963)"><circle cx="346" cy="290" fill="#afc3d1" r="2"/></g><g transform="translate(36 8.082)"><circle cx="346" cy="290" fill="#afc3d1" r="2"/></g><g transform="translate(56)"><circle cx="346" cy="290" fill="#afc3d1" r="2"/></g></g></g></svg>