<svg clip-rule="evenodd" fill-rule="evenodd" height="512" stroke-linejoin="round" stroke-miterlimit="2" viewBox="0 0 100 100" width="512" xmlns="http://www.w3.org/2000/svg"><g transform="translate(-324 -540)"><g id="Icon"><path d="m350.09 579.967h-2.092c-3.712 0-7.273 1.475-9.898 4.1s-4.1 6.186-4.1 9.898v.004c0 3.713 1.475 7.273 4.1 9.898 2.625 2.626 6.186 4.1 9.898 4.1h48.004c9.94 0 17.998-8.058 17.998-17.998 0-.001 0-.002 0-.004 0-8.957-6.544-16.385-15.111-17.767-2.127-11.483-12.203-20.192-24.298-20.192-13.64 0-24.713 11.073-24.713 24.713 0 1.101.072 2.185.212 3.248z" fill="#afc3d1"/><g transform="translate(256 425.967)"><path d="m90.336 186.891-8 12c-.612.918-.364 2.161.555 2.773.918.612 2.161.364 2.773-.555l8-12c.612-.918.364-2.161-.555-2.773-.918-.612-2.161-.364-2.773.555z" fill="#69d7f7"/></g><g transform="matrix(.498 0 0 .498 310.128 526.416)"><path d="m96.693 173.717-7.982 11.973c-1.23 1.845-.731 4.342 1.114 5.572s4.342.731 5.572-1.114l7.982-11.973c1.23-1.845.731-4.342-1.114-5.572s-4.342-.731-5.572 1.114z" fill="#69d7f7"/></g><g transform="translate(282 425.994)"><path d="m90.336 186.891-8 12c-.612.918-.364 2.161.555 2.773.918.612 2.161.364 2.773-.555l8-12c.612-.918.364-2.161-.555-2.773-.918-.612-2.161-.364-2.773.555z" fill="#69d7f7"/></g><g transform="translate(308.017 425.967)"><path d="m90.336 186.891-4.022 6.032c-.409.614-.447 1.403-.099 2.053.348.651 1.026 1.057 1.763 1.057h.274s-1.913 2.853-1.913 2.853c-.615.917-.369 2.161.547 2.775.917.615 2.161.369 2.775-.547l4-5.968c.411-.613.451-1.403.104-2.055-.348-.651-1.027-1.058-1.765-1.058h-.285s1.949-2.924 1.949-2.924c.612-.918.364-2.161-.555-2.773-.918-.612-2.161-.364-2.773.555z" fill="#fee900"/></g><g transform="translate(296.005 425.967)"><path d="m90.336 186.891-4.022 6.032c-.409.614-.447 1.403-.099 2.053.348.651 1.026 1.057 1.763 1.057h.274s-1.913 2.853-1.913 2.853c-.615.917-.369 2.161.547 2.775.917.615 2.161.369 2.775-.547l4-5.968c.411-.613.451-1.403.104-2.055-.348-.651-1.027-1.058-1.765-1.058h-.285s1.949-2.924 1.949-2.924c.612-.918.364-2.161-.555-2.773-.918-.612-2.161-.364-2.773.555z" fill="#fee900"/></g></g></g></svg>