<svg clip-rule="evenodd" fill-rule="evenodd" height="512" stroke-linejoin="round" stroke-miterlimit="2" viewBox="0 0 100 100" width="512" xmlns="http://www.w3.org/2000/svg"><g transform="translate(-324)"><g id="Icon"><circle cx="356" cy="44" fill="#fee900" r="17"/><g transform="matrix(.903 -.391 .391 .903 117.049 106.39)"><path d="m250.032 16v-4c0-1.122-.91-2.032-2.032-2.032s-2.032.91-2.032 2.032v4c0 1.122.91 2.032 2.032 2.032s2.032-.91 2.032-2.032z" fill="#fee900"/></g><g transform="matrix(.903 -.391 .391 .903 135.986 150.159)"><path d="m250.032 16v-4c0-1.122-.91-2.032-2.032-2.032s-2.032.91-2.032 2.032v4c0 1.122.91 2.032 2.032 2.032s2.032-.91 2.032-2.032z" fill="#fee900"/></g><g transform="matrix(.391 .903 -.903 .391 293.61 -194.951)"><path d="m250.032 16v-4c0-1.122-.91-2.032-2.032-2.032s-2.032.91-2.032 2.032v4c0 1.122.91 2.032 2.032 2.032s2.032-.91 2.032-2.032z" fill="#fee900"/></g><g transform="matrix(.391 .903 -.903 .391 249.841 -176.014)"><path d="m250.032 16v-4c0-1.122-.91-2.032-2.032-2.032s-2.032.91-2.032 2.032v4c0 1.122.91 2.032 2.032 2.032s2.032-.91 2.032-2.032z" fill="#fee900"/></g><g transform="matrix(.362 -.915 .915 .362 231.153 257.081)"><path d="m250.032 16v-4c0-1.122-.91-2.032-2.032-2.032s-2.032.91-2.032 2.032v4c0 1.122.91 2.032 2.032 2.032s2.032-.91 2.032-2.032z" fill="#fee900"/></g><g transform="matrix(.362 -.915 .915 .362 275.492 274.64)"><path d="m250.032 16v-4c0-1.122-.91-2.032-2.032-2.032s-2.032.91-2.032 2.032v4c0 1.122.91 2.032 2.032 2.032s2.032-.91 2.032-2.032z" fill="#fee900"/></g><g transform="matrix(.915 .362 -.362 .915 142.919 -80.847)"><path d="m250.032 16v-4c0-1.122-.91-2.032-2.032-2.032s-2.032.91-2.032 2.032v4c0 1.122.91 2.032 2.032 2.032s2.032-.91 2.032-2.032z" fill="#fee900"/></g><g transform="matrix(.915 .362 -.362 .915 125.36 -36.508)"><path d="m250.032 16v-4c0-1.122-.91-2.032-2.032-2.032s-2.032.91-2.032 2.032v4c0 1.122.91 2.032 2.032 2.032s2.032-.91 2.032-2.032z" fill="#fee900"/></g><path d="m354.02 54h-2.022c-3.712 0-7.273 1.475-9.898 4.1s-4.1 6.185-4.1 9.898v.004c0 3.713 1.475 7.273 4.1 9.898s6.186 4.1 9.898 4.1h48.004c9.94 0 17.998-8.058 17.998-17.998 0-.001 0-.003 0-.004 0-8.9-6.46-16.29-14.948-17.74-2.944-10.519-12.609-18.245-24.065-18.245-13.79 0-24.987 11.196-24.987 24.987 0 .335.007.668.02 1z" fill="#d9e2e9"/></g></g></svg>