<svg clip-rule="evenodd" fill-rule="evenodd" height="512" stroke-linejoin="round" stroke-miterlimit="2" viewBox="0 0 100 100" width="512" xmlns="http://www.w3.org/2000/svg"><g transform="translate(-216 -324)"><g id="Icon"><path d="m309.608 363.335c.103-.555-.032-1.127-.373-1.576-.34-.449-.854-.733-1.416-.784-9.728-.866-17.364-9.051-17.364-19.004 0-1.202.111-2.378.324-3.52.104-.554-.032-1.126-.372-1.575-.341-.449-.855-.734-1.416-.784-.684-.061-1.374-.092-2.071-.092-12.739 0-23.081 10.342-23.081 23.08 0 12.739 10.342 23.081 23.081 23.081 11.285 0 20.689-8.118 22.688-18.826z" fill="#cadcfc"/><path d="m238.452 378.005c-4.368.099-8.537 1.877-11.633 4.974-3.189 3.188-4.98 7.512-4.98 12.021 0 4.509 1.791 8.833 4.98 12.021 3.188 3.188 7.512 4.979 12.02 4.979h49c12.151 0 22-9.85 22-22 0-10.574-7.461-19.405-17.406-21.519-3.106-11.782-13.841-20.481-26.594-20.481-15.177 0-27.5 12.322-27.5 27.5 0 .844.039 1.68.113 2.505z" fill="#afc3d1"/></g></g></svg>