<svg clip-rule="evenodd" fill-rule="evenodd" height="512" stroke-linejoin="round" stroke-miterlimit="2" viewBox="0 0 100 100" width="512" xmlns="http://www.w3.org/2000/svg"><g transform="translate(-324 -432)"><g id="Icon"><path d="m415.229 502.941c.332-.612.322-1.353-.027-1.956-.349-.602-.985-.98-1.681-.998-21.613-.536-38.992-18.248-38.992-39.987 0-6.887 1.744-13.37 4.816-19.033.332-.612.322-1.352-.026-1.955-.349-.603-.986-.981-1.681-.998-.367-.009-.737-.014-1.109-.014-24.284 0-44 19.716-44 44s19.716 44 44 44c16.707 0 31.252-9.331 38.7-23.059z" fill="#cadcfc"/><path d="m405.672 498.101c-1.815-9.174-9.913-16.101-19.617-16.101-11.039 0-20 8.962-20 20h-.002c-3.182 0-6.234 1.264-8.484 3.514s-3.514 5.302-3.514 8.484v.004c0 3.182 1.264 6.234 3.514 8.484s5.302 3.514 8.484 3.514h37.949c3.712 0 7.273-1.475 9.898-4.1s4.1-6.185 4.1-9.898v-.004c0-3.713-1.475-7.273-4.1-9.898-2.228-2.228-5.13-3.628-8.228-3.999z" fill="#d9e2e9"/></g></g></svg>