<svg clip-rule="evenodd" fill-rule="evenodd" height="512" stroke-linejoin="round" stroke-miterlimit="2" viewBox="0 0 100 100" width="512" xmlns="http://www.w3.org/2000/svg"><g transform="translate(-432 -108)"><g id="Icon"><circle cx="476.027" cy="158" fill="#fee900" r="38.027"/><path d="m513.672 162.101c-1.815-9.174-9.913-16.101-19.617-16.101-11.039 0-20 8.962-20 20h-.002c-3.182 0-6.234 1.264-8.484 3.514s-3.514 5.302-3.514 8.484v.004c0 3.182 1.264 6.234 3.514 8.484s5.302 3.514 8.484 3.514h37.949c3.712 0 7.273-1.475 9.898-4.1s4.1-6.185 4.1-9.898v-.004c0-3.713-1.475-7.273-4.1-9.898-2.228-2.228-5.13-3.628-8.228-3.999z" fill="#d9e2e9"/></g></g></svg>