<svg clip-rule="evenodd" fill-rule="evenodd" height="512" stroke-linejoin="round" stroke-miterlimit="2" viewBox="0 0 100 100" width="512" xmlns="http://www.w3.org/2000/svg"><g transform="translate(0 -540)"><g id="Icon"><path d="m26.09 579.964h-2.092c-3.712 0-7.273 1.475-9.898 4.1s-4.1 6.186-4.1 9.898v.004c0 3.713 1.475 7.273 4.1 9.898 2.625 2.626 6.186 4.1 9.898 4.1h48.004c9.94 0 17.998-8.058 17.998-17.998 0-.001 0-.002 0-.004 0-8.957-6.544-16.385-15.111-17.767-2.127-11.483-12.203-20.192-24.298-20.192-13.64 0-24.713 11.073-24.713 24.713 0 1.101.072 2.185.212 3.248z" fill="#afc3d1"/><path d="m47.989 616.5-2.196-1.268c-.956-.552-2.18-.224-2.732.732s-.224 2.181.732 2.732l2.196 1.268-2.196 1.268c-.956.552-1.284 1.776-.732 2.732s1.776 1.284 2.732.732l2.196-1.268v2.536c0 1.104.896 2 2 2s2-.896 2-2v-2.536l2.196 1.268c.956.552 2.18.224 2.732-.732s.224-2.18-.732-2.732l-2.196-1.268 2.196-1.268c.956-.551 1.284-1.776.732-2.732s-1.776-1.284-2.732-.732l-2.196 1.268v-2.536c0-1.103-.896-2-2-2s-2 .897-2 2zm30.011 0-2.196-1.268c-.956-.552-2.18-.224-2.732.732s-.224 2.181.732 2.732l2.196 1.268-2.196 1.268c-.956.552-1.284 1.776-.732 2.732s1.776 1.284 2.732.732l2.196-1.268v2.536c0 1.104.896 2 2 2s2-.896 2-2v-2.536l2.196 1.268c.956.552 2.18.224 2.732-.732s.224-2.18-.732-2.732l-2.196-1.268 2.196-1.268c.956-.551 1.284-1.776.732-2.732s-1.776-1.284-2.732-.732l-2.196 1.268v-2.536c0-1.103-.896-2-2-2s-2 .897-2 2zm-60 0-2.196-1.268c-.956-.552-2.18-.224-2.732.732s-.224 2.181.732 2.732l2.196 1.268-2.196 1.268c-.956.552-1.284 1.776-.732 2.732s1.776 1.284 2.732.732l2.196-1.268v2.536c0 1.104.896 2 2 2s2-.896 2-2v-2.536l2.196 1.268c.956.552 2.18.224 2.732-.732s.224-2.18-.732-2.732l-2.196-1.268 2.196-1.268c.956-.551 1.284-1.776.732-2.732s-1.776-1.284-2.732-.732l-2.196 1.268v-2.536c0-1.103-.896-2-2-2s-2 .897-2 2z" fill="#cadcfc"/></g></g></svg>