<svg clip-rule="evenodd" fill-rule="evenodd" height="512" stroke-linejoin="round" stroke-miterlimit="2" viewBox="0 0 100 100" width="512" xmlns="http://www.w3.org/2000/svg"><g transform="translate(-432 -432)"><g id="Icon"><path d="m449.998 483.993h37.949c3.713 0 7.273-1.475 9.898-4.1 2.626-2.625 4.1-6.185 4.1-9.898v-.004c0-3.712-1.474-7.273-4.1-9.898-2.228-2.228-5.13-3.627-8.227-3.999-1.816-9.174-9.914-16.101-19.618-16.101-11.038 0-20 8.962-20 20h-.002c-3.182 0-6.234 1.264-8.484 3.514s-3.514 5.302-3.514 8.484v.004c0 3.182 1.264 6.234 3.514 8.484s5.302 3.514 8.484 3.514z" fill="#afc3d1"/><g transform="translate(368.03 321.974)"><path d="m90.336 186.891-4.022 6.032c-.409.614-.447 1.403-.099 2.053.348.651 1.026 1.057 1.763 1.057h.274s-1.913 2.853-1.913 2.853c-.615.917-.369 2.161.547 2.775.917.615 2.161.369 2.775-.547l4-5.968c.411-.613.451-1.403.104-2.055-.348-.651-1.027-1.058-1.765-1.058h-.285s1.949-2.924 1.949-2.924c.612-.918.364-2.161-.555-2.773-.918-.612-2.161-.364-2.773.555z" fill="#fee900"/></g><g transform="translate(392 322.007)"><path d="m90.336 186.891-4.022 6.032c-.409.614-.447 1.403-.099 2.053.348.651 1.026 1.057 1.763 1.057h.274s-1.913 2.853-1.913 2.853c-.615.917-.369 2.161.547 2.775.917.615 2.161.369 2.775-.547l4-5.968c.411-.613.451-1.403.104-2.055-.348-.651-1.027-1.058-1.765-1.058h-.285s1.949-2.924 1.949-2.924c.612-.918.364-2.161-.555-2.773-.918-.612-2.161-.364-2.773.555z" fill="#fee900"/></g><g transform="translate(416 322.007)"><path d="m90.336 186.891-4.022 6.032c-.409.614-.447 1.403-.099 2.053.348.651 1.026 1.057 1.763 1.057h.274s-1.913 2.853-1.913 2.853c-.615.917-.369 2.161.547 2.775.917.615 2.161.369 2.775-.547l4-5.968c.411-.613.451-1.403.104-2.055-.348-.651-1.027-1.058-1.765-1.058h-.285s1.949-2.924 1.949-2.924c.612-.918.364-2.161-.555-2.773-.918-.612-2.161-.364-2.773.555z" fill="#fee900"/></g><path d="m462.166 475.993h-2.168c-3.712 0-7.273 1.475-9.898 4.1s-4.1 6.186-4.1 9.898v.004c0 3.713 1.475 7.273 4.1 9.898s6.186 4.1 9.898 4.1h48.004c9.94 0 17.998-8.058 17.998-17.998 0-.001 0-.002 0-.004 0-8.733-6.221-16.013-14.473-17.652-2.188-11.563-12.355-20.321-24.551-20.321-13.791 0-24.987 11.197-24.987 24.988 0 1.011.06 2.008.177 2.987z" fill="#d9e2e9"/></g></g></svg>