<svg clip-rule="evenodd" fill-rule="evenodd" height="512" stroke-linejoin="round" stroke-miterlimit="2" viewBox="0 0 100 100" width="512" xmlns="http://www.w3.org/2000/svg"><g transform="translate(0 -432)"><g id="Icon"><path d="m22.613 480.005c-4.368.099-8.537 1.877-11.634 4.974-3.188 3.188-4.979 7.512-4.979 12.021 0 4.509 1.791 8.833 4.979 12.021s7.512 4.979 12.021 4.979h49c12.15 0 22-9.85 22-22 0-10.574-7.461-19.405-17.406-21.519-3.106-11.782-13.842-20.481-26.594-20.481-15.178 0-27.5 12.322-27.5 27.5 0 .844.038 1.68.113 2.505z" fill="#d9e2e9"/><g transform="matrix(.778 0 0 1 12.444 0)"><path d="m48.286 484h34.737c6.378 0 11.548-4.021 11.548-8.982v-.036c0-4.961-5.17-8.982-11.548-8.982-1.419 0-2.572.896-2.572 2s1.153 2 2.572 2c3.538 0 6.406 2.231 6.406 4.982v.036c0 2.751-2.868 4.982-6.406 4.982h-34.737c-1.419 0-2.572.896-2.572 2s1.153 2 2.572 2z" fill="#69d7f7"/></g><g transform="matrix(.583 0 0 1 17.333 0)"><path d="m83.429 507c0-1.857-1.265-3.637-3.515-4.95-2.251-1.313-5.303-2.05-8.485-2.05-6.891 0-15.429 0-15.429 0-1.892 0-3.429.896-3.429 2s1.537 2 3.429 2h15.429c1.364 0 2.672.316 3.636.879.965.562 1.506 1.325 1.506 2.121v.01c0 .786-.541 1.549-1.506 2.111-.964.563-2.272.879-3.636.879-1.893 0-3.429.896-3.429 2s1.536 2 3.429 2c3.182 0 6.234-.737 8.485-2.05 2.25-1.313 3.515-3.093 3.515-4.95z" fill="#69d7f7"/></g><g transform="matrix(1.667 0 0 1 -61.333 .498)"><path d="m92 499.502h-12c-.662 0-1.2.896-1.2 2s.538 2 1.2 2h12c.662 0 1.2-.896 1.2-2s-.538-2-1.2-2z" fill="#69d7f7"/></g><g transform="matrix(.778 0 0 1 20.444 10)"><path d="m66.286 484h16.737c6.378 0 11.548-4.021 11.548-8.982v-.036c0-2.47-1.282-4.708-3.358-6.332-1-.783-2.63-.787-3.636-.009-1.007.779-1.012 2.046-.011 2.829 1.151.901 1.863 2.142 1.863 3.512v.036c0 2.751-2.868 4.982-6.406 4.982h-16.737c-1.419 0-2.572.896-2.572 2s1.153 2 2.572 2z" fill="#69d7f7"/></g><path d="m64 490h-14c-1.104 0-2 .896-2 2s.896 2 2 2h14c1.104 0 2-.896 2-2s-.896-2-2-2z" fill="#69d7f7"/></g></g></svg>